<?xml version="1.0" encoding="UTF-8"?><svg id="Layer_2" xmlns="http://www.w3.org/2000/svg" viewBox="0 0 112.78 113.04"><defs><style>.cls-1{fill:#231f20;stroke-width:0px;}</style></defs><g id="Layer_2-2"><path class="cls-1" d="m112.54,113.04c-3.57-2.77-7.25-5.36-11.4-7.21-5.89-2.62-11.29-1.71-16.23,2.32-.43.35-.85.7-1.19.99-1.53-2.22-2.88-4.5-4.53-6.53-3.86-4.76-8.82-6.55-14.84-4.89-.66.18-.98.06-1.37-.49-1.64-2.31-3.27-4.64-5.02-6.86-2.04-2.6-4.63-4.39-8.01-4.81-2.46-.31-4.66.42-6.7,1.71-.27.17-.48.62-.52.97-.14,1.15-.12,2.32-.31,3.46-.06.37-.59.92-.91.92-.36,0-.96-.46-1.05-.82-.46-1.91-.42-1.92-2.24-1.34-.19.06-.38.1-.75.19.12-.6.21-1.12.32-1.65.11-.54.21-1.09.27-1.39-2.79-1.64-5.58-3.02-8.07-4.83-2.64-1.92-2.87-5.44-4.65-8.11-.89.39-1.78.78-2.77,1.22.1-1.18.18-2.21.27-3.32-.69-.13-1.36-.13-1.91-.39-.41-.2-.67-.72-1-1.1.4-.3.81-.87,1.19-.85,1.48.08,3.25.43,4.16-.77,1.63-2.15,2.59-4.68,1.93-7.53-.46-1.99-1.6-3.62-3.04-4.93-2.6-2.36-5.35-4.54-8.08-6.75-.59-.48-.79-.84-.81-1.7-.06-2.7.74-5.41-.18-8.09-1.32-3.87-3.97-6.6-7.32-8.73-1.31-.83-2.71-1.53-4.1-2.31.78-1.09,1.62-2.15,2.32-3.29,2.86-4.62,3.37-9.47.95-14.38-1.39-2.82-3.09-5.49-4.75-8.17-.38-.61-1.17-.96-1.7-1.5C.22,1.82-.03,1.36,0,1,.02.73.46.28.75.25c2.17-.18,4.31-.58,6.51.25,1.34.5,2.9.42,4.37.55,4.54.4,9.07.79,13.61,1.15,5.1.41,10.2.81,15.3,1.18,1.15.08,1.8.31,2,1.73,1.44,10.06,6.23,18.52,12.76,26.11.29.33.52.72.87,1.21,1.14-1.02,2.08-1.8,2.95-2.65,1.91-1.88,3.75-3.82,5.67-5.69,2.2-2.14,4.7-3.84,7.59-4.92,3.32-1.23,6.64-2.46,9.91-3.67.19.46.28.78.44,1.06.43.77.17,1.25-.56,1.65-.34.18-.7.51-.83.85-1.07,2.79-2.11,5.59-3.09,8.42-.13.37.02,1.02.29,1.3,1.76,1.85,3.62,3.62,5.39,5.47.47.49.86.51,1.46.29,3.33-1.24,6.67-2.44,10.01-3.65.29-.1.59-.18,1-.3-1.27,11.04-7.96,18.55-15.94,25.59,1.5,1.36,2.92,2.8,4.5,4.03,6.71,5.25,14.45,8.26,22.69,10.06,1.04.23,1.51.53,1.6,1.72.48,6.54,1.06,13.06,1.62,19.59.31,3.62.24,7.33,1.07,10.83.66,2.77.21,5.47.59,8.17.05.34.16.67.24,1-.08.48-.16.96-.24,1.44Zm-2.28-4.69c.03-.38.09-.65.06-.91-.32-3.61-.65-7.23-.98-10.84-.69-7.56-1.4-15.12-2.04-22.68-.08-.99-.36-1.44-1.37-1.65-9.35-1.96-17.57-6.23-24.84-12.37-1.72-1.45-3.53-1.84-5.67-1.21-2.36.7-4.76.88-7.23.62-8.27-.87-15.07-8.22-14.92-16.51.04-2.39.76-4.79,1.27-7.16.2-.94.16-1.62-.5-2.39-3.66-4.31-6.94-8.88-9.31-14.05-1.91-4.16-4.26-8.18-4.23-12.97,0-.81-.6-.68-1.11-.72-4.58-.36-9.17-.68-13.74-1.09-6.44-.56-12.88-1.19-19.32-1.78-.5-.05-1,0-1.64,0,.2.44.35.8.53,1.15,1.16,2.28,2.39,4.52,3.48,6.83,2.37,5.06,2.64,10.14-.04,15.21-.43.81-.68,1.72-1.06,2.69.79,0,1.35.01,1.91,0,4.63-.1,9.27-.21,13.9-.32.71-.02,1.47.02,1.48.96.02.99-.73,1.06-1.51,1.08-1.96.04-3.91.13-5.87.19-2.37.08-4.74.16-7.47.25,2.84,2.31,5.22,4.53,6.58,7.62,1.4,3.16.71,6.51.88,9.81,4.17,0,8.24,0,12.3,0,1.71,0,3.43,0,5.14.13.34.03.9.64.89.97-.01.33-.57.7-.95.95-.2.13-.55.03-.83.03-4.08,0-8.16,0-12.24,0-.37,0-.75.04-1.12.06-.06.1-.12.21-.18.31.26.18.55.33.78.54,1.56,1.43,3.27,2.73,4.63,4.33,3.62,4.25,5.04,8.91,2.19,14.24-.7,1.32-.97,2.79.02,4.2.23.34.27.83.33,1.26.57,4.48,3.17,7.24,7.28,8.82,3.27,1.26,6.52,1.06,9.73-.03,4.23-1.44,7.94-.64,11.26,2.27.72.63,1.41,1.31,2.13,1.94,1.09.96,2.2,1.89,3.5,3.02,0-.79-.02-1.26,0-1.73.15-3.75.31-7.5.46-11.25.03-.78.18-1.54,1.16-1.45,1.08.1.94.93.88,1.73-.15,1.83-.3,3.66-.33,5.5-.05,3.32-.01,6.64-.01,9.96v1.49c7.27-1.54,12.67,1.53,17.46,6.52.28-1.78.34-3.43.43-5.09.15-2.71.27-5.42.51-8.12.03-.38.68-.71,1.04-1.06.32.39.72.74.93,1.18.14.29-.01.7-.02,1.06-.1,4.95-.2,9.9-.3,14.86,0,.18.06.37.12.67.35-.2.6-.38.87-.51,1.58-.75,3.11-1.68,4.76-2.19,4.46-1.38,8.71-.34,12.74,1.67,2.39,1.19,4.68,2.56,7.17,3.94Zm-31.24-88.95c-.56.04-.77.02-.95.07-5.24,1.46-10.11,3.53-13.5,8.09-.43.57-.95,1.08-1.44,1.6-1.66,1.78-3.45,3.47-4.96,5.37-3.8,4.78-3.85,11.17-.33,16.16,6,8.51,15.49,7.59,20.44,4.21,5.85-3.99,10.22-9.38,13.44-15.67.75-1.46,1.17-3.09,1.74-4.64l-.33-.3c-.56.09-1.15.09-1.68.28-2.07.74-4.11,1.55-6.17,2.29-.43.15-.95.27-1.37.16-1.74-.48-3.18-1.46-4.38-2.8-1.15-1.28-2.33-2.53-3.41-3.87-.34-.42-.63-1.13-.51-1.6.33-1.38.85-2.72,1.35-4.05.63-1.7,1.32-3.39,2.06-5.29Z"/></g></svg>