<?xml version="1.0" encoding="UTF-8"?><svg id="Layer_2" xmlns="http://www.w3.org/2000/svg" viewBox="0 0 136.12 135.98"><defs><style>.cls-1{fill:#231f20;stroke:#231f20;stroke-miterlimit:10;}</style></defs><g id="Layer_3"><path class="cls-1" d="m68.1,135.48c-37.05.01-67.69-30.65-67.6-67.64C.59,31.19,31.32.55,68.02.5c36.83-.05,67.72,30.91,67.6,67.76-.12,36.78-30.69,67.2-67.52,67.22Zm50.92-38.72c-.11-.37-.22-.74-.33-1.11,2.26-1.19,4.51-2.37,7.93-4.17h-5.12c2.54-1.86,4.42-3.24,6.29-4.62-.18-.29-.37-.57-.55-.86-2,.59-4,1.19-5.99,1.78l-.35-.97c2.76-1.89,5.52-3.78,8.28-5.67-.22-.34-.43-.68-.65-1.01l-5.26,1.59c.5-1.42,1.21-2.56,2.16-2.84,4.52-1.31,4.66-4.87,4.86-8.58,1.39-26.6-15.85-52.17-41.33-61-7.64-2.65-15.51-4.1-24.59-2.9,1.84,3.55,3.11,6.78,5.07,9.52,1.85,2.58,1.81,4.61.15,7.14-1.25,1.89-3.12,4.2-2.88,6.09.75,6.04,2.36,11.97,3.71,18.3,7.91-3.4,16.04-6.97,24.26-10.34,1.31-.54,2.99-.17,4.51-.21-.06,1.51.3,3.2-.24,4.51-3.83,9.31-8.33,18.37-11.67,27.84-3.03,8.61-7.42,14.84-16.73,17.56-6.15,1.8-7.93,6.69-6.33,12.93.57,2.21,1.35,4.37,2.08,6.73-1.79,1.09-3.54,2.17-4.89,2.99,1.98,4.74,4.65,8.96,5.39,13.49.87,5.26,2.4,7.77,7.55,7.13,21.67-2.69,37.98-13.49,48.62-32.65.1-.18-.11-.55-.18-.82-1.27.06-2.52.11-3.77.17Zm-74.97,28.86c3.23-3.9,6.1-7.45,4.13-12.71-.27-.73,1.08-2.48,2.08-3.16,1.47-1,3.27-1.59,5-2.12,4.83-1.47,7.24-3.87,4.56-9.2-.92-1.83-.87-4.14-1.34-6.64-5.18,2.21-10.27,4.53-15.48,6.53-1.84.7-3.98.62-5.98.89.2-1.97-.05-4.13.67-5.88,4.29-10.38,9.16-20.53,13.12-31.03,2.17-5.73,5.27-9.63,11.2-11.36,1.39-.4,3.54-1.92,3.5-2.84-.26-5.46-.14-11.22-1.98-16.21-1.3-3.53-1.26-5.63.75-8.42,1.43-1.99,3.62-3.94,1.51-7.02-2.12-3.09-3.75-6.5-5.67-9.9-23.61,1.95-46.8,21.6-51.42,43.87,1.75-.23,3.53-.47,5.32-.71.1.28.21.56.31.85l-8.25,6.65c.31.32.61.64.92.95,2.24-.89,4.48-1.77,6.72-2.66.17.36.34.72.51,1.09-2.9,2.38-5.81,4.75-8.71,7.13.29.36.59.73.88,1.09,1.62-.37,3.25-.74,5.19-1.18-1.05,3.79-7.33,3.87-5.17,9.05,1.42-.25,2.78-.48,4.44-.77-.44,3.37-7.36,3.87-3.27,8.4,1.38-.37,2.72-.73,3.82-1.03-1.04,2.42-3.31,5.07-2.76,6.87,5.65,18.63,17.7,31.67,35.43,39.49Zm30.33-46.18c-6.08-6.09-11.77-11.78-17.7-17.72-4.12,9.65-8.37,19.62-13.21,30.97,11.47-4.91,21.41-9.17,30.91-13.25Zm-12.5-22.83c5.9,5.93,11.65,11.7,17.59,17.68,4.13-9.65,8.4-19.65,13.21-30.9-11.41,4.9-21.44,9.21-30.8,13.23Zm2.03,73.96c-1.89-6.77-3.65-13.11-5.37-19.29-4.22.19-6.09,1.15-5.39,4.86.54,2.91.54,5.83-2.83,7.54-.76.38-.94,1.91-1.78,3.8,5.42,1.09,10.32,2.07,15.37,3.09Z"/></g></svg>