<?xml version="1.0" encoding="UTF-8"?><svg id="Layer_2" xmlns="http://www.w3.org/2000/svg" viewBox="0 0 1561.83 888.64"><defs><style>.cls-1{fill:#231f20;stroke-width:0px;}</style></defs><g id="Layer_4"><path class="cls-1" d="m375.57,888.64c-3.47,0-6.96-.13-10.41-.56-38.21-4.72-73.45-22.34-104.74-52.37-41.58-39.91-76.07-83.46-102.51-129.44-4.44-7.72-7.88-17.01-10.84-29.24-1.32-5.48-.82-11-.33-16.34.15-1.61.29-3.13.37-4.62,1.2-20.54,2.5-41.42,3.76-61.62l.88-14.12c1.01-16.21,2.02-32.42,3.04-48.63l1.26-20.11c.39-6.24.78-12.49,1.17-18.73,1.15-18.52,2.34-37.67,3.61-56.5.22-3.31-.21-4.8-1.91-6.66-17.71-19.31-38.27-35.45-58.14-51.05-.71-.56-1.42-1.11-2.13-1.66-1.89-1.46-3.83-2.97-5.72-4.57-16.95,15.73-37.83,37.18-51.29,64.67-15.43,31.5-16.59,60.95-3.53,90.02.34.77.49,1.43.64,2.13.07.33.17.78.32,1.42l5.37,22.43-14.91-17.6c-9.81-11.57-17.05-24.03-22.14-38.08-10.3-28.45-9.8-57.95,1.5-87.69,10.39-27.33,24.15-53.64,40.89-78.19,22.94-33.64,54.54-58,93.93-72.41,9.92-3.63,19.96-7.53,29.67-11.3,22.79-8.85,46.35-18,70.56-24.54.77-.21,2.19-1.18,3.28-2.58,27.86-35.45,56.67-72.1,81.66-110.73,2.39-3.69,5.08-7.56,8.55-10.81,1.39-1.31,1.97-1.85.47-5.27-8.06-18.39-21.52-32.78-41.15-43.98-1.26-.72-2.57-1.41-4.09-2.22-.8-.42-1.64-.88-2.57-1.37l-11.11-5.99,11.95-4.06c.44-.15.83-.3,1.17-.44.97-.38,2.08-.82,3.45-.96,36.92-3.87,68.31,13.03,86.13,46.35,18.45,34.5,19.14,71.79,2.03,110.83-8.04,18.34-17.52,36.69-28.19,54.53-8.27,13.83-8.3,26.18-.09,41.28,6.07,11.17,13.77,16.77,25.75,18.73,18.3,3,33.71,5.11,49.33,5.66.15-.07.33-.19.45-.28,11.31-19.18,17.03-37.8,17.5-56.91.1-4-.25-8.09-.63-12.43-.35-4.06-.71-8.27-.72-12.68l-.04-21.04,10.33,18.32c1.35,2.39,2.78,4.81,4.17,7.16,3.11,5.26,6.32,10.7,9.01,16.42,17.44,37.17,18.76,74.55,3.94,111.09-1.36,3.36-2.02,7.22-2.72,11.31-.1.58-.2,1.16-.3,1.74,1.86-.42,3.7-1.22,4.96-2.19,2.47-1.9,4.82-3.98,7.3-6.19,3.45-3.06,7.02-6.23,11.03-8.94,5.38-3.63,12.56-8.03,20.46-9.82,8.96-2.03,22.09-1.06,33.77,15.08,5,6.91,8.27,14.48,10.64,21.79l7.58-5.39c1.27-.9,2.34-1.7,3.3-2.4,1.94-1.43,3.47-2.56,5.22-3.59,3.36-1.98,6.79-3.91,10.11-5.77,6.03-3.38,12.26-6.88,18.03-10.68,14.47-9.53,21.48-21.01,22.06-36.11l.82-21.51,9.6,19.27c13.93,27.97,20.22,58.01,19.11,91.51l17.94-15.86c-.73-.75-1.4-1.6-1.96-2.61-2.1-3.81-4.28-8.36-4.43-13.12-.21-6.34,8.81-9.62,11.05-10.1,17.19-3.63,31.16-14.4,42.73-32.92,8.09-12.95,15.56-26.68,22.79-39.95,3.12-5.73,6.34-11.65,9.58-17.45.52-.93,1.01-1.91,1.63-3.15.33-.66.68-1.36,1.08-2.14l5.85-11.41,4.23,12.11c.12.35.24.63.34.88.33.81.79,1.92.84,3.34.12,3.5.28,7.08.44,10.55.74,16.03,1.51,32.61-2.18,49.02-1.5,6.68-4.02,13.02-6.45,19.16-1.06,2.68-2.16,5.45-3.13,8.15-.26.73-.57,1.39-.84,1.97-.13.29-.31.67-.42.96.26,1.32.56,2.26.85,2.93.12-.03.22-.07.3-.1,11.48-6.5,21.29-15.68,29.95-28.05,15.52-22.18,22.93-47.91,28.13-70.15l.27-1.16c.73-3.15,1.48-6.4,2.85-9.83l8.21-20.51,2.37,21.97c.32,2.97.62,5.95.93,8.92.65,6.43,1.33,13.09,2.18,19.56,2.22,16.87,4.45,33.4,7.21,50.11.17.71,1.53,2.36,2.43,2.76,10.59,4.69,21.32,8.82,31.44,12.59,2.76-5.02,3.2-10.88,1.35-17.9-4.4-16.66-5.83-31.5-4.39-45.38.75-7.25,2.09-13.77,4.07-19.95l4.35-13.55,5.89,12.96c.33.72.66,1.43.99,2.15.74,1.62,1.49,3.23,2.19,4.86,9.22,21.33,20.9,46.09,37.58,67.99,6.44,8.46,12.45,14.75,20.83,17.96,4.15,1.59,7.1,6.47,7.88,10.46.76,3.9.72,7.73.68,11.43,0,.85-.02,1.7-.02,2.54.03,15.36.02,30.73.02,46.09v13.29c4.41-2.84,8.59-5.58,12.51-8.52,8.13-6.1,15.93-12.62,24.56-19.9.11-.13.35-.67.38-.93.19-8.66.35-17.93-.03-27.07-.31-7.49-3.59-14.34-7.07-21.59-.97-2.03-1.97-4.12-2.91-6.24l-2.55-5.73c-5.54-12.46-11.28-25.35-16.32-38.33-3.86-9.95-2.5-20.44-1.13-27.46l3.34-17.2,7.09,16.02c7.96,17.99,23.37,27.47,38.84,35.04,1.48.73,2.19.93,2.49.99.24-.18.8-.69,1.81-2.01,6.97-9.17,11.05-19.62,12.15-31.07.67-7.02,4.11-11.75,10.21-14.06,3.51-1.33,7.08-2.26,10.85-3.25,1.67-.44,3.4-.89,5.21-1.4l7.62-2.15-.65,7.89c-.09,1.16-.2,2.15-.29,3.04-.15,1.43-.26,2.47-.24,3.35.12,4.52.16,9.1.21,13.53.11,10.81.22,21.99,1.38,32.74.99,9.13,6.26,13.84,17.1,15.28,2.49.33,5.08.6,7.58.85,3.38.35,6.88.71,10.37,1.24,6.74,1.04,9.54,4.33,10.71,6.91,1.13,2.5,1.76,6.63-1.69,12.05-3,4.71-7.79,7.98-11.63,10.61-2.46,1.68-5.16,2.6-7.55,3.42-.95.32-1.84.63-2.66.96-11.53,4.63-17.18,13.3-17.27,26.48-.11,16.55-.09,32.74-.06,49.88,0,3.95.01,7.91.02,11.89,1.21-.84,2.35-1.69,3.39-2.6,5.63-4.91,11.28-10.03,16.75-14.98,1.59-1.44,3.19-2.89,4.78-4.33.03-1.87.06-3.73.09-5.6.09-5.87.19-11.93.23-17.89.01-2.13.04-4.27.06-6.4.08-7.34.16-14.92-.16-22.29-.33-7.55,2.77-12.33,9.75-15.05,15.95-6.22,30.19-12.05,43.55-17.82,5.54-2.4,11-5.61,16.29-8.76-13.64-14.64-20.43-33.67-20.18-56.58.26-24.23,6.96-48.93,20.48-75.52l9.37-18.43,1.03,20.65c2.26,45.45,14.43,80.14,38.2,108.7,14.87-9.99,26.21-20.99,34.58-33.51,3.08-4.6,5.61-9.58,8.29-14.84,1.53-3.01,3.12-6.13,4.81-9.17,0-.01.01-.02.02-.03-.18-.22-.48-.56-.96-1.05-32.83-33.41-49.73-72.64-50.22-116.6-.28-24.9,9.13-47.14,19.34-67.47,10.45-20.79,24.03-36.1,41.54-46.81,13.4-8.2,28.61-12.67,45.2-13.3,1.67-.06,3.26.09,4.66.23,1.02.1,1.89.27,2.59.41.23.04.46.09.67.13l11.23,1.97-8.53,7.56c-2.6,2.31-5.26,4.59-7.83,6.8-5.77,4.96-11.22,9.64-16.34,14.78-19.61,19.64-30.47,40.61-33.2,64.09-1.1,9.48-.74,20.15,1.08,31.71,1.8,11.47,9.25,20.91,22.13,28.06,14.61,8.12,30.19,16.02,47.61,24.17,14.63,6.84,29.62,13.62,44.11,20.17,17.18,7.77,34.94,15.8,52.29,24.02,51.85,24.56,91.16,65.57,116.85,121.88,19.06,41.79,16.88,85.85-6.48,130.97-5.87,11.34-13.24,21.73-21.56,33.17l-14.84,20.41,5-24.74c5.77-28.54,8.09-53.25,7.19-77.09-.02,0-.03,0-.05.01-4.81,1.5-9.34,2.91-13.79,4.58-31.78,11.93-62.76,29.66-100.45,57.49-9.92,7.33-19.57,15.54-28.89,23.48-2.36,2.01-4.73,4.02-7.1,6.03-.28.28-.69,1.21-.71,1.64-.08,18.3-.09,36.91-.1,54.92,0,16.53-.02,33.63-.08,50.45-.01,3.07,1.23,5.44,4.03,7.67,11.16,8.9,23.15,18.17,37.73,29.14,8.9,6.7,18.06,13.41,26.91,19.89,3.96,2.9,7.93,5.81,11.89,8.72l3.3,2.43-3.05,8.52-3.43.37c-1.76.19-3.54.34-5.31.49-3.86.33-7.5.63-11,1.35-6.51,1.34-12.46,3.06-17.68,5.08-5.08,1.97-9.21,5.54-12.63,10.89-29.89,46.85-68.77,82.42-115.56,105.72-25.19,12.54-51.66,20.92-78.69,24.89-1.12.16-2.28.27-3.56.32-.8.03-1.61.03-2.84.02-.59,0-1.29,0-2.15,0h-16.55l13.25-9.91c1.43-1.07,2.76-2.06,4.02-3,2.52-1.87,4.75-3.54,6.97-5.23,35.06-26.78,59.58-49.86,79.5-74.85,1.26-1.59,1.35-2.12.64-4.1-8-22.3-21.03-43.78-39.84-65.66-7.31-8.51-14.82-16.6-22.77-25.17-2.23-2.4-4.46-4.81-6.7-7.25-20.36,20.9-44.29,36.12-72.96,46.44l-19.01,6.84,12.92-15.54c2.17-2.62,4.28-5.12,6.33-7.55,4.28-5.09,8.33-9.9,12.2-14.78,12.29-15.49,25.95-34.23,34.15-55.71,2.97-7.78,5.69-17,3.33-26.39-.11-.42-.27-.92-.44-1.45-1.44-4.38-2.34-5.5-2.63-5.77-.38,0-1.75.12-5.6,1.98l-3.85,1.87c-7.53,3.65-15.07,7.3-22.62,10.92-14.34,6.86-28.27,4.07-40.3-8.07-15.14-15.29-23.12-34.75-24.38-59.49-.11-2.25.02-4.48.16-6.65.21-3.35.42-6.81-.52-8.46-.75-1.32-3.89-2.78-6.42-3.95-2.09-.97-4.26-1.98-6.27-3.29-4.1-2.67-8.09-5.43-12.23-8.32-.01,6.25-.05,12.52-.09,18.62-.11,17.4-.22,35.39.22,53.02.88,35.4-14.36,64.31-45.3,85.91-10.89,7.6-22.45,13.47-35.34,17.94l-19.3,6.69,13.33-15.47c2.43-2.83,4.9-5.58,7.28-8.25,5.45-6.1,10.6-11.86,15.13-18.07,4.73-6.47,9.24-14.32,13.8-24,3.06-6.51,2.11-12.42-2.9-18.09-3.6-4.06-7.1-8.28-10.5-12.35-2.21-2.65-4.41-5.3-6.65-7.92-5.66-6.62-7.66-14.3-6.14-23.49.96-5.76,1.19-11.92,1.41-17.88l.02-.41c-12.29-6.01-24.85-11.95-37.01-17.7l-.28-.13c-.02.7-.03,1.41-.05,2.1-.3,11.96-.59,23.26,6.1,33.22.29.44.61.87.93,1.3,1.19,1.63,2.68,3.67,3.39,6.22.83,2.99.56,9.5-3.84,11.7-24.12,12.13-35.5,34.04-45.18,63.2-2.1,6.33-3.49,12.84-4.97,19.74-.68,3.2-1.39,6.5-2.17,9.75-.24.99-.52,1.9-.85,2.96-.16.52-.34,1.09-.54,1.76l-6.12,20.53-4.53-20.93c-8-36.98-10.8-75.57-8.51-117.7-.39.14-.78.28-1.16.42-10.47,3.75-20.4,7.31-30.18,11,1.25,46.8-11.56,90.23-27.17,138.08-.32.97-.76,1.71-1.2,2.42-.19.31-.42.69-.71,1.2l-6.28,11.09-3.76-12.18c-.92-2.97-1.87-5.89-2.79-8.7-2.03-6.22-3.94-12.09-5.42-18.23-6.6-27.45-12.45-52.85-17.87-77.66-1.42-6.5-1.57-13.17-1.61-20-.14-24.39-.13-51.03,0-81.46,0-1.63-.26-2.18-1.58-3.27-9.08-7.51-18.2-15.26-27.02-22.75-1.61-1.37-3.22-2.74-4.84-4.11-.03,5.44-.04,10.67.08,15.93.26,11.7.58,23.6.9,35.12.54,19.74,1.09,40.16,1.35,60.26.4,31.01-6.3,61.14-13.19,89.34-.38,1.53-1.22,2.51-1.72,3.09-.12.13-.26.3-.42.51l-6.57,8.66-3.08-10.42c-1.04-3.52-2.03-7-3.01-10.45-2.17-7.61-4.21-14.81-6.65-21.93-6.13-17.9-12.72-35.52-17.78-48.87-2.34-6.19-5.73-10.76-10.34-13.97-5.49-3.82-7.73-9.75-6.67-17.61,1.11-8.21,1.86-16.4,2.66-25.08.13-1.4.26-2.8.39-4.21-.21.02-.42.04-.63.06-4.86.49-9.46.96-13.99,1.3-6.88.53-13.92.96-21.49,1.33-.62,6.67,1.31,11.02,6.38,14.47,2.26,1.54,4.12,3.33,5.92,5.06,1.07,1.03,2.07,1.99,3.09,2.84,3.54,2.93,4.4,6.06,4.51,8.18.1,2.1-.44,5.29-3.63,8.5-3.29,3.31-6.66,6.12-10.01,8.35-3.81,2.53-7.73,4.97-11.52,7.33-4.38,2.73-8.92,5.55-13.21,8.47-6.39,4.35-7.39,7.18-5.34,15.16,3.26,12.75,11.13,23.36,19.59,34.01,3.21,4.03,6.71,8.01,10.42,12.22,1.81,2.05,3.69,4.18,5.64,6.44l14.74,17.05-20.94-8.35c-1.27-.5-2.41-.94-3.47-1.35-2.16-.83-4.02-1.54-5.9-2.42-32.22-15.16-51.76-34.57-61.49-61.09-3.63-9.89-5.64-20.93-5.83-31.94-.46-27.15-.38-54.73-.31-81.41.02-8.83.05-17.66.06-26.49-2.84,1.94-5.56,3.83-8.17,5.78-18.92,14.15-40.62,22.69-61.6,30.94-2.17.85-4.34,1.71-6.51,2.57-9.06,3.6-18.72,7.41-28.41,11.05-.1.04-.19.07-.26.1,0,.06,0,.12,0,.18.01,10.4-.04,20.97-.09,31.2-.07,14.65-.15,29.79-.03,44.67.12,15.65,7.04,29.72,14.5,42.59,11.95,20.61,25.57,36.84,41.64,49.6l16.31,12.95-20.57-3.2c-1.28-.2-2.55-.39-3.83-.57-2.98-.44-6.06-.89-9.12-1.49-4.21-.83-8.7-1.75-13.14-3.13-35.83-11.11-63.03-31.64-80.84-61.02-8.23-13.58-12.51-28.88-12.71-45.48-.02-1.65-.08-1.75-1.48-2.47-11.4-5.89-22.09-13.33-31.89-22.2.32,3.33.63,6.7.87,10.05.61,8.32,1.17,16.77,1.71,24.95.54,8.14,1.09,16.55,1.7,24.82.86,11.72-4.15,20.72-14.48,26.02-1.6.82-3.2,1.65-4.79,2.47-6.17,3.19-12.54,6.48-19,9.47-2.32,1.07-2.8,1.77-3.22,3.62-8.69,37.77-16.57,71.83-25.05,106.13-2.02,8.17-.76,12.83,4.99,18.47,19.64,19.24,43.72,41.06,73.4,56.97.81.43,1.37.93,1.87,1.36.19.17.43.37.75.63l11.95,9.76h-15.43c-2.93,0-5.88.09-8.73.18-2.8.09-5.65.18-8.51.18Zm-224.14-482.07c5.35,5,10.56,10.21,15.58,15.69,4.75,5.18,5.08,10.41,4.78,14.84-1.27,18.81-2.46,37.94-3.6,56.44-.39,6.25-.77,12.49-1.17,18.74l-1.26,20.11c-1.02,16.21-2.03,32.42-3.04,48.62l-.88,14.12c-1.26,20.18-2.56,41.05-3.75,61.57-.1,1.68-.25,3.36-.4,4.99-.43,4.66-.83,9.05.07,12.76,2.7,11.18,5.78,19.55,9.68,26.34,25.92,45.07,59.76,87.8,100.59,126.99,29.54,28.35,62.67,44.97,98.47,49.39,2.36.29,4.77.42,7.24.46-24.18-15.27-44.29-33.67-61.17-50.21-5.78-5.67-8.74-11.47-9.13-18.33l-1.67,7.04-7.04-8.96c-1.02-1.3-2.05-2.57-3.07-3.82-2.23-2.74-4.53-5.57-6.59-8.58-12.24-17.87-22.03-39.08-30.8-66.75-1.01-3.17-1.56-9.06,6.02-12.87,6.84-3.44,14.81-7.39,22.84-10.77,9.23-3.89,18.35-7.52,28-11.37,4-1.6,8.04-3.21,12.13-4.85l9.86-3.97-.4,1.7c1.52-1.84,3.56-3.3,6.25-4.54,6.24-2.88,12.5-6.12,18.56-9.25,1.61-.83,3.21-1.66,4.82-2.49,6.44-3.31,9.07-8.07,8.53-15.43-.61-8.3-1.17-16.74-1.7-24.9-.54-8.16-1.1-16.59-1.7-24.87-.4-5.4-.95-10.93-1.49-16.27-.25-2.49-.5-4.98-.74-7.46l-.32-3.36,7.63-4.84c-2.62-3.15-5.07-6.42-7.35-9.81-2.48-3.68-2.67-8.11-2.83-12.02-.05-1.09-.09-2.12-.18-3.04-.61-6.27-.96-11.95-1.06-17.35-.06-2.99,1.27-7.15,4.31-9.21,11.72-7.97,23.69-15.94,35.38-23.71-7.2,4.64-14.38,9.24-21.44,13.76l-8.35,5.35c-.65.42-1.24.66-1.81.89-.23.09-.51.21-.87.37l-7.72,3.41v-8.44c0-.58,0-1.12-.01-1.63-.01-1.11-.03-2.16.03-3.27.32-6.03.67-12.07,1.02-18.1.81-13.96,1.65-28.39,2.1-42.56.18-5.58-.44-11.21-1.1-17.18-.24-2.15-.47-4.3-.67-6.44-.1-1.08-.65-2.45-1.12-3.52-.06-.15-.12-.28-.18-.4-3.55,2.83-7.09,6.35-10.83,10.76-4.51,5.34-9.04,10.85-13.41,16.18-6.31,7.69-12.83,15.64-19.51,23.29-3.25,3.72-6.98,6.7-10.93,9.85-1.74,1.39-3.55,2.83-5.32,4.35l-4.19,3.59-1.1-1.3-2.57,2.67c-1.24,1.29-2.53,2.56-3.78,3.79-2.67,2.64-5.43,5.36-7.68,8.23-4.23,5.41-4.14,8.2.44,13.59,3.13,3.69,6.47,7.36,9.7,10.91,2.37,2.6,4.81,5.29,7.18,7.99,8.61,9.82,12.69,20.84,12.46,33.71-.35,19.35-.28,39.06-.21,58.12.03,7.88.06,15.75.06,23.63v11.3h-5.5c-1.6,0-3.16.03-4.69.06-4.03.08-7.84.15-11.79-.29-3.07-.34-5.89-2.31-8.85-6.2-2.95-3.87-5.73-7.85-8.35-11.9l10.56,18.07h-38.11v-65.2l16.91,28.92c-4.92-9.25-9.29-18.63-13.38-27.77-3.23-7.23-4.75-14.49-4.78-22.84-.1-32.96-.37-66.48-.63-98.89-.09-11.27-.18-22.54-.27-33.81,0-1.17,0-2.34,0-3.8v-18.16s.57.7.57.7c-.33-1.2-.51-2.42-.49-3.58.51-39.3,1.14-82.07,1.93-130.75.11-6.52,3.35-9.39,5.28-10.52,1.85-1.08,5.73-2.47,11.03.38,4.22,2.28,9.39,6.58,11.21,11.86,3.4,9.84,6.41,19.94,9.31,29.71,1.56,5.27,3.18,10.71,4.84,16.03.8,2.57,1.59,5.15,2.39,7.73,3.23,10.49,6.56,21.33,10.45,31.68.75,1.98,3.01,8.02,5.33,9.05,1.5.67,4.59.06,9.44-1.85,11.13-4.38,22.22-9.71,32.93-14.87,4.48-2.15,9.11-4.38,13.71-6.52.79-.37,1.63-.87,2.44-1.35.43-.26.84-.5,1.23-.72l2.69-1.52,1.38.77,5.79-4.87c1.47-1.24,2.86-2.36,4.18-3.42,2.56-2.07,4.78-3.85,6.65-5.77,1.12-1.15,1.27-1.74,1.28-1.78h0s-.23-.72-1.8-2.08c-3.05-2.65-5.99-5.28-9.11-8.07-1.35-1.21-2.72-2.43-4.1-3.66l-13.26-11.79,11.98,1.51c-10.09-3.85-17.72-10.9-23.57-21.68-10.03-18.46-9.93-35.04.32-52.18,10.43-17.44,19.7-35.38,27.56-53.3,15.91-36.29,15.37-69.4-1.65-101.22-13.33-24.92-35.29-39.35-61.5-40.92,17.33,11.63,29.64,26.09,37.49,44,1.09,2.5,2.15,5.67,1.72,9.1l2.51-3.44,1.53,14.11c3.4,31.26-3.35,56.5-20.63,77.15-12.29,14.69-28.6,25.71-52.87,35.71-2.53,1.04-5.05,2.01-7.71,3.04-1.25.48-2.52.97-3.85,1.49l-17.56,6.85,2.8-3.84c-2.16,2.07-4.69,3.59-7.11,4.25-23.65,6.38-46.93,15.43-69.45,24.18-9.76,3.79-19.85,7.71-29.88,11.38-37.19,13.6-67,36.58-88.62,68.28-16.26,23.84-29.61,49.38-39.69,75.91-10.34,27.21-10.83,54.13-1.44,80.03.29.81.59,1.62.9,2.41-1.85-20.83,2.53-42.19,13.13-63.83,14.51-29.63,36.82-52.32,54.63-68.77,4.08-3.77,8.64-3.82,12.84-.15,1.94,1.7,3.99,3.29,6.16,4.96.73.57,1.46,1.13,2.19,1.7,2.85,2.24,5.72,4.49,8.59,6.76l-21.38-18.07,3.22-4.17c4.24-5.48,7.82-8.21,12.36-8.62l-2.29-.91,9.38-5.76c16.34-10.04,32.69-19.11,53.07-19.94l5.72-.23v52.84l-3.05-1.21c1.13,1.72,1.81,3.71,1.74,5.55-.34,9.66-.88,19.38-1.4,28.78-.15,2.77-.31,5.53-.46,8.28l-.6,11.04-21.02-17.77Zm1139.89,375.23c.68,1.73,1.34,3.47,1.96,5.22,2,5.57,1.26,10.09-2.39,14.67-19.49,24.45-43.14,47.04-76.18,72.7,21.48-4.33,42.53-11.59,62.72-21.64,44.98-22.4,82.39-56.65,111.19-101.79,4.65-7.29,10.68-12.42,17.91-15.23,5.87-2.28,12.23-4.12,19.44-5.61,1.74-.36,3.48-.63,5.22-.85-.63-.46-1.26-.92-1.89-1.38-8.88-6.5-18.07-13.23-27.03-19.98-14.66-11.04-26.73-20.36-37.98-29.33-5.44-4.34-8.19-9.83-8.17-16.31.06-16.8.07-33.89.08-50.42,0-18.01.02-36.64.1-54.97.02-3.6,1.91-7.71,4.61-9.99.67-.57,1.34-1.13,2.01-1.7-.06,0-.13.02-.2.04l-6.54,1.25v-71.84c0-2.34.02-4.69.04-7.03.05-5.49.1-11.17-.14-16.67-.26-5.79,2.09-10.2,6.96-13.12,5.34-3.2,10.75-6.52,15.97-9.74,11.92-7.34,24.24-14.92,36.87-21.62,2.52-1.34,5.06-2.62,7.6-3.87-20.98,9.69-40.33,20.8-58.38,33.49l-8.66,6.09v-93.09l2.46.59c-2.19-2.07-2.72-5.16-2.72-10.7v-47.04l5.65.16c15.5.43,89.69,44.28,102.98,58.99l7.38,8.17c6.12,1.56,11.27,5.19,16.31,11.3l5.28,6.41-7.96,2.37c-4.37,1.3-8.67,2.63-12.91,4.02,5.43-1.71,10.6-3.24,15.44-4.63,3.91-1.13,8.11-.26,11.53,2.37,3.93,3.03,6.31,7.95,6.2,12.84-.2,9.18-1.43,18.16-3.09,26.97l5.66-27.14,7.26,11.38c5.35,8.38,10.7,27.3,11.69,41.33l.19,2.68.64-.21.46,7.06c1.29,19.89.42,40.11-2.73,62.28,2.37-3.76,4.57-7.52,6.56-11.36,21.73-41.96,23.83-82.79,6.24-121.34-24.58-53.89-62.11-93.08-111.55-116.5-17.26-8.18-34.98-16.19-52.11-23.94-14.52-6.57-29.54-13.36-44.24-20.23-17.65-8.26-33.45-16.28-48.29-24.52-16-8.88-25.3-20.99-27.65-35.97-1.97-12.55-2.35-24.22-1.14-34.69,2.98-25.68,15.21-49.43,36.34-70.59,4.36-4.36,9-8.48,13.6-12.45-11.57,1.46-22.01,5.09-31.72,11.03-15.7,9.6-27.95,23.46-37.45,42.36-9.59,19.08-18.43,39.85-18.17,62.4.46,41.02,16.3,77.7,47.07,109.01,1.17,1.19,3.26,3.31,4.01,6.3l1.84-4.75,5.92,8.33c.9,1.26,1.75,2.41,2.56,3.5,1.72,2.32,3.35,4.52,4.76,6.92,7.2,12.31,10.34,23.59,9.89,35.48-.57,15.26-.4,30.87-.23,45.96.04,3.9.09,7.81.12,11.71.04,5.54-2.09,9.12-6.9,11.57l6.56-2.84v277.13l-2.33-.64c1.54,1.78,2.54,4.13,2.47,6.28-.22,6.39,2.45,11.78,8.66,17.48,9.3,8.54,15.04,17.92,17.54,28.68,1.99,8.54,1.87,17.42-.35,27.13-2.67,11.66-7.77,23.06-16.04,35.85l-5.88,9.1-3.87-10.12c-.35-.92-.71-1.83-1.07-2.74Zm-1026.43-56.65c8.4,26.39,17.7,46.55,29.25,63.4.69,1,1.41,1.99,2.17,2.98l21.19-89.22c-.77.31-1.54.61-2.3.92-9.6,3.83-18.67,7.44-27.8,11.29-7.72,3.25-15.18,6.95-22.17,10.46-.12.06-.23.12-.33.17Zm962.74-49.32c27.9,28.22,54.08,57.04,70.8,94.54,4.39-8.04,7.31-15.55,9.05-23.11,1.84-8.05,1.96-15.3.36-22.18-1.99-8.53-6.65-16.08-14.27-23.07-8.09-7.43-12.1-15.43-12.23-24.42-17.88-5.18-31.7-10.72-43.89-17.62l-9.82,15.87Zm-1,14.69c.59.63,1.17,1.27,1.76,1.9,8.02,8.65,15.6,16.82,23.04,25.48,4.75,5.53,9.15,11.03,13.21,16.54-11.39-15.58-24.39-29.9-38.01-43.92Zm-428.04-162.99c.75,1.79,1.1,3.78,1.09,6.04-.14,30.39-.14,57,0,81.35.04,6.46.16,12.25,1.36,17.72,5.4,24.73,11.23,50.06,17.82,77.43.87,3.62,1.93,7.22,3.09,10.9,13.4-42.04,23.69-80.96,22.53-122.03-.09-3.1,1.58-8.15,5.56-9.66,7.68-2.91,15.4-5.72,23.38-8.59-4.23,1.28-8.43,2.55-12.58,3.79l-13.8,4.16-1.66-5.13c-2.12-6.58-1.61-10.25,2.61-13.92l-3.61,2.37v-16.63c0-10.77,0-21.53,0-32.3.01-37.32.03-75.92-.13-113.87-.04-9.45,5.97-11.89,10.49-12.9,10.87-2.43,21-.53,28.52,5.33,7.33,5.71,11.52,14.71,11.81,25.36.22,8.08.44,16.17.65,24.25.67,25.05,1.36,50.96,2.18,76.43.21,6.44-2.05,10.8-7.32,14.13-8.67,5.48-17.21,11.12-26.25,17.08,4.41-2.82,8.86-5.67,13.39-8.57l20.35-13.02v10.05c0,1.87.01,3.68.02,5.44.03,5.03.07,9.78-.19,14.54-.13,2.36-1.5,4.32-3.16,5.74l4.16-1.5-.58,8.41c-2.4,34.57-1.39,66.63,3.1,97.27.77-3.09,1.63-6.18,2.65-9.22,8.32-25.07,19.64-53.01,48.83-68.6-.23-.64-.97-1.66-1.64-2.57-.41-.56-.81-1.11-1.18-1.67-8.63-12.87-8.29-26.47-7.96-39.63.08-3.14.16-6.39.11-9.52l-.09-5.29,5.29-.29c.26-.01.46-.04.62-.06.75-.08,2.13-.25,3.71.5l6.4,3.03c4.01,1.9,8.06,3.81,12.13,5.75-7.76-3.82-15.36-7.58-23.02-11.44-3.26-1.64-5.05-5.79-5.07-8.86-.13-18.45-.13-37.27,0-55.95.01-1.43.37-2.92.99-4.29l-1.09.72v-33.67c0-15.36.01-30.71-.02-46.07,0-.89,0-1.78.02-2.68.03-3.3.07-6.41-.48-9.22-.16-.84-.86-1.98-1.28-2.38-11.86-4.64-19.31-13.51-25.38-21.46-15.19-19.94-26.29-41.91-35.18-61.76-.07.58-.14,1.17-.2,1.77-1.32,12.71-.02,25.88,4.08,41.44,2.68,10.14,1.71,19.19-2.86,26.9-1.71,2.89-6.37,6.2-10.54,5l.67,8.52-4.7,1.02c-1.65.36-3.3.73-4.95,1.11-4.56,1.04-9.27,2.12-14.08,2.8-4.19.6-8.89-2.48-10.65-5.74-1.76-3.25-3.08-6.62-4.36-9.88-.48-1.22-.95-2.43-1.45-3.64l-1.75-4.22,6.15-4.01c-3.98-2.06-7.51-6.63-8.18-10.71-2.76-16.69-4.98-33.13-7.19-49.91-5.26,18.39-12.74,37.85-25.09,55.51-9.49,13.55-20.79,24.1-33.6,31.35-2.84,1.61-9.55,3.05-12.97-.7-2.21-2.42-3.72-5.94-4.49-10.48-.47-2.79.6-5.11,1.38-6.81.19-.42.38-.82.48-1.1,1.03-2.87,2.16-5.73,3.26-8.49,2.38-6,4.63-11.67,5.94-17.51,2.98-13.28,2.77-26.67,2.17-40.7-1.21,2.22-2.42,4.43-3.61,6.61-7.31,13.42-14.86,27.29-23.12,40.52-13.24,21.19-29.52,33.57-49.79,37.86-.53.11-1.34.48-2.03.88.53,2.02,1.66,4.25,2.77,6.27.22.37,1.33,1.21,2.06,1.78.72.55,1.54,1.17,2.36,1.9l4.65,4.12-.41.37,3.48,4.86c5.52,7.71,8.33,15.85,8.37,24.19.15,31.42.12,63.37.09,94.26,0,9.66-.02,19.33-.02,28.99,0,.91-.18,1.59-.34,2.19-.06.23-.14.54-.25.98l-.45,1.92,2.81-.27-.66,6.66c-.36,3.65-.69,7.25-1.02,10.81-.81,8.79-1.58,17.1-2.72,25.54-.65,4.79.72,6.18,2.05,7.11,6.5,4.53,11.19,10.77,14.34,19.1,5.09,13.43,11.72,31.16,17.9,49.2,1.62,4.72,3.05,9.42,4.45,14.21,5.04-22.38,9.09-45.73,8.79-69.31-.26-20.02-.81-40.4-1.35-60.1-.31-11.52-.64-23.44-.9-35.17-.14-6.24-.1-12.35-.07-18.81.02-2.93.03-5.9.03-8.91v-10.98l2.57,1.92c-1.85-2.6-2.75-5.85-2.97-8.36-.34-3.76-.27-7.46-.21-11.03.03-1.39.05-2.77.05-4.14v-8.48l16.74,7.47c8.13,3.62,15.94,7.1,23.69,10.61-11.16-5.43-22.61-11.02-33.83-16.7-2.54-1.29-6.06-4.95-5.94-9.07.34-11.48.86-22.91,1.41-35.02.15-3.34.31-6.74.46-10.2l.25-5.57,5.56.32c2.27.13,4.46.18,6.59.23,4.71.11,9.15.21,13.63,1.15,16.64,3.51,26.26,15.78,27.07,34.56.38,8.74.29,17.25.2,26.25-.04,3.92-.08,7.88-.08,11.88v6.87l-6.7-1.5c-.3-.07-.59-.11-.87-.16-.56-.09-1.2-.2-1.89-.39,1.27.58,2.54,1.16,3.82,1.74,3.12,1.43,5.6,5.13,5.65,8.42.14,8.74.13,17.46.12,26.69,0,2.73,0,5.5,0,8.33v11.68l-1.02-.84Zm388.91,80.22c1.45,0,2.89.25,4.29.85,4.51,1.91,6.76,6.34,8.76,12.4.24.72.48,1.47.69,2.28,3.11,12.35-.14,23.61-3.72,33-8.73,22.88-23,42.47-35.81,58.62-1.35,1.7-2.71,3.38-4.09,5.06,19.84-9.82,36.98-22.73,52-39.09l4.06-4.43.37.41,19.76-31.94,1.97,1.22c-1.16-2.39-1.51-5.27-.68-7.48,6.42-16.97,9.39-35.93,9.37-59.65-.03-25.42.15-51.26.32-76.24.11-15.91.22-32.36.28-48.54.02-5.01-.15-10.16-.32-15.14-.13-3.83-.26-7.78-.31-11.71-.02-1.35.17-5.98,3.29-8.65,4-3.43,8.33-6.6,13.19-9.64-3.01,1.57-6.02,3.15-9.04,4.7l-6.91,3.57-1.06-7.71c-.32-2.31-.65-4.68-.99-7.09-.81-5.75-1.65-11.69-2.4-17.68-.74-5.89-3.01-9.46-7.83-12.31-5.27-3.12-9.99-6.8-15-10.7-2.16-1.68-4.39-3.42-6.7-5.13l-6.23-4.62,1.36-.92-2.22-2.51c-23.17-26.24-37.06-58.42-42.17-97.91-7.04,17.95-10.57,35.02-10.75,51.75-.22,20.59,5.6,36.8,17.79,49.55,2.61,2.73,3.73,5.61,3.33,8.57-.27,2-1.41,4.87-5.29,7.19l-.12.07c-5.87,3.51-11.95,7.13-18.45,9.94-13.48,5.83-27.84,11.71-43.92,17.98-2.54.99-2.88,1.51-2.75,4.32.33,7.67.25,15.4.17,22.88-.02,2.12-.05,4.23-.06,6.35-.04,6.01-.14,12.1-.23,17.99-.04,2.66-.09,5.32-.12,7.98l-.03,2.4-1.79,1.61c-2.19,1.97-4.36,3.94-6.54,5.91l-.4.36.1-.07,8.73-6.33v88.66l-.47-.31c1.46,3.99,1.18,8.42.94,12.41-.12,1.95-.23,3.79-.15,5.41,1.12,21.92,8.05,39.03,21.21,52.31,8.79,8.87,17.6,10.74,27.74,5.89,7.54-3.61,15.05-7.25,22.57-10.89l3.85-1.87c3.4-1.65,6.95-3.08,10.41-3.08Zm-771.38-.8c3.88,2.55,5.73,6.14,5.79,11.16.18,14.61,3.92,28.04,11.12,39.91,16.61,27.39,41.04,45.78,74.7,56.22,1.88.58,3.81,1.08,5.74,1.53-11.04-11.17-20.88-24.28-29.79-39.66-8.22-14.18-15.84-29.81-15.98-48.02-.12-14.95-.04-30.13.03-44.81.05-10.21.1-20.76.09-31.13,0-2.67.62-4.87,1.88-6.65l-1.49.58v-54.68l2.56,1.2c-1.45-1.67-2.59-3.82-2.61-6.19-.18-22.46-.17-45.39-.16-67.56v-18.63s3.76-1.26,3.76-1.26c8.53-2.86,17.65-1.82,25.02,2.85,7.71,4.89,12.79,13.23,13.93,22.88.45,3.8.4,7.54.35,11.15-.02,1.29-.03,2.58-.03,3.86,0,1.47-.05,2.92-.11,4.31-.09,2.33-.18,4.54.05,6.55.28,2.44.83,3.4,1.03,3.68.35,0,1.49-.16,3.69-1.47,3.65-2.19,7.3-4.39,10.95-6.59,9.28-5.59,18.88-11.37,28.4-16.95.51-.3.76-.5.87-.6,0-.09,0-.23-.02-.45-.34-3.66-.55-7.35-.75-10.92-.08-1.5-.17-3.01-.27-4.52l-.33-5.3,40.24-3.97v48.61c0,2.1,0,4.2.01,6.29.02,5.99.04,12.17-.1,18.29-.03,1.39-.32,3.06-.97,4.64l1.05-.73v16.85c0,10.19-.03,20.39-.06,30.58-.07,26.62-.15,54.15.31,81.19.17,9.79,1.95,19.59,5.16,28.34,7.14,19.46,20.44,34.74,41.37,47.26-8.97-11.33-17.24-22.78-20.95-37.26-3.18-12.44-.43-20.01,9.81-26.98,4.48-3.05,9.11-5.93,13.58-8.72,3.72-2.32,7.57-4.72,11.25-7.16,2.74-1.82,5.52-4.15,8.29-6.93.07-.08.14-.14.19-.21-.08-.07-.17-.16-.28-.25-1.34-1.11-2.54-2.27-3.7-3.38-1.53-1.48-2.98-2.87-4.48-3.89-8.58-5.84-12.3-14.38-11.06-25.38.33-2.91,1.28-5.13,2.84-6.66l-2.12.17-.3-5.64c-.05-.86-.1-1.63-.14-2.33-.1-1.46-.18-2.72-.18-4.05v-16.72c-.03-28.38-.05-57.72.14-86.58.03-4.33,2.1-9.17,5.15-12.06,8.6-8.15,17.21-15.91,26.32-24.13.27-.24.53-.48.8-.72l-24.64,21.78-8.62-2.16.38-4.65c2.46-29.93-.98-56.9-10.49-81.93-4.16,10.56-11.91,19.51-23.4,27.07-6.1,4.02-12.5,7.61-18.69,11.09-3,1.68-6.09,3.42-9.09,5.17,5.08,2.83,9.36,7.29,11.26,14.9l1.55,6.21-40.53,3.84-1.71-6.39c-.3-1.1-.53-1.97-.75-2.84-2.28-9.22-5.48-19.83-11.88-28.67-8.85-12.23-17.04-12.02-22.43-10.8-6.11,1.39-12.15,5.11-16.74,8.21-3.41,2.3-6.55,5.09-9.88,8.05-2.52,2.24-5.12,4.55-7.91,6.69-2.98,2.29-7.02,3.94-11.06,4.53-3.63.53-6.86-.45-9.09-2.75-2.27-2.34-3.15-5.69-2.48-9.43.15-.82.29-1.65.43-2.47.77-4.49,1.56-9.12,3.37-13.59,13.81-34.06,12.6-67.51-3.71-102.28-.37-.79-.75-1.57-1.14-2.35,0,.73,0,1.46-.02,2.18-.51,21.11-6.77,41.53-19.14,62.44-1.4,2.37-4.11,4.3-6.88,5.11l6.48.82-12.74,14.43c-8.46,9.6-16.46,18.66-24.64,27.76-2.43,2.7-7.02,3.17-9.79,1.9-3.92-1.79-7.7-3.64-11.63-5.58l14.66,8.19-4,6.66c-.78,1.29-1.17,2.09-1.37,2.57.39.29,1.07.72,2.23,1.34,21.43,7.79,31.62,24.36,30.31,49.25-.51,9.72-.41,19.73-.31,29.4.06,5.66.12,11.5.06,17.28-.03,3.11-1.66,7.32-4.71,9.32-1.48.97-2.96,1.94-4.45,2.91.66-.25,1.24-.37,1.62-.44.08-.02.17-.03.26-.05l6.91-1.83v123.56l-6.18-3.39Zm581.69-43.8c2.43,2.06,3.75,5.62,3.64,8.41l-.03.8c-.24,6.3-.48,12.81-1.55,19.27-.99,5.95.14,10.43,3.65,14.54,2.28,2.67,4.55,5.39,6.74,8.03,3.34,4.01,6.79,8.16,10.28,12.1,7.9,8.93,9.54,19.6,4.62,30.07-4.86,10.32-9.72,18.77-14.87,25.81-2.01,2.75-4.11,5.39-6.27,7.98,3.41-1.95,6.72-4.05,9.98-6.32,28.11-19.63,41.39-44.69,40.6-76.62-.44-17.81-.33-35.88-.22-53.36.05-7.76.1-15.79.1-23.68v-15.88l.96.66c-.2-.47-.36-.97-.47-1.51-.92-4.54-.71-9.02-.5-13.35.05-1.11.11-2.21.14-3.31.05-1.58.65-3.06,1.79-4.42l-1.91.95v-8.87c0-7.25-.01-14.44-.02-21.59-.02-17.17-.05-33.38.06-49.97.12-17.65,8.48-30.31,24.17-36.62,1.1-.44,2.17-.81,3.21-1.16,1.89-.64,3.67-1.25,4.89-2.09,3.18-2.17,6.78-4.63,8.56-7.44.47-.74.68-1.25.78-1.56-.38-.19-1.08-.44-2.2-.62-3.21-.5-6.41-.82-9.81-1.17-2.58-.26-5.25-.54-7.91-.89-20.03-2.66-25.51-15.07-26.58-25.01-1.22-11.28-1.33-22.73-1.44-33.81-.04-4.33-.09-8.8-.2-13.18-2.77.74-5.25,1.44-7.63,2.34-1.53.58-2.82,1.34-3.15,4.82-1.29,13.52-6.12,25.86-14.34,36.68-5.18,6.82-10.2,8.01-17.89,4.25-11.89-5.82-24.63-13.22-34.34-24.84.3,1.61.73,3.13,1.29,4.58,4.94,12.73,10.62,25.5,16.11,37.84l2.55,5.74c.87,1.97,1.84,4,2.78,5.95,3.8,7.93,7.73,16.14,8.14,25.88.4,9.47.24,18.93.04,27.81-.07,3.32-1.79,6.96-4.28,9.06-.73.62-1.46,1.23-2.18,1.83l6.18-4.26v137.85l-3.44-1.69Zm248.08,78.06c9.73,5.93,20.86,10.69,35.31,15.05v-245.7c-10.62,5.08-18.75,10.16-25.68,15.99-.03.2-.06.44-.06.68.05,3.81.18,7.7.3,11.47.17,5.08.34,10.33.32,15.54-.06,16.19-.17,32.66-.28,48.58-.17,24.96-.35,50.78-.32,76.15.03,24.49-3.02,44.31-9.58,62.22Zm-955.21,7.97c2.92.28,6.01.24,9.27.18v-.38c0-7.86-.03-15.73-.06-23.59-.07-19.12-.14-38.89.21-58.36.18-10.14-2.91-18.48-9.73-26.25-2.31-2.63-4.72-5.28-7.05-7.85-3.29-3.62-6.7-7.37-9.95-11.19-7.99-9.42-8.21-17.9-.71-27.49,2.68-3.43,5.7-6.4,8.61-9.29.06-.05.11-.11.17-.16l-28.32-35.1c.06,8.14.13,16.29.19,24.43.26,32.43.53,65.96.63,98.95.02,6.77,1.23,12.61,3.82,18.39,8.41,18.79,17.99,38.55,31.08,55.71.93,1.22,1.54,1.77,1.82,1.99Zm-35.47-.16h7.94l-7.94-13.59v13.59Zm122.39-70.71c10.46,10.85,22.18,19.79,34.86,26.62-13.81-7.76-25.37-16.62-34.95-26.79.03.06.06.12.09.17Zm-5.43-48.55c-.04.13-.07.26-.07.35.1,5.07.42,10.46,1.01,16.44.12,1.22.17,2.45.22,3.64.1,2.33.22,5.24.97,6.34,9.2,13.65,21.36,25.14,37.01,34.92v-87.88c-12.88,8.55-26.16,17.37-39.14,26.19Zm514.94,27.56l-3.47,2.22c-6.6,4.23-13.04,8.35-19.44,12.43,7.56-2.28,15.23-4.61,22.78-6.99.1-2.5.12-5.05.12-7.67Zm-31.73-149.79c-.05.22-.13.69-.13,1.58.16,37.98.15,76.59.13,113.92,0,9.51,0,19.02,0,28.53.83-.55,1.65-1.09,2.47-1.63,9.23-6.09,17.95-11.85,26.84-17.47,1.82-1.15,2.3-1.84,2.21-4.48-.82-25.5-1.51-51.42-2.18-76.49-.21-8.08-.43-16.17-.65-24.25-.2-7.3-2.89-13.33-7.58-16.98-4.88-3.81-11.76-4.96-19.36-3.27-1.03.23-1.54.43-1.75.54Zm97.81,121.32c11.69,5.89,23.3,11.58,35.56,17.59l1.51.74v-99.24l-.39.27c-12.04,8.31-24.49,16.9-36.68,25.45,0,0,0,0,0,.01-.13,18.42-.13,36.98,0,55.18Zm-265.68-117.88c-1.42,1.28-2.83,2.55-4.24,3.82-9.06,8.17-17.62,15.89-26.12,23.94-.86.81-1.71,2.87-1.72,4.15-.19,28.83-.17,58.15-.15,86.5v16.72c.01.06.01.11.01.17l35.36-2.81c0-8.6.01-17.2.02-25.8.03-30.88.05-62.8-.09-94.2-.02-4.26-1.03-8.39-3.08-12.51Zm-208.29,97.74v21.26l24.73-9.64-24.73-11.62Zm1012.59-119.51c-.13,0-.26.02-.39.05-19.98,5.75-46.04,14.01-70.36,26.91-12.31,6.53-24.49,14.02-36.25,21.27-5.26,3.24-10.69,6.58-16.09,9.82-1.33.8-1.71,1.31-1.62,3.19.26,5.79.2,11.62.15,17.25-.02,2.31-.04,4.62-.04,6.93v54.33c38.19-31.97,76.66-56.46,117.29-74.68,1.08-5.33,2.31-10.69,3.5-15.87,3.49-15.25,6.79-29.65,7.12-44.76.03-1.4-.76-2.99-1.91-3.88-.49-.38-.95-.57-1.38-.57Zm-426.24,121.04c.47.32,1.16.73,1.67,1.03.99.59,2.12,1.25,3.14,2.04.83.65,1.65,1.32,2.46,2,1.21,1.01,2.36,1.96,3.51,2.74,4.58,3.1,9.21,6.16,14.06,9.36v-46.64c-8.29,6.01-16.6,12.03-24.89,18.08-.02.58-.05,1.15-.08,1.73-.16,3.44-.32,6.71.12,9.66Zm-536.94,9.53l.79.37c.27-.11.54-.23.81-.34-.53,0-1.06,0-1.6-.03Zm-49.47-34.3c.16.18.37.38.51.46,4.7,2.32,9.62,4.59,14.37,6.79,8.81,4.07,17.92,8.28,26.57,13.21,6.95,3.96,12.28,3.82,18.99-.5l7.38-4.74c12.04-7.74,24.47-15.73,36.62-23.74.05-.19.1-.41.1-.54.14-5.98.12-12.09.1-18.01,0-2.11-.01-4.22-.01-6.33v-36.47l-17.61,1.74c.19,3.37.38,6.58.68,9.81.47,5.04-1.57,8.83-6.24,11.57-9.46,5.54-19.03,11.31-28.28,16.88-3.65,2.2-7.31,4.4-10.97,6.6-5.44,3.26-10.22,3.91-14.23,1.94-3.98-1.96-6.36-6.1-7.08-12.32-.33-2.86-.22-5.6-.12-8.25.05-1.33.1-2.58.1-3.81,0-1.35,0-2.71.03-4.07.04-3.41.09-6.64-.28-9.72-.75-6.35-3.99-11.77-8.89-14.88-3.56-2.26-7.68-3.14-11.88-2.58v10.34c-.01,21.87-.02,44.48.15,66.62Zm275.49-17.8c0,1.96.05,3.88.21,5.76.13,1.49.8,2.84,1.12,3.14,8.45,7.65,17.27,15.24,25.8,22.58l5.21,4.48c.54.47,1.09.93,1.64,1.4,0-7.6,0-14.89-.1-22.14-10.67-4.88-21.29-9.61-32.51-14.62l-1.37-.61Zm-393.4-59.63c.81,0,1.54.11,2.16.26,3.24.81,5.77,3.25,7.52,7.28.8,1.83,1.75,4.27,1.99,6.91.19,2.08.42,4.16.65,6.25.67,6.09,1.37,12.38,1.16,18.74-.46,14.31-1.3,28.82-2.12,42.85-.24,4.16-.48,8.32-.71,12.48l1.52-.97c12.51-8.01,25.45-16.29,38.08-24.58.08-.18.16-.43.17-.57.06-5.62,0-11.41-.06-17.01-.1-9.85-.21-20.03.33-30.1,1.07-20.32-6.05-32.14-23.08-38.33-.27-.09-.68-.24-1.15-.49-3.58-1.88-7.06-4.17-8.18-8.15-.79-2.82-.12-5.54,1.08-8.13l-14.21-7.94c-.56.31-1.16.63-1.79.92-4.53,2.11-9.13,4.32-13.58,6.46-10.9,5.24-22.17,10.66-33.67,15.19-5.97,2.35-12.28,4.18-17.94,1.66-5.42-2.41-8.38-7.83-11.16-15.24-4-10.66-7.39-21.67-10.66-32.31-.79-2.56-1.58-5.13-2.38-7.69-1.68-5.38-3.3-10.86-4.88-16.16-2.87-9.65-5.83-19.63-9.16-29.25-.61-1.77-3.2-4.25-6.03-5.77-.02,0-.04-.02-.06-.03-.02.19-.04.41-.04.66-.79,48.68-1.42,91.43-1.93,130.72,0,.33.25,1.1.54,1.48,8.62,11.21,18.66,24.23,28.78,36.87,4.04,5.04,8.23,9.91,12.67,15.06.87,1.01,1.74,2.02,2.62,3.04.46-.37.92-.73,1.37-1.09,3.55-2.83,6.91-5.51,9.5-8.48,6.57-7.52,13.04-15.41,19.3-23.03,4.4-5.36,8.95-10.91,13.52-16.31,4.22-4.99,8.28-9.01,12.42-12.3,2.83-2.25,5.37-2.91,7.38-2.91Zm1139.05,25.82c-.53,2.35-1.06,4.68-1.59,7-1.24,5.43-2.53,11.05-3.63,16.56-.24,1.21-.78,2.33-1.48,3.3.4-.16.8-.32,1.2-.48l5.5-26.39Zm-744.84,8.53c10.95,5.54,22.16,11.01,33.09,16.33.01-1.35.03-2.7.04-4.04.09-8.86.18-17.22-.19-25.66-.59-13.67-6.77-21.84-18.35-24.28-3.48-.73-7.24-.82-11.61-.92-.47-.01-.94-.02-1.41-.03-.07,1.6-.14,3.18-.22,4.75-.53,11.71-1.04,22.78-1.38,33.83,0,0,.01,0,.02.01Zm729.7,11.59s-.02,0-.03.01c.01,0,.02,0,.03-.01Zm27.8-26.93l-3.79,18.19c2.38-.74,4.74-1.47,7.08-2.2-.66-5.28-1.86-10.88-3.29-15.99Zm-145.49-64.15v58.26c31.19-20.62,66.07-36.93,106.08-49.59-2.9-1.74-6.02-2.37-10.01-2.23-26.45.94-60.83.99-96.07-6.44Zm-512.02,44.46h0Zm-745.22-50.05l52.46,44.34c.46-8.2.91-16.61,1.21-24.95-13.86-5.62-28.63-11.45-46.41-18.32-4.06-1.57-5.69-2.1-7.27-1.08Zm1113.38-4.83c.29.23.58.45.87.68,4.72,3.67,9.18,7.15,13.85,9.91,7.68,4.55,11.98,11.23,13.14,20.4.72,5.71,1.52,11.4,2.3,16.93.76-.4,1.52-.79,2.27-1.19,7.96-4.16,16.2-8.46,24.47-12.46.59-.28.86-.48.97-.57.03-.14.09-.49.08-1.19-.03-3.89-.07-7.78-.12-11.67-.17-15.23-.34-30.97.24-46.5.37-9.85-2.22-18.95-8.4-29.52-.33-.56-.68-1.12-1.06-1.69-10.36,22.09-26.07,40.45-48.61,56.87Zm-663.25,34.42c.88,2.89,1.63,5.72,2.3,8.44,0,.02,0,.03.01.05l16.76-1.59c-2.18-2.06-5.45-3.49-10.34-4.72l-8.73-2.18Zm-167.52-5.88s0,0,.01,0c0,0,0,0-.01,0Zm547.44-5.32h0,0Zm-848.6-4.36s0,0,0,0c0,0,0,0,0,0Zm754.45-1.45c.08.07.2.15.31.22.89-.14,1.77-.29,2.66-.45l-3.84-1.51c.28.59.57,1.17.87,1.74Zm-448.82-12.16s.01,0,.02,0c0,0-.01,0-.02,0Zm-10.15-4.86c2.89,1.42,5.7,2.79,8.54,4.12,7.35-8.19,14.6-16.4,22.2-25.02l-26.7-3.36c3.5,3.09,5.27,6.31,5.41,9.83.14,3.43-1.34,6.75-4.4,9.88-1.58,1.62-3.28,3.09-5.05,4.56Zm-254.4-9.97l32.48,12.82v-24.96c-11.68,1.54-22.01,6.19-32.48,12.14Zm1234.48-1.05c.78.23,1.88.49,2.89.74l.1.03c18.88,4.62,38.56,5.74,58.74,6.56,5.59.23,11.13.23,16.87.19-21.12-15.36-62.38-38.54-78.63-44.73v34.33c0,1,0,2.09.03,2.89ZM343.6,125.53l-61.1,83.62c19-8.53,32.17-17.87,42.16-29.82,12.62-15.09,18.78-32.44,18.94-53.8Zm829.43,466.73c-12.16,0-20.68-6.89-24.25-19.79-1.34-4.86-2.08-9.93-2.12-14.66-.14-15.75-.12-31.75-.1-47.22,0-5.59.01-11.17.01-16.76v-16.37s4.32,3.5,4.32,3.5c-4.14-6-4.66-12.47-4.49-18.29.51-17.04.3-34.45.1-51.29l-.03-2.82c-.07-5.75,2.43-9.76,7.62-12.26,13.4-6.45,26.8-6.07,39.82,1.1,3.07,1.69,5.39,5.54,5.41,8.95.12,31.33.1,63.17.07,93.97v8.76c0,1.3-.42,2.25-.72,2.95-.12.28-.29.67-.53,1.28l-1.82,4.64c1.82,1.97,3,4.81,3.02,7.44.13,17.87.13,35.54-.01,52.53-.03,3.18-2.19,7.47-5.64,8.86-.68.27-1.36.55-2.03.83-4.36,1.79-8.88,3.64-13.84,4.31-1.66.22-3.27.34-4.81.34Zm-15.45-91.76c0,3.37,0,6.74-.01,10.11-.02,15.44-.04,31.41.1,47.1.03,3.79.63,7.88,1.72,11.83,2.57,9.31,7.65,12.75,16.98,11.48,3.57-.48,7.24-1.99,11.14-3.59.28-.12.57-.23.85-.35.13-16.65.14-33.95,0-51.44-.02-.06-.06-.14-.09-.2-10.12-8.31-20.12-16.4-30.7-24.94Zm15.5-97.75c-4.68,0-9.39,1.16-14.2,3.47-1.38.67-1.41.71-1.39,2.21l.03,2.82c.2,16.95.41,34.47-.11,51.75-.23,7.78,1.33,11.69,6.21,15.5,8,6.24,15.37,12.86,23.17,19.86.54.48,1.08.97,1.62,1.46.02-30.46.05-61.95-.07-92.92,0,0-.01-.02-.02-.03-5.09-2.75-10.15-4.13-15.25-4.13Z"/><path class="cls-1" d="m931.31,237.53l8.28-14.53c8.05-14.11,6.26-28.54,3.13-42.04-1.65-7.12-1.53-14.41-1.42-21.46.04-2.55.08-4.96.04-7.37-.13-7.71-.2-15.54-.27-23.11-.12-13.35-.25-27.15-.68-40.68-.19-5.8-1.06-11.58-1.98-17.69-.39-2.61-.8-5.3-1.15-7.99-2.25-17.38,2.09-33.7,13.24-49.89.87-1.26,1.98-1.89,2.51-2.2l.11-.07,7.32-5.04,1.17,8.84c.26,1.83.45,3.63.64,5.38.39,3.59.75,6.98,1.61,10.06,3.06,10.96,10.76,19,24.21,25.3,7.19,3.36,14.85,6.28,22.26,9.1,3.34,1.27,6.8,2.59,10.2,3.94,23.13,9.19,35.56,27.94,35.01,52.8-.02.68-.08,1.3-.16,2.09-.04.41-.09.91-.15,1.55l-1.7,18.72-8.66-16.69c-.52-1-1.03-2-1.54-3-4.29-8.42-7.87-15.44-14.81-18.93,0,1-.02,1.99-.03,2.99-.08,8.17-.16,15.88.22,23.63.4,8.25-3.2,14.33-10.41,17.59-9.6,4.33-19.08,8.42-29.11,12.76-2.95,1.27-5.92,2.56-8.91,3.86.17,2.72,1.18,5.26,2.96,7.34,2.59,3.02,6.48,4.7,10.94,4.72.8-.02,1.74-.09,2.73-.19,2.24-.23,4.79-.49,7.48.17,4.58,1.12,8.24,4.2,10.01,5.94,1.14,1.12,1.74,2.63,1.7,4.26-.07,3.25-3.37,7.88-5.12,9.46-5.58,5.03-12.92,7.21-20.67,6.15-4.55-.62-7.92.64-12.02,4.51-9.01,8.49-18.88,17.26-31.71,22.94l-15.29,6.77Zm21.5-206.66c-4.46,9.93-5.99,19.97-4.64,30.38.33,2.57.73,5.2,1.12,7.75.93,6.16,1.89,12.53,2.1,18.99.44,13.66.56,27.52.69,40.93.07,7.55.14,15.36.27,23.03.04,2.59,0,5.2-.04,7.73-.11,6.69-.21,13,1.14,18.8,2.45,10.57,4.26,22.48,1.59,34.72,5.7-4.09,10.84-8.78,15.74-13.39,6.5-6.13,13.19-8.48,21.06-7.4,4.61.63,8.59-.52,11.81-3.42,0,0,.02-.01.02-.02-.66-.37-1.29-.63-1.87-.77-.85-.21-2.33-.06-3.75.09-1.18.12-2.51.23-3.91.25-7.71-.04-14.55-3.08-19.24-8.57-4.44-5.18-6.39-12.11-5.35-19.01l.45-3.01,2.79-1.21c2.41-1.05,4.8-2.08,7.19-3.12-1.69.49-3.44.84-5.24,1.01l-6.04.59v-16.63c-.02-13.64-.03-26.52.12-39.7.04-3.77,2.82-7.35,5.42-8.81,5.79-3.25,11.99-3.58,17.03-.9,5.18,2.76,8.48,8.35,9.06,15.34.64,7.89.65,16.22,0,24.78-.68,8.99-6.07,16.94-13.79,21.48,9.37-4.05,18.28-7.91,27.26-11.96,2.66-1.2,4.15-2.73,3.95-7.03-.39-8.07-.31-15.94-.23-24.26.03-3.4.07-6.83.07-10.31v-6.46l6.38,1.03c7.28,1.18,12.63,4.22,16.83,8.19-4.36-9.71-12.48-16.96-24.3-21.65-3.32-1.32-6.74-2.62-10.05-3.88-7.6-2.89-15.45-5.88-23.01-9.42-16.35-7.65-26.21-18.22-30.14-32.3-.17-.62-.33-1.23-.47-1.85Zm26.99,68.71c-.14,12.92-.13,25.59-.12,39v3.37c5.34-2.61,9.24-7.76,9.67-13.48.6-7.98.6-15.74,0-23.06-.26-3.19-1.45-5.57-3.26-6.53-1.64-.87-3.86-.64-6.27.66,0,.01-.02.02-.03.04Z"/><path class="cls-1" d="m611.43,239.42l-11.61-7.62c-12.65-8.31-24.6-16.15-32.4-29.66-.31-.53-.59-1.07-.88-1.62-.49-.93-.99-1.88-1.41-2.3-6.93-7.03-10.31-16.19-10.32-28.02-.02-15-.02-30-.01-45v-19.43c-2.25-.25-4.88.03-7.62,1.5-5.9,3.15-10.42,10.78-13.08,22.04l-3.5,14.83-6.78-13.64c-5.01-10.08-3-19.22-1.05-25.22,3.81-11.72,11.49-21.7,24.17-31.38,5.83-4.46,11.85-8.83,17.67-13.05,6.87-4.99,13.97-10.15,20.74-15.43,13.27-10.35,19.79-20.02,21.82-32.33l2.15-13.06,7.74,10.73c5.47,7.59,8.36,15.54,8.58,23.65.25,8.94-.57,17.87-1.36,25.54-.58,5.61-.6,10.32,1.16,15.11,2.19,5.96,3.78,12.1,5.32,18.04.63,2.42,1.25,4.84,1.92,7.24,1.39,5.01,3.02,7.25,8.99,7.28l10.17.05-5.61,8.48c-.47.72-.88,1.46-1.27,2.17-1.06,1.94-2.25,4.13-4.73,5.41-7.06,3.66-14.34,7.05-21.38,10.33l-2.16,1.01c-2.44,1.14-6.13,2.86-9.84,1.35-3.46-1.41-4.98-4.8-6.14-7.88-1.8-4.77-3.36-9.65-4.88-14.37-.64-1.99-1.29-4.03-1.96-6.04,0,.66-.01,1.31-.02,1.96-.16,17.67-.32,35.94.23,53.84.1,3.35.42,13.56,19.01,14.57,1.82.1,3.74.07,5.76.04,1.04-.01,2.1-.03,3.2-.03h5.5v15.92l-3.41,1.4c-10.05,4.13-16.28,6.81-17.8,9.76-1.54,2.99-.16,9.79,2.21,20.65l2.88,13.18Zm-58.06-144.74c2.95,0,5.93.54,8.85,1.63l3.58,1.33v27.54c0,14.99-.01,29.99.01,44.98.01,8.92,2.29,15.38,7.15,20.32,1.56,1.58,2.53,3.42,3.31,4.9.22.42.44.84.67,1.24,4.44,7.67,10.91,13.44,18.24,18.74-.88-6.07-.74-10.7,1.37-14.81,2.52-4.89,7.43-7.95,14.57-11.16-17.4-1.37-27.6-10.47-28.04-25.13-.55-18.11-.39-36.5-.23-54.28.04-3.95.07-7.89.1-11.84.03-3.96,3.39-7.68,6.48-8.87,4.34-1.66,8.9,2.11,10.37,4.5,1.66,2.69,2.73,5.63,3.68,8.41.98,2.87,1.92,5.79,2.82,8.6,1.47,4.59,3,9.34,4.7,13.86.11.29.21.54.3.77.22-.09.46-.21.73-.33l2.17-1.01c5.55-2.58,11.25-5.24,16.81-8.02-6.39-3.62-8.2-10.14-8.94-12.81-.68-2.46-1.33-4.94-1.97-7.42-1.54-5.95-3-11.56-5-17.02-2.63-7.16-2.41-13.86-1.77-20.02.75-7.32,1.54-15.83,1.31-24.11-.06-2.03-.34-4.03-.86-6.03-5.33,11.48-14.03,19.43-21.67,25.4-6.92,5.4-14.1,10.61-21.04,15.66-5.76,4.19-11.73,8.52-17.46,12.9-8.13,6.21-13.81,12.42-17.44,19.15,2.01-1.9,4-3.25,5.81-4.22,3.57-1.91,7.45-2.87,11.39-2.87Z"/><path class="cls-1" d="m783.66,259.8l-9.65-11.08c-7.38-8.47-11.83-18.84-14.01-32.63-1.32-8.35-4.44-16.75-9.81-26.44-.96-1.72-2.84-3.42-4.83-5.21-.56-.5-1.12-1-1.66-1.51-2.53-2.36-3.74-5.23-3.4-8.07.31-2.65,1.91-4.91,4.48-6.37,8.11-4.58,15.62-8.46,22.95-11.86,4.34-2.01,10.27,1.31,12.15,4.53,1.87,3.21,3.33,6.54,4.75,9.76.61,1.38,1.22,2.77,1.86,4.13.31.66.61,1.34.9,2.01.68,1.54,1.32,3,2.07,4.12.36-12.3.32-23.25-.1-33.45,0-.06,0-.11,0-.17-.28.06-.66.16-1.14.35-3.92,1.5-7.89,3.18-11.73,4.8-2.9,1.22-5.9,2.49-8.89,3.69-9.84,3.94-16.75,1.37-20.55-7.64-3.22-7.64-5.31-15.77-6.04-23.52-.67-7.11-.54-14.26-.42-21.18.06-3.2.12-6.51.09-9.72-.05-6.68,2.84-12,8.58-15.8,13.53-8.97,23.76-15.96,33.16-22.67,11.61-8.29,18.43-20.72,23.56-31.79.21-.46.45-.92.86-1.72.22-.43.5-.98.88-1.71l8.51-16.69,1.86,18.64c1.26,12.58-.77,23.43-2.97,33.46l-.03.14c-.66,3.03-1.35,6.17-2.53,9.28-2.81,7.41-1.84,13.65,3.07,19.63,1.09,1.34,2.47,2.64,4.2,4.28.98.92,2.04,1.93,3.21,3.09l3.24,3.21-2.49,3.72c-.61,1.27-1.87,3.9-4.5,5.42-3.23,1.86-6.55,3.58-9.76,5.23-3.47,1.79-6.74,3.48-9.95,5.36-3.09,1.81-6.05,2.31-8.81,1.48-2.75-.83-4.95-2.87-6.53-6.09-1.03-2.1-1.91-4.22-2.75-6.27-.59-1.43-1.16-2.81-1.76-4.13-.21,8.24-.12,16.5.02,25.53.01.73.04,1.31.08,1.77.42-.15.92-.34,1.54-.6,2.25-.96,4.5-1.94,6.74-2.92,4.55-1.99,9.26-4.04,14.01-5.91,11.85-4.67,17.5,1.63,20.15,7.73,3.38,7.79,5.44,15.19,6.11,22.01,1.01,10.24.55,20.39.11,30.2-.2,4.38-3.49,8.46-6.25,10.62-3.56,2.79-7.25,5.43-10.81,7.99-3.99,2.85-8.11,5.8-11.92,8.88-11.23,9.07-16.42,20.44-15.87,34.76.04,1.14.03,2.23.02,3.28,0,.45,0,.89,0,1.34v14.69Zm-30.67-83.29c2.39,2.15,5.04,4.6,6.82,7.81,6.02,10.85,9.53,20.4,11.06,30.05.71,4.5,1.69,8.56,2.97,12.22,2.49-11.49,8.77-21.35,18.77-29.42,4.06-3.28,8.31-6.32,12.43-9.27,3.47-2.49,7.06-5.06,10.43-7.7,1.04-.82,1.89-2.04,2.05-2.58.42-9.39.85-19.1-.07-28.51-.56-5.68-2.33-11.97-5.25-18.7-1.21-2.79-1.58-3.63-6.04-1.88-4.56,1.79-9.17,3.81-13.64,5.76-2.09.91-4.17,1.82-6.26,2.72,4.49-1.19,7.58-.09,9.45,1.14,1.64,1.08,4.42,3.69,4.65,9.13.46,10.9.48,22.61.06,35.81-.15,4.89-5.14,8.61-8.24,9.82-4.86,1.88-9.74-2.76-11.22-4.71-1.65-2.18-2.7-4.58-3.63-6.7-.26-.6-.52-1.19-.8-1.78-.68-1.44-1.32-2.9-1.96-4.37-1.24-2.82-2.42-5.5-3.81-7.99-5.71,2.7-11.56,5.71-17.77,9.15Zm52.72-129.26c-4.42,6.45-9.88,12.57-16.91,17.59-9.51,6.79-19.84,13.85-33.48,22.89-2.69,1.78-3.68,3.55-3.65,6.55.02,3.35-.04,6.73-.1,10-.12,6.92-.24,13.45.37,19.95.63,6.65,2.43,13.66,5.22,20.28,1.26,3,1.53,3.62,6.32,1.7,2.9-1.16,5.85-2.41,8.7-3.61,3.08-1.3,6.25-2.64,9.45-3.91-2.81.73-5.72.79-8.32-.91-3.91-2.54-4.5-7.31-4.56-11.65-.15-10.5-.25-19.98.1-29.72.11-3.02,1.52-5.49,2.66-7.48.38-.66.74-1.29.98-1.82l3.18-6.97,5.59,5.24c.45.42,1,.87,1.59,1.34,1.65,1.34,3.71,3,5.06,5.44,1.5,2.72,2.65,5.51,3.76,8.21.8,1.95,1.56,3.79,2.42,5.54,3.44-2.01,6.98-3.84,10.4-5.6,2.31-1.19,4.67-2.41,6.97-3.67-1.61-1.53-3.03-2.93-4.35-4.54-7.33-8.96-9.01-19.51-4.84-30.5.89-2.35,1.46-4.96,2.06-7.72l.03-.14c.47-2.16.93-4.32,1.34-6.49Z"/><path class="cls-1" d="m669.64,208.73c-2.15,0-4.26-.73-6.37-2.19-13.98-9.71-20.07-21.02-19.14-35.6.65-10.2.34-20.52,0-28.37-.43-9.7,5-14.08,9.62-16.04,10.89-4.62,23.22-9.86,35.66-14.5l.5-.19c1.01-.38,2.1-.78,2.91-1.12-.2-1.01-.54-2.39-.8-3.42-1.22-4.88-4.08-7.63-8.99-8.65-4.13-.85-8.38-1.37-12.87-1.92-2.06-.25-4.14-.51-6.25-.8l-3.43-.47-1.05-3.3c-1.3-4.08-2-11.49,8-15.21,19.66-7.31,32.53-15.88,41.73-27.76,1-1.29,2.41-2.05,4.21-2.27l5.72-1.33.75,6.07c.29,2.33.54,4.67.79,7,.6,5.58,1.17,10.85,2.23,16.04.32,1.59,1.31,3.41,2.34,5.34.92,1.71,1.87,3.47,2.61,5.46.23.61.46,1.22.7,1.84,1.46,3.81,3.12,8.12,3.2,12.72.28,15.46.29,31.16.29,46.34,0,6.55,0,13.11.03,19.66,0,1.27.12,2.61.24,4.03.07.87.15,1.74.2,2.62.15,2.48,1.04,4.48,4.93,6.21,2.34,1.04,5.86,4.03,6.01,8,.12,3.24-2.01,6.99-4.95,8.73-8.05,4.77-14.79,8.51-21.2,11.79-3.07,1.57-8.38,1.5-11.38-1.11-3.24-2.81-6.24-5.87-9.4-9.1-.31-.32-.63-.64-.95-.97-.81.43-1.63.86-2.46,1.29-5.77,3.04-11.74,6.19-17.71,9.53-1.95,1.09-3.84,1.64-5.7,1.64Zm14.2-82.76c-9,3.56-17.79,7.29-25.79,10.69-2.02.86-3.09,1.98-2.93,5.44.36,8.12.68,18.83,0,29.54-.68,10.63,3.64,18.37,14.44,25.86.07.05.13.09.18.12.07-.03.15-.08.24-.13,6.09-3.41,12.12-6.59,17.96-9.66.73-.38,1.44-.76,2.15-1.14-2.57.09-5.21-.38-7.54-1.57-6.31-3.22-9.84-8.54-9.95-14.96l-.04-2.16c-.15-7.93-.3-16.13.46-24.27.69-7.46,4.5-13.56,10.84-17.77Zm15.13,58.18l1.46,1.46c1.36,1.36,2.64,2.67,3.88,3.93,2.92,2.98,5.47,5.58,8.15,7.96.02,0,.04,0,.06,0,5.44-2.79,11.16-5.95,17.81-9.84-5.51-3.24-8.49-8.03-8.87-14.29-.05-.78-.11-1.56-.18-2.34-.13-1.58-.27-3.21-.28-4.92-.02-6.56-.03-13.13-.03-19.69,0-15.13-.01-30.78-.29-46.14-.05-2.66-1.23-5.73-2.47-8.97-.25-.65-.5-1.3-.74-1.95-.48-1.28-1.21-2.64-1.98-4.08-1.31-2.43-2.79-5.18-3.44-8.36-.84-4.14-1.4-8.32-1.88-12.44-9.08,8.75-20.63,15.67-36.01,21.68,3.67.46,7.4.98,11.08,1.74,9.01,1.86,15.21,7.81,17.44,16.75,1.18,4.71,2.03,8.12.34,11.4-1.14,2.22-2.89,3.45-5.31,4.54l6.23-1.24v6.71c0,4.57,0,9.12.02,13.65.02,11.96.05,24.34-.1,36.46-.04,3.14-1.82,6.04-4.9,7.99Zm33.9,4.81s.02,0,.03.01c-.01,0-.02,0-.03-.01Zm-39.91-55.46c-4.32,1.96-8.46,5.36-9,11.25-.7,7.53-.55,15.42-.41,23.05l.04,2.17c.03,1.45.46,3.57,3.97,5.37,1.45.74,4.15.27,5.33-.36.14-11.71.11-23.68.09-35.26,0-2.07,0-4.14-.01-6.22Z"/><path class="cls-1" d="m908.87,208.91c-.66,0-1.31-.07-1.94-.21-8.38-1.93-17.26-13.27-17.28-22.07-.02-15.45-.02-30.91-.02-46.36v-35.95c0-14.67,0-29.33,0-44,0-7.04-.74-9.87-4.87-11.72-2.2-.99-3.44-3.04-3.67-6.1-.2-2.6-.03-7.29,3.33-9.46,5.74-3.71,11.77-6.99,17.6-10.17l3.04-1.66c2.04-1.12,4.71-1.4,6.95-.74,8.68,2.55,16.59,13.41,16.6,22.78v30.54c0,30.89,0,62.84.08,94.26,0,3.39.49,6.4,1.38,8.69.19.48.91,1.59,3.63,3.59,3.2,2.35,4.88,5.42,4.73,8.66-.08,1.74-.81,5.01-4.77,7.37-6.21,3.7-12.6,7.22-18.79,10.63l-1.32.73c-1.42.78-3.07,1.2-4.68,1.2Zm-.62-10.84s-.01,0-.02.01h.02Zm-15.31-157.4c7.68,5.56,7.69,14.53,7.69,19.64.01,14.67.01,29.34,0,44.01v35.95c0,15.45-.01,30.89.01,46.34,0,3.46,4.72,9.79,8.13,11.17l.77-.43c5.38-2.97,10.92-6.02,16.31-9.17-2.33-1.85-4.81-4.28-6.05-7.45-1.4-3.6-2.12-7.86-2.13-12.66-.08-31.43-.08-63.39-.08-94.29v-30.53c0-4.18-4.2-10.32-8.02-11.98l-2.31,1.26c-4.77,2.6-9.68,5.27-14.34,8.14Zm17.4-9.81h0s0,0,0,0Z"/><path class="cls-1" d="m857.86,208.88c-.78,0-1.56-.09-2.29-.28-8.38-2.12-16.93-13.3-16.94-22.15-.01-23.11-.01-46.22,0-69.34v-25.19s-7.95-.35-7.95-.35l-.48-4.73c-.99-9.65,2.05-12.8,9.25-16.22,10.14-4.81,16.85-12.41,20.53-23.24,1.14-3.36,2.79-6.33,4.4-9.21.68-1.23,1.33-2.38,1.92-3.55l2.29-4.51,9.55,3.9v35.27h10.48v5.51c-.03,6.4-.04,10.26-2.81,13.31-2.02,2.21-4.56,2.99-8.18,3.45-.02,25.84-.03,51.68,0,77.52,0,6.91,1.12,9.44,4.95,11.29,2.98,1.44,4.84,4.17,4.98,7.29.15,3.42-1.79,6.77-5.08,8.74-6.4,3.83-13,7.46-19.38,10.98l-.72.4c-1.3.72-2.9,1.09-4.49,1.09Zm-14.82-127.78l6.58.29v35.72c0,23.11,0,46.22,0,69.33,0,3.65,4.61,9.95,8.11,11.32l.03-.02c5.52-3.04,11.21-6.17,16.73-9.41-7.88-5.72-7.89-14.68-7.89-19.25-.02-26.12-.02-52.23,0-78.34,0-1.23.11-2.39.2-3.42.04-.4.07-.8.1-1.2l.33-4.72,4.71-.38c2.02-.16,4.26-.34,5.49-.57,0-.06.01-.12.02-.18h-10.34v-21.68c-5.03,9.73-12.73,17.09-22.97,21.95-.42.2-.79.38-1.1.54Z"/></g></svg>