<?xml version="1.0" encoding="UTF-8"?><svg id="Layer_2" xmlns="http://www.w3.org/2000/svg" viewBox="0 0 74.41 151.43"><defs><style>.cls-1{fill:#231f20;stroke-width:0px;}</style></defs><g id="Layer_4"><g id="Layer_5"><path class="cls-1" d="m52.66,151.43c-2.33,0-4.75-.97-6.75-2.84-.36-.34-.71-.69-1.05-1.05-.8-.83-1.2-1.92-1.14-3.07.05-.93.41-1.81,1.01-2.51v-.04c-.21-.01-.41-.03-.61-.04-1.38-.1-2.68-.2-3.97-.12-.17.11-.45.4-.64.65.81,1.52,1.01,2.8.61,3.92-.67,1.85-2.79,2.6-4.49,3.2-.36.13-.72.25-1.05.38-3.91,1.57-7.64.23-9.75-3.49-2.17-3.82-1.56-7.64,1.71-10.75,1.46-1.39,3.28-3.12,5.35-3.81,2.91-.96,3.85-2.44,3.72-5.87-.07-1.81-.13-3.62-.19-5.43l-.1-2.88,1.36.45c.67.22,1.37.34,2.08.35,1.05.02,2.08.06,3.09.1,2.29.09,4.46.18,6.7-.03l1.01-.09.08,1.01c.24,3.05.45,5.52.67,7.78.23,2.33.75,3.72,3.01,4.85,2.27,1.14,4.52,3.23,6.18,5.72h0c2.46,3.7,1.52,9.31-2.01,12-1.42,1.08-3.1,1.61-4.83,1.61Zm-11.57-11.7c1.07,0,2.13.08,3.16.15.42.03.83.06,1.25.09l.67.04.85,2.54-.51.44c-.51.43-.78.98-.81,1.58-.03.59.18,1.16.59,1.58.32.33.65.66.98.97,2.75,2.59,6.45,3.04,9,1.1,2.42-1.85,3.61-6.22,1.56-9.31h0c-1.47-2.21-3.44-4.05-5.41-5.04-3.03-1.53-3.83-3.68-4.1-6.44-.2-2.02-.39-4.21-.6-6.82-2,.12-3.93.04-5.96-.04-1-.04-2.01-.08-3.04-.1-.44,0-.89-.05-1.32-.12v.13c.07,1.81.13,3.62.2,5.43.12,3.16-.42,6.31-5.09,7.85-1.64.54-3.21,2.04-4.6,3.36-2.57,2.45-3.04,5.33-1.35,8.31,1.63,2.87,4.27,3.82,7.27,2.62.35-.14.73-.28,1.13-.41,1.37-.48,2.93-1.03,3.27-1.99.23-.63-.01-1.53-.71-2.7-.15-.24-.26-.65.03-1.2.16-.31,1.23-1.91,2.36-1.98.4-.03.8-.04,1.2-.04Zm-1.87,2.19s0,0,0,0c0,0,0,0,0,0Z"/><path class="cls-1" d="m28.08,120.02c.15.14.29.3.42.46l-.23-.3c.22.28.39.59.54.91l-.15-.36c.15.37.26.75.31,1.14l-.05-.4c.05.37.05.75,0,1.12l.05-.4c-.02.1-.03.2-.06.31-.14.63.08,1.37.69,1.69s1.32.24,1.82-.23c1.4-1.32,2.2-3.26,2.15-5.18l-2.56,1.06c.12.11.22.22.32.35l-.23-.3c.14.19.26.39.35.61l-.15-.36c.1.24.16.48.2.74l-.05-.4c.03.26.03.51,0,.76l.05-.4c-.03.24-.09.46-.18.68l.15-.36s-.03.07-.05.11c-.17.38-.27.74-.15,1.16.1.35.36.73.69.9.35.18.77.28,1.16.15.35-.11.74-.34.9-.69.24-.53.37-.98.43-1.55.05-.44,0-.88-.08-1.31-.16-.83-.62-1.64-1.23-2.21-.45-.42-1.07-.55-1.64-.31-.53.23-.94.77-.92,1.37,0,.29,0,.57-.04.85l.05-.4c-.07.48-.19.94-.38,1.39l.15-.36c-.19.45-.43.86-.72,1.25l.23-.3c-.18.22-.37.43-.57.63l2.51,1.46c.42-1.93-.15-4.02-1.59-5.4-.57-.54-1.56-.61-2.12,0s-.61,1.54,0,2.12h0Z"/><path class="cls-1" d="m51.04,121.51c.07.07.15.15.2.23l-.14-.18s.06.08.09.13c.1.15.18.31.26.48l-.15-.36c.12.29.2.58.25.89l-.05-.4c.04.28.04.57,0,.85l.05-.4c-.09.68-.32,1.32-.14,2.01.33,1.26,1.75,1.74,2.85,1.15.66-.36,1.11-1.05,1.24-1.78s.02-1.41-.08-2.16l.05.4c-.04-.28-.06-.57-.02-.85l-.05.4c.02-.12.05-.24.1-.35l-.15.36c.03-.06.09-.13.11-.19-.15.19-.19.24-.11.15.03-.03.05-.06.08-.09.24-.28.45-.55.56-.91.16-.54.09-1.11-.2-1.59-.48-.8-1.48-1.12-2.37-1.14-.6,0-1.14.38-1.37.92-.25.58-.09,1.17.31,1.64.85,1,2.53,1.21,3.62.48.65-.44,1-1.34.54-2.05-.42-.65-1.36-1.01-2.05-.54-.07.05-.15.09-.23.13l.36-.15c-.1.04-.21.07-.32.09l.4-.05c-.13.02-.26.02-.4,0l.4.05c-.13-.02-.26-.06-.38-.11l.36.15c-.08-.04-.15-.09-.23-.13.21.17.26.21.15.11-.03-.03-.06-.06-.09-.1l-1.06,2.56c.08,0,.16,0,.25.02l-.4-.05c.17.02.33.07.49.13l-.36-.15c.16.07.26.23-.06-.08.1.1.06.04-.13-.19.02.03.03.06.05.09l-.15-.36s.02.06.02.1l-.05-.4s0,.07,0,.11l.05-.4s-.02.09-.04.13l.15-.36c-.11.22.21-.21.08-.08-.04.04-.07.08-.1.12-.14.16-.29.33-.4.52-.24.4-.32.82-.37,1.28-.06.58.07,1.17.16,1.74l-.05-.4c.03.27.04.53,0,.8l.05-.4c-.02.15-.06.29-.12.43l.15-.36s-.06.09-.07.14c-.04.06-.02.04.07-.08.1-.12.11-.14.04-.06-.15.13.16-.12.17-.11,0,0-.17.1-.17.1l.36-.15s-.09.03-.14.04l.4-.05s-.1,0-.14,0l.4.05-.05-.02.36.15c-.13-.06-.07-.01.18.16.17.25.22.31.15.18l.15.36c-.03-.07-.04-.13-.05-.21l.05.4c-.01-.12,0-.24.01-.36l-.05.4c.06-.41.17-.8.21-1.22.04-.46-.01-.92-.1-1.36-.17-.87-.64-1.69-1.24-2.33-.54-.57-1.58-.59-2.12,0s-.58,1.51,0,2.12h0Z"/><path class="cls-1" d="m57.32,118.57c.42.97.58,2.09.44,3.14-.03.22.02.44.23.56.41.24.84.05,1.07-.33s.22-.78.23-1.19c.02-.9,0-1.79-.05-2.69-.01-.2-.15-.45-.37-.48-.27-.04-.51,0-.72.19-.14.13-.24.31-.28.5-.09.44.11.96.59,1.06.26.05.54-.08.62-.35.07-.25-.08-.56-.35-.62-.08-.02.05.04.08.06-.08-.07.07.09,0,0,.03.07.04.08.02.05,0-.04,0-.02,0,.05,0-.06.02-.09-.01,0,.01-.03.02-.07.03-.1-.02.07-.04.05,0,0-.02.02-.11.1-.08.09.03-.02.02-.01-.05.02-.05.01-.09.01-.14,0l-.37-.48c.04.7.06,1.4.06,2.1,0,.34,0,.69-.02,1.03,0,.03,0,.06,0,.08,0-.05,0-.05,0,0,0,.03-.02.06-.03.1.02-.04.02-.04,0,0-.01.02-.02.04-.04.06.03-.04.03-.04,0,0,.09-.05.2-.09.3-.04l.23.56c.18-1.35,0-2.67-.54-3.91-.11-.25-.47-.3-.68-.18-.26.15-.29.44-.18.68h0Z"/><path class="cls-1" d="m32.84,122.92l.1,1.86c0,.15.02.3.02.46,0,.05,0,.1,0,.15,0,.03,0,.07,0,.1,0-.05,0-.05,0,0,0,.03-.02.06-.03.09.02-.05.02-.04-.01,0,.04-.05.04-.05,0-.01.05-.04.05-.04,0-.01.06-.02.07-.02.01,0-.06.01-.05.01.02,0,.07.01.08.01.03,0,.04,0,.07.02.1.05l.15.35c-.01-.77-.02-1.54-.03-2.31,0-.26-.23-.51-.5-.5s-.5.22-.5.5c0,.61.02,1.23.03,1.84,0,.14,0,.28,0,.41.01.25.11.43.34.56.28.16.63.11.9-.05.57-.35.5-1.05.47-1.63l-.1-1.86c-.01-.26-.22-.51-.5-.5-.26.01-.52.22-.5.5h0Z"/><path class="cls-1" d="m28.55,126.38c-.18.24-.36.48-.54.72-.16.22-.31.47-.35.75-.09.59.24,1.07.78,1.28.47.18,1.05.07,1.4-.3.23-.24.35-.59.26-.92-.04-.14-.11-.29-.22-.39-.06-.06-.13-.11-.2-.14-.04-.02-.09-.04-.14-.06-.11-.05-.05.02.2.21v-.04c0-.15-.05-.31-.07-.46-.02-.16-.04-.32-.07-.48,0-.04-.01-.08-.02-.11.01.09,0-.02,0-.04,0-.07-.01-.15-.02-.22,0-.07,0-.13,0-.2-.01.11.06-.16.02-.07l-.93-.25c0,.15,0,.31,0,.46,0,.08,0,.16-.02.24,0,.04,0,.07-.01.11-.02.17,0-.04,0,.06-.05.31-.12.62-.23.92-.12.34-.29.71-.07,1.05s.79.49,1.08.14c.17-.2.21-.51,0-.71-.18-.17-.53-.21-.71,0,.09-.11.3-.12.41-.03.04.03.16.19.1.22.02,0,.04-.14.05-.15.02-.05.04-.1.06-.15.08-.22.15-.45.2-.68.11-.49.16-.99.13-1.49-.01-.21-.15-.43-.37-.48-.2-.05-.47.03-.56.23-.23.51-.15,1-.08,1.53.03.24.07.49.1.73.02.14.06.26.14.37.05.07.11.12.18.17.04.03.09.04.14.06.05.02.02.02,0,0-.02-.02-.04-.03-.06-.05-.01-.02-.04-.11-.03-.05s0-.03,0-.03c0,.01,0,.08,0,.01.01-.07,0,.01,0,.01,0,0,.03-.08,0-.02-.02.05,0,0,.01-.02-.02.02-.04.04-.06.06.07-.06-.03,0-.06.03-.05.04.04-.02.04-.02,0,0-.04.01-.05.02-.02,0-.13.04-.05.02.06-.02.02,0,0,0s-.05,0-.07,0c0,0-.07,0-.07,0,0,0,.1.03.05,0-.03-.01-.07-.02-.1-.03,0,0-.05-.01-.05-.02,0,0,.09.05.04.02-.02-.01-.14-.08-.08-.04s-.02-.03-.04-.04c-.05-.03.04.03.03.04,0,0-.02-.04-.03-.04,0,0-.02-.04-.02-.04,0,0,.04.1.02.04,0,0-.01-.05-.01-.05-.02,0,.03.13,0,0-.01-.05,0,0,0,.02,0-.03.01-.06.02-.09,0,0,.03-.08,0-.03-.02.04.02-.04.03-.05.06-.11.13-.21.2-.31.17-.23.35-.47.53-.7.16-.21.04-.57-.18-.68-.26-.14-.52-.04-.68.18h0Z"/><path class="cls-1" d="m54.08,128.1c.07.15,0,.39-.04.58-.06.27-.13.54-.11.82.02.3.11.59.31.82s.47.29.71.44c.16.1.3.28.39.46,0,0,.03.07.02.05.02.05,0,.09.02.02,0-.02.02-.06.02-.08,0,0,.05-.07.02-.02-.04.05.02-.02.02-.01,0,0-.07.03-.02.02.03,0-.09.03-.12.03,0,0-.08.01-.03,0s-.03,0-.03,0c-.05,0-.1,0-.14,0-.1,0-.19-.01-.28-.05,0,0-.09-.05-.09-.05.05.04-.01-.03,0,0,.02.04-.01-.03,0-.04,0,.01,0,.03,0,.05,0,0-.03.07-.03.07.04.03.38-.27.4-.28.13-.14.22-.33.22-.53,0-.42-.44-.8-.86-.64s-.49.67-.12.91c.13.09-.02-.02.05.04.03.03.07.06.09.1-.03-.04.08.16.06.11.05.14.06.27.03.37l.84-.22c-.08-.1-.16-.19-.24-.29l-.1-.11-.07-.09s-.03-.04,0,0l.07.25c-.3.26-.37.37-.22.32.03,0,.03,0,0,0-.05-.02.04,0,.07,0,.13,0,.27-.04.39-.11.25-.14.4-.44.31-.72-.05-.16-.18-.31-.35-.35-.35-.07-.68-.07-1.04-.03-.19.03-.34.24-.36.42-.02.19.06.4.24.5.1.05.13.08.22.18.18.2.53.18.71,0,.2-.2.18-.5,0-.71-.12-.13-.26-.25-.42-.33l-.12.91c.17-.02.35,0,.51.03l-.35-.35v-.06c.01-.08.04-.17.06-.25.03-.05.09-.07.12-.11.02-.02.06,0,0-.01-.08,0-.18.01-.26.04-.21.06-.42.22-.47.45-.11.45.35.82.61,1.13.24.29.75.13.84-.22.16-.68-.11-1.36-.69-1.75l-.12.91c.07-.03-.49-.47-.35-.48,0,0,.06-.02,0,0-.06.02-.13.07-.18.1-.15.1-.28.22-.36.38-.16.31-.1.7.1.98.37.5,1.18.64,1.75.46.3-.09.58-.3.68-.61.1-.34-.03-.71-.22-1s-.41-.51-.68-.68c-.13-.08-.27-.13-.4-.2-.05-.03-.05-.03-.09-.07.04.05,0-.02,0-.03.02.05,0-.01,0-.03,0,0-.02-.09,0-.03,0-.04,0-.07,0-.11s0-.08,0-.11c0-.01,0-.09,0-.04.02-.16.07-.32.1-.48.08-.42.09-.8-.09-1.19-.11-.24-.47-.31-.68-.18-.25.15-.29.44-.18.68h0Z"/><path class="cls-1" d="m55.04,60.53c.05,1.09-1.33,1.62-2.04.78-1.08-1.27-2.5-2.9-1.76-3.88.91-1.21,3.05-2.8,3.76-3.67,3.97-2.94-.06,4.35.05,6.76Z"/><path class="cls-1" d="m53.88,62.23c-.48,0-.93-.21-1.26-.59l-.08-.09c-1.19-1.4-2.67-3.14-1.71-4.41.54-.72,1.48-1.55,2.31-2.29.61-.54,1.18-1.05,1.46-1.39l.09-.09c.74-.55,1.58-1.05,2.17-.63.73.53.35,1.82-.45,4.24-.43,1.3-.91,2.77-.87,3.53h0c.03.71-.38,1.34-1.05,1.6-.2.08-.41.12-.62.12Zm1.46-8.09c-.34.4-.89.89-1.53,1.46-.79.7-1.69,1.5-2.17,2.14-.48.64.81,2.16,1.67,3.16l.08.09c.23.27.54.27.75.19.1-.04.43-.2.41-.62h0c-.04-.94.45-2.44.92-3.88.34-1.03.84-2.56.79-3.07-.13.04-.41.16-.91.53Z"/><path class="cls-1" d="m49.35,121.58c-4.87,0-11.72-.48-21.41-1.69l-1.12-.14-.26-.58c-1.56-.7-1.66-2.13-1.58-2.96.14-1.95.26-3.82.35-5.6h-.07s.17-2.04.17-2.04c.45-10.34.13-17.42-.17-19.55-.14-.98-.36-1.97-.66-2.97l3.76-1.35c1.48,3.55,2.18,7.51,2.08,11.79v.12s-.86,10.33-.86,10.33c.35.03.73.07,1.13.11l.92.09c.44.05.83.09.92.08.18-.04.21-.04.75-.58.4-.41.95-.96,1.81-1.61.99-.76,1.63-1.06,2.14-1.29.43-.2.71-.33,1.29-.82,1.08-.9,1.6-1.35,1.79-1.99.1-.34.07-.54-.03-1.02-.14-.7-.34-1.76.32-3,.65-1.22,1.95-2.18,3.38-2.5,1.07-.24,2.07-.08,2.8.46.44.32.71.71.88,1.1.15-1.74-2.14-4.17-3.52-5.62-.41-.43-.72-.72-.99-.96-.56-.52-1.09-1.01-1.62-2.02-.71-1.35-.78-2.39-.82-3.14-.03-.54-.05-.81-.27-1.24-.26-.52-1.63-1.46-3.53-2.77-1.65-1.14-2.99-1.91-3.49-2.19-1.43-.8-2.12-1.09-2.73-1.34-.65-.27-1.26-.52-2.33-1.18-1.21-.75-1.94-1.37-2.58-1.91-.69-.58-1.28-1.08-2.49-1.78-.94-.54-3.66-2.3-7.1-4.53l-2.59-1.68c-2.43-1.57-7.49-4.83-10.59-10.79-1.66-3.2-2.19-6.04-2.65-8.55C-.22,42.95,0,41.61.3,40.75c.63-1.83,1.69-2.61,2.82-3.44.73-.54,1.56-1.14,2.6-2.25,1.01-1.08,1.52-1.87,1.96-2.57.67-1.05,1.29-2.04,2.91-2.87,2.41-1.24,5.78-1.62,7.91.29,2.85,2.57,1.53,7.24.44,9.36-.29.56-.5.81-.81,1.16-.26.29-.69.77-1.69,2.13-.9,1.22-1.83,2.58-2.35,3.34.08.88.25,1.77.45,2.29.56-.29,1.63-1.1,3.66-3.26,1.87-1.99,3.42-4.31,4.61-6.88,1.68-3.65,2.09-6.66,2.45-9.31.32-2.36.36-4.27.12-5.39-.16-.71-.64-2.87-2.31-4.63-.7-.74-1.17-.95-1.89-1.29-.7-.33-1.58-.73-2.68-1.62-2.91-2.37-6.27-7.33-4.23-10.46,2.22-3.41,8.88-1.26,10.87-.51,2.51.94,3.81,2.11,4.46,2.94.76.96,1.01,1.75,1.3,2.66.14.44.31.97.59,1.68.21.55,1.07,2.14,2.36,4.56l1.17,2.18c1.44,2.67,1.56,2.89,1.69,3.74.13.84.2,1.5.26,2.05.14,1.27.17,1.36.49,1.77.12.15.38.46.56.65,1.6-.62,2.27-2.8,2.4-3.25.18-.66.15-.94.05-1.66-.12-.85-.28-2.01-.1-4.09.08-1,.21-1.72.29-2.25.05-.29.11-.66.1-.76-.08-.16-.1-.2-.9-.58-.66-.31-1.57-.73-2.67-1.53-1.52-1.12-4.36-3.19-4.42-6.46-.05-3.02,2.31-6.02,5.05-6.42,1.57-.22,2.6.47,3.36.98.57.38,1.06.71,1.97.88.8.15,1.25.05,1.81-.07.76-.17,1.81-.39,3.09.24,2.91,1.43,3.28,5.14,3.64,8.74.06.61.08,1.05.09,1.62.1-.3.22-.61.38-.92.91-1.72,2.78-2.98,4.77-3.21,3.14-.36,5.37,1.83,7.74,4.15,2.24,2.2,3.59,3.52,4.13,5.6.69,2.65-.27,5.18-2.18,10.22-.26.68-.64,1.61-1.29,2.72-.03.04-.67,1.14-1.48,2.14-1.2,1.47-2.34,2.19-3.35,2.82-.72.45-1.4.88-2.15,1.61-.5.49-.86.87-1.13,1.17,1.63.1,4.49-.35,6-2.08.59-.67.86-1.43,1.17-2.31.5-1.42,1.13-3.18,3.19-4.52.81-.53,3.62-2.14,5.58-.55,1.95,1.58,1.25,5.12.3,7.85-.18.69-1.15,4.15-2.75,6.62-1.2,1.84-2.31,2.45-3.49,3.1-.97.53-2.06,1.13-3.79,2.75-.18.17-.36.34-.53.51l-1.82,1.81-.8-1.35c-.74.06-1.83.13-3.48.12-.55,0-.91-.02-1.18-.02-.38-.01-.47-.02-.75.01-.83.09-2.23.24-2.69.81-.03.08-.02.18-.03.29-.02.59-.06,1.47-.67,2.64-.63,1.21-1.41,1.79-1.93,2.18-.38.28-.48.37-.6.61-.3.6-.26,1.48.1,2.48.66,1.81,2.59,2.74,3.88,3.35.78.38,1.55.6,2.7.94.56.17.99.3,1.32.37,1.38.32,2.36,1.49,2.45,2.89.09,1.46-.02,2.97-.33,4.51l-.11.52-.35.4c-.89,1.01-1.53,2.12-1.89,3.29-.39,1.25-.31,2.06-.14,4.01.07.79.16,1.7.22,2.83.19,3.14.1,5.54,0,8.56-.09,2.77-.25,4.25-.35,5.13q-.1.92.02,1.29c.44,1.4,1.19,2.11,2.14,3.01,1.18,1.12,2.66,2.52,3.03,5.23.17,1.22.13,2.93.07,4.16.01.74.1,6.59-.14,7.38-.63,2.02-2.38,4-12.22,4Zm-20.18-5.57c23.66,2.89,27.81,1.02,28.52.39.04-1.17.04-4.84.01-6.19v-.07s0-.07,0-.07c.08-1.49.06-2.76-.03-3.49-.18-1.32-.8-1.9-1.82-2.87-1.09-1.04-2.46-2.33-3.2-4.73-.36-1.16-.3-1.78-.18-2.91.09-.88.24-2.22.33-4.84.1-2.92.18-5.23,0-8.19-.06-1.08-.14-1.96-.21-2.71-.19-2.14-.32-3.55.3-5.55.48-1.54,1.27-3,2.34-4.32.14-.81.2-1.61.19-2.38-.27-.08-.59-.17-.95-.28-1.24-.37-2.21-.66-3.28-1.17-1.64-.78-4.69-2.24-5.91-5.59-.75-2.07-.73-4.02.07-5.63.55-1.1,1.26-1.64,1.79-2.03.38-.29.57-.43.78-.83.19-.37.2-.54.21-.94.02-.62.06-1.57.89-2.61,1.5-1.89,4.04-2.16,5.4-2.31.56-.06.87-.05,1.31-.03.24,0,.57.02,1.07.02,1.56,0,2.58-.07,3.25-.12.25-.02.51-.04.77-.04,2.01-1.87,3.42-2.63,4.45-3.2,1-.55,1.41-.77,2.06-1.77,1.36-2.1,2.25-5.49,2.26-5.52l.05-.16c.35-1.01.63-2.21.71-3.03-.19.09-.41.2-.61.34-.89.58-1.15,1.22-1.6,2.51-.37,1.05-.84,2.36-1.93,3.6-2.54,2.91-6.93,3.78-9.94,3.36-2.2-.31-3.08-1.26-3.43-2.01-1.07-2.26,1.29-4.56,2.7-5.93,1.06-1.03,1.99-1.62,2.82-2.14.89-.56,1.6-1,2.38-1.97.61-.74,1.13-1.62,1.13-1.63.5-.85.8-1.57,1-2.11,1.56-4.11,2.42-6.38,2.05-7.79-.25-.96-.98-1.71-3.06-3.75-2.01-1.97-3.3-3.19-4.48-3.04-.69.08-1.4.54-1.7,1.11-.35.66-.14,1.52.15,2.49.53,1.78,1.41,2.72,2.27,3.63,1,1.07,2.14,2.27,2.09,4.33-.07,2.61-2.01,4.31-4.25,6.28-1.85,1.62-4.38,3.84-6.68,2.62-1.69-.9-1.67-2.35-1.6-6.23.01-.73.03-1.58.04-2.57.01-1.3,0-1.7,0-2.15-.01-.56-.02-1.18,0-3.61.02-1.87.04-3.14.06-4.05.03-1.72.04-2.07-.05-2.93-.2-2.03-.51-5.1-1.42-5.55-.07,0-.31.04-.48.08-.72.16-1.8.39-3.39.09-1.71-.32-2.76-1.02-3.45-1.49-.2-.13-.48-.32-.57-.35-.62.1-1.63,1.29-1.61,2.39.02,1.28,1.75,2.55,2.78,3.3.77.57,1.39.85,1.99,1.13.99.46,2.11.98,2.81,2.46.57,1.21.42,2.16.25,3.17-.08.48-.18,1.08-.25,1.92-.14,1.63-.02,2.47.08,3.21.12.89.25,1.81-.15,3.27-.32,1.15-1.64,4.99-5.27,6.07-2.43.73-3.82-1-4.65-2.02-1.08-1.34-1.2-2.39-1.35-3.85-.05-.5-.12-1.1-.24-1.87-.07-.25-.52-1.08-1.26-2.46l-1.17-2.19c-1.6-3-2.27-4.24-2.55-4.98-.33-.83-.52-1.44-.68-1.94-.25-.79-.33-1.01-.62-1.39-.17-.22-.88-.98-2.73-1.67-2.64-.98-5.37-1.33-6.13-1-.06.72,1.23,3.34,3.41,5.12.71.58,1.23.82,1.83,1.1.88.41,1.87.87,3.1,2.15,2.44,2.56,3.1,5.54,3.32,6.52.36,1.61.34,3.9-.06,6.79-.38,2.79-.86,6.25-2.78,10.44-1.36,2.97-3.16,5.64-5.33,7.95-2.61,2.78-5.63,5.64-8.32,4.35-2.34-1.12-2.69-5-2.73-6.62l-.07-2.77,1.25.38c.54-.79,1.27-1.84,1.98-2.81,1.11-1.51,1.62-2.09,1.93-2.43q.17-.19.25-.34c.88-1.7,1.1-3.95.44-4.54-.54-.49-2.16-.35-3.41.29-.65.33-.83.62-1.36,1.46-.49.77-1.15,1.82-2.42,3.17-1.29,1.38-2.36,2.16-3.14,2.73-.96.71-1.2.9-1.41,1.51-.17.49-.08,1.76.24,3.48.43,2.34.88,4.77,2.26,7.43,2.61,5.02,7.07,7.9,9.21,9.28l2.59,1.68c3.13,2.02,6.08,3.93,6.93,4.42,1.53.88,2.35,1.58,3.08,2.2.59.5,1.14.97,2.1,1.57.79.49,1.17.65,1.74.88.68.28,1.53.63,3.17,1.55.55.31,2.01,1.15,3.79,2.38,2.73,1.88,4.1,2.82,4.82,4.24.6,1.17.66,2.12.7,2.81.04.58.06.93.37,1.53.21.4.33.51.8.94.31.29.69.64,1.18,1.15,2.03,2.15,5.1,5.39,4.55,9.06-.08.54-.22.97-.35,1.34-.15.46-.28.83-.29,1.52,0,.34.01.61.03.84.04.68.12,1.93-1.02,2.73-.42.29-1.14.59-2.16.37-1.25-.27-2.53-1.22-3.25-2.42-.07-.12-.14-.24-.19-.35-.01.41-.07.87-.22,1.37-.54,1.83-1.83,2.9-3.07,3.94-.98.81-1.6,1.1-2.15,1.36-.41.19-.76.36-1.42.86-.63.48-1.04.89-1.39,1.25-.68.69-1.39,1.4-2.79,1.68-.64.13-1.01.09-2.12-.02l-.9-.09c-.35-.03-.69-.07-1-.09-.08,1.6-.18,3.26-.3,4.97.05.03.1.07.16.11ZM51.73,15.95c0,.64-.02,1.39-.03,2.27-.02,2.35-.01,2.96,0,3.5,0,.46.02.89,0,2.26-.01,1-.02,1.86-.04,2.6-.01.71-.02,1.37-.02,1.92.61-.45,1.29-1.05,1.67-1.38,1.6-1.41,2.87-2.52,2.89-3.38,0-.36-.19-.63-1-1.49-1.01-1.07-2.39-2.54-3.19-5.23-.09-.29-.19-.65-.28-1.06Z"/><path class="cls-1" d="m30.38,80.94c-.18.65-.36,1.68.72,5.75.83,3.12,1.26,4.71,2.16,5.75,1.2,1.4,1.96,1.21,2.88,2.7,1.19,1.92.8,3.65,1.44,3.78.63.12,1.58-1.44,1.98-2.88.67-2.44-.23-4.66-.54-5.39-.81-1.92-1.58-2.08-2.7-4.31-.6-1.21-.42-1.32-1.26-3.6-1.14-3.08-1.72-4.63-2.52-4.67-.9-.05-1.81,1.63-2.16,2.88Z"/><path class="cls-1" d="m60.89,47.02c1.82-.83,1-.23,1.22.03.34.4-.43,1.28-.81,3.42-.14.81-.06.87-.18,1.8-.21,1.68-.22,1.72-.65,2.93-1.02,2.84-2.03,4.25-1.96,5.61.06,1.18.54,2.1.27,2.25-.2.11-.71-.25-.99-.72-.57-.95.1-1.85.54-4.31.25-1.43,1.84-1.1,2.14-2.82.29-1.7-.35-2.04-.16-3.2.16-.97.85-3.2.58-4.98Z"/><path class="cls-1" d="m58.71,63.58c-.51,0-1.07-.53-1.34-.98-.49-.81-.28-1.58.01-2.65.14-.53.32-1.18.47-2.01.16-.89.74-1.28,1.2-1.59.27-.18.51-.34.68-.59.09-.22.17-.45.26-.69.13-.81.03-1.24-.07-1.69-.1-.41-.2-.84-.09-1.46.04-.22.1-.51.17-.84.24-1.07.6-2.69.4-3.98l-.06-.37.34-.16c1.02-.46,1.4-.61,1.73-.34.26.21.21.51.18.64.23.41.05.89-.17,1.49-.19.52-.45,1.22-.62,2.2-.07.42-.08.62-.1.86-.01.22-.03.47-.08.91-.21,1.69-.22,1.77-.66,3-.07.37-.19.66-.34.9-.27.68-.53,1.27-.76,1.81-.51,1.16-.88,2-.84,2.74.03.5.13.96.22,1.32.14.58.27,1.12-.21,1.39-.1.06-.21.08-.32.08Zm-.63-2.13c-.01.22.02.4.11.57-.04-.17-.08-.37-.11-.57Zm3.35-14.11c.02.25.03.51.02.77.01-.03.02-.06.03-.08.1-.27.22-.61.22-.71-.02-.02-.04-.04-.05-.07-.06.03-.13.06-.21.09Z"/></g></g></svg>