<?xml version="1.0" encoding="UTF-8"?><svg id="Layer_2" xmlns="http://www.w3.org/2000/svg" viewBox="0 0 106.23 111.54"><defs><style>.cls-1{fill:#231f20;stroke:#231f20;stroke-miterlimit:10;}</style></defs><g id="Layer_3"><path class="cls-1" d="m21.51,99.92c-.53-1.41-1.83-2.13-2.86-3.08C7.54,86.56,1.55,73.93.62,58.78-.42,41.9,5.25,27.63,17.12,15.86,25.39,7.65,35.45,2.81,47.1,1.1c14.86-2.19,28.06,1.76,40.26,9.99.68.46,1.33.98,1.92,1.55.32.31.48.78.68,1.12-1.29,3.1-1.56,3.25-4.33,2.97-9.76-.99-18.5,1.82-26.27,7.58-9.55,7.08-14.87,16.63-15.82,28.52-.6,7.53,1.18,14.55,4.91,21.08.98,1.71,1.78,3.34.71,5.22-3.34,1.03-4.33.75-5.99-1.9-3.14-5-4.8-10.56-5.37-16.36-2.42-24.4,12.62-40.72,28.55-47.13,1.87-.75,3.79-1.32,5.73-1.8,1.02-.25,2.09-.32,2.83-1.23C57.96,2.6,33.61,5.58,18.53,23.28c-15.66,18.38-16.41,44.48-1.62,63.03,14.26,17.88,39.12,22.38,57.83,13.91-.72-1.01-1.84-.95-2.78-1.14-7.65-1.48-14.17-5.11-19.83-10.38-.97-.9-7.78-8.94-8.09-10.27,1.34-3.78,2.59-5.47,5.31-2.76,5,7.29,15.93,18.61,27.05,18.25,2.6.38,5.16.66,7.73-.09.23-.07.46-.11.69-.15,2.33-.31,4.01.33,4.62,1.75.68,1.58-.04,3.5-1.95,4.82-10.95,7.54-23.03,11.49-36.38,10.67-8.35-.52-16.23-2.93-23.44-7.36-1.89-1.16-3.55-2.78-5.83-3.26-.1-.14-.21-.27-.33-.38Z"/><path class="cls-1" d="m94.74,61.46c.78,3.66,1.57,7.22,2.27,10.79.69,3.48.43,4.1-2.36,6.18-4.29-2.11-8.71-4.29-13.26-6.53-4.48,2.1-8.95,4.2-13.48,6.33-.91-.14-1.59-.78-2.4-1.59-.44-5.01,1.57-9.87,1.69-15.33-3.17-3.21-6.56-6.64-9.61-9.73-.53-1.63.06-2.54.35-3.6,4.95-1.45,10.1-1.43,15.15-2.88,1.63-3.47,3.25-6.99,4.95-10.48,1.31-2.69,1.69-2.84,5.24-2.61,2.64,3.91,3.97,8.63,6.47,12.9,2.22,1.35,4.94,1.02,7.43,1.69,1.58.43,3.24.64,4.88.79,1.89.17,3.06,1.05,3.63,3.27-2.85,3.98-7.16,6.8-10.94,10.82Zm-13.57-19.18c-.99,1.96-1.95,3.72-2.78,5.53-1.09,2.38-2.71,3.74-5.49,3.62-1.82-.08-3.61.31-5.62,1.03.94,1.14,1.51,2.07,2.3,2.74,3.48,2.95,4.34,6.53,2.91,10.8-.31.93-.6,2.03.33,3.01,2.96-.9,5.64-2.42,8.34-3.68,3.06.78,5.4,3.27,8.82,3.54-.24-1.71-.21-3.18-.67-4.48-1.03-2.9.05-5,2-7.02,1.45-1.49,3.01-2.93,4.14-4.97-2.85-.97-5.58-.92-7.98-1.15-3.48-2.14-3.54-6.33-6.3-8.98Z"/></g></svg>