<?xml version="1.0" encoding="UTF-8"?><svg id="Layer_2" xmlns="http://www.w3.org/2000/svg" viewBox="0 0 112.34 132.13"><defs><style>.cls-1{fill:#231f20;stroke:#231f20;stroke-miterlimit:10;}</style></defs><g id="Layer_3"><path class="cls-1" d="m42.98,11.71c.98-10.69.98-10.44,11.27-10.46,12.9-.03,25.8-.57,38.71-.75,1.69-.02,3.92.28,5,1.34,4.32,4.25,8.5,8.69,12.27,13.44,1.27,1.6,1.63,4.31,1.62,6.5-.15,26.49-.46,52.98-.71,79.47-.07,7.62-.36,15.25,0,22.85.2,4.37-1.77,5.71-5.53,6.43-9.4,1.79-18.44.81-27.22-2.87-3.2-1.34-6.3-2.28-9.52,1.91-1.34-1.89-2.45-3.46-3.8-5.38-4.52,6.49-10.75,7.76-17.66,7.38-9.74-.55-19.53-.61-28.42-5.64-.86-.49-2.7.78-4.1,1.19-2.09.61-4.98,2.32-6.1,1.53-1.98-1.39-3.97-4.26-4.07-6.6C3.13,85.98,1.85,49.9.53,13.82c-.25-6.91.74-7.99,7.59-8.71,8.06-.86,16.11-1.88,24.2-2.4,1.89-.12,4.22,1.14,5.75,2.46,1.82,1.58,2.99,3.9,4.91,6.55Zm20.54,105.86c2.17,2.44,3.85,4.34,5.54,6.24,3.99-.3,7.84.06,11.39,1.29,8.98,3.12,17.93,3.91,26.86,1.42.29-.61.42-.76.42-.91.09-31.97.19-63.94.25-95.91,0-3.53-2-5.51-5.32-6.12-2.27-.42-4.59-.61-6.9-.78-3.61-.26-5.2-1.91-4.92-5.72.3-4.21.07-8.46.07-12.44h-44.52c.68,6.76,1.34,13.23,1.99,19.7-.49.14-.97.29-1.46.43-.84-1.26-1.72-2.49-2.52-3.78-2.64-4.19-5.12-8.49-7.94-12.55-.79-1.15-2.58-2.4-3.82-2.31-8.87.62-17.72,1.57-27.02,2.45,1.69,39.09,3.36,77.71,5.09,117.76,3.07-2.72,4.84-4.29,5.94-5.26,4.39,1.91,7.99,4.23,11.89,5,6.46,1.29,13.1,1.87,19.7,2.22,8.85.48,11.89-1.7,15.29-10.73Zm30.72-98.42c4.89-.25,9.17-.46,13.78-.69-3.78-7.74-9.25-13.14-13.78-13.88v14.58Z"/><path class="cls-1" d="m56.27,32.04c15.1-2.42,33.47,8.38,34.66,29.36,1.09,19.19-13.93,35.08-33.75,36.12-18.4.97-36.16-13.33-36.82-29.65-.85-20.79,13.21-34.82,35.91-35.83Zm30.61,26.55c-1.34-13.24-13.79-24.24-25.54-22.93,1.26,5.44,2.35,10.91,3.89,16.26.37,1.28,2.06,2.77,3.4,3.09,5.9,1.39,11.89,2.37,18.25,3.59Zm-59.92-5.71c-6.07,12.27-3.56,25.36,5.86,31.9,2.84-6.77,5.67-13.52,8.59-20.48-4.81-3.8-9.45-7.47-14.45-11.42Zm42.06,38.49c-4.32-4.59-8.06-8.69-11.97-12.61-.59-.59-2.25-.85-2.98-.45-5.72,3.07-11.34,6.33-17.66,9.91,10.76,6.44,20.95,7.57,32.61,3.15Zm18.72-28.32c-6.19,2.57-11.52,4.64-16.69,7.05-.93.44-1.88,2.34-1.72,3.39.79,5.14,1.95,10.23,3.11,15.97,9.82-6.11,14.64-14.35,15.29-26.41Zm-58.64-13.7c5.66.79,11.17,1.62,16.7,2.26.74.09,1.97-.58,2.32-1.24,2.53-4.76,4.9-9.61,7.39-14.57-10.68-1.69-21.55,3.9-26.41,13.54Zm35.72,19.34c-1.73-11.68-1.77-11.4-11.6-12.77-6.6-.92-5.24,4.83-7.64,7.41q11.03,10.99,19.24,5.36Zm-28.19,15.51c6.14-3.48,11.19-6.34,16.52-9.36-3.13-2.86-5.88-5.37-9.1-8.31-2.49,5.92-4.73,11.26-7.42,17.66Zm25.58-30.2c-1.32-5.67-2.43-10.48-3.83-16.49-2.8,5.55-5.01,9.96-7.48,14.85,4.01.58,7.32,1.06,11.31,1.64Zm19.49,7.82c-.05-.32-.11-.64-.16-.96-4.91-.87-9.82-1.74-15.22-2.69.74,3.46,1.34,6.27,2.01,9.38,4.73-2.03,9.05-3.87,13.37-5.72Zm-13.55,23.16c-.88-4.42-1.63-8.19-2.48-12.47-2.45,1.14-4.52,2.1-6.67,3.11,3.24,3.31,5.96,6.09,9.15,9.36Zm-33.85-31.64c-.13.27-.25.54-.38.81,2.9,2.3,5.79,4.61,8.93,7.1,1.03-2.12,1.87-3.86,2.99-6.17-4.22-.64-7.88-1.19-11.54-1.75Z"/><path class="cls-1" d="m79.26,94.6c.77.62,1.57,1.15,2.24,1.82,5.02,5,10.06,9.98,14.96,15.09.69.72.67,2.12.98,3.2-1.1-.37-2.5-.43-3.25-1.16-5.09-4.92-10.08-9.95-15-15.04-.68-.7-.9-1.88-1.18-2.89-.05-.17.67-.56,1.26-1.03Z"/><path class="cls-1" d="m100.62,27.92c-5.17,4.85-10.27,8.74-16.31,11.26,1.15-4.66,11.98-12.09,16.31-11.26Z"/><path class="cls-1" d="m24.49,111.26c-.31-1.2-1.01-2.38-.68-2.89,2.63-3.98,5.42-7.86,8.28-11.67.33-.44,1.58-.61,2.1-.34.41.22.7,1.57.42,1.99-2.66,3.96-5.45,7.85-8.24,11.72-.26.36-.79.51-1.88,1.18Z"/><path class="cls-1" d="m18.36,26.85c1.2.92,1.81,1.22,2.2,1.71,1.94,2.43,3.91,4.85,5.68,7.41.4.58.02,1.7,0,2.57-.84-.2-2.01-.11-2.45-.64-2.1-2.51-4.09-5.13-5.9-7.86-.37-.55.23-1.74.48-3.19Z"/></g></svg>