<?xml version="1.0" encoding="UTF-8"?><svg id="Layer_2" xmlns="http://www.w3.org/2000/svg" viewBox="0 0 139.55 136.88"><defs><style>.cls-1{fill:#231f20;stroke:#231f20;stroke-miterlimit:10;}</style></defs><g id="Layer_3"><path class="cls-1" d="m114.27,18.23c16.68,16.83,22.87,36.56,19.06,59.5,2.97,2.79,7.11,4.99,5.27,10.16-1.77,4.99-6.11,4.88-10.39,5.11-10.85,20.34-27.56,32.54-50.68,36.12-1.47,3.59-3.18,7.46-8.03,7.25-4.26-.18-6.16-3.37-7.2-7.19-22.96-3.52-39.85-15.47-50.85-36.07-4.22-.46-9.12-.09-10.68-5.76-1.3-4.75,2.33-6.79,5.43-9.58-3.83-22.73,2.25-42.66,18.85-59.32-.92-4.24-3.26-8.82,1.74-12.09,4.2-2.74,7.53-.24,11.06,2.39,21.06-10.89,42.34-11.17,63.66,0,3.63-2.46,7.23-5.49,11.67-2.08,4.22,3.23,2.57,7.36,1.08,11.53Zm-60.17,42.32c2.05,6.05,4.13,12.15,6.15,18.09h19.1c2.06-6.09,4.08-12.09,6.11-18.12-5.52-4-10.66-7.73-15.71-11.38-5.35,3.9-10.27,7.49-15.65,11.41Zm66.33,19.65c-.89,3.84-3.37,3.12-5.38,3.13-16.89.04-33.77.02-50.66.04-.75,0-1.5.22-2.67.39.75,1.67,1.32,2.94,1.92,4.28,22.43,0,44.61.03,66.78-.06,1.38,0,2.75-.89,4.13-1.36.1-.48.19-.96.29-1.44-11.08-8.66-22.75-16.52-34.4-25.2-.59,1.81-1.02,3.11-1.48,4.5,7.27,5.33,14.31,10.49,21.46,15.73Zm-31.29-1.5c7.51-22.51,14.92-44.7,22.35-66.96-.92-.82-1.63-1.45-2.62-2.33-11.67,8.46-23.24,16.86-35.17,25.51,1.71,1.07,2.92,1.83,4.09,2.57,7.48-5.36,14.71-10.56,22.1-15.86,1.08.91,1.9,1.61,2.76,2.33-6.1,18.29-12.12,36.33-18.26,54.75h4.75Zm-42.29,4.65c-7.75,0-15.18.02-22.61-.01-1.89,0-4.1.53-5.17-2.95,14.99-11.54,30.91-22.33,46.56-34.14-1.46-1.08-2.58-1.91-3.61-2.67C42.09,56.64,7.27,82.62,5.23,85.95c.66,2.38,2.61,2.09,4.4,2.09,6.95,0,13.9,0,20.84,0,5.77,0,11.54,0,17.86,0-.58-1.84-1-3.17-1.47-4.68Zm-7.11-61.7c15.66,11.32,31.28,22.6,47.25,34.14.58-1.84.99-3.16,1.42-4.55-19.35-14.02-38.47-27.88-58.35-42.28-.9.93-1.65,1.71-2.19,2.27,4.73,14.15,9.15,27.4,13.74,41.14,1.49-1.2,2.57-2.07,3.73-3-2.88-8.69-5.67-17.11-8.49-25.61,1.01-.74,1.77-1.3,2.88-2.12Zm6.69,44.43c.21.97.27,1.45.42,1.91,6.67,20.05,13.34,40.1,20.08,60.12.48,1.41,1.54,2.63,2.78,4.66,1.26-1.81,2.25-2.73,2.62-3.85,3.93-11.74,7.75-23.51,11.59-35.27.03-.1-.13-.26-.4-.74-1.2.06-2.58.13-4.01.21-2.36,7.1-4.57,13.84-6.85,20.56-.63,1.84-1.13,4.05-4.51,2.97-.46-1.2-1.08-2.69-1.6-4.22-5.27-15.65-10.52-31.31-15.8-46.95-.18-.54-.66-.99-1.08-1.61-1.17.8-2.1,1.44-3.25,2.23ZM97.04,12.17c-15.85-9.75-43.03-8.37-54.17.25,2.58,1.88,5.09,3.71,7.75,5.65,12.79-4.89,25.58-4.88,38.35,0,2.67-1.95,5.18-3.78,8.07-5.89ZM26.86,23.35c-13.65,14.71-18.79,31.4-16.26,51.49,3.26-2.35,5.88-4.23,8.48-6.1-.8-13.54,3.23-25.34,11.18-35.68-1.16-3.31-2.19-6.24-3.4-9.71Zm82.43,9.78c8.2,10.57,11.94,22.47,11.21,35.55,1.57,1.16,2.87,2.18,4.23,3.12,1.28.88,2.61,1.68,4.3,2.76,2.38-19.89-2.73-36.6-16.33-51.2-1.23,3.52-2.3,6.59-3.41,9.78ZM17.39,93.05c5.88,14.96,28.45,30.88,43.02,30.37-1.06-3.12-2.1-6.2-3.15-9.28-12.62-3.56-22.52-10.61-29.82-21.1h-10.05Zm61.53,31.09c19.88-3.69,33.87-14.02,43.91-31.09h-10.73c-7.33,10.68-17.51,17.62-29.87,21.2-1.09,3.25-2.07,6.19-3.31,9.89ZM55.16,21.38c5.4,3.9,10.03,7.25,14.66,10.59,4.91-3.58,9.38-6.82,14.64-10.65-10.1-2.67-19.11-2.81-29.3.07Zm-31.29,43.88c4.91-3.55,9.25-6.7,13.76-9.97-1.85-5.52-3.59-10.73-5.59-16.69-5.49,8.41-8.34,16.62-8.17,26.66Zm91.85.06c.07-10.12-2.65-18.38-8.28-26.73-2.03,6.24-3.73,11.49-5.45,16.77,4.64,3.37,8.88,6.45,13.73,9.97Zm-31.59,43.34c9.35-3.38,16.19-8.06,22.07-15.46h-16.95c-1.65,4.98-3.19,9.62-5.12,15.46Zm-50.96-15.68c6.22,7.61,12.93,12.43,22.24,15.59-1.96-5.86-3.6-10.73-5.23-15.59h-17.01Zm61.05-14.48h16.09c-4.79-3.47-8.72-6.32-12.97-9.4-1.11,3.34-2.03,6.1-3.13,9.4Zm-64.94.05h16.05c-1.1-3.34-2.04-6.19-3.11-9.47-4.4,3.22-8.28,6.06-12.94,9.47Zm20.18-31.86c2.86-2.07,5.45-3.95,8.49-6.16-4.47-3.23-8.64-6.24-12.81-9.25-.21.17-.42.33-.63.5,1.59,4.77,3.17,9.54,4.96,14.91Zm46-16.12c-5.19,3.74-9.37,6.75-13.84,9.97,3.04,2.2,5.63,4.08,8.49,6.15,1.79-5.39,3.38-10.16,5.36-16.12Zm-26.16,75.61c.31.02.62.04.92.07,1.41-4.29,2.81-8.58,4.27-13.04h-9.44c1.51,4.6,2.88,8.79,4.25,12.97Z"/></g></svg>