<?xml version="1.0" encoding="UTF-8"?><svg id="Layer_2" xmlns="http://www.w3.org/2000/svg" viewBox="0 0 130.88 139.46"><defs><style>.cls-1{fill:#231f20;stroke:#231f20;stroke-miterlimit:10;}</style></defs><g id="Layer_3"><path class="cls-1" d="m12.09,34.95c-5.93-2.33-6.06-2.96-3.35-16.17-1.4-1.63-2.86-3.34-4.2-4.9,1.82-4.85,5.91-7.27,10.63-5.87,2.92.86,5.6,2.67,8.24,4.29,1.47.9,2.64,2.26,4.55,2.82-1.87-2.28-3.74-4.57-5.91-7.21,4.03-2.76,7.92-2.11,11.29-.85,3.3,1.23,6.35,3.47,9.09,5.76,1.7,1.43,3.29,2.32,5.32,1.8,3.98-1.04,7.99-2.11,11.79-3.64,1.24-.5,2.13-2.39,2.75-3.82.9-2.09,1.42-4.35,2.12-6.6,2.48.39,2.51,2.22,2.88,3.74,1.09,4.38,3.52,7.36,8.14,8.32,1.77.37,3.44,1.22,5.2,1.62,3.32.75,6.18.75,8.92-2.29,3.52-3.91,8.35-5.94,13.78-5.78,1.7.05,3.38.55,6.21,1.05-2.57,3.22-4.44,5.56-6.31,7.9l.45.59c1.53-1.32,3.02-2.69,4.6-3.95,3.91-3.1,8.07-4.98,13.29-3.37,2.66.82,4.39,2.12,5,5.41-1.24,1.49-2.69,3.22-4.24,5.07.43,5.6,6.15,12.44-3.39,16.25-1.98,8.97-1.04,18.05-.03,27.08.34,3.07,2.48,5.36,5.38,6.68,1.46.66,2.98,1.22,5.42,2.21-1.73.93-2.7,1.62-3.78,2-4.76,1.68-7.14,5.01-7.41,10.04-.45,8.09-1.45,16.18.39,24.19,6.27,3.17,6.36,3.64,3.46,16.48,1.41,1.67,2.87,3.4,4.2,4.97-1.82,4.93-6.57,7.27-11.62,5.7-2.16-.67-4.13-2.01-6.1-3.17-1.19-.7-2.23-1.67-3.72-2.08,1.15,1.71,2.29,3.43,3.38,5.05-1.01,2.66-3.15,2.45-5.09,2.41-5.18-.1-9.67-2.05-13.49-5.49-1.1-.99-1.98-2.22-2.69-3.03-5.03-.88-8.91,1.25-13.04,2.33-4.44,1.16-6.02,5.33-8.93,8.31-3.39-2.59-3.74-7.52-8.43-8.36-3.99-.72-7.87-2.09-11.28-3.03-11.03,9.38-17.24,11.31-23.15,7.19,1.51-2.09,3.02-4.18,4.53-6.27-.11-.19-.21-.37-.32-.56-1.38,1.14-2.74,2.3-4.13,3.41-3.81,3.05-7.93,4.56-12.9,3.11-2.66-.78-4.42-2.09-5.04-5.41,1.23-1.48,2.67-3.22,4.25-5.14-.45-5.57-6.19-12.45,3.37-16.2,2.12-8.83.91-17.75.14-26.63-.29-3.31-2.42-5.72-5.52-7.1-1.48-.66-2.98-1.29-5.55-2.4,2.07-.96,3.24-1.59,4.46-2.06,4.33-1.64,6.6-4.75,6.86-9.37.45-8.25,1.63-16.51-.45-25.04Zm20.59-18.12c-3.23,1.77-5.51.92-7.58-.64-1.58-1.19-3-2.59-4.5-3.9-2.88-2.51-6.12-3.12-9.69-1.8-3.1,1.15-3.77,3.27-1.29,5.56,2.4,2.22,2.5,4.3,1.34,7.06-1.08,2.58-1.99,5.3-.56,8.36,3.59.46,5.27,2.77,5.28,6.38.03,6.42-.16,12.85.09,19.26.22,5.83-1.18,10.76-6.67,14.22,5.04,3.34,6.85,7.71,6.64,13.29-.24,6.41.06,12.84.1,19.26.02,4.04-1.6,6.95-6.39,7.74.41,2.62.38,5.01,1.2,7.06,1.29,3.23,1.7,5.75-1.44,8.34-2.04,1.69-1.27,3.89,1.32,4.98,3.49,1.47,6.79,1.06,9.75-1.4,1.78-1.48,3.45-3.11,5.32-4.46,2.09-1.51,4.36-2.18,6.88-.14-2.15,2.52-4.15,4.87-6.62,7.76,5.67,1.07,10.33.23,13.51-3.84,3.58-4.59,7.91-4.93,12.85-3.68,2.56.64,5.21,1.31,7.48,2.58,2.18,1.22,3.91,3.23,6.08,5.11,2.19-5.44,7.1-6.06,11.73-7.34,5.66-1.57,10.46-1.57,14.63,3.73,3,3.8,7.65,4.61,12.94,3.39-1.4-1.76-2.4-3.07-3.47-4.32-.97-1.15-2.02-2.24-3.29-3.65,3.32-1.54,5.58-.92,7.64.72,1.68,1.34,3.26,2.81,4.91,4.19,2.8,2.32,5.95,2.77,9.3,1.52,3.13-1.17,3.78-3.27,1.3-5.56-2.39-2.22-2.52-4.3-1.33-7.05,1.12-2.59,1.92-5.32.59-8.27-3.25-.61-5.26-2.4-5.26-6,0-6.75.08-13.51-.14-20.26-.18-5.64,1.36-10.34,5.88-13.18-1.97-2.97-5.05-5.55-5.3-8.38-.76-8.52-.45-17.13-.5-25.71-.02-3.61,1.73-5.9,6.13-6.38-.43-2.84-.44-5.52-1.3-7.88-1.07-2.93-1.39-5.12,1.27-7.51,2.47-2.22,1.73-4.38-1.4-5.53-3.59-1.32-6.81-.62-9.68,1.86-1.63,1.41-3.2,2.89-4.93,4.14-2.09,1.5-4.34,2.03-6.96.33,2.24-2.73,4.25-5.17,6.64-8.08-6.35-.78-10.97.51-14.47,5.09-1.8,2.36-4.36,3.9-7.34,3.37-6.6-1.19-13.65-1.67-17.41-8.1-1.72,1.57-3.14,3.5-5.04,4.43-2.79,1.37-5.92,2.04-8.92,2.97-5.1,1.58-9.25.65-12.75-3.82-3.16-4.03-7.86-4.94-12.99-3.16,2.1,2.41,4.11,4.71,6.39,7.32Zm70.22,17.89c-.01-5.81-1.5-7.29-7.33-7.3-19.7-.02-39.4-.02-59.1,0-6.39,0-7.58,1.14-7.59,7.52-.03,24.17-.03,48.34,0,72.51,0,6,1.37,7.36,7.29,7.38,19.7.04,39.4.03,59.1,0,6.13,0,7.62-1.51,7.63-7.59.02-11.92,0-23.84,0-35.76s.02-24.5,0-36.75Zm-59.02,77.78c1.83-4.57,3.28-8.75,5.15-12.72,1.9-4.02,4.21-7.85,6.21-11.51,4.3,2.26,8.19,4.8,12.44,6.41,4.24,1.6,8.96,3.52,12.84-1.76,1.01,1.92,1.97,3.46,2.67,5.11,1.98,4.67,3.86,9.39,5.93,14.47h-45.25Zm53.41.2c-2.11.11-4.23.02-5.88.02-3.19-7.66-6.17-14.79-9.12-21.86,1.02-4.9,2.06-9.87,3.1-14.83,6.9,7.69,9.74,17.82,13.82,27.27.33-.09.66-.19.99-.28-.29-1.67-.26-3.47-.92-4.97-2.4-5.42-4.6-11-7.66-16.04-7.44-12.26-12.6-25.34-15.93-39.25-.54-2.28-2.35-4.25-3.62-6.35.03,0,.05.01.08.02-3.27-5.37-12.72-3.39-15.88.82-2.03,2.7-3.87,5.87-4.64,9.11-1.01,4.28-.96,8.83-1.22,13.28-.18,3.15,2.19,4.53,5.37,6.01-1.29.79-2.13,1.3-3.35,2.04-.1-.07-.2-.14-.3-.21-.22.21-.44.43-.65.65l.68,4.34c1.05.55-1.32,9.33,2.33,3.77.32-.8,1.56-3.95,1.92-4.85,2.21.69,4.29,1.34,6.94,2.16,6.06-1.24,11.83-3.87,14.36-11.7.84.52,1.96.83,2.41,1.55,4.4,7.12,3.57,22.82-1.72,29.33-.97,1.2-3.18,2.37-4.53,2.11-6.01-1.18-11.86-3.04-16.24-7.73-.78-.84-1.24-1.97-2.32-3.77,7.83-.42,14.86-2.89,20.72,4.44-.61-3.96-3.56-4.91-5.49-6.7.24-2.22.47-4.32.7-6.42l-1.08-.28c-.91,2.21-1.81,4.41-2.83,6.88-4.53-1.08-9.78,1.92-13.88-2.39.35-.89.69-1.76,1.05-2.65-.47-.12-.93-.26-1.4-.41-.06.12-.15.23-.28.32-1.05.72-2,1.51-3.16,2-.15.27-.33.53-.52.78-.28.94-.53,1.91-.89,2.82,2.38,1.69,5.24,3.64,6.47,4.64-6.36,8.37-10.73,16.6-12.7,25.89h-10.61V30.09c1.76-.22,3.33-.59,4.9-.59,19.7-.04,39.4-.04,59.1-.02,4.96,0,5.43.47,5.42,5.4-.06,22.19-.18,44.37-.24,66.56,0,2.49.18,4.97.25,7.45s-1.2,3.69-3.54,3.81Zm-24.7-62.02c-1.04-2.07-3.24-3.04-6.64-1.19-1.78-3.46-3.41-6.61-5.04-9.77-1.87,2.07-3.61,3.93-5.27,5.86-2.63,3.04-.56,10.66,3.56,12.98,1.1.62,2.37.94,4.52,1.76-2.31,1.51-3.87,2.93-5.7,3.64-2.96,1.15-6.45-1.31-6.24-4.34.29-4.28.53-8.63,1.49-12.78,1.22-5.26,3.57-9.78,9.39-11.81,3.61-1.26,6.28.79,9.35,1.36.87,3.43,1.67,6.88,2.63,10.29,1.2,4.27,2.52,8.5,3.76,12.65-1.92-.22-4.25-.5-6.98-.82-2.25-2.53,2.05-4.3,1.18-7.83Zm-2.96,3.37c-2.29,1.47-4.77,2.75-7.34,3.62-.88.3-2.97-.6-3.26-1.4-.89-2.51-1.47-5.21-1.57-7.86-.05-1.39,1.15-2.83,2.21-5.17,3.01,4.76,4.99,9.17,11.69,6.71-.82,2.05-.94,3.6-1.74,4.11Zm24.99,56.62c.45-8.37.85-16.72-6.44-23.16,2.15,7.72,4.29,15.44,6.44,23.16Zm-53.69-11.96c2.72-3.92,5.74-7.63,8.55-11.49.53-.73.71-1.71,1.06-2.57-9.05,8.46-17.01,20.98-17.02,25.59,2.46-3.85,4.8-7.79,7.41-11.54ZM11.31,13.56c2.42-.62,4.92-.97,7.42-1.03-2.04-.81-4.22-1.28-6.41-1.39-.41-.02-.83-.02-1.19.18-.45.26-.68.8-.76,1.31-.48,3.14,3.02,5.61,3.26,8.78.16,2.24-1.34,4.27-1.53,6.51-.29,3.41,2.43,6.22,4.05,9.23,2.66,4.96,2.39,10.91,2.05,16.53-.35,5.86-.79,11.99-3.89,16.98-.62.99-2.3,1.84-2.69.73,1.97-.75,4.37-.17,5.79,1.39s1.76,4.01.82,5.89c-.15-2.17-.91-4.29-2.15-6.07-1.6,2.05-.15,4.95.82,7.37,3.66,9.18-.87,19.38-1.35,29.25-.06,1.24-.09,2.6-.89,3.56s-2.68,1.02-3.06-.17c-.14,3.04.52,6.06.71,9.1s-.18,6.3-2.08,8.68c4.22.85,8.78-.18,12.23-2.75,2.05-1.53,3.97-3.68,6.53-3.8-4.81.61-9.76.14-14.36-1.38-.44,1.37-.64,2.81-.59,4.24,2.54.3,5.17-.17,7.45-1.34-.95-1.8-2.94-2.73-4.55-3.96s-3.01-3.39-2.08-5.2c3.19,2.15,6.48,4.34,10.25,5.13,4.05.85,8.8.16,11.83,2.97-1.33.58-2.97.38-4.12-.51,1.46.28,3.36,1.25,2.88,2.66-.26.77-1.13,1.11-1.87,1.45-2.15.99-3.92,2.76-4.91,4.91,3.29-.57,6.49-1.72,9.39-3.37,1.57-.89,3.18-2.11,3.52-3.89s-1.5-3.86-3.12-3.06c3.87-.03,7.75-.06,11.62-.09-5.92-.28-11.69-1.81-17.42-3.32-3.18-.85-6.41-1.71-9.26-3.35s-5.35-4.18-6.2-7.36c-.98,2.02-1.79,4.85.02,6.19.55.41,1.25.57,1.93.71,5.22,1.12,10.45,2.25,15.67,3.37,4.14.89,8.51,1.9,11.54,4.85l-1.5.87c3.49-1.05,7.25-2.11,10.7-.93,2.28.78,4.12,2.45,5.9,4.08,1.32,1.22,2.65,2.43,3.97,3.65.62-1.66-.2-3.59-1.52-4.78s-3.05-1.8-4.72-2.39c-2.16-.75-4.32-1.51-6.48-2.26.87,1.43,2.17,2.58,3.69,3.27-1.77-.74-3.54-1.48-5.32-2.22,3.88,1.11,7.73,2.36,11.52,3.74-1.54-2.07-4.07-3.35-6.65-3.38.36.88,1.17,1.57,2.1,1.78-6.15-5.83-15.22-6.94-23.55-8.5-2.16-.4-4.36-.87-6.25-2s-3.45-3.02-3.6-5.21c-.69.76-1.07,1.8-1.02,2.83-3.62-6.6-4.11-14.83-1.29-21.8-2.6,5.8-3.73,12.25-3.27,18.59.96-2.38,1.77-4.83,2.42-7.31m6.57-77.5c-2.7-1.8-5.39-3.6-8.09-5.4.07,2.26,2.11,3.87,3.87,5.28s3.58,3.47,2.97,5.65c-.29,1.05-1.1,1.87-1.67,2.8-1.03,1.69-1.24,3.87-.54,5.72-2.26-6.93-5.37-13.58-9.21-19.77,2.68,1.03,4.34,3.86,4.78,6.71s-.11,5.73-.67,8.56c-2.19-2.12-1.13-6.49,1.79-7.37.26-.08.54-.13.81-.08.74.15,1.05,1.01,1.22,1.75,1.52,6.67,1.57,13.58,1.6,20.42.03,6.25.06,12.49.09,18.74-.32-3.06-.65-6.13-.97-9.19-.39,2.24-1.14,4.41-1.46,6.67-.28,1.93-.23,3.89-.19,5.83.11,5.08.22,10.16.33,15.23.16,7.43.34,14.99,2.6,22.07m79.9,12.52c1.16.96,2.33,1.92,3.49,2.88,2.75,2.27,5.73,4.63,9.28,4.95-1.33.03-1.61-1.82-2.31-2.94-.69-1.11-2.01-1.61-3.07-2.37-1.12-.81-2.02-1.97-3.31-2.47-.78-.3-1.63-.33-2.46-.36-5.02-.16-10.04-.33-15.06-.49,1.16-.21,2.36-.27,3.54-.18-2.29.9-3.82,3.68-6.28,3.61-.8-.02-1.54-.36-2.3-.62-3.03-1.02-6.33-.65-9.5-.27,3.43-.52,6.91-1.07,10.01-2.61-10.95.05-21.91.1-32.86.15,2.57,1,5.45.96,8.06,1.86,2.67.92,4.99,2.85,6.38,5.31,1.31-2.23,3.52-3.92,6.02-4.58-10.08-.03-20.15-.82-30.11-2.36m49.83,7.44c.49.56,1.18.94,1.91,1.05.31.05.65.06.88.28.18.18.23.45.33.68.26.65.97,1.1,1.68,1.04m12.59-52.98c-.52,9.04-1.03,18.08-1.55,27.12-.11,1.96-.26,4.03-1.35,5.67-.8,1.19-2.06,2.07-2.64,3.38s.1,3.34,1.53,3.23c.64-.05,1.17-.52,1.61-.99.64-.69,1.22-1.47,2.03-1.95,1.44-.85,3.49-.49,4.5.85s.77,3.46-.54,4.5m-8.53-11.96c.71-27.2.76-54.43.13-81.63m8.14-4.39c2.05,2.26,1.74,5.81.61,8.64s-2.95,5.39-3.64,8.36c-.42,1.79-.4,3.65-.35,5.48.27,9.42,1.51,18.8,3.69,27.97m-17.12-58.12c-.64.8-1.75,1.19-2.75.97.94-.41,2.12-.21,2.87.49-.49,1.59-2.14,2.48-3.67,3.12-2.36,1-4.79,1.82-7.27,2.46-.89.23-1.8.44-2.72.46-1.08.02-2.15-.21-3.2-.45-4.6-1.02-9.24-2.06-13.49-4.09-.94-.45-1.9-.95-2.94-.92-1.02.04-1.94.6-2.8,1.14-1.25.78-2.49,1.56-3.74,2.34-1.54.97-3.12,1.95-4.89,2.34-2.37.53-4.85-.03-7.17-.77-5.52-1.74-10.73-4.43-15.34-7.91.8.37,1.47,1.05,1.82,1.86.15.34.25.71.45,1.02.3.47.79.77,1.26,1.06,2.42,1.48,4.83,2.97,7.25,4.45-2.69-.1-5.38-.07-8.06.08-.61.04-1.26.09-1.75.46s-.69,1.17-.25,1.59c.26.25.65.29,1.01.31,4.46.29,8.92-.3,13.38-.57,13.59-.83,27.25,1.26,40.81.1,3.43-.29,6.93-.79,10.28.03.84.2,1.66.49,2.52.59,1.2.14,2.41-.1,3.57-.4,2.44-.64,4.79-1.58,7-2.81,1.82-1.01,3.75-2.66,3.46-4.72-1,1.35-2.21,2.55-3.57,3.54,2.54-1.22,4.87-2.86,6.88-4.84m-15.51-3.65c.38-.2.61-.64.55-1.06"/></g></svg>