<?xml version="1.0" encoding="UTF-8"?><svg id="Layer_2" xmlns="http://www.w3.org/2000/svg" viewBox="0 0 78.34 156.73"><defs><style>.cls-1{fill:#231f20;stroke-width:0px;}</style></defs><g id="Layer_4"><g id="Layer_5"><path class="cls-1" d="m63.13,22.39c-.69-6.78,1.8-12.12,4.38-16.46,0-.78-.07-1.38-.71-2.02-.86-.86-1.57-.67-2.98-.2-.73.24-1.49.5-2.32.5-1.15,0-2-.65-2.74-1.22-1.02-.78-1.67-1.21-2.82-.87-2.52,1.7-2.27,2.2-1.54,3.64,2.8,4.67,4.12,9.72,4,15.39l-2-.04c.12-5.28-1.11-9.98-3.75-14.38-1.39-2.78-.85-4.25,2.3-6.35l.24-.12c2.29-.76,3.73.34,4.78,1.14.57.43,1.06.81,1.53.81.5,0,1.08-.19,1.68-.39,1.37-.46,3.25-1.08,5.02.69,1.29,1.29,1.29,2.63,1.29,3.71v.28l-.14.24c-2.46,4.1-4.89,9.14-4.25,15.47l-1.99.2Z"/><path class="cls-1" d="m28.01,146.64l-1.6-1.27h-.02s-.18.66-.18.66l-.69.11c-.81.09-1.08-.45-1.83-1.92-.09-.18-.2-.39-.3-.59-.47.47-1.1,1.37-1.2,1.73l-.17.59-.75.19-1.29.24.11-1.3c.15-1.78.44-3.56.73-5.29.39-2.37.79-4.81.8-7.18v-1.25s1.22.28,1.22.28c.12.03.25.05.38.07.37.08.69.1.98.09h.06s.11,0,.11,0c.74,0,1.46-.12,2.11-.36l.24-.06,1.16-.19.08,1.16c0,1.59.24,3.17.49,4.84.26,1.72.52,3.49.51,5.28v.98s-.84.01-.84.01c-.08.31-.14.83-.14,1.06l.03,2.11Zm-3.96-5.18c.54.13.76.56,1.42,1.86.01.02.02.04.03.06.17-.22.43-.53.76-.7.13-.36.32-.69.6-.88.03-.02.05-.04.08-.05-.05-1.39-.26-2.78-.48-4.25-.19-1.26-.38-2.54-.47-3.84-.53.1-1.09.16-1.66.16h-.13c-.19,0-.4,0-.63-.02-.1,2.14-.45,4.26-.8,6.33-.09.54-.18,1.09-.27,1.64.1-.07.2-.13.29-.18.23-.12.44-.18.63-.2l.03-.03.11.02h0c.18,0,.34.04.46.08Z"/><path class="cls-1" d="m34.7,143.16v-2.09c0-2.35-.08-7.45-.18-10.09l-.04-.88.87-.15c.29-.05.91-.09,1.89-.15.56-.03,1.3-.08,1.59-.11l.26-.1h.16c.79-.02,1.39-.14,2.21-.34l.46-.04,1.06-.08v1.07c.01.85.27,2.48.52,4.06.27,1.7.52,3.31.53,4.27v1.58s-1.32-.62-1.32-.62c-.26-.03-.94-.04-1.11-.03l-.36.02-.31-.21s-.07.02-.09.04l-.19,1.34-1.21-.61c-.15-.03-.71.05-1.01.15,0,.24.01.73.06.94l.55.97-1.12.4c-.52.19-.99,0-1.4-.54-.04,0-.08,0-.13.01-.09,0-.19.02-.27.02l-1.42,1.14Zm2.72-1.4s-.01,0-.02.01c0,0,.01,0,.02-.01Zm-.87-9.91c.07,2.09.12,5.02.14,7.24.42-.73,1.64-.99,2.59-1.03.21-.26.48-.47.81-.61.55-.23,1.17-.23,1.68,0,.05,0,.11,0,.17,0-.1-.83-.26-1.87-.42-2.89-.18-1.16-.36-2.27-.46-3.18-.51.1-1.02.17-1.58.19-.04.01-.07.03-.1.04l-.13.03c-.29.05-.91.09-1.89.15-.25.01-.54.03-.81.05Z"/><path class="cls-1" d="m18.16,134.49c-.22,0-.44,0-.66,0-2.42-.02-4.48-1.67-5.02-4-.92-3.98-1.12-7.87-.6-11.54.18-1.26.4-2.19.59-3.02.3-1.27.53-2.27.52-4.07-.03-4.68-1.66-8.35-2.63-10.12-1.17-2.14-.06-4.59,2.97-6.54,1.95-1.26,4.35-.77,6.85,1.36.15-.11.32-.22.49-.31,1.1-.58,2.54-.67,3.74-.23,1.31.48,2.3,1.38,3.18,2.17.23.21.47.42.7.63.38.32.98.77,1.6.98l.58-4.58c.07-.54.18-1.43.82-2.15,1.02-1.14,2.45-1.01,3.4-.92.26.02.51.05.76.04.85-.03,1.62-.8,2.01-1.54.52-1.01.67-2.26.79-3.56.08-.84.23-3.63-1.09-4.14-.36-.14-.9-.12-1.48-.1-.83.03-1.76.06-2.72-.33-3.18-1.29-3.06-5.52-3.02-6.91.02-.81,0-3.47-1.23-3.85-.55-.16-1.36.13-2.41.87-2.54,1.79-4.4,3.28-4.42,3.3l-1.5,1.21-.73-1.61c-.14,0-.4.04-.58.17-.28.2-.56.5-.86.82-.42.45-.9.96-1.54,1.37-1.11.7-2.39.88-3.51,1.05-1.31.19-2.13.34-2.43.86-.12.21-.2.57-.27.95-.15.72-.34,1.62-1.02,2.38-.68.76-1.57,1.05-2.28,1.29l-.37.12c-.71.25-.83,3.9-.46,5.16.46.96.38,1.94.32,2.72l-.34,4.27-2.39-3.41c-3.39-4.82-3.8-6.44-3.92-7.57-.11-1.09.06-5.02.69-7.11-.47-3.97-.52-5.93-.52-6.01-.05-2.44.19-4.93.7-7.2.49-2.2.81-3.66,1.85-5.36,1.37-2.26,4.58-5.88,7.92-5.13.65.15,1.18.44,1.6.77-.04-2.6-.09-6.53,2.39-9.04,2.59-2.61,7.16-2.91,10.31-2.09,1.68.44,2.92,1.19,3.83,1.74.24.15.54.33.78.45.04-.26.06-.59.09-.89.07-.79.16-1.87.44-3.2.24-1.13.87-4.14,2.42-6.29,3.07-4.26,10.25-6,14.21-3.45,2.01,1.29,2.93,3.44,3.44,5.34.28-1.45.61-3.5.96-6.42l.03-.28c.39-3.16.63-6.55.73-10.35l.05-1.94,1.86.53c1.61.46,3.19.44,4.81-.07.66-.21,1.32-.51,1.97-.91l1.28-.78,1.56,2.58c1.2,2.01,3.25,3.39,5.75,3.9l1.3.26-.1,1.32c-.53,6.92-.27,10.48-.07,13.08.2,2.77.35,4.77-.59,8.56l-.12.47c-.5,1.96-1.34,5.25-.9,9.46.13,1.25.24,2.33.7,3.65.84,2.45,2.11,3.59,3.58,4.92,1.17,1.06,2.5,2.25,3.57,4.17h0c2.96,5.29,1.42,11.28.88,12.98-.69,2.16-1.53,3.13-2.92,4.74-.95,1.1-2.25,2.6-4.11,5.15-2.58,3.55-4.2,6.31-6.89,10.89-2.1,3.58-3.34,7.08-3.79,10.7-.4,3.17-1.33,5.4-2.41,7.98-.89,2.12-1.9,4.53-2.81,8-.18.69-.62,1.25-1.28,1.63-2.09,1.19-6.39.18-7.95-.25-5.54-.03-9.45.53-13.57,1.13-3.94.57-8.02,1.16-13.56,1.16Zm-2.53-36.97c-.25,0-.47.06-.67.19-.86.56-2.38,1.81-1.96,2.58,1.1,2.02,2.96,6.2,3,11.54.01,2.16-.29,3.43-.6,4.78-.19.8-.38,1.62-.54,2.75-.47,3.31-.29,6.82.55,10.44.23.98,1.1,1.67,2.12,1.68,5.66.04,9.6-.52,13.77-1.13,4.1-.59,8.34-1.21,14.23-1.16h.2s.19.06.19.06c2.31.65,5,.94,5.75.63.95-3.58,1.98-6.04,2.9-8.22,1.04-2.47,1.85-4.43,2.2-7.19.5-4.04,1.87-7.91,4.18-11.84,2.64-4.5,4.39-7.47,7.05-11.14,1.94-2.66,3.29-4.22,4.27-5.35,1.33-1.54,1.83-2.11,2.33-3.69.32-1.01,1.79-6.27-.64-10.61h0c-.83-1.48-1.87-2.42-2.96-3.4-1.55-1.4-3.32-2.99-4.41-6.17-.57-1.65-.71-3-.84-4.32-.49-4.74.46-8.49.98-10.51l.11-.45c.83-3.32.71-4.94.51-7.62-.19-2.53-.44-5.94-.02-12.27-2.76-.86-5.02-2.59-6.44-4.96l-.04-.07c-.43.2-.87.36-1.31.5-1.58.49-3.12.65-4.68.47-.12,3.19-.35,6.1-.69,8.86l-.03.28c-1.26,10.34-2.29,12.09-4.13,12.1h-.01c-1.68,0-2-1.76-2.29-3.31-.34-1.86-.81-4.41-2.57-5.54-2.63-1.69-8.04-.26-10.16,2.68-1.18,1.63-1.74,4.28-1.92,5.15-.24,1.15-.32,2.08-.39,2.84-.12,1.39-.23,2.71-1.51,3.43-1.42.81-2.74,0-3.9-.69-.83-.51-1.78-1.08-3.03-1.4-2.36-.62-5.77-.37-7.43,1.3-1.6,1.61-1.56,4.66-1.52,6.89.03,2.07.06,4.03-1.7,4.44-1.28.3-2.06-.73-2.48-1.29-.39-.52-.68-.87-1.08-.96-1.25-.28-3.48,1.75-4.69,3.76-.78,1.28-1.03,2.41-1.49,4.45-.45,2.04-.67,4.28-.62,6.49,0,.02.05,1.97.52,5.89l.23,1.9-.54-.07c-.25,1.33-.57,3.46-.39,5.15.02.15.04.39.2.82.08-.83.24-1.64.51-2.32.56-1.4,1.44-1.96,2.09-2.19.14-.05.29-.1.44-.15.39-.13.83-.27.97-.43.14-.16.23-.58.31-.99.12-.56.25-1.2.61-1.83,1.05-1.83,3.02-2.11,4.6-2.34.91-.13,1.78-.26,2.34-.61.31-.2.62-.53.95-.88.37-.39.78-.84,1.3-1.21.91-.65,2.16-.89,3.18-.62.17.05.34.11.49.18.81-.63,2.08-1.58,3.59-2.64.69-.49,2.79-1.96,5.01-1.28,1.32.4,3.5,1.82,3.35,6.8-.07,2.34.32,3.7,1.14,4.04.36.15.91.13,1.49.11.81-.03,1.72-.06,2.66.3,2.28.88,3.35,3.44,3,7.22-.14,1.54-.34,3.17-1.12,4.66-.98,1.89-2.73,3.11-4.58,3.17-.39.01-.79-.02-1.13-.05-.27-.02-.69-.06-.88-.04-.04.14-.07.39-.09.5l-.88,6.91-.97.26c-1.64.44-3.46-.13-5.25-1.65-.26-.22-.52-.46-.78-.69-.74-.67-1.43-1.3-2.19-1.58-.41-.15-.95-.12-1.31.07-.22.12-.25.23-.26.27l-.67,2.64-1.87-1.99c-1.13-1.19-2.56-2.29-3.63-2.29Zm-9.3-7.92s.01.02.02.03c0-.01-.01-.02-.02-.03Z"/><path class="cls-1" d="m12.8,90.86l3.47-3.22c.25-.24.51-.48.76-.71.07-.07.14-.13.22-.19l-.18.14.16-.1c-.11.07-.23.1-.36.09-.19,0-.17,0,.08,0h-.24c.07,0,.13.03.2.05-.22-.09-.25-.1-.09-.02.26.19.57.33.85.5.23.14.46.29.68.44.02.02.45.37.19.13s.11.1.16.15c.11.1.21.2.31.31.29.32.14.02,0-.01.08.02.18.31.22.37.18.27-.21-.52-.04-.07.14.38.04-.4,0-.15,0,.04-.01.34,0,.36-.05-.07.13-.56.02-.22-.02.07-.03.14-.06.2-.06.18-.02.09.12-.25-.02.01-.14.22-.13.24-.05-.21.38-.38.08-.13-.22.18.48-.29.12-.11l.34-.14c-.25.06-.17.06.24-.01-.87.08-1.62.41-2.09,1.2-.43.73-.46,1.71,0,2.44,1.1,1.75,2.81,3.23,5.02,2.61,1.15-.32,2.09-1.22,2.39-2.38.34-1.33-.21-2.65-1.15-3.59-2.48-2.49-6.55-3.2-9.86-2.38-1.68.42-2.44,2.84-1.07,4.04,1.49,1.29,3.23,2.37,5.28,1.8.99-.28,1.93-.96,2.39-1.89.29-.59.41-1.17.44-1.83,0-.03,0-.63.01-.63.23-.03-.46.78-.06.33-.2.23-.19.22,0,0,.12-.13.26-.26.39-.39.24-.23.46-.46.67-.72.61-.76,1.05-1.54,1.38-2.46.55-1.54.55-3.39,0-4.92l-4.04,2.35c.13.14.26.28.39.42-.38-.43.05.09.12.21.1.16.18.34.27.5.08.16.06.11-.05-.14.05.12.09.24.12.36.39,1.2,1.69,2.1,2.97,1.69,1.2-.39,2.11-1.69,1.69-2.97s-1.12-2.49-2.1-3.49c-.72-.73-2.04-.95-2.93-.38s-1.48,1.7-1.11,2.73c.09.25.14.51.22.76.1.31-.02-.44,0-.12,0,.12.02.23.02.35,0,.15,0,.29,0,.44,0,.34-.05,0,.03-.11-.12.18-.11.56-.18.78-.03.11-.08.22-.11.33-.1.3.27-.49,0-.01-.03.05-.35.61-.37.6s.33-.37.05-.07c-.1.11-.2.22-.31.32-.19.19-.4.37-.58.58-.53.6-1,1.28-1.17,2.07-.1.44-.14.92-.13,1.37,0,.29-.04.17.03-.02.07-.18.18-.36.32-.5l.26-.19c-.18.1-.17.1.02.02.52-.09-.39,0,.17-.04.39-.03.01,0-.07-.02-.25-.02.52.17.08-.02.48.2-.1-.08-.27-.19-.38-.23.16.16-.05-.03-.12-.11-.25-.21-.37-.31l-1.07,4.04c.22-.05.52-.17.75-.16-.61-.04.05,0,.21,0,.45-.02.99-.07,1.43.04-.61-.15,0,.01.11.04.25.05.5.11.74.19.18.06.36.12.54.18.25.1.24.09-.05-.02.12.05.23.11.34.17.39.2.78.43,1.13.71-.24-.18-.25-.19-.04,0,.19.2.18.19-.01-.03-.27-.57-.14-1.26.31-1.71.17-.17.37-.29.6-.36.41-.03.48-.04.22-.03.4.07.47.08.22.01l.29.11c.25.21.27.23.07.05-.18-.2-.17-.17.03.08-.15-.18-.27-.4-.4-.6l-2.09,3.64c1.14-.11,2.18-.5,2.93-1.41s1.11-1.88,1.17-3.02c.12-2.26-1.42-3.99-3.14-5.21-.81-.57-1.71-1.14-2.66-1.45-1.41-.46-2.81-.14-3.96.76-1.72,1.33-3.25,2.96-4.84,4.43-.93.86-.94,2.56,0,3.42.99.91,2.43.92,3.42,0h0Z"/><path class="cls-1" d="m30.01,84.58c1.4,1.51,2.11,3.55,1.99,5.6h1.21c.02-.88-.52-1.57-1.18-2.09-.62-.49-1.38-.84-1.79-1.55-.13-.23-.27-.55-.15-.78s.54-.46.75-.62c.28-.22.58-.47.7-.82.16-.45-.06-.81-.41-1.08-.26-.2-.67-.04-.83.22-.18.31-.05.63.22.83-.13-.09-.1-.2-.12-.33-.01-.07.07-.1-.03,0s-.21.2-.33.29c-.27.21-.58.4-.81.66-.56.66-.44,1.55-.04,2.25s1.06,1.15,1.73,1.62c.48.33,1.09.77,1.07,1.41-.01.78,1.16.77,1.21,0,.14-2.37-.73-4.72-2.34-6.45-.53-.57-1.38.29-.85.85h0Z"/><path class="cls-1" d="m31.95,87.27s-.1-.08-.02-.01,0,0-.02-.02c-.04-.03-.08-.07-.11-.1s-.07-.07-.1-.11c-.01-.01-.08-.1-.02-.02s0,0-.01-.02c-.06-.09-.12-.18-.17-.27-.02-.05-.05-.09-.07-.14-.01-.03-.02-.05-.04-.08-.03-.07.06.15.01.03-.16-.42-.26-.85-.34-1.28-.06-.31-.45-.52-.74-.42-.33.11-.49.41-.42.74.1.51.22,1.01.43,1.49.22.51.55.93,1,1.24.26.18.68.06.83-.22.16-.31.06-.63-.22-.83h0Z"/><path class="cls-1" d="m7.42,97.43c-.77.19-.91,1.08-.55,1.68.02.03.04.07.07.1.08.12,0,0,0-.04-.08-.29.1-.3.35-.45.35-.22.49-.24.08-.25s-.74.2-.94.54c-.02.04-.05.08-.07.13-.01.03-.05.16.03-.02-.02.05-.12.15-.17.17.14-.05.05-.04,0,0-.04.03-.08.06-.13.09-.12.09-.24.18-.36.28-.44.4-.7,1.05-.46,1.62.18.43.52.63.92.83.03.01.24.13.11.06l-.05-.04c.06.06.04.04-.04-.06.03.04.03.11-.02-.05-.05-.14,0-.07-.02-.01,0,.05,0,.11,0,.17,0,.22.05.43.16.63.3.51.93.68,1.47.5s.94-.66,1.05-1.22c.06-.29.06-.61-.02-.9-.04-.15-.11-.3-.19-.44-.03-.05-.06-.09-.09-.14l-.04-.06c-.04-.08-.04-.08,0,.01l-.02.2c-.05.2-.05.25,0,.15.06-.07.12-.22.14-.28.07-.24.06-.49-.07-.71-.24-.44-.8-.65-1.25-.37-.35.23-.53.73-.29,1.1.23.35.72.53,1.1.29l.03-.02-.41.11h.04c-.14-.03-.27-.07-.41-.11l-.21-.19-.11-.41s.15-.36.04-.22c-.02.02-.03.04-.04.07-.08.15-.14.32-.14.49,0,.25.07.49.19.71.04.07.09.13.13.2,0,0,.05.08.05.08-.01,0-.05-.19-.02-.03,0,.03.01.06.02.09.03.09-.02-.07-.01-.07.02,0-.01.11,0,.12-.02-.01.04-.17,0-.04,0,.01-.03.11-.03.11-.02,0,.08-.13.02-.06,0,0-.04.08-.05.08-.02-.01.15-.13.01-.03.17-.13,0,0,0,0-.01-.03.17-.06.04-.03.04,0,.17,0,.06-.01.14,0,.26.07.35.18.02.03.08.26.1.26,0,0,0-.14,0-.13,0-.26-.03-.5-.14-.74-.13-.29-.4-.5-.69-.64-.1-.05-.2-.1-.3-.15-.12-.06.1.11.02.01.13.14.08.11.05.05.03.06.06.12.06.18,0,.03-.04.18,0,.04,0,.02-.07.11-.02.05.02-.02.03-.05.05-.08-.02.03-.1.11,0,.02.02-.02.05-.04.07-.06.07-.07-.04.04-.04.03.02-.04.16-.11.2-.14.31-.22.59-.46.76-.82.13-.28.15.46-.59.21.08.03.19.03.27.04.18.01.36-.04.52-.12.25-.13.43-.38.49-.66.07-.29.01-.57-.12-.84-.03-.07-.07-.15-.12-.21s.01.04.02.06c.07.27-.13.58-.41.65.41-.1.69-.58.56-.99s-.55-.67-.99-.56h0Z"/><path class="cls-1" d="m8.3,105.89c.02.09.04.18.05.27,0,.04.02.09.02.13.03.16,0,.01,0-.01.05.18.04.42.04.61,0,.08,0,.17,0,.25,0,.03,0,.07,0,.1,0,.09-.04.02.01-.06-.03.05-.03.14-.04.19,0,.03-.03.06-.03.09,0-.07.08-.14,0-.04-.06.08.11-.13.04-.05-.02.02-.09.11,0,.01.07-.08.03-.02-.02,0-.03.01-.06.02-.08.04-.27.13-.49.36-.57.65-.12.41.04.92.27,1.27.28.41.69.72,1.2.75.45.03.87-.2,1.14-.55.36-.46.3-1.06-.06-1.5-.08-.1-.18-.19-.28-.27s.02.03.03.05c-.09-.12,0,.06.02.09.04.1.01.02,0-.03,0-.09-.04.16,0,.01.11-.43.21-.82.12-1.27-.05-.22-.17-.44-.32-.61-.22-.23-.49-.31-.8-.35-.53-.07-.9.57-.78,1.02.06.22.11.44.16.66.02.07.09.26.07.33v-.11c-.02.14.03.08.13-.19.03-.16.11-.26.25-.29h-.05s.08,0,.12,0c-.08.01-.16.02-.24.03-.04,0-.08.01-.12.03-.13.04-.26.1-.37.18-.27.2-.47.45-.56.78-.15.58.13,1.24.67,1.52.26.14.55.18.84.18.09,0,.19,0,.28,0,.02,0,.13,0,.14,0h-.11s.07,0,.1.02c.4.15.9-.16.99-.56.1-.45-.14-.84-.56-.99-.2-.07-.44-.09-.65-.09-.08,0-.17,0-.25,0-.04,0-.07,0-.11,0-.1,0,.17.04.03,0,.04.01.13.07.05.01l.09.06c.06.09.08.11.05.06-.04-.1.05.16.02.05-.02-.09,0,.18,0,.04,0,.04-.03.17,0,.07l-.04.1c-.07.09-.09.11-.05.06.08-.06-.14.08-.05.03.09-.04-.17.1-.03.01h.05s-.08,0-.11,0c.09-.01.18-.02.26-.04.12-.02.24-.08.35-.14.32-.19.5-.55.49-.91,0-.44-.16-.91-.27-1.34l-.78,1.02c-.14-.02-.26-.05-.37-.15.09.08-.05-.07-.06-.07.02.02.04.09,0-.02-.06-.13,0,0,0,.04.03.09,0-.18-.01-.08,0,.03,0,.06,0,.09,0,.02,0,.05,0,.07,0,0,.04-.18.01-.11-.03.06-.03.13-.05.19-.05.19-.09.37-.11.57-.04.4.11.81.39,1.1.07.08.16.14.24.21.02.02.06.08,0,0-.03-.05-.06-.09-.08-.15-.02-.07-.01-.13,0-.2.01-.07.02-.09,0-.05-.02.06,0,.03.04-.1,0,.01.11-.15.06-.08,0,.01-.04.03-.05.05,0,0,.14-.1.07-.06s.09-.04.09-.03c-.07.02-.11,0,.08,0-.03,0-.11,0,.02,0s.04,0,.01,0c.03.01.16.07.06.02-.12-.07.14.09,0-.01-.06-.04.04.06.05.07,0-.02-.03-.04-.04-.06-.01-.02-.07-.15-.08-.16,0,0,.05.16.03.07,0-.03-.02-.06-.03-.1,0-.02,0-.06-.02-.08.13.19-.43.67-.27.61.04-.02.08-.04.12-.06.15-.07.28-.16.4-.28.22-.23.38-.54.44-.85.14-.72.05-1.5-.11-2.21-.09-.41-.59-.69-.99-.56-.43.14-.66.55-.56.99h0Z"/><path class="cls-1" d="m18.77,144.03c.34-.34.53-.82.52-1.3,0-.28-.07-.52-.19-.77-.07-.16-.19-.28-.26-.44l.08.19s-.02-.07-.03-.1l.03.21s0-.05,0-.08l-.03.21s0-.05.02-.08c.07-.19.02-.45-.08-.62s-.29-.33-.48-.37c-.21-.05-.44-.04-.62.08s-.3.27-.37.48c-.11.32-.03.66.13.95.07.13.17.24.23.37l-.08-.19c.03.08.05.16.07.24l-.03-.21c.01.09.01.18,0,.27l.03-.21c-.01.09-.04.18-.07.27l.08-.19c-.03.08-.07.15-.12.22l.13-.16s-.05.06-.08.09c-.15.15-.24.36-.24.57s.09.43.24.57.35.25.57.24.42-.08.57-.24h0Z"/><path class="cls-1" d="m30.53,139.81c.03.25.03.5.01.75,0,.02-.02.16-.01.11s-.02.09-.02.11c-.03.13-.06.26-.1.39-.07.25,0,.62.21.78.17.13.32.27.45.43-.05-.07-.01-.01.01.03.03.04.06.09.08.13s.05.09.08.14l.03.07c-.08-.11-.04-.22.1-.33,0-.2.09-.31.26-.32.14-.03.17-.04.1-.03-.1,0,.15.03.05,0-.09-.02.12.08.03,0-.04-.03-.09-.05-.13-.08-.27-.17-.52-.26-.84-.29-.36-.04-.68.28-.78.59-.19.59-.31,1.26,0,1.83.3.54.93.9,1.55.76s.98-.66.99-1.25c.01-.52-.24-1.02-.59-1.39l-.36,1.35c-.08.02-.17.02-.25,0-.06-.01-.12-.04-.17-.09-.05-.04-.06-.05-.03-.02.07.07-.1-.14-.05-.06s-.06-.18-.02-.04c.03.12-.02-.06,0-.07,0,0-.02.2,0,.04.02-.13,0-.02-.01.01-.03.09.09-.18,0-.04.04-.06.08-.1.13-.14-.05.05-.08.04,0,.01,0,0-.2.05-.1.03.09-.02-.05,0-.07,0-.06,0-.12,0-.18,0-.07,0-.09-.02,0,0-.12-.02-.24-.05-.36-.08-.4-.1-.9.12-.99.56-.12.58.07,1.11.55,1.48.41.32.97.45,1.48.31,1.1-.31,1.46-1.64,1.18-2.63-.12-.4-.57-.7-.99-.56s-.69.56-.56.99c.02.06.03.13.05.19-.05-.17,0-.02,0,.04s0,.13,0,.19c0-.11.02-.09,0,0,0,.02-.07.22-.03.11s-.03.05-.04.07c-.08.16.1-.1-.02.03-.12.12.12-.05-.03.03-.15.07.16-.04-.01,0,.09-.02.14,0,.02-.01-.1-.02.16.05.02,0-.18-.07-.04.02-.01,0-.02-.01-.05-.03-.07-.04-.05-.03-.03-.02.05.05-.03.01-.17-.22-.01,0-.08-.12.03.16,0,0v.11c.02-.09.01-.07,0,.06l-.99.56c.47.11.97.2,1.45.09s.95-.46,1.11-.97c.12-.4.08-.86-.14-1.22-.28-.47-.78-.65-1.3-.55-.62.11-.74.94-.36,1.35.12.13-.04-.09,0,0,.02.04.05.09.08.13.08.12,0-.07,0,0,0,.02.05.12.04.14.02-.02,0-.18-.01-.02,0,.05,0,.04,0-.03,0-.06.02-.11.05-.15-.06.11.03-.04.07-.07.06-.05.14-.08.22-.08.05,0,.15,0,.04,0,.09.04.11.04.06.01-.05-.03-.04-.02.04.03-.07-.06-.03-.04,0,.02-.04-.07-.04-.07-.01-.02.02.05.02.05,0,0-.01-.06-.01-.06,0,0v-.08c.01-.26-.02.06,0-.08.03-.16.08-.31.13-.46l-.78.59c-.12-.01-.17-.05-.04.03.06.04.12.08.19.12.21.12.42.18.65.2.47.03.92-.21,1.1-.64.34-.8-.39-1.74-1-2.21l.21.78c.17-.58.23-1.19.17-1.79-.04-.42-.34-.83-.81-.81-.4.02-.85.36-.81.81h0Z"/><path class="cls-1" d="m47.12,138.14c.45.79.43,1.87-.13,2.59l.98-.13c.14.1.28.25.28.34,0-.04-.02-.08-.03-.11-.02-.06-.07-.4-.04-.18-.03-.28-.05-.56-.07-.85s-.02-.55-.01-.82c0-.1,0-.2,0-.3,0,0,.01-.11,0-.11.05.03-.07.26-.08.28l-.29.29h0c-.21.02-.41.05-.62.08h0c-.12-.07-.24-.14-.36-.21-.37-.42-.18-.41-.16-.23,0,.05.02.11.03.16.01.07.02.13.03.2-.04-.25,0,0,0,.05.03.26.01.62.16.84.45.65,1.47.42,1.5-.41.02-.51-.28-.96-.54-1.37-.33-.51-.65-1.02-.98-1.53l-.91,1.18c.05.02.11.03.16.05-.1-.04.03.02.04.03.02.01.27.17.19.11.21.16.33.32.43.48.13.21.15.26.22.52.01.06.03.11.04.17,0-.04,0-.13,0,.04,0,.06,0,.11,0,.17,0,.02,0,.22,0,.15-.05.47-.49,1.03-.59,1.56-.14.69.05,1.41.65,1.82,0,0,.16.11.17.11l-.13-.19v-.02c-.05.05,0,.31,0,.37.03.36.18.67.42.94.36.41.94.63,1.48.55.68-.09,1.18-.68,1.2-1.36s-.4-1.28-.87-1.74c-.19-.18-.41-.39-.51-.57.03.06-.03-.13-.02-.06.01.08-.01.03.01-.03.06-.15.03-.08.01-.05.03-.08.08-.16.13-.23.37-.64.62-1.2.3-1.92-.24-.53-1.15-.53-1.39,0s-.31,1.05-.19,1.63c.09.43.59.67.99.56.44-.12.65-.56.56-.99-.02-.11-.02-.27.03-.39h-1.39s-.05-.12-.04-.12v-.03s0-.05,0,0c.01,0,0,0,0,.03s-.04.07-.06.11c-.11.2-.24.4-.34.61-.26.58-.26,1.2.07,1.75.26.43.71.72.99,1.12.05.07.09.15.11.21.01.04,0,.04.01.06.06.04-.04.06,0,0,.1-.17.05-.1.14-.18-.04.03-.13.05.02,0,0,0,.15-.04.05-.01-.06,0-.04,0,.05.01l-.07-.02h-.03c-.05-.03-.04-.03.03,0-.02.01-.09-.09-.04-.02.06.07-.04-.04-.05-.05-.06-.07,0,.02.02.02-.08-.02-.02-.1,0,0,0,.05,0,.18,0-.02,0-.17,0-.34-.03-.51-.07-.34-.25-.61-.54-.81-.04-.03-.12-.09-.17-.11.02,0,0,.04.03.05.09.01-.11.06,0,0,0,0-.01-.02-.01-.09,0-.01.02-.15,0-.05,0-.05.02-.09.04-.14.03-.1.07-.19.12-.28.14-.28.29-.57.38-.87.14-.5.13-1.02.03-1.52-.24-1.12-1.1-2.05-2.19-2.4-.66-.21-1.29.6-.91,1.18.28.44.56.88.85,1.32.12.18.46.58.45.76l1.5-.41s.11.48.1.32c0-.04,0-.07-.01-.11-.01-.1-.02-.21-.04-.31-.03-.26-.05-.54-.12-.79-.14-.53-.71-.88-1.22-.57-.35.2-.41.54-.44.9-.04.54-.01,1.08.03,1.62.05.61.07,1.35.63,1.73.26.18.77.14.98-.13,1.02-1.31,1.22-3.08.38-4.54-.52-.9-1.91-.09-1.39.81h0Z"/><path class="cls-1" d="m34.71,151.54c.62-.52.76-1.4,1.32-1.91.48-.44,1.23-.61,1.88-.85.79-.3,1.54-.72,2.05-1.42.26-.35.41-.76.45-1.2.02-.21,0-.41-.03-.61-.01-.1-.07-.36-.04-.42l-.91.37c.26.07.44.32.46.57.01.27-.15.47-.39.72-.64.65-1.39,1.16-1.67,2.07-.07.22-.09.45-.13.68-.02.11-.04.21-.06.31-.04.14-.02.07-.06.17.04-.04.03-.03-.04.04.06-.05.05-.04-.03,0,.18-.07-.23.01-.03,0-.19.01-.38,0-.57-.03-.46-.06-.9-.12-1.36-.01-.26.06-.5.19-.71.36-.03.03-.33.26-.32.29-.08,0-.01-.02.19-.05.14.01.27.08.37.2l.11.41c.03.34-.24.28-.04.21.11-.04.24-.13.34-.18.23-.12.46-.24.68-.36.46-.24.91-.49,1.37-.73.23-.12.43-.43.4-.7-.06-.47-.16-.96-.59-1.24-.35-.22-.82-.27-1.19-.05-.87.53-.44,1.68.2,2.21s1.66.49,2.08-.33c.2-.38.19-.8.12-1.21-.02-.14-.07-.28-.1-.42,0-.01-.03-.21-.03-.14,0-.08.04-.1,0-.05.53-.9-.87-1.71-1.39-.81-.17.3-.25.62-.22.96.03.3.14.58.17.88-.01-.07-.01-.05,0,.05,0,.1,0,.11,0,.04.02-.07.07-.13.14-.17.07-.04.15-.05.23-.04.05-.03.07.07,0-.02-.02-.02-.09-.21-.09-.14l-.11.41c-.34.32-.62.31-.85-.03.02.1.03.13.02.08l.4-.7c-.68.36-1.37.73-2.05,1.09-.32.17-.65.33-.87.63-.31.41-.32.98.03,1.37.58.63,1.41.35,1.94-.16.01-.01.18-.14.11-.09.04-.03.12-.03.02-.01.05,0,.1-.03.15-.03-.14.02,0,0,.02,0,.27.02.53.04.8.07.54.07,1.12.05,1.59-.27.59-.4.73-1.03.84-1.69.02-.12.05-.24.08-.36.05-.25-.03.04.02-.08.02-.05.05-.1.08-.14.11-.18.22-.3.43-.49.37-.35.76-.67,1.07-1.07.44-.57.65-1.28.46-2-.2-.77-.81-1.37-1.56-1.59-.33-.1-.75.06-.91.37-.26.49-.21.92-.16,1.45.01.1.02.21.01.31,0-.1-.01.05-.02.09-.01.04-.02.08-.04.12.02-.05.02-.05,0,0-.03.06-.07.13-.11.19.06-.07-.09.1-.1.11-.06.06-.13.13-.2.19-.05.04-.27.18-.38.24-.31.17-.56.25-.91.37-.77.27-1.56.55-2.16,1.13-.3.29-.51.64-.7,1.01-.17.34-.31.64-.58.87-.33.28-.29.85,0,1.14.33.33.8.28,1.14,0h0Z"/><path class="cls-1" d="m21.25,154.04c-.12-.15.01.02.03.04.03.04.06.09.09.13.07.09.13.19.2.29.12.18.24.37.35.56s.22.39.32.58c.05.09.09.19.14.28.03.06.05.12.08.17.02.04.09.22.02.04.13.32.39.61.78.59.36-.02.68-.24.78-.59.28-1.03-.66-1.78-1.58-1.91-.22-.03-.43-.04-.65-.05-.08,0-.15,0-.23-.01-.08,0-.17-.05.03,0-.04-.01-.09-.01-.13-.02-.07-.01-.14-.04-.21-.06-.14-.04.17.09.04.02-.03-.02-.06-.03-.09-.05-.12-.07.04.01.06.05-.02-.02-.04-.03-.05-.05l.08.1s-.02-.03-.03-.05c-.03-.05-.02-.02.04.11,0-.04-.02-.08-.03-.12l-.99.99c.11.04-.01.01-.03-.02.02.02.08.04.1.05.08.04.15.08.23.12.07.04.13.08.2.12.04.03.17.15.21.15-.03,0-.12-.1-.03-.02.03.02.06.05.09.07.06.05.11.1.17.15.12.12.24.25.34.38.25.31.77.28,1.06.06.33-.26.39-.67.21-1.04-.45-.92-.9-1.84-1.35-2.76l-.29,1.1c.23-.13.46-.25.69-.38.37-.2.52-.74.29-1.1s-.71-.51-1.1-.29c-.23.13-.46.25-.69.38-.4.22-.48.72-.29,1.1.45.92.9,1.84,1.35,2.76l1.26-.98c-.52-.65-1.22-1.11-1.99-1.42-.26-.1-.6.02-.78.21-.21.21-.27.5-.21.78.19.94,1.2,1.22,2.03,1.26.14,0,.3.03.44.02-.17.02-.14-.02-.04,0,.04,0,.07.02.11.03s.07.02.11.03c.02,0,.16.06.03,0s0,0,.02.02c.04.02.07.04.11.06.11.06-.11-.11-.05-.04.02.02.05.05.07.07-.08-.11-.1-.14-.07-.09.01.01.02.03.03.05-.01,0-.06-.19-.04-.09.03.14-.02-.22,0-.07,0,.14.04-.21,0-.06h1.55c-.42-1.02-.96-1.94-1.64-2.81-.12-.15-.39-.24-.57-.24-.2,0-.43.09-.57.24s-.25.35-.24.57c.01.23.1.39.24.57h0Z"/><path class="cls-1" d="m16.06,133.75l.54.85c.24.37.45.79.91.92.4.11.82-.03,1.1-.33.34-.36.39-.86.16-1.29l-1.26.98c.1.1.2.2.29.31-.07-.09-.02-.02.02.04.04.06.08.12.11.18.03.05.05.1.08.16.1.2-.04-.14.03.07.05.13.09.27.12.4.09.39.51.63.88.58.41-.06.67-.39.7-.79.04-.61-.2-1.19-.6-1.63-.48-.53-1.36-.1-1.37.57-.01.72.16,1.41.48,2.05.24.48.91.49,1.26.16.91-.84.82-2.14.64-3.25l-.56.99c-.12.02-.18.03-.29-.03.14.08-.08-.12.02.01-.11-.14.02.08-.06-.11.05.12,0-.08,0-.15-.09.41.12.89.56.99s.87-.13.99-.56c.02-.06.04-.12.06-.18-.04.16,0,0,.02-.04.03-.06.07-.11.1-.16.11-.17-.11.1.03-.04.04-.05.09-.09.14-.14.11-.12-.11.06.04-.03.05-.03.09-.06.14-.08.04-.02.25-.11.07-.04.39-.15.71-.55.56-.99-.12-.38-.57-.73-.99-.56-.83.33-1.48.97-1.71,1.85l1.55.43c.11-.47,0-.96-.36-1.31s-.81-.47-1.3-.39c-.18.03-.4.22-.48.37-.11.2-.12.39-.08.62,0,.05.02.1.02.16.02.12-.02-.2,0,0,.01.1.02.19.03.29.02.2.01.41,0,.61,0,.14.01-.03,0-.03,0,0-.02.13-.03.15,0,.02-.07.26-.08.26s.07-.14,0,0c-.02.04-.05.09-.08.13-.05.08-.02.02.02-.02-.05.04-.09.09-.13.13l1.26.16s-.09-.19-.06-.11c.04.08-.04-.1-.04-.12-.04-.12-.08-.25-.11-.37-.01-.05-.02-.1-.03-.15-.05-.23,0,.08,0-.05,0-.14-.02-.28-.02-.42l-1.37.57c.06.07.06.07,0,0,.03.04.05.08.07.12.09.13-.02-.1.03.06.02.07.04.13.05.2-.03-.2-.01.08-.02.13l1.58-.21c-.16-.71-.54-1.36-1.06-1.86-.29-.28-.74-.31-1.06-.06s-.4.68-.21,1.04c-.18-.34,0-.76.4-.76.18,0,.33.06.43.19l-.05-.07c-.05-.08-.11-.17-.16-.25l-.57-.88c-.23-.35-.73-.53-1.1-.29-.35.23-.53.72-.29,1.1h0Z"/><path class="cls-1" d="m28.38,133.77c.33.5.46,1.06.31,1.64-.16.64.39,1.09.99.99.81-.13,1.3-.84,1.38-1.61l-1.5.41c.26.5.62.95,1.06,1.3.52.41,1.37.19,1.37-.57,0-.64-.11-1.28-.34-1.88l-1.35.78c.48.58,1.09,1.06,1.77,1.4.58.29,1.43-.2,1.18-.91-.17-.5-.45-.95-.85-1.29-.19-.16-.39-.3-.61-.4-.12-.06-.26-.11-.39-.16-.03-.01-.4-.11-.26-.04l.29.29-.04-.06.11.41c-.02-.13.01-.26.03-.4.01-.08.02-.16.03-.24,0,.01,0,.03,0,.05l-.29.29c-.21.04-.23.05-.04.03.08,0,.17-.01.25-.02.17-.01.34-.02.5-.03.81-.04,1.08-1.05.41-1.5-.51-.34-1.27-.66-1.9-.47-.75.23-1.02,1.1-.6,1.75.38.59,1.11.65,1.73.78.11.02.27.09.38.08.23.08.18-.04-.15-.34,0,.07,0,.15,0,.22,0,.34,0,.69,0,1.03s.25.71.59.78c1.69.33,3.07-1.41,2.66-3.03-.17-.68-.96-1.51-1.69-1.55-.96-.05-1.27.97-1.61,1.67-.28.59.07,1.13.7,1.21.15.02.32.06.41.13l-.29-.29.04.07-.11-.41c.03-.07.02-.04-.02.09-.02.06-.04.12-.05.18-.04.14-.08.28-.12.42-.11.39.14.92.56.99.59.1,1.22.07,1.67-.37s.53-1.07.28-1.65c-.13-.29-.52-.43-.8-.38-.34.05-.54.27-.67.58-.21.5-.36,1.01-.28,1.56.03.23.11.44.19.66.01.04.11.32.1.32-.06.01.22-.32.06-.12l1.37.57c.03-.51-.16-1.04-.53-1.39-.34-.33.35.4-.08.54-.02,0,.12-.08.15-.1.2-.13.4-.26.56-.44.77-.83.68-1.95.52-2.98-.05-.34-.45-.59-.78-.59-.37,0-.65.26-.78.59-.18.49-.37.99-.55,1.48s.29,1.04.78,1.02c.68-.03,1.13-.42,1.53-.92s.8-.99,1.2-1.49c.27-.34.33-.81,0-1.14-.28-.28-.86-.34-1.14,0-.31.39-.63.78-.94,1.17-.14.17-.27.35-.41.51-.03.04-.22.26-.24.26l.78,1.02c.18-.49.37-.99.55-1.48h-1.55c.06.39.13.82,0,1.2-.1.3-.34.38-.58.56-.42.31-.72.79-.56,1.32.1.33.48.52.46.86-.04.67.93,1.1,1.37.57.42-.51.49-1.09.28-1.71-.07-.21-.19-.42-.18-.65.02-.26.15-.53.25-.77l-1.47.19c-.06-.1-.07-.2-.03-.29.04-.1.07-.12.1-.08,0,.04-.21.01-.2.01l.56.99c.15-.51.42-1.08.1-1.58s-.99-.58-1.52-.64l.7,1.21c.09-.19.18-.39.28-.58.03-.07.27-.44.25-.49-.01-.03-.5.2-.51.19,0,.05.18.16.22.19.06.07.1.11.12.2.07.35-.23,1.11-.68,1.02l.59.78c0-.44.03-.9,0-1.34-.06-.6-.45-.98-1.03-1.12-.21-.05-.43-.09-.64-.13-.09-.02-.61-.19-.68-.15.7-.46-.43,1.08-.03.5-.24.35-.31.26-.11.31.23.06.41.15.6.28l.41-1.5c-.53.03-1.28-.04-1.69.37-.23.23-.29.51-.33.81-.03.23-.09.48-.08.72,0,.36.2.67.51.83.21.11.46.1.67.2.28.13.53.39.63.69l1.18-.91c-.57-.28-1.04-.66-1.44-1.15-.5-.61-1.63.04-1.35.78.18.47.28.94.28,1.45l1.37-.57c-.35-.28-.61-.58-.81-.97-.16-.31-.58-.46-.91-.37-.36.1-.56.42-.59.78,0-.1-.05.02-.04.02.11-.04-.15.03-.15.03l.99.99c.24-.99.09-2.03-.48-2.88s-1.97-.05-1.39.81h0Z"/><path class="cls-1" d="m44.3,132.37l.6.84c.48.68,1.4.39,1.5-.41,0-.03.08-.16.16-.16-.06,0,.08.03.04.01.06.03.05.07.04.03-.04-.09.02.05.04.08.26.4.66.63,1.15.53.19-.04.36-.16.49-.3.04-.05.15-.18.19-.26.05-.1.16-.17-.06.03.04-.04.1-.04.02-.01-.03.01-.17-.02-.08,0,.13.03-.14-.06-.12-.09,0,0,.08.12.1.15.22.34.49.65.89.76.43.12.88-.04,1.18-.37.02-.02.04-.04.05-.06.04-.03.04-.04,0-.02,0,.04-.31.1-.32.03,0,.02.27.24.3.28.41.47,1.19.2,1.35-.36,0,.02-.06.07-.08.08.99-.29.57-1.84-.43-1.55-.52.15-.9.53-1.04,1.05l1.35-.36c-.33-.38-.77-.7-1.29-.72-.26,0-.51.08-.73.22-.09.06-.17.13-.25.21-.11.12-.08.04,0,.02h.43c-.19-.03.02,0,.02.04,0,.04-.04-.06-.04-.07-.06-.14-.18-.29-.29-.4-.23-.25-.54-.4-.88-.44-.32-.04-.65.02-.93.19-.15.09-.27.2-.38.33-.04.05-.09.11-.13.18-.13.22-.05-.07.21-.11h.43c.32.08.3.27.19.07-.05-.1-.13-.19-.2-.26-.13-.13-.28-.24-.44-.32-.36-.18-.77-.24-1.16-.14-.83.2-1.29.92-1.39,1.72l1.5-.41-.6-.84c-.25-.35-.7-.52-1.1-.29-.35.2-.54.75-.29,1.1h0Z"/></g></g></svg>