<?xml version="1.0" encoding="UTF-8"?><svg id="Layer_2" xmlns="http://www.w3.org/2000/svg" viewBox="0 0 75.37 153.71"><defs><style>.cls-1{stroke:#231f20;stroke-miterlimit:10;}.cls-1,.cls-2{fill:#231f20;}.cls-2{stroke-width:0px;}</style></defs><g id="Layer_4"><g id="Layer_5"><path class="cls-1" d="m62.62,24.09c.05-3.79.16-7.35.11-10.9-.03-1.84,1.77-1.99,2.19-4.08.63-3.19-1.54-7.9-3.43-7.17-.58.23-1.12.56-1.72.86-.41-.48-.78-.93-1.17-1.36-1.38-1.51-4.67-1.07-5.57.58-2.21,4.06.24,6.1,1.59,7.05.35.25.81.66.83,1.02.24,4.35.41,8.71.6,13.21l5.29.99c.4-.1.84-.16,1.29-.18Z"/><path class="cls-1" d="m29.62,114.06c-.64-1.24-1.78-1.78-3.09-1.35-.97.32-2.6.46-1.6,2.3.04.07-.39.58-.6.57-.71,0-1.43-.15-2.14-.23,0-.15,0-.31-.01-.46.29-.22.58-.44.96-.73-.41-.48-.77-.94-1.17-1.36-1.12-1.16-2.67-1.44-3.76-.7-1.11.76-1.56,2.56-.76,3.88.51.83,1.24,1.65,2.07,2.13.93.55,1.18,1.19,1.25,2.17.56,8.12.54,16.23-.14,24.34l.13-.02c.15-.69.81-1.03,1.5-.74.02,0,.04.02.06.03.17-.15.4-.26.63-.28.06-.23.19-.43.42-.59.32-.23.76-.19,1.09,0,.02,0,.05-.02.07-.02,0-.37.13-.69.46-.92.15-.11.34-.14.52-.14.03-6.94-.02-13.87-.08-20.81-.01-1.3.34-2.07,1.69-2.41.68-.18,1.3-.71,1.86-1.19,1.11-.96,1.32-2.19.66-3.47Z"/><path class="cls-1" d="m44.7,120.16c-.64-1.24-1.78-1.78-3.09-1.35-.97.32-2.6.46-1.6,2.3.04.07-.39.58-.6.57-.71,0-1.43-.15-2.14-.23,0-.15,0-.31-.01-.46.29-.22.59-.44.96-.73-.41-.48-.77-.94-1.17-1.36-1.12-1.16-2.67-1.44-3.76-.7-1.11.76-1.56,2.56-.76,3.88.51.83,1.24,1.65,2.07,2.13.93.55,1.18,1.19,1.25,2.17.26,3.72.38,7.43.39,11.15.06-.05.11-.1.17-.14.22-.15.46-.26.71-.35-.17-.29-.21-.64-.03-.98.23-.43.84-.68,1.31-.46.1-.74,1.07-1.09,1.66-.67.18-.02.35,0,.51.07-.01-2.59-.03-5.19-.06-7.78-.01-1.3.34-2.07,1.69-2.41.68-.18,1.3-.71,1.86-1.19,1.11-.96,1.32-2.19.66-3.47Z"/><path class="cls-2" d="m73.8,70.57c-2.21-3.94-5.56-4.38-7.26-9.33-.51-1.48-.63-2.68-.77-3.98-.5-4.84.58-8.54,1.06-10.44,1.74-7.01-.47-7.13.62-21.39-2.73-.55-5.24-2.09-6.74-4.59-.26-.43-.52-.86-.78-1.29-.72.44-1.49.8-2.3,1.06-2.04.64-3.91.58-5.67.08-.13,4.82-.45,8.2-.74,10.49-.26,2.13-1.3,11.05-2.68,11.06-1.16,0-.36-6.24-4.05-8.62-3.4-2.18-9.64-.46-12.19,3.07-1.36,1.89-1.95,4.7-2.17,5.72-.66,3.14-.19,4.72-1.17,5.27-1.23.7-2.66-1.42-5.81-2.24-2.72-.71-6.74-.46-8.87,1.69-3.38,3.41-1.03,10.58-2.5,10.92-.77.18-1.17-1.85-2.9-2.25-2.32-.53-5.04,2.34-6.31,4.44-.91,1.5-1.2,2.79-1.67,4.91-.23,1.04-.73,3.56-.66,6.84,0,0,.04,1.97.53,6.04,0,0-1.01,3.99-.7,6.96.08.78.33,2.13,3.65,6.86.06-.74.14-1.47-.19-2.11-.32-.63-.95-6.37,1.33-7.18.72-.26,1.52-.43,2.03-.99.73-.82.56-2.12,1.11-3.07,1.17-2.05,4.44-1.17,6.44-2.44.89-.56,1.46-1.52,2.32-2.14.86-.61,2.31-.68,2.75.28,0,0,1.88-1.51,4.5-3.35,1.09-.77,2.43-1.47,3.71-1.08,2,.61,2.35,3.24,2.29,5.33-.06,2.08.15,4.69,2.08,5.47,1.3.53,2.86-.09,4.17.42,2.02.78,2.24,3.52,2.04,5.68-.13,1.41-.3,2.85-.95,4.11-.65,1.26-1.88,2.31-3.29,2.35-1.07.04-2.37-.42-3.08.38-.32.36-.4.87-.46,1.35-.25,1.97-.5,3.94-.75,5.9-1.38.37-2.8-.42-3.89-1.35-1.09-.92-2.08-2.04-3.42-2.53-1.34-.49-3.19-.01-3.54,1.37-1.65-1.76-4.18-3.65-6.21-2.34-1.32.85-3.49,2.69-2.46,4.56.68,1.25,2.78,5.37,2.81,10.83.02,3.2-.68,4.17-1.13,7.31-.38,2.66-.5,6.34.57,10.99.38,1.66,1.87,2.83,3.57,2.84,11.55.1,16.45-2.39,28-2.29,0,0,6.98,1.98,7.57-.26,2.02-7.71,4.49-10.26,5.18-15.78.26-2.11.99-6.17,3.98-11.27,2.66-4.53,4.35-7.41,6.97-11.02,4.59-6.3,5.81-6.28,6.82-9.47.31-.97,2.04-6.79-.76-11.8Z"/><path class="cls-2" d="m11.11,91.24l3.89-3.61c.29-.27.57-.53.86-.8.08-.07.16-.15.24-.22l-.15.11.18-.12c-.09.05-.19.07-.29.06-.23.08.34.05-.06,0l.22.07c-.17-.07-.18-.07-.03,0,.32.18.64.36.95.56.26.16.51.32.76.49,0,0,.48.37.24.17s.17.15.21.2c.12.11.24.23.35.35.17.19.21.32.05.04.08.14.16.29.25.42.06.13.06.12,0-.04-.07-.17-.07-.17,0,.03l.04.15c-.04-.35-.05-.44-.04-.25,0,.04.02.4,0,.4-.05,0,.14-.55.01-.17-.17.54.03.01.04.02,0,0-.15.27-.15.27-.1-.08.4-.36.05-.08-.22.18.46-.26.08-.07l.31-.13c-.25.06-.19.06.2,0-.87.08-1.62.41-2.09,1.2-.43.73-.46,1.71,0,2.44,1.16,1.85,2.96,3.45,5.31,2.8,1.19-.33,2.16-1.26,2.47-2.47.36-1.39-.23-2.76-1.21-3.75-2.7-2.72-7.16-3.49-10.77-2.59-1.68.42-2.44,2.84-1.07,4.04,1.59,1.37,3.44,2.56,5.63,1.95,1.04-.29,2.03-1,2.51-1.99.3-.61.42-1.22.46-1.9,0-.07-.06-.66.01-.71,0,.1-.02.2-.07.28-.08.16-.07.14.04-.07.03.12-.25.27.05-.06.14-.15.29-.29.43-.43.27-.26.52-.52.75-.81.65-.81,1.12-1.65,1.47-2.63.6-1.68.6-3.69,0-5.37l-4.04,2.35c.15.15.3.31.43.47-.32-.38.12.2.18.29.11.18.2.38.31.56.07.16.06.13-.03-.09.05.13.1.27.14.4.39,1.2,1.69,2.1,2.97,1.69,1.2-.39,2.11-1.69,1.69-2.97-.47-1.43-1.22-2.7-2.28-3.78-.72-.73-2.04-.95-2.93-.38s-1.48,1.7-1.11,2.73c.1.28.15.58.25.86.1.32-.01-.39,0-.05,0,.13.02.26.02.4,0,.17,0,.33,0,.5,0,.27,0,.16.03-.05-.05.29-.11.59-.2.87-.04.13-.09.25-.13.38-.1.32.26-.46-.04.06-.13.23-.27.45-.41.68.11-.18.18-.21,0-.02-.12.12-.23.24-.35.36-.22.21-.45.42-.65.65-.56.63-1.06,1.35-1.24,2.19-.1.47-.14.98-.14,1.46,0,.26-.08.23.02.05.09-.15.15-.3.28-.43l.24-.16c-.19.1-.19.11-.01.03.42-.24-.32.19.11-.02.23-.12.05.02-.11-.01-.26-.04.51-.01,0-.03.18,0,.23.13,0-.01-.12-.07-.24-.15-.36-.22-.37-.23.08.09-.11-.08-.13-.12-.28-.23-.41-.35l-1.07,4.04c.28-.07.56-.13.84-.18-.55.1.2,0,.31-.02.54-.03,1.07,0,1.6.05-.56-.06.13.04.2.05.28.06.56.13.83.21.21.06.41.14.61.21.26.1.27.1.02,0,.13.06.26.12.38.19.44.22.89.48,1.27.79-.21-.16-.2-.14.01.04.19.21.2.22.03.03l-.08-.2c-.12-.52,0-.97.38-1.37.15-.16.33-.26.54-.32.38-.03.44-.04.17-.03.37.07.43.07.17,0l.25.09c.22.19.23.19.02,0-.18-.2-.18-.19-.01.03-.17-.21-.31-.45-.45-.68l-2.09,3.64c2.51-.24,4.16-2.18,4.3-4.67s-1.53-4.28-3.38-5.59c-.89-.63-1.88-1.26-2.91-1.6-1.49-.49-2.97-.15-4.19.79-1.92,1.48-3.63,3.3-5.41,4.95-.93.86-.94,2.56,0,3.42.99.91,2.43.92,3.42,0h0Z"/><path class="cls-2" d="m29.37,85.21c1.38,1.48,2.05,3.47,1.93,5.46h1.61c.02-.93-.54-1.68-1.24-2.23-.66-.52-1.37-.85-1.75-1.51-.09-.15-.13-.22-.16-.45.02.14,0-.07,0-.1,0,.16.01-.04.03-.08-.03.08.02,0,.06-.04.06-.05.11-.1.17-.15-.1.08.08-.06.1-.07.12-.09.24-.18.37-.28.31-.24.62-.52.75-.9.18-.54-.07-.98-.5-1.31-.35-.26-.9-.06-1.1.29-.24.41-.06.84.29,1.1-.17-.13-.28-.35-.22-.56.03-.1.16-.21.02-.09-.05.05-.11.1-.16.15-.02.02-.21.17-.13.1-.29.22-.61.42-.85.7-.63.72-.52,1.71-.07,2.49s1.11,1.21,1.8,1.69c.28.2.47.35.73.62.17.18.25.39.25.62,0,.44.38.81.81.81.46,0,.78-.37.81-.81.14-2.42-.76-4.83-2.4-6.6-.71-.76-1.84.38-1.14,1.14h0Z"/><path class="cls-2" d="m31.56,87.58s-.06-.04-.08-.06l.16.13c-.13-.1-.25-.22-.35-.35l.13.16c-.14-.19-.26-.4-.35-.62l.08.19c-.18-.43-.28-.89-.37-1.35-.04-.19-.21-.39-.37-.48-.17-.1-.43-.14-.62-.08-.44.14-.65.55-.56.99.1.53.23,1.04.45,1.54.23.54.59.99,1.08,1.32.16.11.43.13.62.08s.39-.2.48-.37c.22-.41.08-.85-.29-1.1h0Z"/><path class="cls-2" d="m5.95,95.72c-.77.19-.91,1.08-.55,1.68.02.03.04.07.07.1.08.12,0,0,0-.04-.08-.29.1-.3.35-.45.35-.22.49-.24.08-.25s-.74.2-.94.54c-.02.04-.05.08-.07.13-.01.03-.05.16.03-.02-.02.05-.12.15-.17.17.14-.05.05-.04,0,0-.04.03-.08.06-.13.09-.12.09-.24.18-.36.28-.44.4-.7,1.05-.46,1.62.18.43.52.63.92.83.03.01.24.13.11.06l-.05-.04c.06.06.04.04-.04-.06.03.04.03.11-.02-.05-.05-.14,0-.07-.02-.01,0,.05,0,.11,0,.17,0,.22.05.43.16.63.3.51.93.68,1.47.5s.94-.66,1.05-1.22c.06-.29.06-.61-.02-.9-.04-.15-.11-.3-.19-.44-.03-.05-.06-.09-.09-.14l-.04-.06c-.04-.08-.04-.08,0,.01l-.02.2c-.05.2-.05.25,0,.15.06-.07.12-.22.14-.28.07-.24.06-.49-.07-.71-.24-.44-.8-.65-1.25-.37-.35.23-.53.73-.29,1.1.23.35.72.53,1.1.29l.03-.02-.41.11h.04c-.14-.03-.27-.07-.41-.11l-.21-.19-.11-.41s.15-.36.04-.22c-.02.02-.03.04-.04.07-.08.15-.14.32-.14.49,0,.25.07.49.19.71.04.07.09.13.13.2,0,0,.05.08.05.08-.01,0-.05-.19-.02-.03,0,.03.01.06.02.09.03.09-.02-.07-.01-.07.02,0-.01.11,0,.12-.02-.01.04-.17,0-.04,0,.01-.03.11-.03.11-.02,0,.08-.13.02-.06,0,0-.04.08-.05.08-.02-.01.15-.13.01-.03.17-.13,0,0,0,0-.01-.03.17-.06.04-.03.04,0,.17,0,.06-.01.14,0,.26.07.35.18.02.03.08.26.1.26,0,0,0-.14,0-.13,0-.26-.03-.5-.14-.74-.13-.29-.4-.5-.69-.64-.1-.05-.2-.1-.3-.15-.12-.06.1.11.02.01.13.14.08.11.05.05.03.06.06.12.06.18,0,.03-.04.18,0,.04,0,.02-.07.11-.02.05.02-.02.03-.05.05-.08-.02.03-.1.11,0,.02.02-.02.05-.04.07-.06.07-.07-.04.04-.04.03.02-.04.16-.11.2-.14.31-.22.59-.46.76-.82.13-.28.15.46-.59.21.08.03.19.03.27.04.18.01.36-.04.52-.12.25-.13.43-.38.49-.66.07-.29.01-.57-.12-.84-.03-.07-.07-.15-.12-.21s.01.04.02.06c.07.27-.13.58-.41.65.41-.1.69-.58.56-.99s-.55-.67-.99-.56h0Z"/><path class="cls-2" d="m8.78,105.03c.02.09.04.18.05.27,0,.04.02.09.02.13.03.16,0,.01,0-.01.05.18.04.42.04.61,0,.08,0,.17,0,.25,0,.03,0,.07,0,.1,0,.09-.04.02.01-.06-.03.05-.03.14-.04.19,0,.03-.03.06-.03.09,0-.07.08-.14,0-.04-.06.08.11-.13.04-.05-.02.02-.09.11,0,.01.07-.08.03-.02-.02,0-.03.01-.06.02-.08.04-.27.13-.49.36-.57.65-.12.41.04.92.27,1.27.28.41.69.72,1.2.75.45.03.87-.2,1.14-.55.36-.46.3-1.06-.06-1.5-.08-.1-.18-.19-.28-.27s.02.03.03.05c-.09-.12,0,.06.02.09.04.1.01.02,0-.03,0-.09-.04.16,0,.01.11-.43.21-.82.12-1.27-.05-.22-.17-.44-.32-.61-.22-.23-.49-.31-.8-.35-.53-.07-.9.57-.78,1.02.06.22.11.44.16.66.02.07.09.26.07.33v-.11c-.02.14.03.08.13-.19.03-.16.11-.26.25-.29h-.05s.08,0,.12,0c-.08.01-.16.02-.24.03-.04,0-.08.01-.12.03-.13.04-.26.1-.37.18-.27.2-.47.45-.56.78-.15.58.13,1.24.67,1.52.26.14.55.18.84.18.09,0,.19,0,.28,0,.02,0,.13,0,.14,0h-.11s.07,0,.1.02c.4.15.9-.16.99-.56.1-.45-.14-.84-.56-.99-.2-.07-.44-.09-.65-.09-.08,0-.17,0-.25,0-.04,0-.07,0-.11,0-.1,0,.17.04.03,0,.04.01.13.07.05.01l.09.06c.06.09.08.11.05.06-.04-.1.05.16.02.05-.02-.09,0,.18,0,.04,0,.04-.03.17,0,.07l-.04.1c-.07.09-.09.11-.05.06.08-.06-.14.08-.05.03.09-.04-.17.1-.03.01h.05s-.08,0-.11,0c.09-.01.18-.02.26-.04.12-.02.24-.08.35-.14.32-.19.5-.55.49-.91,0-.44-.16-.91-.27-1.34l-.78,1.02c-.14-.02-.26-.05-.37-.15.09.08-.05-.07-.06-.07.02.02.04.09,0-.02-.06-.13,0,0,0,.04.03.09,0-.18-.01-.08,0,.03,0,.06,0,.09,0,.02,0,.05,0,.07,0,0,.04-.18.01-.11-.03.06-.03.13-.05.19-.05.19-.09.37-.11.57-.04.4.11.81.39,1.1.07.08.16.14.24.21.02.02.06.08,0,0-.03-.05-.06-.09-.08-.15-.02-.07-.01-.13,0-.2.01-.07.02-.09,0-.05-.02.06,0,.03.04-.1,0,.01.11-.15.06-.08,0,.01-.04.03-.05.05,0,0,.14-.1.07-.06s.09-.04.09-.03c-.07.02-.11,0,.08,0-.03,0-.11,0,.02,0s.04,0,.01,0c.03.01.16.07.06.02-.12-.07.14.09,0-.01-.06-.04.04.06.05.07,0-.02-.03-.04-.04-.06-.01-.02-.07-.15-.08-.16,0,0,.05.16.03.07,0-.03-.02-.06-.03-.1,0-.02,0-.06-.02-.08.13.19-.43.67-.27.61.04-.02.08-.04.12-.06.15-.07.28-.16.4-.28.22-.23.38-.54.44-.85.14-.72.05-1.5-.11-2.21-.09-.41-.59-.69-.99-.56-.43.14-.66.55-.56.99h0Z"/><path class="cls-2" d="m17.5,141.02c.34-.34.53-.82.52-1.3,0-.28-.07-.52-.19-.77-.07-.16-.19-.28-.26-.44l.08.19s-.02-.07-.03-.1l.03.21s0-.05,0-.08l-.03.21s0-.05.02-.08c.07-.19.02-.45-.08-.62s-.29-.33-.48-.37c-.21-.05-.44-.04-.62.08s-.3.27-.37.48c-.11.32-.03.66.13.95.07.13.17.24.23.37l-.08-.19c.03.08.05.16.07.24l-.03-.21c.01.09.01.18,0,.27l.03-.21c-.01.09-.04.18-.07.27l.08-.19c-.03.08-.07.15-.12.22l.13-.16s-.05.06-.08.09c-.15.15-.24.36-.24.57s.09.43.24.57.35.25.57.24.42-.08.57-.24h0Z"/><path class="cls-2" d="m29.26,136.79c.03.25.03.5.01.75,0,.02-.02.16-.01.11s-.02.09-.02.11c-.03.13-.06.26-.1.39-.07.25,0,.62.21.78.17.13.32.27.45.43-.05-.07-.01-.01.01.03.03.04.06.09.08.13s.05.09.08.14l.03.07c-.08-.11-.04-.22.1-.33,0-.2.09-.31.26-.32.14-.03.17-.04.1-.03-.1,0,.15.03.05,0-.09-.02.12.08.03,0-.04-.03-.09-.05-.13-.08-.27-.17-.52-.26-.84-.29-.36-.04-.68.28-.78.59-.19.59-.31,1.26,0,1.83.3.54.93.9,1.55.76s.98-.66.99-1.25c.01-.52-.24-1.02-.59-1.39l-.36,1.35c-.08.02-.17.02-.25,0-.06-.01-.12-.04-.17-.09-.05-.04-.06-.05-.03-.02.07.07-.1-.14-.05-.06s-.06-.18-.02-.04c.03.12-.02-.06,0-.07,0,0-.02.2,0,.04.02-.13,0-.02-.01.01-.03.09.09-.18,0-.04.04-.06.08-.1.13-.14-.05.05-.08.04,0,.01,0,0-.2.05-.1.03.09-.02-.05,0-.07,0-.06,0-.12,0-.18,0-.07,0-.09-.02,0,0-.12-.02-.24-.05-.36-.08-.4-.1-.9.12-.99.56-.12.58.07,1.11.55,1.48.41.32.97.45,1.48.31,1.1-.31,1.46-1.64,1.18-2.63-.12-.4-.57-.7-.99-.56s-.69.56-.56.99c.02.06.03.13.05.19-.05-.17,0-.02,0,.04s0,.13,0,.19c0-.11.02-.09,0,0,0,.02-.07.22-.03.11s-.03.05-.04.07c-.08.16.1-.1-.02.03-.12.12.12-.05-.03.03-.15.07.16-.04-.01,0,.09-.02.14,0,.02-.01-.1-.02.16.05.02,0-.18-.07-.04.02-.01,0-.02-.01-.05-.03-.07-.04-.05-.03-.03-.02.05.05-.03.01-.17-.22-.01,0-.08-.12.03.16,0,0v.11c.02-.09.01-.07,0,.06l-.99.56c.47.11.97.2,1.45.09s.95-.46,1.11-.97c.12-.4.08-.86-.14-1.22-.28-.47-.78-.65-1.3-.55-.62.11-.74.94-.36,1.35.12.13-.04-.09,0,0,.02.04.05.09.08.13.08.12,0-.07,0,0,0,.02.05.12.04.14.02-.02,0-.18-.01-.02,0,.05,0,.04,0-.03,0-.06.02-.11.05-.15-.06.11.03-.04.07-.07.06-.05.14-.08.22-.08.05,0,.15,0,.04,0,.09.04.11.04.06.01-.05-.03-.04-.02.04.03-.07-.06-.03-.04,0,.02-.04-.07-.04-.07-.01-.02.02.05.02.05,0,0-.01-.06-.01-.06,0,0v-.08c.01-.26-.02.06,0-.08.03-.16.08-.31.13-.46l-.78.59c-.12-.01-.17-.05-.04.03.06.04.12.08.19.12.21.12.42.18.65.2.47.03.92-.21,1.1-.64.34-.8-.39-1.74-1-2.21l.21.78c.17-.58.23-1.19.17-1.79-.04-.42-.34-.83-.81-.81-.4.02-.85.36-.81.81h0Z"/><path class="cls-2" d="m45.85,135.13c.45.79.43,1.87-.13,2.59l.98-.13c.14.1.28.25.28.34,0-.04-.02-.08-.03-.11-.02-.06-.07-.4-.04-.18-.03-.28-.05-.56-.07-.85s-.02-.55-.01-.82c0-.1,0-.2,0-.3,0,0,.01-.11,0-.11.05.03-.07.26-.08.28l-.29.29h0c-.21.02-.41.05-.62.08h0c-.12-.07-.24-.14-.36-.21-.37-.42-.18-.41-.16-.23,0,.05.02.11.03.16.01.07.02.13.03.2-.04-.25,0,0,0,.05.03.26.01.62.16.84.45.65,1.47.42,1.5-.41.02-.51-.28-.96-.54-1.37-.33-.51-.65-1.02-.98-1.53l-.91,1.18c.05.02.11.03.16.05-.1-.04.03.02.04.03.02.01.27.17.19.11.21.16.33.32.43.48.13.21.15.26.22.52.01.06.03.11.04.17,0-.04,0-.13,0,.04,0,.06,0,.11,0,.17,0,.02,0,.22,0,.15-.05.47-.49,1.03-.59,1.56-.14.69.05,1.41.65,1.82,0,0,.16.11.17.11l-.13-.19v-.02c-.05.05,0,.31,0,.37.03.36.18.67.42.94.36.41.94.63,1.48.55.68-.09,1.18-.68,1.2-1.36s-.4-1.28-.87-1.74c-.19-.18-.41-.39-.51-.57.03.06-.03-.13-.02-.06.01.08-.01.03.01-.03.06-.15.03-.08.01-.05.03-.08.08-.16.13-.23.37-.64.62-1.2.3-1.92-.24-.53-1.15-.53-1.39,0s-.31,1.05-.19,1.63c.09.43.59.67.99.56.44-.12.65-.56.56-.99-.02-.11-.02-.27.03-.39h-1.39s-.05-.12-.04-.12v-.03s0-.05,0,0c.01,0,0,0,0,.03s-.04.07-.06.11c-.11.2-.24.4-.34.61-.26.58-.26,1.2.07,1.75.26.43.71.72.99,1.12.05.07.09.15.11.21.01.04,0,.04.01.06.06.04-.04.06,0,0,.1-.17.05-.1.14-.18-.04.03-.13.05.02,0,0,0,.15-.04.05-.01-.06,0-.04,0,.05.01l-.07-.02h-.03c-.05-.03-.04-.03.03,0-.02.01-.09-.09-.04-.02.06.07-.04-.04-.05-.05-.06-.07,0,.02.02.02-.08-.02-.02-.1,0,0,0,.05,0,.18,0-.02,0-.17,0-.34-.03-.51-.07-.34-.25-.61-.54-.81-.04-.03-.12-.09-.17-.11.02,0,0,.04.03.05.09.01-.11.06,0,0,0,0-.01-.02-.01-.09,0-.01.02-.15,0-.05,0-.05.02-.09.04-.14.03-.1.07-.19.12-.28.14-.28.29-.57.38-.87.14-.5.13-1.02.03-1.52-.24-1.12-1.1-2.05-2.19-2.4-.66-.21-1.29.6-.91,1.18.28.44.56.88.85,1.32.12.18.46.58.45.76l1.5-.41s.11.48.1.32c0-.04,0-.07-.01-.11-.01-.1-.02-.21-.04-.31-.03-.26-.05-.54-.12-.79-.14-.53-.71-.88-1.22-.57-.35.2-.41.54-.44.9-.04.54-.01,1.08.03,1.62.05.61.07,1.35.63,1.73.26.18.77.14.98-.13,1.02-1.31,1.22-3.08.38-4.54-.52-.9-1.91-.09-1.39.81h0Z"/><path class="cls-2" d="m33.44,148.52c.62-.52.76-1.4,1.32-1.91.48-.44,1.23-.61,1.88-.85.79-.3,1.54-.72,2.05-1.42.26-.35.41-.76.45-1.2.02-.21,0-.41-.03-.61-.01-.1-.07-.36-.04-.42l-.91.37c.26.07.44.32.46.57.01.27-.15.47-.39.72-.64.65-1.39,1.16-1.67,2.07-.07.22-.09.45-.13.68-.02.11-.04.21-.06.31-.04.14-.02.07-.06.17.04-.04.03-.03-.04.04.06-.05.05-.04-.03,0,.18-.07-.23.01-.03,0-.19.01-.38,0-.57-.03-.46-.06-.9-.12-1.36-.01-.26.06-.5.19-.71.36-.03.03-.33.26-.32.29-.08,0-.01-.02.19-.05.14.01.27.08.37.2l.11.41c.03.34-.24.28-.04.21.11-.04.24-.13.34-.18.23-.12.46-.24.68-.36.46-.24.91-.49,1.37-.73.23-.12.43-.43.4-.7-.06-.47-.16-.96-.59-1.24-.35-.22-.82-.27-1.19-.05-.87.53-.44,1.68.2,2.21s1.66.49,2.08-.33c.2-.38.19-.8.12-1.21-.02-.14-.07-.28-.1-.42,0-.01-.03-.21-.03-.14,0-.08.04-.1,0-.05.53-.9-.87-1.71-1.39-.81-.17.3-.25.62-.22.96.03.3.14.58.17.88-.01-.07-.01-.05,0,.05,0,.1,0,.11,0,.04.02-.07.07-.13.14-.17.07-.04.15-.05.23-.04.05-.03.07.07,0-.02-.02-.02-.09-.21-.09-.14l-.11.41c-.34.32-.62.31-.85-.03.02.1.03.13.02.08l.4-.7c-.68.36-1.37.73-2.05,1.09-.32.17-.65.33-.87.63-.31.41-.32.98.03,1.37.58.63,1.41.35,1.94-.16.01-.01.18-.14.11-.09.04-.03.12-.03.02-.01.05,0,.1-.03.15-.03-.14.02,0,0,.02,0,.27.02.53.04.8.07.54.07,1.12.05,1.59-.27.59-.4.73-1.03.84-1.69.02-.12.05-.24.08-.36.05-.25-.03.04.02-.08.02-.05.05-.1.08-.14.11-.18.22-.3.43-.49.37-.35.76-.67,1.07-1.07.44-.57.65-1.28.46-2-.2-.77-.81-1.37-1.56-1.59-.33-.1-.75.06-.91.37-.26.49-.21.92-.16,1.45.01.1.02.21.01.31,0-.1-.01.05-.02.09-.01.04-.02.08-.04.12.02-.05.02-.05,0,0-.03.06-.07.13-.11.19.06-.07-.09.1-.1.11-.06.06-.13.13-.2.19-.05.04-.27.18-.38.24-.31.17-.56.25-.91.37-.77.27-1.56.55-2.16,1.13-.3.29-.51.64-.7,1.01-.17.34-.31.64-.58.87-.33.28-.29.85,0,1.14.33.33.8.28,1.14,0h0Z"/><path class="cls-2" d="m19.98,151.02c-.12-.15.01.02.03.04.03.04.06.09.09.13.07.09.13.19.2.29.12.18.24.37.35.56s.22.39.32.58c.05.09.09.19.14.28.03.06.05.12.08.17.02.04.09.22.02.04.13.32.39.61.78.59.36-.02.68-.24.78-.59.28-1.03-.66-1.78-1.58-1.91-.22-.03-.43-.04-.65-.05-.08,0-.15,0-.23-.01-.08,0-.17-.05.03,0-.04-.01-.09-.01-.13-.02-.07-.01-.14-.04-.21-.06-.14-.04.17.09.04.02-.03-.02-.06-.03-.09-.05-.12-.07.04.01.06.05-.02-.02-.04-.03-.05-.05l.08.1s-.02-.03-.03-.05c-.03-.05-.02-.02.04.11,0-.04-.02-.08-.03-.12l-.99.99c.11.04-.01.01-.03-.02.02.02.08.04.1.05.08.04.15.08.23.12.07.04.13.08.2.12.04.03.17.15.21.15-.03,0-.12-.1-.03-.02.03.02.06.05.09.07.06.05.11.1.17.15.12.12.24.25.34.38.25.31.77.28,1.06.06.33-.26.39-.67.21-1.04-.45-.92-.9-1.84-1.35-2.76l-.29,1.1c.23-.13.46-.25.69-.38.37-.2.52-.74.29-1.1s-.71-.51-1.1-.29c-.23.13-.46.25-.69.38-.4.22-.48.72-.29,1.1.45.92.9,1.84,1.35,2.76l1.26-.98c-.52-.65-1.22-1.11-1.99-1.42-.26-.1-.6.02-.78.21-.21.21-.27.5-.21.78.19.94,1.2,1.22,2.03,1.26.14,0,.3.03.44.02-.17.02-.14-.02-.04,0,.04,0,.07.02.11.03s.07.02.11.03c.02,0,.16.06.03,0s0,0,.02.02c.04.02.07.04.11.06.11.06-.11-.11-.05-.04.02.02.05.05.07.07-.08-.11-.1-.14-.07-.09.01.01.02.03.03.05-.01,0-.06-.19-.04-.09.03.14-.02-.22,0-.07,0,.14.04-.21,0-.06h1.55c-.42-1.02-.96-1.94-1.64-2.81-.12-.15-.39-.24-.57-.24-.2,0-.43.09-.57.24s-.25.35-.24.57c.01.23.1.39.24.57h0Z"/><path class="cls-2" d="m14.28,132.07l.54.85c.24.37.45.79.91.92.4.11.82-.03,1.1-.33.34-.36.39-.86.16-1.29l-1.26.98c.1.1.2.2.29.31-.07-.09-.02-.02.02.04.04.06.08.12.11.18.03.05.05.1.08.16.1.2-.04-.14.03.07.05.13.09.27.12.4.09.39.51.63.88.58.41-.06.67-.39.7-.79.04-.61-.2-1.19-.6-1.63-.48-.53-1.36-.1-1.37.57-.01.72.16,1.41.48,2.05.24.48.91.49,1.26.16.91-.84.82-2.14.64-3.25l-.56.99c-.12.02-.18.03-.29-.03.14.08-.08-.12.02.01-.11-.14.02.08-.06-.11.05.12,0-.08,0-.15-.09.41.12.89.56.99s.87-.13.99-.56c.02-.06.04-.12.06-.18-.04.16,0,0,.02-.04.03-.06.07-.11.1-.16.11-.17-.11.1.03-.04.04-.05.09-.09.14-.14.11-.12-.11.06.04-.03.05-.03.09-.06.14-.08.04-.02.25-.11.07-.04.39-.15.71-.55.56-.99-.12-.38-.57-.73-.99-.56-.83.33-1.48.97-1.71,1.85l1.55.43c.11-.47,0-.96-.36-1.31s-.81-.47-1.3-.39c-.18.03-.4.22-.48.37-.11.2-.12.39-.08.62,0,.05.02.1.02.16.02.12-.02-.2,0,0,.01.1.02.19.03.29.02.2.01.41,0,.61,0,.14.01-.03,0-.03,0,0-.02.13-.03.15,0,.02-.07.26-.08.26s.07-.14,0,0c-.02.04-.05.09-.08.13-.05.08-.02.02.02-.02-.05.04-.09.09-.13.13l1.26.16s-.09-.19-.06-.11c.04.08-.04-.1-.04-.12-.04-.12-.08-.25-.11-.37-.01-.05-.02-.1-.03-.15-.05-.23,0,.08,0-.05,0-.14-.02-.28-.02-.42l-1.37.57c.06.07.06.07,0,0,.03.04.05.08.07.12.09.13-.02-.1.03.06.02.07.04.13.05.2-.03-.2-.01.08-.02.13l1.58-.21c-.16-.71-.54-1.36-1.06-1.86-.29-.28-.74-.31-1.06-.06s-.4.68-.21,1.04c-.18-.34,0-.76.4-.76.18,0,.33.06.43.19l-.05-.07c-.05-.08-.11-.17-.16-.25l-.57-.88c-.23-.35-.73-.53-1.1-.29-.35.23-.53.72-.29,1.1h0Z"/><path class="cls-2" d="m26.6,132.09c.33.5.46,1.06.31,1.64-.16.64.39,1.09.99.99.81-.13,1.3-.84,1.38-1.61l-1.5.41c.26.5.62.95,1.06,1.3.52.41,1.37.19,1.37-.57,0-.64-.11-1.28-.34-1.88l-1.35.78c.48.58,1.09,1.06,1.77,1.4.58.29,1.43-.2,1.18-.91-.17-.5-.45-.95-.85-1.29-.19-.16-.39-.3-.61-.4-.12-.06-.26-.11-.39-.16-.03-.01-.4-.11-.26-.04l.29.29-.04-.06.11.41c-.02-.13.01-.26.03-.4.01-.08.02-.16.03-.24,0,.01,0,.03,0,.05l-.29.29c-.21.04-.23.05-.04.03.08,0,.17-.01.25-.02.17-.01.34-.02.5-.03.81-.04,1.08-1.05.41-1.5-.51-.34-1.27-.66-1.9-.47-.75.23-1.02,1.1-.6,1.75.38.59,1.11.65,1.73.78.11.02.27.09.38.08.23.08.18-.04-.15-.34,0,.07,0,.15,0,.22,0,.34,0,.69,0,1.03s.25.71.59.78c1.69.33,3.07-1.41,2.66-3.03-.17-.68-.96-1.51-1.69-1.55-.96-.05-1.27.97-1.61,1.67-.28.59.07,1.13.7,1.21.15.02.32.06.41.13l-.29-.29.04.07-.11-.41c.03-.07.02-.04-.02.09-.02.06-.04.12-.05.18-.04.14-.08.28-.12.42-.11.39.14.92.56.99.59.1,1.22.07,1.67-.37s.53-1.07.28-1.65c-.13-.29-.52-.43-.8-.38-.34.05-.54.27-.67.58-.21.5-.36,1.01-.28,1.56.03.23.11.44.19.66.01.04.11.32.1.32-.06.01.22-.32.06-.12l1.37.57c.03-.51-.16-1.04-.53-1.39-.34-.33.35.4-.08.54-.02,0,.12-.08.15-.1.2-.13.4-.26.56-.44.77-.83.68-1.95.52-2.98-.05-.34-.45-.59-.78-.59-.37,0-.65.26-.78.59-.18.49-.37.99-.55,1.48s.29,1.04.78,1.02c.68-.03,1.13-.42,1.53-.92s.8-.99,1.2-1.49c.27-.34.33-.81,0-1.14-.28-.28-.86-.34-1.14,0-.31.39-.63.78-.94,1.17-.14.17-.27.35-.41.51-.03.04-.22.26-.24.26l.78,1.02c.18-.49.37-.99.55-1.48h-1.55c.06.39.13.82,0,1.2-.1.3-.34.38-.58.56-.42.31-.72.79-.56,1.32.1.33.48.52.46.86-.04.67.93,1.1,1.37.57.42-.51.49-1.09.28-1.71-.07-.21-.19-.42-.18-.65.02-.26.15-.53.25-.77l-1.47.19c-.06-.1-.07-.2-.03-.29.04-.1.07-.12.1-.08,0,.04-.21.01-.2.01l.56.99c.15-.51.42-1.08.1-1.58s-.99-.58-1.52-.64l.7,1.21c.09-.19.18-.39.28-.58.03-.07.27-.44.25-.49-.01-.03-.5.2-.51.19,0,.05.18.16.22.19.06.07.1.11.12.2.07.35-.23,1.11-.68,1.02l.59.78c0-.44.03-.9,0-1.34-.06-.6-.45-.98-1.03-1.12-.21-.05-.43-.09-.64-.13-.09-.02-.61-.19-.68-.15.7-.46-.43,1.08-.03.5-.24.35-.31.26-.11.31.23.06.41.15.6.28l.41-1.5c-.53.03-1.28-.04-1.69.37-.23.23-.29.51-.33.81-.03.23-.09.48-.08.72,0,.36.2.67.51.83.21.11.46.1.67.2.28.13.53.39.63.69l1.18-.91c-.57-.28-1.04-.66-1.44-1.15-.5-.61-1.63.04-1.35.78.18.47.28.94.28,1.45l1.37-.57c-.35-.28-.61-.58-.81-.97-.16-.31-.58-.46-.91-.37-.36.1-.56.42-.59.78,0-.1-.05.02-.04.02.11-.04-.15.03-.15.03l.99.99c.24-.99.09-2.03-.48-2.88s-1.97-.05-1.39.81h0Z"/><path class="cls-2" d="m42.52,130.35l.6.84c.48.68,1.4.39,1.5-.41,0-.03.08-.16.16-.16-.06,0,.08.03.04.01.06.03.05.07.04.03-.04-.09.02.05.04.08.26.4.66.63,1.15.53.19-.04.36-.16.49-.3.04-.05.15-.18.19-.26.05-.1.16-.17-.06.03.04-.04.1-.04.02-.01-.03.01-.17-.02-.08,0,.13.03-.14-.06-.12-.09,0,0,.08.12.1.15.22.34.49.65.89.76.43.12.88-.04,1.18-.37.02-.02.04-.04.05-.06.04-.03.04-.04,0-.02,0,.04-.31.1-.32.03,0,.02.27.24.3.28.41.47,1.19.2,1.35-.36,0,.02-.06.07-.08.08.99-.29.57-1.84-.43-1.55-.52.15-.9.53-1.04,1.05l1.35-.36c-.33-.38-.77-.7-1.29-.72-.26,0-.51.08-.73.22-.09.06-.17.13-.25.21-.11.12-.08.04,0,.02h.43c-.19-.03.02,0,.02.04,0,.04-.04-.06-.04-.07-.06-.14-.18-.29-.29-.4-.23-.25-.54-.4-.88-.44-.32-.04-.65.02-.93.19-.15.09-.27.2-.38.33-.04.05-.09.11-.13.18-.13.22-.05-.07.21-.11h.43c.32.08.3.27.19.07-.05-.1-.13-.19-.2-.26-.13-.13-.28-.24-.44-.32-.36-.18-.77-.24-1.16-.14-.83.2-1.29.92-1.39,1.72l1.5-.41-.6-.84c-.25-.35-.7-.52-1.1-.29-.35.2-.54.75-.29,1.1h0Z"/></g></g></svg>