<?xml version="1.0" encoding="UTF-8"?><svg id="Layer_2" xmlns="http://www.w3.org/2000/svg" viewBox="0 0 105.53 113.67"><defs><style>.cls-1{fill:#231f20;stroke:#231f20;stroke-miterlimit:10;}</style></defs><g id="Layer_3"><path class="cls-1" d="m95.36,18.1c-1.64-1.71-2.38-3.71-3.93-5.5-.91.26-2.24.77-2.48,1.57,3,3.61,5.68,6.48,8.91,10.37-2.41.13-4.15.22-5.78.31-.21.68-.58,1.3-1.04,1.84,2.71-.13,5.22-.25,7.72-.36.09.36.19.71.28,1.07-2.23.86-4.46,1.72-6.68,2.58.08.31.17.62.25.94,2.49-.44,4.99-.88,7.72-1.36.28,1,.48,1.74.73,2.64-1.9.75-3.62,1.42-5.33,2.1.05.23.1.46.15.69h5.74c.06.37.12.74.17,1.1-1.28.68-2.55,1.36-3.83,2.03.42.21.8.48,1.15.83.13.11.24.22.35.34.7-.04,1.41-.08,2.13-.13.9,1.63.12,2.08-.84,2.49.14.44.22.9.22,1.38,0,.08-.01.16-.01.24.22.01.45.03.7.05v4.2c.91-.01,1.83.04,2.74.14,1.97-10.91-.68-20.83-9.05-29.55Z"/><path class="cls-1" d="m84.37,76.65c-.7-.19-1.38-.4-2.04-.65-.41.87-.94,1.61-1.7,2.23.01,0,.02.01.04.02-5.02,9.41-10.64,10.76-19.81,10.54-2.97-.07-5.93-.39-8.89-.66-2.12-.19-4.23-.44-6.33-.75-3.22-.47-6.13.02-9.29,2.86,3.02-.41,5.21-.71,7.72-1.05-1.56,2.07-2.78,3.84-4.18,5.45-.56.64-1.53.93-2.31,1.37,0,.02,0,.03,0,.05-2.51-1.88-2.6-1.85-6.23-.25-3.86-1.44-7.43-2.77-10.9-4.05-2.18.51-4.32,1.02-6.14,1.45-1.76-1.94-3.16-3.49-4.95-5.47.56-2.02,1.26-4.52,2.07-7.44-2.3-3.33-7.3-5.27-7.38-10.31-.05-3.08.48-6.16.75-9.17,4.08.77,7.68,1.44,12.01,2.25-.27,2.19-.5,4.74-.93,7.26-.33,1.95-1.08,3.83-1.37,5.78-.56,3.79.36,4.62,5.32,4.51.24-1.62.49-3.34.74-5.07-.46-.26-.91-.52-1.37-.78-.57,1.01-1.14,2.02-1.7,3.03-.16-.14-.33-.29-.49-.43,1.07-4.9,2.14-9.8,3.21-14.66,4.18,2.35,6.76,8.67,6.34,15.9-.73.32-1.52.66-3.17,1.37,1.08.65,1.6,1.12,2.21,1.28.76.21,1.6.17,2.34.23,2.93-6.35.47-13.98-6.83-21.52q4.05-4.54,4.69-8.9c-2.35,2.48-4.05,4.27-5.77,6.1-1.5-3.5-2.52-7.17-4.52-10.19-2.06-3.12-5.06-5.62-7.88-8.64,3.87-6.37,7.18-13.05,11.65-18.84,5.27-6.84,12.58-11.12,21.3-12.56.36.56.68,1.06,1.11,1.73.55-.12,1.2-.19,1.8-.39,10.76-3.54,21.68-4.67,32.72-1.59,6.53,1.82,10.38,3.83,12.73,7.47.79-.59,1.63-1.1,2.52-1.54-.01,0-.02-.02-.04-.03-.23-.14-.42-.3-.61-.47-.17-.12-.33-.24-.48-.38-.61-.39-1.22-.8-1.7-1.34-.17-.16-.32-.32-.46-.49-.25-.15-.49-.31-.69-.5-.09-.04-.18-.08-.27-.12,0,0,0,0,0,0-.46-.18-.89-.39-1.32-.62-.34-.11-.67-.25-.96-.42-2.16-.96-4.06-1.85-5.99-2.6C70.64,2.4,62.27-.03,53.72.6c-5.56.41-12.2.79-17.75,1.53-9.55,1.27-13.21,4.9-23.34,15.87-1.13,1.22-1.64,3.62-2.92,5.48-.31,1.23-1.55,2.45-2.41,3.51l-.31.64s-.38,1.42-.44,1.52c0,.04-.08.5-.1.52-.04.05-.4,1.03-.4,1.03-.32.54.11.11-.32.54-4.11,5.67-2.56,11.65-1.31,18.78.72,4.11-.65,8.1-2.24,11.95-.08.24-.17.47-.28.7-.1.33-.21.65-.35.97-.12.32-.25.63-.39.93,0,0,.02.01.02.02-2.62,7.6,2.67,11.88,8.07,16.07-4.06,7.61-4.11,15.52-3.46,23.5.18,2.18.48,4.37,3.79,4.37.88-2.43,1.75-4.84,2.72-7.51,5.34.78,10.38,1.52,15.85,2.32,1.41,2.69-.46,6.89,2.37,9.63,2.37.72,3.73-.57,4.66-2.17,1.56-2.71,2.93-5.53,4.24-8.37.97-2.09,1.51-4.41,2.62-6.41,2.12-3.85,5.17-6.39,9.97-5.97,2.8.24,5.65.04,8.42.42,9.61,1.31,17.26-1.39,22.08-10.29.14-.26.51-.39.78-.58.73.09.47-.88,1.16-.84-.39-1.03.25-1.06-.09-2.11ZM7.3,42c4.29,4.85,10.6,8.61,7.99,17.52-1.22.59-2.51,1.22-3.92,1.9-1.52-.93-2.9-1.78-4.07-2.5v-16.92Zm.57,64.94l-.44-18.88c.42,0,5.04,6.5,5.46,6.5.51,3.13-1.17,8.37-5.01,12.39Zm24.16,3.97c-.62-4.12-1.08-7.14-1.59-10.58.64-1.14,1.42-2.54,2.31-4.13h4.86c.99,5.62-2.14,9.64-5.58,14.72Z"/><path class="cls-1" d="m101.68,47.51c-.08.22-1.75,6.72-1.88,6.93-.26.52-3.74,12.87-6.3,16.73-3.12,4.7-5.45,5.79-11.17,4.84.28.93.59,2.7.97,3.59,9.43-.04,12.44-4.84,15.59-13.23,1.05-2.79,2.15-5.56,3.05-8.39.43-1.37,2.17-8.98,2.47-10.32-.97-.1-1.75-.19-2.74-.14Z"/><path class="cls-1" d="m42.81,42.32c1.18-2.7,2.26-5.16,3.55-8.09,1.58,3.01-.23,5.29-.71,7.99,1.26,1.79,2.66,3.77,4.09,5.8,3.78-1.4,7.41-2.74,10.87-4.02,4.27,4.07,5.29,8.3,3.42,13.09-1.08,2.76-2.23,5.56-3.84,8.03-3.14,4.81-7.98,6.28-13.45,4.51-5.69-1.84-9.5-6.68-9.47-11.99.01-2.77,1.44-4.72,3.66-6.07,1.68-1.02,3.54-1.75,5.7-2.78-.53-1.12-.98-2.26-1.59-3.32-.58-.99-1.32-1.89-2.22-3.15Zm17.57,4.41c-5.82,2.5-10.69,4.44-15.41,6.7-1.54.74-3.1,2.08-3.93,3.55-1.62,2.85.75,8.4,4.01,10.22,3.88,2.17,9.4,1.56,11.06-1.81,2.09-4.24,3.62-8.8,5.02-13.33.42-1.34-.39-3.06-.76-5.33Z"/><path class="cls-1" d="m55.06,10.52c-.54,2.38-1.06,4.62-1.54,6.71-3.92,4.03-10.15,5.24-12.31,11.25-.73-.67-1.43-1.31-2.45-2.24,3.23-4.64,8.56-6.64,12.55-10.55.11-1.96.23-4.07.37-6.39,1.99-.99,3.77-2.65,6.63-1.2-1.09.82-2.19,1.63-3.25,2.43Z"/><path class="cls-1" d="m61.81,67.05c-.62,3.48-2.56,5.36-6.12,5.3,2.04-1.77,4.08-3.53,6.12-5.3Z"/><path class="cls-1" d="m16.09,52.6c5.52,13.77-5.42,8.75-8.79,6.32.17-1.7-.17-15.2,0-16.92,2.67,1.01,8.68,7.49,8.79,10.6Z"/></g></svg>