<?xml version="1.0" encoding="UTF-8"?><svg id="Layer_2" xmlns="http://www.w3.org/2000/svg" viewBox="0 0 137.39 115.59"><defs><style>.cls-1{fill:#231f20;stroke:#231f20;stroke-miterlimit:10;}</style></defs><g id="Layer_3"><path class="cls-1" d="m136.64,67.49c-2.41,1.45-4.87.84-6.65,1.91.1.41.25,1.02.46,1.85-6.04,5.7-9.84,12.47-8.25,21.33,2.69,1.85,6.14,2.4,7.53,5.91-2.75,2.27-6.26,1.57-9.61,2.46-.79,3.81,1.04,7.27,1.72,11.3-4.65-.56-6.69-4.29-9.72-6.85-2.94,3.09-4.79,6.93-8.77,9.5-2.37-3.81-1.48-7.92-2.44-12.22-8.77-.2-17.53,1.59-26.35,2.08-8.9.5-17.76,1.61-25.46,2.34-5.53-2.21-8.16-5.42-10.72-9.29C24.6,77.11,13.21,55.12,2.36,32.81c-1.19-2.45-2.1-4.79-1.81-7.54.56-5.25.76-10.56,1.7-15.74.85-4.68,2.06-5.01,6.92-4.64,3.45.26,6.95.1,10.42-.08,10.75-.54,21.49-1.08,32.23-1.81,7.75-.53,15.48-1.38,23.22-2.08,1.77-.16,3.57-.58,5.29-.36,2.93.38,4.93,2.27,6.73,4.62,8.74,11.43,17.5,22.85,26.46,34.11,4.94,6.21,10.31,12.09,15.44,18.16,2.12,2.5,4.97,6.68,7.68,10.05Zm-98.11,24.28l-.13-.1c1.05,4.26,3.5,7.64,6.56,10.92,1.16-7.32,2.16-14.31,3.42-21.26.36-1.99,1.42-3.85,2.29-6.11-3.25-2.04-2.14-7.32-5.88-9.91-4.94,6.58-6.81,14.07-8.38,21.67-.19.94-.24,2.08.12,2.92.33.77,1.31,1.27,2,1.88Zm1.23-36.79s-1.55,5.95-2.85,8.31c-3.33,6.07-4.18,12.74-5.29,19.37-.1.57.73,1.3,1.22,2.11,1.36-4.02,2.44-7.8,3.9-11.42,1.46-3.64,4.23-9.6,5.82-12.99,1.12-.15.98,2.21,1.75,2.11-.53-1.42-1.43-2.55-1.89-3.77.64-1.06,1.54-2.11,1.88-2.66-7.12-11.5-14.1-22.77-21.21-34.26-2,2.09-.56,3.47.2,4.74,3.37,5.69,6.99,11.23,10.23,16.99,2.16,3.84,14.01,21.79,11.41,20.9-1.13-1.4-7.83-11.79-8.81-13.28-3.86-5.88-7.63-11.81-11.43-17.72-.85-1.32-1.17-3.16-3.23-3.31.01-2.05-.38-3.89-2.45-4.91-2.61,5.23-4.76,14.8-4.07,18.92,1.08-3,1.83-5.67,2.99-8.14.99-2.13,2.45-4.05,3.7-6.06-.22.78-.36,1.59-.67,2.33-2.68,6.35-5.55,12.64-6.15,20.22,4.27,7.88,8.76,16.18,13.71,25.31.53-1.6.7-2.17.9-2.73,1.66-4.64,4.58-8.99,5.05-13.89.44-4.63,5.92-7.53,5.28-6.17ZM23.23,17.3c.3.89.53,2.42,1.28,3.63,6.97,11.25,13.69,22.67,21.19,33.54,3.98,5.77,9.22,10.55,16.71,12.26,5.87,1.34,11.63,3.41,17.03,7.23,7.98-1.31,16.26-2.68,24.45-4.03,1.86-3.79,4.95-5.7,8.11-7.51,3.98-2.28,5.09-5.89,4.62-10.14-.19-1.79-.72-3.54-.96-4.63-7.12-8.72-13.81-16.93-20.53-25.12-5.92-7.21-13.15-12.44-22.3-14.85-3.18-.84-6.26-2.04-9.41-3.01-.77-.24-1.62-.39-2.41-.32-8.57.67-17.14,1.4-25.97,2.13-4.07,2.7-9.56,4.16-11.82,10.81Zm58.04,77.4c6.8-3.35,13.36-.84,20.05-3.21-3.39-3.5-7.25-.86-10.03-2.28,2.44-.43,4.99-.89,7.83-1.39-1.54-3.55-5.11-3.38-6.9-5.35-7.67.82-14.82,3.12-22.28,2.89,9.67-2.14,19.39-3.9,29.09-5.75,5.5-1.05,10.95-2.47,16.64-1.89.16.02.28.36.39.51-1.3.5-2.58,1-3.97,1.53,1.85,2.2,3.41,4.05,5.13,6.1,1.78-4.07,3.45-7.91,5.23-11.97-6.21.34-53.98,8.95-60.23,8.43,5.49-1.2,52.69-9.02,58.25-9.56,2.4-.24,4.79-.25,6.26-2.58-1.58-1.71-3.32-1.53-5.19-1.13-19.73,4.22-39.66,7.21-59.65,9.82-1.56.2-3,.42-3.73,1.96-.71,1.49-1.63,3-1.83,4.58-.64,4.99-.99,10.02-1.45,15.02,15.53-1.44,30.74-2.86,46-4.27v-2.46c-6.38-.44-12.57.03-19.62,1.02Zm-26.42-15.88c-2.52-.17-2.92,1.65-3.22,3.15-1.16,5.83-2.28,11.67-3.15,17.55-.27,1.82.3,3.76.5,5.77,17.75-1.71,34.89-3.35,52.26-5.02-.21-1.08-.33-1.68-.45-2.31-5.62.55-11.02,1.14-16.43,1.58-5.59.45-11.2.83-16.8,1.08-5.32.24-10.35,2.76-16.39,2.46,2.16-8.33.03-16.56,3.67-24.26ZM7.9,6.67c-2.61.27-2.77,2.65-3.1,4.67-.9,5.49-1.61,11.01-2.48,17.12,1.58,1.92,2.49,5.01,4.96,7.42,1.33-7.67,2.14-15.02,5.5-21.59-1.68-2.64-3.24-5.07-4.87-7.62Zm7.06,10.93c-1.35,4.54-2.18,8.26-3.57,11.76-1.37,3.44.4,7.6-2.79,10.71.72,1.15,1.46,2.32,2.49,3.97,1.1-8.24,3.05-15.5,6.35-22.66-.6-.91-1.29-1.96-2.49-3.78Zm35.71,47.31c-.47,1.63,9.36,10.11,8.96,11.49h5.78c.31-2.12.58-3.99.89-6.17-.77-.06-15.34-3.99-15.63-5.32Z"/><path class="cls-1" d="m80.9,54.15c-10.97-1.17-21.36-3.33-29.89-10.75-.25-.22-.49-.44-.73-.67-7.43-7.2-6.43-14.76,2.65-19.56,7.44-3.94,15.5-5.52,23.29-2.25,8.94,3.75,16.02,10.19,18.53,20.03,1.63,6.39.64,10.09-7.14,12.09-2.22.57-4.54.76-6.7,1.11Zm-31.15-24.34c-2.78,6.55.11,12.01,7.85,15.71,2.6-1.49,4.27-3.74,5.65-6.4-4.62-3.19-8.92-6.15-13.5-9.31Zm2.6-3c5.86,1.56,11.16,2.98,16.65,4.44,1.93-3.03,3.63-5.72,5.51-8.67-8.24-1.91-15.19-.61-22.17,4.24Zm30.53,13.38c.76,3.97,1.45,7.56,2.13,11.16,7.79-1.89,9.66-6.4,5.55-13.22-2.39.64-4.86,1.3-7.69,2.06Zm-.07,11.55c-5.04-3.31-6.7-4.4-10.66-7,0,0-1.79.78-8.91,3.77,6.77,2.58,11.41,3.67,19.57,3.23Zm7.55-15.37c-2.73-5.22-5.58-9.07-10.93-11.51.85,3.29,1.54,5.92,2.22,8.55,2.78.94,5.35,1.82,8.7,2.95Z"/><path class="cls-1" d="m42.96,35.52c-3.4-4.64-3.22-6.79.85-11.15-1.57,3.64-1.96,7.33-.85,11.15Z"/><path class="cls-1" d="m69.84,90.73c3.76-.79,7.52-1.59,11.28-2.38.06.28.12.56.18.84-1.05.24-2.11.47-3.16.71-1.42.33-2.84.68-4.27,1-1.24.28-2.48.52-3.72.77-26.3,4.55-.31-.94-.31-.94Z"/><path class="cls-1" d="m38.53,91.77c.25-1.92.25-3.92.8-5.74,1.23-4.05,2.75-8.01,4.15-12,.31.1.62.2.93.3-1,2.9-1.99,5.8-3,8.7-1,2.88-2,5.76-3.01,8.63,0,0,.13.1.13.1Z"/></g></svg>