<?xml version="1.0" encoding="UTF-8"?><svg id="Layer_2" xmlns="http://www.w3.org/2000/svg" viewBox="0 0 131.13 129.39"><defs><style>.cls-1{fill:#231f20;stroke:#231f20;stroke-miterlimit:10;}</style></defs><g id="Layer_3"><path class="cls-1" d="m13.58,102.42c-3.48-1.85-6.85-2.96-9.29-5.11-3.62-3.19-4.71-7.89-3.01-12.33,2.2-5.74,7.65-9.34,13.12-9.23,10.87.23,16.6-7.74,24.96-12.63-3.2-2.73-5.61-5.93-8.79-7.17-2.83-1.1-6.64-.58-9.79.18-8.35,2.01-16.25-3.93-15.71-12.21.42-6.46,3.89-9.48,12.39-10.79-1.36-7.95,1.21-13.16,7.44-15.09,6.15-1.9,14.12,1.62,15.48,8.93,1.91,10.26,9.46,15.43,16.17,22.48,4.53-3.9,9.04-7.7,13.46-11.6,3.6-3.18,6.99-6.62,10.69-9.66,4.29-3.53,6.87-7.24,6.11-13.42-.39-3.14,1.52-7.13,3.55-9.88,2.95-3.99,7.64-5.26,12.52-3.86,4.92,1.41,7.76,5,8.46,10.01.36,2.59.06,5.26.06,8.07,1.71.52,3.26.92,4.76,1.47,5.67,2.09,9.12,7.18,8.57,12.55-.55,5.36-4.88,9.87-10.95,10.45-3.54.33-7.18-.62-10.78-.69-2.02-.04-4.57-.13-5.98.97-8.24,6.38-16.21,13.1-25,20.31,10.96,8.62,21.54,17.02,32.26,25.23.88.68,2.78.45,4.07.11,4.96-1.27,9.75-1.41,14.52.87,5.81,2.78,8.61,7.87,7.48,14.15-1.03,5.71-5.74,9.52-12.08,9.72-1.81.06-3.62,0-5.57,0-.5,2.04-.81,3.97-1.45,5.8-2.08,5.9-8.69,9.88-14.01,8.57-6.82-1.68-11.65-8-9.77-14.98,1.72-6.39-.8-9.72-5.19-13.38-8.77-7.32-17.22-15.04-26.4-23.12-5.01,4.83-10.25,9.35-14.74,14.51-1.38,1.59-1.11,4.95-.99,7.47.47,9.62-6.5,16.45-15.76,15.19-6.08-.83-9.54-4.85-10.83-11.9Zm9.05-67.74c1.36-.63,2.38-1.11,3.4-1.58,0,1.33.49,3.01-.13,3.91-1.4,2.02-2.77,3.44-6,1.36-2.14-1.38-6.76-1.3-8.71.18-1.65,1.26-2.04,5.78-1.23,8.3,1.44,4.51,5.66,6.27,10.53,4.62,6.42-2.18,11.32-.56,16.3,3.76,17.62,15.3,35.45,30.37,53.31,45.39,3.09,2.59,4.17,4.97,2.28,8.83-.96,1.95-.96,4.5-.95,6.78.02,4.55,2.48,7.52,6.85,8.55,4.22,1,7.77-.58,9.41-4.55,1.21-2.93,4.17-7.06-2.2-8.4-.25-.05-.56-2.09-.14-2.58,1.45-1.67,3.22-3.06,4.87-4.56.37.3.74.6,1.11.89-.07,1.14-.13,2.27-.22,3.74,1.94,0,3.76.09,5.56-.02,4.99-.28,8.78-3.38,9.23-7.44.46-4.14-2.86-8.83-7.59-9.62-2.98-.49-6.38-.4-9.2.57-3.16,1.09-5.18.38-7.63-1.45-20.23-15.06-39.25-31.48-56.97-49.42-3.09-3.13-5.77-6.12-5.98-10.92-.09-2.12-1.49-4.39-2.83-6.19-3.32-4.48-8.22-5.4-12.14-2.62-4.32,3.08-4.64,7.19-.92,12.47Zm83.76-14.8c.39-1.97.92-3.72,1.05-5.5.44-5.86-2.17-9.96-6.58-10.61-4.84-.72-9.51,2.73-10.8,8.13-.34,1.43-.81,3.12-.36,4.39,2.12,6.06-1.39,9.49-5.46,12.86-2.41,2-4.61,4.27-6.95,6.36-5.99,5.35-12.02,10.67-18.24,16.19,3.21,3,6.09,5.68,9.08,8.47,9.21-7.35,18.29-14.49,27.22-21.81,2.46-2.02,4.34-2.59,7.35-.7,2.53,1.59,5.8,2.52,8.81,2.71,4.82.31,8.5-3.51,8.83-8.2.29-4.25-2.95-8.45-7.32-9.28-.86-.16-2.5-.02-2.62.36-1.07,3.36-3.39,2.46-5.04,1.18-1.47-1.15-2.25-3.18-3.34-4.83.39-.29.77-.58,1.16-.87.98.35,1.95.7,3.22,1.15ZM25.82,96.56c-5.57,1.52-7.73,5.09-6.59,8.73,1.16,3.68,5.95,5.6,9.9,3.8,4.22-1.92,6.56-5.22,5.54-9.91-1.48-6.79,1.38-11.34,6.55-15.29,3.77-2.88,7.12-6.3,10.98-9.78-3.64-3.12-6.96-5.98-10.44-8.96-2.88,2.09-5.51,4.05-8.19,5.93-5.46,3.83-10.36,8.3-18.1,7.62-4.51-.4-8.45,2.67-9.81,7.63-1.09,3.98,1.6,8.79,5.59,9.7,3.64.83,6.95.54,7.18-5.76,2.75,2.34,4.68,3.99,7.4,6.3Z"/></g></svg>