<?xml version="1.0" encoding="UTF-8"?><svg id="Layer_2" xmlns="http://www.w3.org/2000/svg" viewBox="0 0 126.16 124.46"><defs><style>.cls-1{fill:#231f20;stroke:#231f20;stroke-miterlimit:10;}</style></defs><g id="Layer_3"><path class="cls-1" d="m31.78,98.73c-2.96-.07-5.28-.73-7.12-.06-12.58,4.6-12.6,4.68-19.22-7.18-.4-.72-.78-1.46-1.17-2.19-5.64-10.58-5.53-11.05,4.3-17.78,6.28-4.3,5.74-14.51-1.09-17.93-4.64-2.32-6.18-5.75-4.74-10.58.66-2.21,1.4-4.42,2.4-6.5,2.71-5.65,4.49-6.44,10.62-5.14,7.97,1.69,14.87-5.76,12.54-13.53C25.39,8.1,31.22.07,41.66.52c6.39.27,13.46.36,16.06,8.75,1.05,3.4,5.83,3.21,7.74.07,5.9-9.7,6.07-10.12,16.7-5.62,4.69,1.98,8.86,5.71,12.47,9.41,1.18,1.21-.19,4.84-.27,7.37-.07,2.15.05,4.32.09,6.47,2.12-.1,4.38.24,6.32-.39,7.98-2.58,17.05,1.22,20.5,8.88.34.75.7,1.5,1.02,2.26,5.5,13.17,4.59,11.18-5.12,16.82-3.14,1.83-4.12,12.01-1.51,14.57.83.81,1.81,1.49,2.53,2.38,2.31,2.87,6.82,6.26,6.35,8.62-1.21,6.09-4.34,11.91-7.46,17.4-.63,1.1-4.95,1-7.06.17-4.54-1.8-7.66-.77-9.67,3.39-.76,1.57-1.26,3.76-.78,5.33,1.24,4.07.21,7.25-2.86,9.78-10.22,8.4-13.79,8.58-22.39,1.31-3.73-3.16-11.41-2.77-15.26.75-7.83,7.18-9.56,7.36-18.55,1.79-1.55-.96-3.06-1.97-4.56-3-8.92-6.08-9.09-6.64-4.17-18.31Zm81.14-47.4c1.56-.74,3.13-1.47,4.69-2.21,1.53-.38,3.07-.76,5.15-1.28-1.42-1.75-2.21-2.73-3-3.71,1.19-3.95-1.13-8.2-5.69-10.1,1.25,2.84,2.41,5.5,3.58,8.16-.95,1.34-1.9,2.69-2.86,4.03-1.32.97-2.64,1.94-3.97,2.91-1.33.99-2.66,1.99-3.99,2.98-1.89,5.18-.78,7.76,4.76,9.08-.66-2.3-1.18-4.14-1.71-5.97l3.04-3.89Zm-58.49,65.64c1.01-1.32,2.03-2.64,3.04-3.95h5.7c-3.11-4.79-5.72-5.51-9.05-3.25-1.01,1.28-2.03,2.57-3.04,3.85l-3.13,3.17c1.11,1.08,2.11,2.78,3.38,3.01.83.15,2.05-1.81,3.1-2.83Zm62.46-28.82c-2.34-1.32-4.48-2.05-5.09,1.73-3.92-.06-7.87.68-11.65-1.51-.91-.53-3.15.48-4.34,1.38-1.94,1.46-3.79,3.22-5.15,5.21-.87,1.27-1.36,3.31-1.03,4.78.71,3.18,3.08,6.02.84,9.6-.37.59,1,2.57,1.94,3.52.47.47,2.44.4,2.64,0,.56-1.07.89-2.5.68-3.68-.9-5.11.1-9.06,4.03-13.12,3.38-3.5,5.84-4.28,9.84-1.92,1.34.79,3.15.76,4.75,1.11.11-.6.21-1.21.32-1.81l3.19-4.4c4.46-4.84,4.58-9.08-.04-11.85.26,3.84-5.13,6.83-.93,10.97Zm-59.76,16.88c1.73,0,2.56.04,3.39,0,3.75-.21,7.43-1.88,10.22,3.04,3.78,6.68,4.24,6.43,11.33,2.93,1.19-.59,2.82-.91,3.43-1.88,1-1.59,2.39-4.16,1.77-5.34-3.09-5.91-1.64-10.25,3.52-13.88.53-.37,1.06-.89,1.33-1.46,2.01-4.3,5.23-4.99,9.35-3.3.91.38,1.91.56,2.87.78,5.42,1.25,6.79.41,9.08-5.5,2.43-6.27,2.15-8.25-3.15-10.46-5.87-2.45-9.27-5.77-7.54-12.5.04-.16.05-.35,0-.49-2.09-6.12,1.01-9.54,6.14-11.95.89-.42,1.87-.89,2.46-1.62.76-.92,1.87-2.35,1.6-3.17-1.16-3.6-2.58-7.16-4.34-10.49-.43-.81-3.01-1.45-3.82-.94-7.62,4.86-13.1,2.09-17.69-4.52-.09-.13-.24-.24-.38-.32-3.03-1.58-3.33-3.84-2.46-7.03,2.34-8.6,2.19-8.64-6.41-11.62-.63-.22-1.26-.41-1.87-.67-2.58-1.1-4.45-.53-5.6,2.17-.71,1.67-1.7,3.23-2.4,4.9-1.11,2.66-3.01,2.97-5.78,3.4-8.44,1.31-14.8-.14-17.6-9.28-.3-.99-2.28-2.05-3.5-2.07-7.35-.1-12.27,6.24-9.55,13.01,2.3,5.74-.11,8.99-3.62,13.08-3.6,4.18-6.56,7.56-12.57,4.89-3.9-1.73-6.35.24-7.64,3.88-.83,2.33-1.72,4.72-1.93,7.14-.11,1.32.87,3.72,1.83,3.98,7.79,2.19,9.36,7.58,8.26,14.65-.12.79.48,1.76.22,2.44-.73,1.92-1.45,3.98-2.73,5.53-1.11,1.34-2.95,2.08-4.5,3.04-6.18,3.84-6.32,4.37-2.61,10.87.74,1.29,1.34,2.88,2.47,3.67,1.28.9,3.59,1.97,4.56,1.42,7.39-4.24,12.61-2.31,18.05,3.97,2.9,3.34,3.84,5.33,1.7,9.09-.85,1.5-1.37,4.07-.65,5.42,3.16,5.93,11.36,6.32,15.36,1,2.59-3.45,4.81-7.54,9.41-5.8Zm33.63,11.66c-2.6-1.63-3.91-2.99-5.39-3.2-1-.14-2.24,1.34-3.37,2.09,1.27,1.08,2.39,2.6,3.85,3.1.92.31,2.36-.89,4.91-1.99Z"/><path class="cls-1" d="m29.29,62.03c-.08-16.94,15.06-33.12,31.21-33.36,15.27-.23,28.43,13.57,28.48,29.87.05,17.16-14.49,32.4-31.05,32.53-15.37.12-28.56-13.26-28.64-29.03Zm7.7-13.92c1.31.43,2.62.87,3.66,1.21,1.61-1.94,3.1-3.43,4.18-5.19.46-.76.43-2.67-.05-2.97-.91-.57-3.02-.86-3.39-.36-1.66,2.29-2.89,4.89-4.26,7.38-4.21,4.28-4.58,8.11-.18,11.55-1.22-4.39,5.97-7.45.04-11.62Zm2.12,18.82c-.03,13.38,5.07,19.89,16.78,20.6,11.24.68,19.98-4.19,25.56-13.86,5.72-9.9,5.91-20.2-.26-30.06-1.17-1.87-3.73-3.26-5.94-4.05-17.59-6.25-36.11,7.85-36.15,27.36Z"/></g></svg>