<?xml version="1.0" encoding="UTF-8"?><svg id="Layer_2" xmlns="http://www.w3.org/2000/svg" viewBox="0 0 112.62 106.68"><defs><style>.cls-1{fill:#231f20;stroke:#231f20;stroke-miterlimit:10;}</style></defs><g id="Layer_3"><path class="cls-1" d="m7.52,38.13c-.9-1.19-1.36-2.32-2.19-2.84C-.42,31.73-.45,31.74,2.19,25.43c.16-.38.33-.76.5-1.15,2.44-5.53,2.66-5.64,8.4-3.83,3.66,1.15,7.55-2.24,6.77-6.01-.52-2.56.36-4.24,2.72-5.17,1.08-.43,2.19-.82,3.33-1.07,3.08-.68,3.95-.23,5.35,2.61,1.81,3.69,6.92,4.11,9.28.76,2.96-4.2,7.96-4.38,11.03-.1,1.88,2.62,4.05,5.45,1.53,9.1-1.02,1.48.54,3.31,2.38,3.09,5.68-.68,5.91-.74,7.43,4.88.67,2.48.49,5.29.15,7.88-.11.85-1.98,1.43-3.01,2.19-.88.64-1.7,1.36-2.54,2.05.7.81,1.27,1.81,2.12,2.39,3.51,2.36,4.82,7.15,2.86,10.9-.19.37-.38.74-.58,1.11-3.52,6.28-3.01,5.3-8.27,3.21-1.7-.68-6.05,2.1-6.25,3.94-.06.58-.03,1.18-.16,1.74-.42,1.81-.36,4.66-1.45,5.21-2.79,1.41-6.08,1.99-9.23,2.46-.63.09-1.94-1.65-2.26-2.75-.7-2.36-2.08-3.28-4.36-2.78-.86.19-1.88.67-2.36,1.35-1.23,1.76-2.81,2.34-4.77,1.91-6.52-1.44-7.7-2.8-7.49-8.48.09-2.46-2.45-5.39-5.05-5.82-5.29-.87-5.9-1.5-6.49-6.81-.1-.91-.17-1.83-.23-2.75-.37-5.43-.19-5.67,5.97-7.35Zm44.07,17.44c.78.39,1.56.78,2.34,1.17.63.49,1.26.98,2.11,1.64.25-1.11.4-1.73.54-2.35,1.94-.76,2.9-3,2.24-5.4-.74,1.38-1.43,2.67-2.12,3.96-.83.04-1.66.08-2.49.12-.8-.22-1.59-.45-2.39-.67-.81-.22-1.62-.44-2.43-.65-2.64.86-3.32,2.11-2.12,4.72.71-.98,1.27-1.76,1.84-2.54h2.49Zm-44.26-2.77c.84,0,1.68-.02,2.51-.03l1.78,2.26c.93-2.72.41-3.98-1.53-4.6-.83,0-1.65,0-2.48,0l-2.23-.25c-.08.78-.44,1.7-.14,2.28.2.38,1.36.25,2.09.35Zm30.89,15.81c-.2-1.34-.58-2.42-2.27-1.48-1.2-1.58-2.72-2.91-3.03-5.09-.07-.52-1.17-1.1-1.9-1.29-1.18-.32-2.46-.5-3.67-.42-.77.05-1.73.49-2.21,1.08-1.04,1.27-1.43,3.09-3.55,3.32-.35.04-.71,1.19-.79,1.87-.04.33.6,1.09.82,1.05.6-.11,1.27-.43,1.67-.87,1.75-1.95,3.63-2.78,6.46-2.49,2.44.25,3.51.99,3.83,3.31.1.78.68,1.49,1.04,2.23.27-.15.54-.29.82-.44l2.74-.1c3.31.26,5.03-1.01,4.69-3.7-1.44,1.3-4.31.09-4.65,3.05Zm-25.31-18.46c.54.69.78,1.03,1.06,1.34,1.25,1.42,3.06,2.36,1.98,5-1.47,3.58-1.23,3.68,2.36,5.41.6.29,1.24.83,1.81.78.94-.1,2.39-.34,2.67-.96,1.38-3.07,3.56-3.84,6.6-2.93.31.09.68.14.99.07,2.33-.54,3.61.52,4.22,2.69.13.48.37.93.59,1.38,1.19,2.54,1.95,2.82,5.01,1.89,3.25-.99,3.95-1.71,3.17-4.51-.86-3.09-.6-5.47,2.62-6.88.07-.03.15-.09.19-.16,1.78-2.74,4.1-2.57,6.66-1.28.44.22.94.46,1.41.47.6.01,1.51,0,1.76-.35,1.07-1.58,2.04-3.25,2.81-4.99.19-.42-.36-1.65-.82-1.81-4.3-1.51-4.91-4.55-3.72-8.43.02-.08.02-.17,0-.25-.32-1.69.49-2.51,2.03-3.16,4.14-1.75,4.11-1.82,2.61-6.16-.11-.32-.23-.63-.31-.95-.37-1.36-1.18-1.93-2.61-1.55-.88.24-1.81.33-2.69.57-1.4.39-2.12-.27-3.15-1.23-3.15-2.94-4.55-5.92-1.8-9.87.3-.43.1-1.54-.27-2.03-2.25-2.95-6.3-2.93-8.14.26-1.56,2.7-3.6,2.76-6.32,2.64-2.78-.13-5.04-.25-5.85-3.46-.53-2.09-2.07-2.44-3.92-1.82-1.18.4-2.41.79-3.44,1.46-.56.36-1.2,1.5-1.01,1.97,1.56,3.77-.09,6.07-3.24,7.84-.35.2-.55.74-.9.85-.99.31-2.03.66-3.04.64-.88-.02-1.74-.52-2.61-.84-3.45-1.26-3.7-1.15-5.13,2.35-.28.7-.72,1.43-.69,2.12.04.79.34,2.04.86,2.25,3.98,1.61,4.84,4.28,4.05,8.4-.42,2.19-.92,3.18-3.08,3.5-.86.13-2.04.72-2.35,1.43-1.37,3.1,1.03,6.48,4.39,6.41,2.17-.04,4.49-.44,5.23,1.93Zm5.84,16.98c-.16-1.54-.03-2.49-.41-3.14-.26-.44-1.23-.47-1.88-.68-.04.84-.29,1.76-.03,2.49.16.46,1.09.66,2.32,1.33Z"/><path class="cls-1" d="m21.31,25.71c6.7-5.31,17.83-4.34,22.96,2,4.85,5.99,3.47,15.51-2.99,20.6-6.8,5.36-17.37,4.34-22.58-2.19-4.83-6.06-3.63-15.46,2.6-20.41Zm7.92-1.28c.24.66.47,1.31.66,1.83,1.27.03,2.33.16,3.36.04.44-.05,1.19-.66,1.16-.95-.06-.54-.6-1.47-.91-1.46-1.42.05-2.84.38-4.26.61-3.01-.34-4.65.71-4.64,3.53,1.36-1.85,4.82.05,4.63-3.6Zm-6.81,6.7c-5.32,4.16-6.31,8.21-2.95,13.07,3.23,4.67,7.88,6.63,13.46,5.83,5.71-.81,9.86-3.94,11.85-9.46.38-1.05.13-2.49-.24-3.62-3-8.92-14.36-11.89-22.11-5.82Z"/><path class="cls-1" d="m62.02,92.73c-1.58-.03-2.82-.39-3.8-.03-6.71,2.46-6.72,2.49-10.26-3.83-.22-.39-.42-.78-.63-1.17-3.01-5.65-2.95-5.9,2.3-9.49,3.35-2.29,3.06-7.74-.58-9.57-2.47-1.24-3.3-3.07-2.53-5.65.35-1.18.75-2.36,1.28-3.47,1.44-3.01,2.39-3.44,5.67-2.74,4.25.9,7.94-3.07,6.69-7.22-1.56-5.2,1.55-9.49,7.12-9.25,3.41.14,7.18.19,8.57,4.67.56,1.81,3.11,1.71,4.13.04,3.15-5.17,3.24-5.4,8.91-3,2.5,1.06,4.73,3.05,6.66,5.02.63.64-.1,2.59-.14,3.94-.03,1.15.03,2.3.05,3.45,1.13-.05,2.34.13,3.37-.21,4.26-1.38,9.1.65,10.94,4.74.18.4.37.8.54,1.21,2.93,7.03,2.45,5.96-2.73,8.97-1.68.98-2.2,6.41-.8,7.77.44.43.96.79,1.35,1.27,1.23,1.53,3.64,3.34,3.39,4.6-.65,3.25-2.31,6.36-3.98,9.28-.33.59-2.64.54-3.77.09-2.42-.96-4.09-.41-5.16,1.81-.4.84-.67,2.01-.42,2.84.66,2.17.11,3.87-1.53,5.22-5.45,4.48-7.36,4.58-11.95.7-1.99-1.69-6.09-1.48-8.14.4-4.18,3.83-5.1,3.93-9.9.96-.83-.51-1.63-1.05-2.44-1.6-4.76-3.24-4.85-3.54-2.22-9.77Zm43.3-25.3c.83-.39,1.67-.79,2.5-1.18.82-.2,1.64-.41,2.75-.69-.76-.93-1.18-1.46-1.6-1.98.63-2.11-.6-4.38-3.04-5.39.67,1.52,1.29,2.93,1.91,4.35-.51.72-1.02,1.44-1.52,2.15-.71.52-1.41,1.04-2.12,1.55-.71.53-1.42,1.06-2.13,1.59-1.01,2.76-.42,4.14,2.54,4.85-.35-1.23-.63-2.21-.91-3.19l1.62-2.07Zm-31.21,35.03c.54-.7,1.08-1.41,1.62-2.11h3.04c-1.66-2.56-3.05-2.94-4.83-1.74-.54.69-1.08,1.37-1.62,2.06l-1.67,1.69c.59.58,1.13,1.48,1.8,1.61.44.08,1.1-.97,1.66-1.51Zm33.33-15.38c-1.25-.7-2.39-1.09-2.72.92-2.09-.03-4.2.36-6.22-.81-.48-.28-1.68.26-2.32.73-1.04.78-2.02,1.72-2.75,2.78-.46.68-.72,1.76-.55,2.55.38,1.69,1.64,3.21.45,5.12-.2.31.53,1.37,1.04,1.88.25.25,1.3.21,1.41,0,.3-.57.47-1.33.36-1.96-.48-2.73.06-4.84,2.15-7,1.81-1.87,3.11-2.28,5.25-1.03.71.42,1.68.41,2.53.59.06-.32.11-.64.17-.97l1.7-2.35c2.38-2.58,2.44-4.85-.02-6.32.14,2.05-2.74,3.65-.5,5.86Zm-31.89,9.01c.92,0,1.37.02,1.81,0,2-.11,3.96-1,5.45,1.62,2.02,3.57,2.26,3.43,6.04,1.56.63-.31,1.5-.49,1.83-1,.53-.85,1.28-2.22.94-2.85-1.65-3.16-.87-5.47,1.88-7.41.28-.2.56-.48.71-.78,1.07-2.3,2.79-2.67,4.99-1.76.49.2,1.02.3,1.53.42,2.89.67,3.62.22,4.85-2.93,1.3-3.35,1.15-4.4-1.68-5.58-3.14-1.31-4.94-3.08-4.02-6.67.02-.08.02-.18,0-.26-1.12-3.26.54-5.09,3.28-6.38.47-.22,1-.48,1.31-.86.4-.49,1-1.25.86-1.69-.62-1.92-1.38-3.82-2.32-5.6-.23-.43-1.61-.77-2.04-.5-4.07,2.59-6.99,1.11-9.44-2.41-.05-.07-.13-.13-.2-.17-1.62-.84-1.78-2.05-1.31-3.75,1.25-4.59,1.17-4.61-3.42-6.2-.33-.12-.67-.22-1-.36-1.38-.58-2.38-.28-2.99,1.16-.38.89-.91,1.72-1.28,2.62-.59,1.42-1.61,1.59-3.08,1.81-4.5.7-7.9-.08-9.39-4.95-.16-.53-1.22-1.09-1.87-1.1-3.92-.05-6.55,3.33-5.1,6.94,1.23,3.07-.06,4.8-1.93,6.98-1.92,2.23-3.5,4.03-6.71,2.61-2.08-.93-3.39.13-4.08,2.07-.44,1.24-.92,2.52-1.03,3.81-.06.7.47,1.98.98,2.13,4.15,1.17,4.99,4.05,4.41,7.82-.07.42.26.94.12,1.3-.39,1.03-.77,2.12-1.46,2.95-.59.71-1.58,1.11-2.4,1.62-3.3,2.05-3.37,2.33-1.39,5.8.39.69.72,1.53,1.32,1.96.68.48,1.92,1.05,2.43.76,3.94-2.26,6.73-1.23,9.63,2.12,1.55,1.78,2.05,2.85.91,4.85-.45.8-.73,2.17-.35,2.89,1.69,3.17,6.06,3.37,8.2.53,1.38-1.84,2.57-4.02,5.02-3.1Zm17.95,6.22c-1.39-.87-2.09-1.6-2.88-1.71-.54-.08-1.19.71-1.8,1.12.68.58,1.27,1.39,2.06,1.65.49.17,1.26-.47,2.62-1.06Z"/><path class="cls-1" d="m60.69,73.14c-.04-9.04,8.04-17.68,16.65-17.8,8.15-.12,15.17,7.24,15.2,15.94.03,9.16-7.73,17.29-16.57,17.36-8.2.06-15.24-7.07-15.28-15.49Zm4.11-7.43c.7.23,1.4.46,1.95.65.86-1.03,1.66-1.83,2.23-2.77.25-.4.23-1.43-.03-1.59-.49-.3-1.61-.46-1.81-.19-.89,1.22-1.54,2.61-2.27,3.94-2.25,2.28-2.45,4.33-.09,6.16-.65-2.34,3.19-3.98.02-6.2Zm1.13,10.04c-.01,7.14,2.71,10.61,8.95,10.99,6,.36,10.66-2.23,13.64-7.39,3.05-5.28,3.16-10.78-.14-16.04-.63-1-1.99-1.74-3.17-2.16-9.38-3.33-19.27,4.19-19.29,14.6Z"/><path class="cls-1" d="m73.42,7.16c.6-.88,1.26-1.45,1.42-2.14,1.08-4.71,1.07-4.73,5.95-4.4.3.02.59.05.89.08,4.31.38,4.43.5,4.53,4.8.06,2.74,3.26,4.59,5.63,3.2,1.61-.95,2.95-.74,4.13.65.54.63,1.06,1.3,1.49,2,1.17,1.93,1.06,2.62-.54,4.22-2.08,2.08-1.19,5.63,1.62,6.46,3.52,1.04,4.8,4.38,2.61,7.45-1.34,1.88-2.76,4-5.81,3.13-1.23-.35-2.12,1.13-1.54,2.33,1.77,3.69,1.86,3.83-1.59,6.15-1.52,1.03-3.47,1.55-5.3,1.92-.6.12-1.43-1.01-2.18-1.53-.64-.44-1.31-.83-1.97-1.25-.39.66-.94,1.28-1.13,1.99-.79,2.92-3.72,4.91-6.72,4.45-.29-.05-.59-.08-.88-.14-5.06-.93-4.28-.81-4.08-4.86.07-1.31-2.82-3.61-4.11-3.32-.41.09-.81.25-1.22.29-1.32.14-3.23.83-3.86.22-1.6-1.57-2.75-3.65-3.79-5.68-.21-.41.67-1.69,1.34-2.17,1.44-1.02,1.74-2.16.88-3.59-.32-.54-.89-1.12-1.46-1.28-1.47-.42-2.23-1.36-2.39-2.79-.53-4.74.12-5.86,4.01-7.02,1.69-.51,3.09-2.9,2.78-4.76-.63-3.78-.34-4.34,3.11-5.96.59-.28,1.2-.54,1.81-.79,3.59-1.5,3.8-1.44,6.35,2.34Zm-1.64,33.86c-.08.62-.17,1.23-.25,1.85-.19.54-.37,1.08-.63,1.81.81-.08,1.26-.13,1.71-.18.96,1.14,2.7,1.27,4.17.27-1.1-.18-2.14-.35-3.17-.52-.22-.55-.44-1.1-.66-1.66-.03-.59-.07-1.18-.1-1.77-.04-.6-.08-1.2-.12-1.79-1.19-1.59-2.19-1.76-3.68-.35.82.25,1.48.46,2.14.66l.58,1.68Zm-8.33-30.6c.2.57.4,1.13.6,1.7l-1.12,1.72c2.06,0,2.79-.64,2.76-2.09-.19-.56-.38-1.12-.57-1.68l-.34-1.57c-.54.12-1.25.09-1.58.43-.21.22.14.98.24,1.49Zm-3.58,24.55c.86-.45,1.5-.95.48-1.88.79-1.17,1.34-2.51,2.75-3.22.34-.17.47-1.05.44-1.58-.06-.87-.23-1.78-.56-2.58-.21-.51-.73-1.06-1.24-1.25-1.1-.41-2.43-.26-3.07-1.64-.1-.23-.97-.2-1.45-.11-.23.05-.6.66-.52.8.21.38.58.76.98.93,1.72.74,2.72,1.82,3.17,3.8.39,1.71.14,2.61-1.36,3.35-.5.25-.85.8-1.27,1.22.16.15.32.3.48.45l.7,1.83c.59,2.3,1.84,3.17,3.59,2.32-1.21-.68-1.05-2.9-3.13-2.44Zm6.66-21.39c-.34.52-.52.77-.66,1.03-.67,1.17-.89,2.62-2.93,2.49-2.77-.17-2.78.02-3.11,2.85-.06.47-.28,1.03-.11,1.41.28.62.79,1.54,1.27,1.59,2.4.23,3.42,1.52,3.5,3.8,0,.23.06.5.18.69.9,1.46.48,2.56-.84,3.48-.29.2-.54.47-.8.72-1.44,1.39-1.46,1.97-.13,3.83,1.42,1.97,2.07,2.28,3.78,1.11,1.9-1.29,3.57-1.67,5.26.18.04.04.1.08.15.1,2.26.57,2.69,2.18,2.4,4.21-.05.35-.1.74,0,1.06.13.41.34,1.03.64,1.11,1.32.36,2.67.63,4.03.75.33.03,1.03-.62,1.03-.97.03-3.26,1.95-4.37,4.85-4.46.06,0,.12-.02.17-.05,1.07-.6,1.81-.25,2.61.64,2.14,2.4,2.18,2.36,4.78.35.19-.15.37-.3.57-.43.84-.56,1.04-1.24.45-2.12-.37-.54-.64-1.15-1.01-1.69-.58-.86-.31-1.5.11-2.42,1.27-2.81,2.96-4.44,6.27-3.5.36.1,1.07-.29,1.31-.65,1.48-2.2.53-4.94-2.05-5.45-2.19-.44-2.7-1.8-3.24-3.67-.56-1.91-.99-3.47,1-4.76,1.29-.84,1.18-1.97.33-3.07-.54-.71-1.09-1.45-1.78-1.99-.38-.29-1.3-.47-1.56-.23-2.19,1.92-4.13,1.34-6.05-.39-.21-.19-.63-.2-.78-.41-.44-.6-.92-1.22-1.13-1.91-.19-.6-.05-1.3-.03-1.96.06-2.62-.08-2.77-2.77-2.93-.54-.03-1.13-.16-1.6.02-.52.21-1.3.7-1.33,1.1-.17,3.07-1.78,4.26-4.75,4.68-1.58.22-2.37.11-3.08-1.27-.28-.55-.96-1.22-1.51-1.26-2.42-.21-4.15,2.19-3.33,4.45.53,1.46,1.33,2.94-.1,3.99Zm-10.15,7.87c1-.46,1.68-.59,2.03-1,.24-.28.04-.94.03-1.43-.58.17-1.26.21-1.69.56-.28.22-.2.89-.37,1.87Z"/><path class="cls-1" d="m85.01,13.63c5.14,3.31,7.05,11.07,3.94,16-2.94,4.66-9.7,5.92-14.63,2.73-5.2-3.36-6.94-10.76-3.72-15.79,2.99-4.67,9.63-6.03,14.41-2.94Zm2.69,5.07c-.39.31-.78.62-1.09.87.27.87.43,1.61.75,2.28.14.29.72.66.91.57.35-.16.85-.75.77-.95-.36-.95-.91-1.83-1.39-2.74-.46-2.11-1.55-2.98-3.46-2.33,1.57.5,1.08,3.27,3.51,2.3Zm-6.11-3.07c-4.04-2.64-7.01-2.38-9.53,1.02-2.42,3.26-2.67,6.86-.84,10.45,1.87,3.68,4.94,5.76,9.14,5.84.8.01,1.72-.48,2.39-1,5.35-4.09,4.73-12.46-1.16-16.31Z"/></g></svg>