<?xml version="1.0" encoding="UTF-8"?><svg id="Layer_2" xmlns="http://www.w3.org/2000/svg" viewBox="0 0 127.54 113.58"><defs><style>.cls-1{fill:#231f20;stroke:#231f20;stroke-miterlimit:10;}</style></defs><g id="Layer_3"><path class="cls-1" d="m.72,111c2.17-4.08,3.7-7.69,5.92-10.79,1.04-1.45,3.43-1.93,5.81-3.16,1.08-2.33,2.46-5.3,3.94-8.48,2.75-.29,5.39-.57,8.7-.92,0-4.08-.01-7.93,0-11.79.06-13.68.9-27.31,4.71-40.51C34.7,18.36,45.21,7.55,62.58,1.41c2.86-1.01,14.82-1.52,20.76.35,7.92,2.49,14.3,5.93,18.74,12.77,4.56,7.01,6.41,14.95,7.53,23.11,1.83,13.35,2.49,26.77,2.54,40.23.01,2.92,0,5.84.72,8.59,1.78,3.62,3.55,7.24,5.42,11.04,5.04,1.63,5.28,1.97,8.73,12.18-.59,2.36-2.09,3.54-4.62,3.36-.58-.04-1.17,0-1.76,0-31.21.01-62.42.09-93.63,0-7.79-.03-15.58-.63-23.37-1.03-.7-.04-1.38-.46-2.93-1Zm105.19-23.23c.17-.89.39-1.45.36-2-.91-16.12-1.74-32.25-2.84-48.36-.28-4.04-1.21-8.08-2.26-12.01-2.23-8.28-6.95-14.68-14.91-18.39-12.35-5.76-28.65-3.22-38.78,5.9-9.56,8.61-14.27,19.55-16.34,32.03-2.14,12.92-2.52,25.93-2.65,38.96-.01,1.28.11,2.57.18,3.87h77.26ZM6.05,108.22h116.96c-1.23-2.5-2.23-4.52-3.09-6.26H9.68c-1.03,1.78-2.16,3.73-3.63,6.26Zm10.48-11.48c11.62,0,22.29-.02,32.96,0,10.9.02,21.8-.03,32.7.16,10.56.18,21.12.62,32.29.96-1.19-2.56-1.98-4.27-2.78-5.99H18.93c-.65,1.32-1.31,2.66-2.4,4.87Z"/><path class="cls-1" d="m43.78,45.3c-.61-15.59,14.22-24.77,26.06-25.01,11.82-.24,23.85,11.89,23.8,24.74-.04,11.46-7.84,25.23-24.35,25.44-17.6.22-25.91-13.07-25.51-25.18Zm45.61-4.14c-2.05-9.2-7.93-15.2-16.33-16.55.66,5.24,1.3,10.32,1.95,15.52,5,.36,9.42.68,14.38,1.03Zm-28.66-2.07c.55-.8,1.05-1.39,1.4-2.06,2.11-4.13,4.18-8.27,6.3-12.48-9.01-.3-17.38,5.55-19.25,13.45,3.85.37,7.68.73,11.55,1.1Zm18.37,24.82c7.51-4.48,11.12-11.13,10.09-18.49-4.23,2.01-8.37,3.96-12.61,5.97.91,4.51,1.7,8.44,2.52,12.51Zm-23.2-.59c6.63,3.04,12.13,5.01,19.03,2.34-3.46-2.84-6.52-5.36-9.63-7.92-3.04,1.8-5.66,3.36-9.41,5.58Zm4.42-13.54c1.95,1.4,3.6,2.58,5.22,3.75,2.65-1.56,4.93-2.89,7.33-4.3-.52-2.17-.95-3.94-1.44-5.96h-8.22c-.92,2.07-1.77,3.99-2.89,6.52Zm-4.27,1.29c-2.95-2.44-5.53-4.57-8.56-7.07-.49,6.59,1.16,11.6,5.5,16.21,1.07-3.19,1.98-5.92,3.06-9.14Zm15.07-11.83c-.53-3.08.17-6.01-1.51-9.35-1.68,3.48-3,6.22-4.52,9.35h6.03Zm-19.32,2.49c-.14.3-.29.59-.43.89,1.89,1.55,3.77,3.09,5.98,4.9.74-1.68,1.3-2.98,2.15-4.92-2.94-.33-5.32-.6-7.7-.87Zm21.4,11.37c-1.72,1.2-2.92,2.04-4.31,3.01,2.1,1.62,3.58,2.76,5.93,4.58-.64-2.98-1.06-4.97-1.62-7.59Zm8.39-8.03c-.03-.27-.06-.54-.1-.82h-5.84c.2,1.18.34,2.04.55,3.29,2.02-.93,3.7-1.7,5.39-2.48Zm-23.69,12.01c.27.23.53.46.8.69.95-.79,1.9-1.58,3.04-2.52-.9-.67-1.47-1.1-2.4-1.79-.54,1.37-.99,2.49-1.44,3.62Z"/></g></svg>