<?xml version="1.0" encoding="UTF-8"?><svg id="Layer_2" xmlns="http://www.w3.org/2000/svg" viewBox="0 0 1550.88 869.19"><defs><style>.cls-1{fill:#231f20;stroke-width:0px;}</style></defs><g id="Layer_4"><path class="cls-1" d="m28.21,517.97c-9.79-11.55-16.45-23.38-21.16-36.4-10.2-28.15-9.01-56.27,1.47-83.86,10.35-27.22,23.84-52.92,40.29-77.05,22.79-33.43,53.48-56.52,91.28-70.35,33.17-12.14,65.56-26.46,99.78-35.7,2.31-.62,4.65-2.55,6.17-4.49,28.46-36.2,56.91-72.42,81.96-111.14,2.25-3.48,4.7-6.98,7.69-9.79,3.86-3.62,3.7-7.02,1.74-11.49-9.05-20.65-24.16-35.53-43.46-46.55-2-1.14-4.05-2.19-6.77-3.66,1.53-.52,2.46-1.03,3.42-1.13,34.74-3.64,64.18,12.57,80.71,43.47,18.81,35.17,17.34,70.67,1.84,106.02-8.11,18.5-17.51,36.57-27.87,53.91-9.64,16.13-8.98,30.57-.2,46.73,6.79,12.5,15.8,19.26,29.69,21.53,16.74,2.74,33.47,5.17,50.42,5.74,1.62.05,4.02-1.37,4.87-2.8,10.9-18.43,17.85-38.23,18.37-59.77.2-8.2-1.33-16.44-1.35-25.25,4.36,7.73,9.23,15.21,12.98,23.22,16.4,34.96,18.5,70.5,3.83,106.69-1.9,4.69-2.58,9.93-3.48,14.97-.71,3.97,1.52,6.33,5.36,5.77,2.96-.43,6.15-1.64,8.51-3.45,6.2-4.76,11.62-10.58,18.06-14.93,5.68-3.83,12.03-7.52,18.6-9.01,12.06-2.73,21.17,3.36,28.1,12.94,6.64,9.18,10.07,19.73,12.76,30.57.32,1.28.68,2.55,1.24,4.64,9.71-.92,19.38-1.83,29.53-2.8-2.23-8.94-8.5-12.46-17.67-14.76,3.71-2.64,5.81-4.37,8.13-5.74,9.44-5.56,19.24-10.58,28.37-16.6,14.03-9.24,23.8-21.54,24.53-40.49,16.16,32.44,20.72,65.73,17.87,100.39.43.11.86.21,1.28.32,10.24-9.05,20.49-18.11,31.27-27.63-2.1-1.86-4.49-3.14-5.59-5.14-1.82-3.3-3.63-7.04-3.75-10.64-.05-1.48,4.12-3.99,6.69-4.54,21.11-4.46,35.47-18.12,46.26-35.39,11.67-18.69,21.75-38.37,32.51-57.63.88-1.57,1.65-3.2,2.81-5.46.44,1.27.86,1.93.88,2.59.64,19.44,2.7,39-1.61,58.18-2.05,9.13-6.2,17.78-9.39,26.65-.61,1.71-1.88,3.56-1.61,5.13.46,2.72,1.36,5.75,3.13,7.69.91.99,4.5.58,6.2-.38,12.96-7.33,23.34-17.62,31.8-29.72,15.21-21.74,23.02-46.55,28.98-72.05.79-3.37,1.5-6.76,2.87-10.19,1.03,9.54,1.87,19.1,3.13,28.61,2.21,16.79,4.47,33.58,7.23,50.29.43,2.59,3.15,5.79,5.63,6.89,11.06,4.9,22.38,9.24,33.72,13.45,1.04.38,3.57-1.2,4.34-2.5,4.24-7.14,4.31-14.96,2.27-22.68-3.77-14.27-5.77-28.67-4.24-43.41.65-6.25,1.78-12.44,3.83-18.83,1.05,2.31,2.13,4.6,3.14,6.92,10.5,24.29,22.12,47.97,38.25,69.14,6.29,8.25,13.06,15.86,23.23,19.76,2.05.79,3.98,3.99,4.45,6.37.81,4.19.55,8.61.56,12.93.04,20.81.02,41.62.02,62.43v7.07c7.7-5.11,14.76-9.34,21.32-14.26,8.51-6.38,16.67-13.23,24.81-20.09,1.29-1.09,2.29-3.27,2.33-4.97.2-9.15.35-18.32-.03-27.46-.46-10.92-6.15-20.15-10.45-29.83-6.44-14.53-13.02-29.02-18.77-43.83-3-7.73-2.47-16.14-.86-24.42,8.32,18.81,24.03,29.23,41.46,37.76,5.21,2.55,7.41,2.21,11.09-2.63,7.61-10.01,12.06-21.45,13.24-33.88.47-4.94,2.6-7.9,6.68-9.44,4.73-1.79,9.73-2.85,15.61-4.51-.26,3.17-.59,5.08-.54,6.98.4,15.59-.05,31.27,1.62,46.72,1.34,12.42,9.22,18.47,21.84,20.15,5.93.79,11.92,1.17,17.83,2.08,6.61,1.02,8.83,4.9,5.22,10.57-2.34,3.68-6.38,6.48-10.1,9.03-2.67,1.83-6.08,2.58-9.16,3.81-14.22,5.71-20.62,16.69-20.72,31.55-.16,23.63-.04,47.27-.04,71.53,1.45-.72,2.6-1.14,3.57-1.8,3.02-2.06,6.18-3.98,8.92-6.37,7.89-6.88,15.6-13.97,23.38-20.97.12-8.64.3-17.29.35-25.93.06-9.66.31-19.32-.11-28.96-.22-5.13,1.46-7.82,6.25-9.69,14.68-5.72,29.28-11.65,43.73-17.9,6.22-2.69,12.1-6.21,17.93-9.69,2.95-1.76,3.82-4.08.8-7.23-14.26-14.92-19.53-33.32-19.31-53.41.28-25.92,8.11-49.94,19.88-73.09,2.14,42.97,13.36,82.49,42.66,115.66,15.97-10.13,29.81-22.19,40.19-37.69,5.13-7.67,8.82-16.29,13.34-24.39,1.86-3.32.54-5.21-1.83-7.62-30.77-31.31-48.15-68.69-48.65-112.81-.26-23.19,8.48-44.47,18.76-64.93,9.2-18.31,21.76-33.74,39.49-44.58,13.07-7.99,27.31-11.92,42.54-12.5,1.32-.05,2.66.09,3.99.21.97.1,1.93.32,2.77.47-8.21,7.28-16.74,14.12-24.42,21.81-18.68,18.71-31.68,40.77-34.77,67.34-1.27,10.9-.6,22.32,1.11,33.2,2.32,14.76,12.29,25.02,24.89,32.02,15.66,8.7,31.71,16.75,47.95,24.34,32.01,14.97,64.44,29.05,96.37,44.18,53.13,25.17,90.1,66.37,114.2,119.19,19.52,42.79,14.86,85.18-6.36,126.16-5.9,11.4-13.47,21.94-21.12,32.47,5.7-28.18,8.82-56.24,6.92-85.57-7.18,2.33-14.15,4.3-20.9,6.83-37.06,13.91-70.15,34.86-101.78,58.21-12.56,9.28-24.33,19.64-36.27,29.73-1.49,1.26-2.65,3.84-2.66,5.81-.16,35.13-.05,70.25-.18,105.38-.02,5.27,2.47,9.1,6.1,11.99,12.46,9.94,25.12,19.65,37.86,29.24,12.85,9.68,25.89,19.11,38.84,28.65-.17.47-.34.95-.51,1.42-5.62.6-11.32.79-16.83,1.92-6.29,1.3-12.58,3.02-18.56,5.34-6.46,2.51-11.44,7.06-15.27,13.06-28.51,44.69-65.67,80-113.38,103.76-24.41,12.16-50.05,20.4-77.04,24.37-.99.14-1.99.23-2.98.27-1.13.05-2.26.01-4.76.01,4.32-3.23,7.7-5.71,11.04-8.26,29.44-22.49,57.25-46.68,80.46-75.79,2.45-3.07,2.88-5.59,1.52-9.38-9.06-25.26-23.52-47.23-40.84-67.39-10.72-12.47-22.13-24.36-33.58-36.9-20.89,22.77-45.39,38.72-74.89,49.34,6.75-8.11,12.83-15.15,18.61-22.44,13.98-17.63,26.88-35.96,34.98-57.17,3.64-9.55,6.12-19.35,3.52-29.7-.16-.64-.37-1.27-.58-1.9-3.37-10.24-6.34-11.54-15.83-6.94-8.81,4.27-17.62,8.55-26.45,12.77-13.09,6.27-24.42,2.72-34.02-6.98-15.26-15.41-21.71-34.62-22.79-55.9-.3-5.95,1.53-12.99-1.08-17.56-2.49-4.36-9.61-5.96-14.46-9.13-6.79-4.42-13.37-9.16-20.73-14.24v5.4c0,25.64-.51,51.29.12,76.91.88,35.34-14.72,61.56-42.95,81.27-10.36,7.24-21.55,12.94-33.99,17.25,7.87-9.13,15.93-17.42,22.69-26.66,5.63-7.69,10.26-16.25,14.33-24.9,3.98-8.45,2.71-16.77-3.76-24.08-5.84-6.6-11.36-13.49-17.08-20.19-4.76-5.57-6.1-11.77-4.89-19.02,1.06-6.37,1.27-12.9,1.51-19.37.05-1.43-.94-3.7-2.09-4.27-14.75-7.23-29.63-14.22-44.48-21.25-.26-.12-.64.02-1.67.08.28,15.71-2.73,31.79,6.92,46.18,1.3,1.93,2.99,3.79,3.59,5.93.45,1.62.02,4.8-1.01,5.32-27.53,13.85-38.96,39.33-47.93,66.38-3.22,9.72-4.88,19.96-7.27,29.95-.3,1.24-.72,2.45-1.31,4.43-8.89-41.06-10.85-81.75-7.88-124.54-14.56,5.24-27.76,9.9-40.85,14.86-1.09.41-2.05,2.88-2.01,4.36,1.34,47.56-12.4,92.14-26.89,136.57-.19.59-.61,1.11-1.46,2.61-2.91-9.43-6.02-17.89-8.12-26.6-6.21-25.79-12.18-51.63-17.85-77.55-1.33-6.11-1.45-12.56-1.48-18.86-.15-27.13-.12-54.27,0-81.41.02-3.31-1-5.41-3.58-7.54-12.69-10.49-25.18-21.22-37.74-31.86-.86-.73-1.8-1.36-3.06-2.3,0,9.51-.17,18.55.03,27.59.71,31.78,1.84,63.55,2.24,95.32.38,29.97-5.97,59.04-13.03,87.96-.1.4-.52.72-1.18,1.58-3.31-11.2-6.12-22.04-9.74-32.6-5.64-16.45-11.68-32.77-17.84-49.04-2.49-6.58-6.31-12.33-12.34-16.54-4.14-2.88-5.07-7.15-4.36-12.36,1.59-11.77,2.48-23.63,3.72-36.15-8.06.78-14.6,1.51-21.16,2.02-7.47.58-14.95,1.02-22.43,1.37-2.91.14-3.72,1.31-4.05,4.24-.96,8.53,1.38,15.24,8.69,20.22,3.13,2.13,5.65,5.15,8.6,7.58,3.34,2.76,3.23,5.79.48,8.57-2.79,2.81-5.85,5.45-9.15,7.64-8.17,5.42-16.68,10.33-24.78,15.84-8.45,5.75-10.15,11.01-7.58,21.07,3.56,13.9,11.91,25.12,20.61,36.07,4.85,6.11,10.16,11.85,16.2,18.84-3.8-1.52-6.5-2.43-9.06-3.64-26.4-12.42-48.3-29.74-58.66-58-3.47-9.47-5.32-20.03-5.49-30.14-.63-37.28-.25-74.58-.25-111.87v-6.35c-6.2,4.29-11.72,7.86-16.97,11.79-20.23,15.13-43.7,23.62-66.84,32.81-9.41,3.74-18.84,7.45-28.32,11.01-2.71,1.02-3.83,2.41-3.83,5.44.03,25.3-.32,50.61-.12,75.91.13,16.65,7.11,31.27,15.24,45.3,11.25,19.42,24.95,36.84,42.98,51.15-4.25-.66-8.53-1.2-12.74-2.02-4.22-.83-8.46-1.71-12.57-2.98-32.94-10.21-59.69-28.8-77.77-58.62-7.89-13.02-11.73-27.45-11.91-42.7-.04-3.61-1.17-5.59-4.46-7.29-14.44-7.46-27.23-17.22-38.49-28.94-.67-.7-1-1.72-1.48-2.6-.43.27-.86.55-1.29.82.76,7.95,1.66,15.89,2.24,23.85,1.22,16.58,2.19,33.18,3.41,49.77.7,9.51-3.07,16.4-11.51,20.73-7.83,4.02-15.61,8.15-23.59,11.84-3.45,1.59-5.37,3.45-6.28,7.38-8.14,35.4-16.32,70.79-25.03,106.05-2.38,9.61-.95,16.44,6.48,23.72,22.69,22.23,46.49,42.8,74.65,57.89.42.23.76.6,1.74,1.4-9.43,0-18.32.91-26.98-.16-39.81-4.91-73.24-23.65-101.6-50.88-39.62-38.03-74.1-80.48-101.55-128.22-4.87-8.46-7.95-18.23-10.26-27.79-1.47-6.09-.19-12.89.19-19.36,1.47-25.24,3.07-50.48,4.63-75.71,1.42-22.91,2.87-45.82,4.3-68.74,1.57-25.07,3.08-50.14,4.77-75.21.28-4.16-.25-7.37-3.35-10.75-17.75-19.35-38.25-35.53-58.8-51.66-2.88-2.26-5.82-4.45-8.57-6.85-1.97-1.73-3.43-1.86-5.49.05-21.27,19.65-40.58,40.92-53.43,67.15-15.14,30.91-18.05,62.53-3.61,94.69.18.39.21.85.63,2.57Zm332.65-171.7c-1.16.66-2.56,1.57-4.05,2.27-15.61,7.27-30.95,15.23-46.95,21.52-12.86,5.06-16.99,2.77-21.94-10.39-4.89-13.02-8.8-26.41-12.94-39.7-4.73-15.18-8.9-30.55-14.09-45.57-1.23-3.56-5.11-6.92-8.62-8.81-4.82-2.6-8.11-.09-8.2,5.38-.7,43.58-1.36,87.16-1.93,130.74-.02,1.64.67,3.59,1.68,4.9,9.52,12.39,19.08,24.76,28.85,36.95,5.98,7.46,12.35,14.61,18.92,22.35,5.74-4.92,11.38-8.7,15.69-13.64,11.25-12.88,21.82-26.35,32.87-39.41,3.52-4.16,7.38-8.16,11.64-11.54,3.84-3.05,6.66-1.93,8.61,2.53.72,1.66,1.39,3.44,1.56,5.22.75,8.09,2.05,16.23,1.79,24.3-.65,20.27-2.05,40.52-3.13,60.78-.07,1.39,0,2.78,0,4.6,1.09-.48,1.55-.62,1.93-.86,15.66-10.04,31.36-20.03,46.91-30.24,1.27-.84,2.21-3.15,2.23-4.78.17-15.64-.56-31.32.26-46.92,1.11-21.05-6.11-36.31-26.69-43.79-.16-.06-.32-.11-.46-.19-6.44-3.37-7.01-5.47-3.23-11.74.39-.64.77-1.28,1.07-1.79-7.38-4.12-14.46-8.07-21.77-12.16Zm920.36,303.33v-261.54c-12.97,5.62-24.95,11.94-35.37,20.87-1,.86-1.39,2.92-1.37,4.41.11,8.98.66,17.96.62,26.93-.15,41.59-.65,83.17-.61,124.76.02,21.11-2.21,41.72-9.72,61.6-.46,1.21.5,3.9,1.61,4.6,13.75,8.6,28.85,13.99,44.83,18.38ZM468.02,390.22c0,27.65-.06,54.92.16,82.19.01,1.53,1.95,3.7,3.53,4.48,13.54,6.68,27.61,12.41,40.7,19.87,9.02,5.14,16.6,4.56,24.69-.65,14.93-9.61,29.89-19.18,44.72-28.96,1.16-.76,1.86-2.99,1.9-4.56.19-8.15.09-16.31.09-24.46,0-14.09,0-28.17,0-42.54-9.42.93-18.94,1.87-28.91,2.85.32,5.12.53,10.21,1.01,15.28.29,3.06-.91,4.76-3.55,6.31-13.17,7.72-26.21,15.66-39.3,23.51-7.41,4.44-12.02,2.33-13.01-6.29-.44-3.77.04-7.64.02-11.46-.03-4.8.27-9.66-.29-14.4-1.93-16.35-16.74-26.18-31.73-21.15Zm-225.94,29.86c0,2.8-.01,4.57,0,6.34.33,44.24.76,88.48.9,132.73.02,7.3,1.3,13.92,4.3,20.61,8.9,19.9,18.45,39.39,31.73,56.8,1.31,1.71,3.25,3.87,5.09,4.07,5.06.56,10.22.19,15.88.19v-5.8c0-27.28-.34-54.57.16-81.85.21-11.75-3.58-21.42-11.09-29.98-5.59-6.37-11.46-12.51-16.94-18.97-6.22-7.34-6.49-12.98-.58-20.54,3.55-4.55,7.96-8.43,11.82-12.45-13.35-16.55-26.9-33.35-41.27-51.15Zm1114.13,105.8c1-.19,1.4-.15,1.6-.32,37.67-32.53,78.52-60.14,124.09-80.49.99-.44,2.09-1.64,2.29-2.66,4.15-20.76,10.45-41.13,10.92-62.58.13-5.74-5.18-11.39-10.71-9.8-24.59,7.08-48.81,15.35-71.42,27.34-17.99,9.54-35.1,20.75-52.6,31.22-3.09,1.85-4.46,4.29-4.29,8.16.35,7.97.11,15.96.11,23.94v65.19Zm-511.81,21.94c13.36-8.76,25.45-16.88,37.76-24.66,3.69-2.33,4.91-4.98,4.77-9.31-1.09-33.57-1.92-67.14-2.83-100.71-.51-18.89-14.88-29.65-33.63-25.46-4.4.98-6.21,2.58-6.18,7.5.21,48.73.13,97.46.13,146.19v6.44Zm-161.14-159.32c-12.11,10.98-23.93,21.45-35.38,32.3-1.98,1.88-3.41,5.36-3.43,8.11-.23,34.42-.15,68.84-.14,103.27,0,1.76.17,3.51.31,6.09,15.65-1.24,30.78-2.44,45.61-3.62.3-1.27.44-1.59.44-1.91.01-41.07.12-82.15-.07-123.22-.03-7.36-2.53-14.29-7.34-21.02Zm608.78,380.13c7.18-11.11,12.53-22.02,15.3-34.09,1.87-8.18,2.29-16.37.36-24.66-2.43-10.44-8.15-18.75-15.91-25.88-6.36-5.84-10.74-12.59-10.43-21.71.04-1.17-1.33-3.18-2.42-3.49-17.1-4.87-33.69-10.93-48.82-20.27-5.05,8.16-9.91,16.01-14.94,24.14,30.87,31.05,60.47,63.12,76.86,105.96Zm64.43-351c37.67-26.47,78.66-44.57,122.33-57.54-5.88-7.12-11.73-10.51-20.95-10.18-33.93,1.2-67.82.18-101.38-7.81v75.54Zm-90.99-147.05c-11.37,29.35-31.01,50.41-56.68,67.77,7.6,5.64,14.02,11.24,21.22,15.51,6.58,3.9,9.58,9.19,10.48,16.36,1.07,8.47,2.31,16.91,3.39,24.71,11.12-5.75,22.2-11.7,33.5-17.17,3.25-1.57,4.18-3.34,4.15-6.75-.15-19.31-.61-38.64.12-57.92.45-12.1-3.29-22.49-9.15-32.5-1.87-3.2-4.27-6.09-7.05-10.01Zm-275.21,271.47v-118.54c-15.33,10.59-30.76,21.19-46.07,31.93-1.09.77-1.99,2.64-2,4.01-.13,18.62-.13,37.25,0,55.88,0,1.37.94,3.43,2.04,3.99,15.08,7.6,30.26,14.99,46.02,22.73Zm197.28-44.7c.64-1.64.86-1.93.86-2.22.03-34.24.07-68.47-.07-102.71,0-1.42-1.29-3.46-2.56-4.15-11.38-6.27-22.98-6.64-34.79-.96-3.21,1.54-4.55,3.48-4.51,7.23.21,18.11.47,36.24-.07,54.34-.25,8.31,1.33,14.54,8.33,20,11.22,8.75,21.56,18.61,32.81,28.47Zm-867.75,181.96c-13.73,5.53-26.96,10.68-40.04,16.18-7.64,3.22-15.09,6.89-22.5,10.61-2.3,1.15-4.37,2.74-3.25,6.29,7.3,23.04,16.36,45.25,30.1,65.3,2.84,4.14,6.18,7.94,9.45,12.11,8.8-37.05,17.4-73.29,26.24-110.5Zm91.52-92.21v-107.13c-.66.17-1.18.18-1.55.43-15.62,10.37-31.26,20.72-46.76,31.26-1.16.79-1.93,3.02-1.9,4.56.1,5.64.49,11.29,1.03,16.92.41,4.24-.05,9.32,2.1,12.52,11.8,17.51,27.6,30.76,47.07,41.44Zm1043.94-246.29c-13.32-14.73-86.22-56.82-99.06-57.18,0,13.8,0,27.59,0,41.39,0,7.26,0,7.23,7.21,9,19.65,4.81,39.74,5.9,59.83,6.72,10.56.43,21.16.08,32.02.08Zm-308.68,134.23c0,1.61,0,3.23,0,4.85,0,21.31-.11,42.62.09,63.93.04,4.43.74,8.97,1.92,13.24,3.27,11.85,10.87,17.11,23.02,15.47,4.99-.67,9.81-2.89,14.56-4.79,1.1-.44,2.18-2.49,2.19-3.81.14-17.48.14-34.96.01-52.44-.01-1.4-.86-3.23-1.94-4.11-13.08-10.75-26.27-21.36-39.85-32.34ZM342.78,95.87c-27.51,37.65-54.36,74.39-81.6,111.67,4.14-1.62,7.83-2.99,11.47-4.49,19.24-7.93,37.19-17.94,50.75-34.16,17.47-20.88,22.39-45.33,19.38-73.03Zm403.52,288.28c-.71,15.95-1.44,30.53-1.87,45.13-.04,1.34,1.57,3.32,2.92,4.01,12.57,6.36,25.24,12.52,37.91,18.68.91.44,2.03.48,3.25.76,0-12.95.43-25.44-.11-37.89-.7-16.23-8.62-26.45-22.71-29.42-5.89-1.24-12.12-.85-19.4-1.27Zm-584.22,14.89c.65-12.13,1.42-24.53,1.86-36.95.05-1.39-1.5-3.62-2.83-4.16-15.65-6.35-31.37-12.52-47.12-18.61-8.9-3.44-11.59-2.55-17.12,4.6,21.68,18.32,43.34,36.63,65.22,55.12Zm928.36,57.01c-11.34,8.22-22.73,16.46-34.08,24.74-.74.54-1.72,1.42-1.74,2.17-.15,5.16-.75,10.45.25,15.41.43,2.14,4.36,3.55,6.66,5.34,2.1,1.63,4.07,3.46,6.26,4.95,7.22,4.89,14.52,9.65,22.65,15.03v-67.64Zm-346.67-10.75c0,4.84-.31,9.8.13,14.68.21,2.34,1.24,5.22,2.91,6.73,10.2,9.23,20.68,18.16,31.1,27.15,3.29,2.84,6.7,5.55,10.72,8.88,0-12.39.08-23.66-.11-34.93-.02-1.21-1.3-2.98-2.45-3.51-13.81-6.33-27.71-12.48-42.31-19Zm-372.21-105.22c6.13,3.01,12,5.99,17.98,8.72.89.41,2.78.11,3.41-.58,10.05-11.17,19.96-22.46,30.46-34.35-19.15-2.41-36.64-4.62-54.64-6.88,4.51,4.01,8.8,7.89,13.17,11.68,4.51,3.92,5,7.62.84,11.86-3.11,3.18-6.78,5.82-11.22,9.55Zm-256.73-10.12c17.39,6.86,33.38,13.17,50.41,19.9v-39.03c-18.81.76-34.09,9.1-50.41,19.13Zm397.57,176.89c-15.54-7.3-29.7-13.95-44.16-20.74v37.97c14.59-5.69,28.71-11.2,44.16-17.22Zm374.69,26.49c-13.3,8.51-25.68,16.45-38.09,24.36-5.23,3.33-5.68,4.51-3.85,10.15,12.8-3.87,25.61-7.67,38.35-11.68,1.39-.44,3.37-2.01,3.43-3.14.34-6.24.16-12.5.16-19.69Zm618.73-139.23c-3.08,14.75-6.19,29.69-9.43,45.2,5.8-1.79,11.27-3.48,16.73-5.18,1.23-.38,2.42-.86,3.54-1.26-.93-13.25-6.04-31.24-10.84-38.75Zm-1238.55,246.44c-7.73-13.22-15.33-26.22-23.03-39.39v39.39h23.03Zm564.24-295.51c-.38.25-.77.5-1.15.75,1.81,4.36,3.33,8.87,5.57,13,.82,1.51,3.48,3.14,5.04,2.92,6.27-.9,12.44-2.5,18.65-3.85l-.14-1.82c-9.32-3.67-18.64-7.33-27.96-11Z"/><path class="cls-1" d="m938.89,211.78c8.5-14.91,7.4-30.07,3.71-46-2.05-8.85-1.09-18.43-1.24-27.69-.35-21.29-.27-42.59-.95-63.87-.28-8.76-2.05-17.48-3.17-26.21-2.2-17.04,2.74-32.17,12.32-46.06.24-.34.71-.51,1.14-.81.78,5.5.96,11,2.4,16.15,3.97,14.22,14.5,22.87,27.18,28.8,10.64,4.98,21.82,8.82,32.76,13.17,21.15,8.4,32.05,24.83,31.54,47.57-.02.74-.13,1.48-.29,3.27-6.3-12.15-11.25-24.33-26.68-26.83,0,11.76-.39,23.06.15,34.31.29,6.14-2.1,10.02-7.18,12.31-13.42,6.06-26.98,11.81-41.07,17.94-1.7,11.25,6.7,21.2,19.18,21.26,2.99.02,6.14-.87,8.93-.19,2.75.67,5.42,2.52,7.47,4.53.43.42-1.62,4.24-3.24,5.7-4.56,4.1-10.26,5.61-16.24,4.79-6.71-.92-11.71,1.4-16.54,5.95-9.04,8.52-18.42,16.72-30.16,21.92Zm29.82-76.58c10.81-1.06,19.85-9.75,20.64-20.26.6-7.93.65-15.99,0-23.92-.86-10.55-9.16-15.02-17.91-10.1-1.27.71-2.6,2.68-2.62,4.08-.18,16.61-.12,33.23-.12,50.2Z"/><path class="cls-1" d="m597.69,213.46c-12.19-8.01-23.77-15.54-30.99-28.04-.99-1.72-1.78-3.66-3.14-5.03-6.66-6.75-8.73-15.09-8.74-24.17-.03-21.14-.01-42.28-.01-63.42v-5.3c-10.91-4.07-25.47.74-31.56,26.58-3.64-7.33-2.97-14.23-.74-21.08,3.96-12.21,12.38-21.15,22.28-28.71,12.68-9.69,25.88-18.71,38.46-28.52,11.59-9.04,21.22-19.72,23.87-35.77,4.71,6.53,7.34,13.33,7.54,20.59.23,8.26-.49,16.58-1.33,24.82-.62,6.02-.71,11.65,1.46,17.56,2.96,8.07,4.8,16.55,7.11,24.86,1.78,6.43,5.03,11.27,14.26,11.31-1.74,2.63-2.44,4.96-3.94,5.74-7.66,3.97-15.51,7.59-23.34,11.24-5.17,2.41-6.41,2.1-8.51-3.48-2.8-7.44-5.01-15.09-7.58-22.62-.85-2.51-1.77-5.06-3.15-7.29-.72-1.16-2.86-2.59-3.73-2.26-1.31.5-2.94,2.43-2.95,3.77-.15,21.97-.54,43.96.13,65.91.38,12.52,9.23,19.08,24.21,19.9,2.96.16,5.94.02,9.26.02v6.73c-24.1,9.91-24.54,10.74-18.87,36.67Z"/><path class="cls-1" d="m772.68,231.16c-7.58-8.71-11.02-19.13-12.72-29.88-1.62-10.25-5.54-19.41-10.44-28.25-1.74-3.13-4.85-5.56-7.55-8.07-2.21-2.06-2.36-4.28.03-5.63,7.37-4.16,14.89-8.1,22.56-11.66,1.15-.53,4.28.94,5.08,2.31,2.49,4.27,4.27,8.95,6.38,13.45,1.19,2.55,2.17,5.29,3.84,7.49,1.11,1.46,3.72,3.33,4.84,2.9,1.98-.77,4.67-3.11,4.73-4.86.37-11.79.44-23.62-.06-35.41-.21-5.04-3.62-6.64-8.61-4.72-6.97,2.67-13.78,5.75-20.71,8.53-6.68,2.68-10.66,1.91-13.44-4.67-2.91-6.89-4.93-14.46-5.63-21.9-.95-10.06-.22-20.28-.3-30.42-.04-4.91,1.95-8.42,6.11-11.17,11.22-7.43,22.37-14.96,33.32-22.78,12.02-8.58,19.28-20.85,25.36-33.95.31-.66.66-1.3,1.65-3.25,1.18,11.76-.69,21.77-2.87,31.74-.64,2.91-1.27,5.86-2.33,8.64-3.47,9.16-2.22,17.53,3.95,25.07,1.99,2.43,4.45,4.48,7.8,7.8-.37.55-1.11,2.8-2.63,3.68-6.47,3.73-13.3,6.83-19.74,10.61-3.78,2.22-6.04.93-7.62-2.29-2.19-4.45-3.71-9.26-6.09-13.59-1.2-2.18-3.69-3.64-5.59-5.43-1.1,2.4-3.05,4.78-3.14,7.22-.36,9.8-.24,19.63-.1,29.44.11,7.79,2.27,9.13,9.28,6.15,6.87-2.93,13.66-6.04,20.61-8.77,6.38-2.51,10.36-1.49,13.1,4.81,2.79,6.42,5,13.43,5.68,20.35.96,9.72.53,19.62.09,29.42-.1,2.27-2.19,5.01-4.15,6.54-7.44,5.84-15.44,10.98-22.8,16.92-12.41,10.02-18.53,23.16-17.91,39.25.06,1.47,0,2.94,0,4.41Z"/><path class="cls-1" d="m691.06,175.55c-7.25,3.86-15.65,8.18-23.89,12.8-2.38,1.33-4.04,1.26-6.25-.27-10.75-7.47-17.68-16.72-16.79-30.73.61-9.62.42-19.32,0-28.95-.23-5.3,1.75-8.82,6.28-10.74,11.74-4.98,23.49-9.95,35.43-14.4,7.91-2.95,8.12-2.82,6.03-11.21-1.77-7.08-6.36-11.28-13.22-12.7-6.31-1.3-12.77-1.85-19.49-2.78-1.31-4.11-.17-6.58,4.68-8.38,17.01-6.32,32.74-14.78,44.16-29.55.15-.19.58-.15.87-.22.97,7.84,1.52,15.76,3.1,23.47.83,4.05,3.71,7.64,5.18,11.62,1.54,4.13,3.48,8.46,3.55,12.74.4,21.97.24,43.94.32,65.92,0,2.32.31,4.64.45,6.96.33,5.44,3.35,8.75,8.18,10.91,1.21.54,2.71,2.06,2.75,3.18.05,1.26-1.09,3.11-2.25,3.79-6.86,4.06-13.8,8-20.9,11.63-1.39.71-4.18.58-5.27-.37-4.28-3.71-8.13-7.9-12.92-12.69Zm1.91-63.44c-11.7,2.33-19.1,8.75-19.97,18.19-.79,8.55-.54,17.22-.39,25.83.08,4.67,2.83,8.05,6.96,10.17,4.83,2.47,13.27-.04,13.32-4.15.21-16.56.09-33.13.09-50.03Z"/><path class="cls-1" d="m889.65,108.26c0-20.63.01-41.27,0-61.9,0-6.85-.56-13.34-8.12-16.73-.69-.31-.66-5.24.39-5.92,6.55-4.22,13.46-7.88,20.31-11.63.76-.41,1.92-.53,2.75-.29,6.32,1.86,12.65,10.68,12.65,17.51,0,41.6-.04,83.21.08,124.81,0,3.58.47,7.38,1.76,10.68.93,2.38,3.33,4.42,5.51,6.02,2.98,2.19,3.49,5.02.39,6.87-6.56,3.91-13.26,7.58-19.95,11.27-.77.42-1.89.63-2.73.44-5.94-1.37-13-10.43-13.01-16.72-.03-21.47-.01-42.93-.01-64.4Z"/><path class="cls-1" d="m838.63,72.7c-3.27-.14-5.89-.26-8.47-.37-.69-6.75.5-8.02,6.13-10.69,11.46-5.44,19.25-14.28,23.38-26.44,1.43-4.2,3.97-8.03,6.01-12.03.48.2.96.39,1.44.59v37.08h10.47q-.03,10.85-10.69,11.73c-.1,1.36-.29,2.8-.29,4.23-.02,26.11-.03,52.22,0,78.34,0,6.7.86,12.76,8.05,16.24,2.89,1.4,2.25,4.7-.53,6.36-6.55,3.92-13.24,7.6-19.93,11.28-.76.42-1.92.52-2.78.3-6.03-1.52-12.78-10.43-12.78-16.82-.02-31.27,0-62.54,0-93.8v-5.99Z"/></g></svg>