<?xml version="1.0" encoding="UTF-8"?><svg id="Layer_2" xmlns="http://www.w3.org/2000/svg" viewBox="0 0 71.4 148.92"><defs><style>.cls-1,.cls-2{stroke-width:0px;}.cls-3,.cls-4{stroke:#231f20;stroke-miterlimit:10;}.cls-4,.cls-2{fill:#231f20;}</style></defs><g id="Layer_4"><g id="Layer_5"><path class="cls-2" d="m51.37,131.49c-2.58-1.3-3.3-2.99-3.56-5.65-.35-3.61-.65-7.22-.91-10.83-1.99.09-3.97.21-5.82.14-2.11-.08-4.22-.22-6.33-.39.12,3.23.22,6.46.34,9.69.13,3.52-.77,5.66-4.41,6.86-1.84.61-3.5,2.17-4.97,3.58-2.95,2.81-3.43,6.18-1.53,9.53,1.84,3.24,4.96,4.48,8.51,3.06,2.62-1.05,7.05-1.75,4.17-6.54-.11-.18,1.03-1.64,1.6-1.67,1.82-.12,3.65.09,5.48.2l.42,1.26s-.02.02-.04.03c-1.38,1.17-1.51,3.27-.25,4.58.33.35.67.68,1.02,1.01,3.12,2.93,7.37,3.39,10.29,1.16,2.96-2.26,4.06-7.23,1.78-10.65-1.44-2.16-3.5-4.23-5.8-5.38Z"/><path class="cls-2" d="m26.58,117.52c.15.14.29.3.42.46l-.23-.3c.22.28.39.59.54.91l-.15-.36c.15.37.26.75.31,1.14l-.05-.4c.05.37.05.75,0,1.12l.05-.4c-.02.1-.03.2-.06.31-.14.63.08,1.37.69,1.69s1.32.24,1.82-.23c1.4-1.32,2.2-3.26,2.15-5.18l-2.56,1.06c.12.11.22.22.32.35l-.23-.3c.14.19.26.39.35.61l-.15-.36c.1.24.16.48.2.74l-.05-.4c.03.26.03.51,0,.76l.05-.4c-.03.24-.09.46-.18.68l.15-.36s-.03.07-.05.11c-.17.38-.27.74-.15,1.16.1.35.36.73.69.9.35.18.77.28,1.16.15.35-.11.74-.34.9-.69.24-.53.37-.98.43-1.55.05-.44,0-.88-.08-1.31-.16-.83-.62-1.64-1.23-2.21-.45-.42-1.07-.55-1.64-.31-.53.23-.94.77-.92,1.37,0,.29,0,.57-.04.85l.05-.4c-.07.48-.19.94-.38,1.39l.15-.36c-.19.45-.43.86-.72,1.25l.23-.3c-.18.22-.37.43-.57.63l2.51,1.46c.42-1.93-.15-4.02-1.59-5.4-.57-.54-1.56-.61-2.12,0s-.61,1.54,0,2.12h0Z"/><path class="cls-2" d="m49.55,119.01c.07.07.15.15.2.23l-.14-.18s.06.08.09.13c.1.15.18.31.26.48l-.15-.36c.12.29.2.58.25.89l-.05-.4c.04.28.04.57,0,.85l.05-.4c-.09.68-.32,1.32-.14,2.01.33,1.26,1.75,1.74,2.85,1.15.66-.36,1.11-1.05,1.24-1.78s.02-1.41-.08-2.16l.05.4c-.04-.28-.06-.57-.02-.85l-.05.4c.02-.12.05-.24.1-.35l-.15.36c.03-.06.09-.13.11-.19-.15.19-.19.24-.11.15.03-.03.05-.06.08-.09.24-.28.45-.55.56-.91.16-.54.09-1.11-.2-1.59-.48-.8-1.48-1.12-2.37-1.14-.6,0-1.14.38-1.37.92-.25.58-.09,1.17.31,1.64.85,1,2.53,1.21,3.62.48.65-.44,1-1.34.54-2.05-.42-.65-1.36-1.01-2.05-.54-.07.05-.15.09-.23.13l.36-.15c-.1.04-.21.07-.32.09l.4-.05c-.13.02-.26.02-.4,0l.4.05c-.13-.02-.26-.06-.38-.11l.36.15c-.08-.04-.15-.09-.23-.13.21.17.26.21.15.11-.03-.03-.06-.06-.09-.1l-1.06,2.56c.08,0,.16,0,.25.02l-.4-.05c.17.02.33.07.49.13l-.36-.15c.16.07.26.23-.06-.08.1.1.06.04-.13-.19.02.03.03.06.05.09l-.15-.36s.02.06.02.1l-.05-.4s0,.07,0,.11l.05-.4s-.02.09-.04.13l.15-.36c-.11.22.21-.21.08-.08-.04.04-.07.08-.1.12-.14.16-.29.33-.4.52-.24.4-.32.82-.37,1.28-.06.58.07,1.17.16,1.74l-.05-.4c.03.27.04.53,0,.8l.05-.4c-.02.15-.06.29-.12.43l.15-.36s-.06.09-.07.14c-.04.06-.02.04.07-.08.1-.12.11-.14.04-.06-.15.13.16-.12.17-.11,0,0-.17.1-.17.1l.36-.15s-.09.03-.14.04l.4-.05s-.1,0-.14,0l.4.05-.05-.02.36.15c-.13-.06-.07-.01.18.16.17.25.22.31.15.18l.15.36c-.03-.07-.04-.13-.05-.21l.05.4c-.01-.12,0-.24.01-.36l-.05.4c.06-.41.17-.8.21-1.22.04-.46-.01-.92-.1-1.36-.17-.87-.64-1.69-1.24-2.33-.54-.57-1.58-.59-2.12,0s-.58,1.51,0,2.12h0Z"/><path class="cls-2" d="m55.82,117.07c.42.97.58,2.09.44,3.14-.03.22.02.44.23.56.41.24.84.05,1.07-.33s.22-.78.23-1.19c.02-.9,0-1.79-.05-2.69-.01-.2-.15-.45-.37-.48-.27-.04-.51,0-.72.19-.14.13-.24.31-.28.5-.09.44.11.96.59,1.06.26.05.54-.08.62-.35.07-.25-.08-.56-.35-.62-.08-.02.05.04.08.06-.08-.07.07.09,0,0,.03.07.04.08.02.05,0-.04,0-.02,0,.05,0-.06.02-.09-.01,0,.01-.03.02-.07.03-.1-.02.07-.04.05,0,0-.02.02-.11.1-.08.09.03-.02.02-.01-.05.02-.05.01-.09.01-.14,0l-.37-.48c.04.7.06,1.4.06,2.1,0,.34,0,.69-.02,1.03,0,.03,0,.06,0,.08,0-.05,0-.05,0,0,0,.03-.02.06-.03.1.02-.04.02-.04,0,0-.01.02-.02.04-.04.06.03-.04.03-.04,0,0,.09-.05.2-.09.3-.04l.23.56c.18-1.35,0-2.67-.54-3.91-.11-.25-.47-.3-.68-.18-.26.15-.29.44-.18.68h0Z"/><path class="cls-2" d="m31.34,120.42l.1,1.86c0,.15.02.3.02.46,0,.05,0,.1,0,.15,0,.03,0,.07,0,.1,0-.05,0-.05,0,0,0,.03-.02.06-.03.09.02-.05.02-.04-.01,0,.04-.05.04-.05,0-.01.05-.04.05-.04,0-.01.06-.02.07-.02.01,0-.06.01-.05.01.02,0,.07.01.08.01.03,0,.04,0,.07.02.1.05l.15.35c-.01-.77-.02-1.54-.03-2.31,0-.26-.23-.51-.5-.5s-.5.22-.5.5c0,.61.02,1.22.03,1.83,0,.16,0,.33,0,.49.02.23.14.39.33.5.28.16.65.11.91-.06.57-.37.49-1.07.45-1.65l-.1-1.83c-.01-.26-.22-.51-.5-.5-.26.01-.52.22-.5.5h0Z"/><path class="cls-2" d="m27.05,124.88c-.18.24-.36.48-.54.72-.16.22-.31.47-.35.75-.09.59.24,1.07.78,1.28.47.18,1.05.07,1.4-.3.23-.24.35-.59.26-.92-.04-.14-.11-.29-.22-.39-.06-.06-.13-.11-.2-.14-.04-.02-.09-.04-.14-.06-.11-.05-.05.02.2.21v-.04c0-.15-.05-.31-.07-.46-.02-.16-.04-.32-.07-.48,0-.04-.01-.08-.02-.11.01.09,0-.02,0-.04,0-.07-.01-.15-.02-.22,0-.07,0-.13,0-.2-.01.11.06-.16.02-.07l-.93-.25c0,.15,0,.31,0,.46,0,.08,0,.16-.02.24,0,.04,0,.07-.01.11-.02.17,0-.04,0,.06-.05.31-.12.62-.23.92-.12.34-.29.71-.07,1.05s.79.49,1.08.14c.17-.2.21-.51,0-.71-.18-.17-.53-.21-.71,0,.09-.11.3-.12.41-.03.04.03.16.19.1.22.02,0,.04-.14.05-.15.02-.05.04-.1.06-.15.08-.22.15-.45.2-.68.11-.49.16-.99.13-1.49-.01-.21-.15-.43-.37-.48-.2-.05-.47.03-.56.23-.23.51-.15,1-.08,1.53.03.24.07.49.1.73.02.14.06.26.14.37.05.07.11.12.18.17.04.03.09.04.14.06.05.02.02.02,0,0-.02-.02-.04-.03-.06-.05-.01-.02-.04-.11-.03-.05s0-.03,0-.03c0,.01,0,.08,0,.01.01-.07,0,.01,0,.01,0,0,.03-.08,0-.02-.02.05,0,0,.01-.02-.02.02-.04.04-.06.06.07-.06-.03,0-.06.03-.05.04.04-.02.04-.02,0,0-.04.01-.05.02-.02,0-.13.04-.05.02.06-.02.02,0,0,0s-.05,0-.07,0c0,0-.07,0-.07,0,0,0,.1.03.05,0-.03-.01-.07-.02-.1-.03,0,0-.05-.01-.05-.02,0,0,.09.05.04.02-.02-.01-.14-.08-.08-.04s-.02-.03-.04-.04c-.05-.03.04.03.03.04,0,0-.02-.04-.03-.04,0,0-.02-.04-.02-.04,0,0,.04.1.02.04,0,0-.01-.05-.01-.05-.02,0,.03.13,0,0-.01-.05,0,0,0,.02,0-.03.01-.06.02-.09,0,0,.03-.08,0-.03-.02.04.02-.04.03-.05.06-.11.13-.21.2-.31.17-.23.35-.47.53-.7.16-.21.04-.57-.18-.68-.26-.14-.52-.04-.68.18h0Z"/><path class="cls-2" d="m52.58,126.6c.07.15,0,.39-.04.58-.06.27-.13.54-.11.82.02.3.11.59.31.82s.47.29.71.44c.16.1.3.28.39.46,0,0,.03.07.02.05.02.05,0,.09.02.02,0-.02.02-.06.02-.08,0,0,.05-.07.02-.02-.04.05.02-.02.02-.01,0,0-.07.03-.02.02.03,0-.09.03-.12.03,0,0-.08.01-.03,0s-.03,0-.03,0c-.05,0-.1,0-.14,0-.1,0-.19-.01-.28-.05,0,0-.09-.05-.09-.05.05.04-.01-.03,0,0,.02.04-.01-.03,0-.04,0,.01,0,.03,0,.05,0,0-.03.07-.03.07.04.03.38-.27.4-.28.13-.14.22-.33.22-.53,0-.42-.44-.8-.86-.64s-.49.67-.12.91c.13.09-.02-.02.05.04.03.03.07.06.09.1-.03-.04.08.16.06.11.05.14.06.27.03.37l.84-.22c-.08-.1-.16-.19-.24-.29l-.1-.11-.07-.09s-.03-.04,0,0l.07.25c-.3.26-.37.37-.22.32.03,0,.03,0,0,0-.05-.02.04,0,.07,0,.13,0,.27-.04.39-.11.25-.14.4-.44.31-.72-.05-.16-.18-.31-.35-.35-.35-.07-.68-.07-1.04-.03-.19.03-.34.24-.36.42-.02.19.06.4.24.5.1.05.13.08.22.18.18.2.53.18.71,0,.2-.2.18-.5,0-.71-.12-.13-.26-.25-.42-.33l-.12.91c.17-.02.35,0,.51.03l-.35-.35v-.06c.01-.08.04-.17.06-.25.03-.05.09-.07.12-.11.02-.02.06,0,0-.01-.08,0-.18.01-.26.04-.21.06-.42.22-.47.45-.11.45.35.82.61,1.13.24.29.75.13.84-.22.16-.68-.11-1.36-.69-1.75l-.12.91c.07-.03-.49-.47-.35-.48,0,0,.06-.02,0,0-.06.02-.13.07-.18.1-.15.1-.28.22-.36.38-.16.31-.1.7.1.98.37.5,1.18.64,1.75.46.3-.09.58-.3.68-.61.1-.34-.03-.71-.22-1s-.41-.51-.68-.68c-.13-.08-.27-.13-.4-.2-.05-.03-.05-.03-.09-.07.04.05,0-.02,0-.03.02.05,0-.01,0-.03,0,0-.02-.09,0-.03,0-.04,0-.07,0-.11s0-.08,0-.11c0-.01,0-.09,0-.04.02-.16.07-.32.1-.48.08-.42.09-.8-.09-1.19-.11-.24-.47-.31-.68-.18-.25.15-.29.44-.18.68h0Z"/><path class="cls-3" d="m53.54,59.03c.05,1.09-1.33,1.62-2.04.78-1.08-1.27-2.5-2.9-1.76-3.88.91-1.21,3.05-2.8,3.76-3.67,3.97-2.94-.06,4.35.05,6.76Z"/><path class="cls-4" d="m70.41,29.33c-.73-.59-2.31.07-3.24.67-2.62,1.71-2,4.25-3.94,6.47-2.94,3.36-9.37,3.27-10.06,1.81-.46-.97,1.47-2.85,2.29-3.65,2.02-1.97,3.55-2.07,5.35-4.27.7-.86,1.28-1.84,1.31-1.89.6-1.02.94-1.88,1.15-2.41,1.77-4.65,2.65-6.98,2.12-9.01-.4-1.54-1.47-2.59-3.6-4.67-2.18-2.14-3.92-3.85-6.11-3.6-1.27.15-2.59.94-3.24,2.16-.74,1.41-.32,2.9,0,3.99,1.29,4.34,4.34,4.79,4.27,7.34-.05,1.74-1.5,3.01-3.57,4.83-1.36,1.19-3.34,2.93-4.43,2.35-.74-.39-.55-1.6-.5-7.01.03-2.96-.04-1.38,0-5.75.05-5.48.15-5.72,0-7.19-.31-3.12-.62-6.21-2.53-7.15-1.33-.65-2,.45-4.39,0-2.63-.49-3.07-2.07-4.67-1.84-1.74.25-3.37,2.41-3.33,4.4.04,2.28,2.25,3.89,3.6,4.88,2.21,1.62,3.5,1.41,4.17,2.83.48,1.01.02,1.53-.19,4.06-.32,3.75.57,4.02-.01,6.11-.17.63-1.16,3.87-3.91,4.69-1.1.33-1.68-.32-2.53-1.36-.99-1.23-.73-1.9-1.17-4.76-.1-.63-.19-.7-2.64-5.28-1.47-2.74-2.21-4.13-2.46-4.77-.83-2.11-.75-2.77-1.6-3.83-.23-.29-1.15-1.39-3.6-2.3-1.9-.71-7.22-2.23-8.49-.27-1.12,1.73,1.19,5.68,3.82,7.82,2,1.63,2.99,1.24,4.75,3.08,2.02,2.12,2.6,4.61,2.81,5.57.11.51.45,2.18-.09,6.09-.37,2.72-.81,5.96-2.62,9.88-1.02,2.23-2.58,4.88-4.97,7.42-1.34,1.43-4.4,4.68-6,3.91-1.49-.72-1.6-4.87-1.6-4.87,0,0,1.41-2.12,2.77-3.97,1.95-2.66,1.91-2.22,2.33-3.03.96-1.85,1.77-5.35,0-6.95-1.46-1.32-4.09-.81-5.66,0-2.02,1.04-1.74,2.28-4.33,5.04-2.73,2.9-4.25,2.81-4.99,4.97-.15.44-.41,1.39.16,4.49.44,2.39.93,5.06,2.46,7.99,2.85,5.49,7.6,8.55,9.9,10.04,4.28,2.77,6.04,2.75,6.87,4.81.64.26,1.61.69,2.74,1.34,2.56,1.48,2.79,2.28,5.12,3.73,1.92,1.19,2,.8,4.99,2.48.31.18,1.78,1,3.64,2.29,2.45,1.69,3.68,2.54,4.18,3.51.85,1.67.09,2.48,1.08,4.36.57,1.09,1.03,1.2,2.29,2.54,1.79,1.9,4.43,4.69,4.03,7.4-.14.98-.62,1.51-.66,3.1-.03,1.15.2,1.75-.13,1.98-.49.34-1.89-.33-2.56-1.44-.92-1.52.08-2.98-.67-3.53-.72-.53-2.57.13-3.24,1.37-.64,1.2.36,1.97-.14,3.64-.37,1.25-1.28,2.01-2.43,2.97-1.52,1.26-1.8.87-3.5,2.17-1.88,1.43-2.04,2.29-3.37,2.56-.43.09-.6.04-2.43-.14-1.32-.13-2.4-.22-3.1-.27.34-4.11.68-8.21,1.02-12.32.11-4.96-.92-8.56-1.93-10.98.29.97.56,2.07.73,3.27.43,3.12.75,13.62-.27,27.68-.14,1.36.85.66,1.21,1.48,24.3,3.02,30.74,1.44,31.47-.92.09-.28.08-5.37.05-6.82.05-1,.11-2.72-.05-3.86-.53-3.85-3.85-3.95-5.09-7.92-.44-1.42.04-1.22.24-7.08.1-2.96.18-5.33,0-8.38-.24-4.02-.69-5.31,0-7.55.56-1.83,1.54-3.17,2.3-4.02.31-1.52.37-2.85.29-3.98-.03-.52-.41-.95-.92-1.07-.35-.08-.83-.22-1.43-.4-1.19-.35-2.07-.61-2.99-1.06-1.47-.7-3.96-1.89-4.89-4.47-.16-.43-.86-2.36-.01-4.06.69-1.39,1.73-1.25,2.55-2.82.81-1.55.07-2.18.9-3.24.98-1.23,2.84-1.43,4.04-1.56.69-.07.78,0,2.16,0,3.57.02,4.44-.39,4.67,0,0,0,0,0,0,0,.18-.18.37-.37.57-.55,3.96-3.72,5.19-2.74,6.98-5.49,1.57-2.42,2.52-6.11,2.52-6.11,0,0,1.64-4.67.36-5.71Z"/><path class="cls-1" d="m28.88,79.44c-.18.65-.36,1.68.72,5.75.83,3.12,1.26,4.71,2.16,5.75,1.2,1.4,1.96,1.21,2.88,2.7,1.19,1.92.8,3.65,1.44,3.78.63.12,1.58-1.44,1.98-2.88.67-2.44-.23-4.66-.54-5.39-.81-1.92-1.58-2.08-2.7-4.31-.6-1.21-.42-1.32-1.26-3.6-1.14-3.08-1.72-4.63-2.52-4.67-.9-.05-1.81,1.63-2.16,2.88Z"/><path class="cls-4" d="m59.39,45.52c1.82-.83,1-.23,1.22.03.34.4-.43,1.28-.81,3.42-.14.81-.06.87-.18,1.8-.21,1.68-.22,1.72-.65,2.93-1.02,2.84-2.03,4.25-1.96,5.61.06,1.18.54,2.1.27,2.25-.2.11-.71-.25-.99-.72-.57-.95.1-1.85.54-4.31.25-1.43,1.84-1.1,2.14-2.82.29-1.7-.35-2.04-.16-3.2.16-.97.85-3.2.58-4.98Z"/></g></g></svg>