<?xml version="1.0" encoding="UTF-8"?><svg id="Layer_2" xmlns="http://www.w3.org/2000/svg" viewBox="0 0 131.77 112.12"><defs><style>.cls-1{fill:#231f20;stroke:#231f20;stroke-miterlimit:10;}</style></defs><g id="Layer_3"><path class="cls-1" d="m62.61,17.45c3.85-6.36,9.03-10.57,15.09-13.89,11.49-6.29,26.1-2.7,33.46,8.94.78,1.24,1.45,2.54,2.45,4.3,3.07-1.83,6.02-3.51,8.89-5.32,2.15-1.35,3.57-1.4,5.25.36,2.13,2.23,3.22,5,3.49,8.03.2,2.25-.91,3.74-3.07,4.51-2.8,1-5.53,2.18-8.34,3.14-2.05.7-3.35,2.01-4.02,4.03-.21.63-.49,1.23-.71,1.85-6.28,18.31-17.72,33.5-29.37,48.55-2.5,3.23-5.25,4.43-9.8,3.58-16.12-3.02-31.3-8.23-45.05-17.23-1.71-1.12-3.09-1.33-5-.67-7.02,2.42-14.11,4.66-21.18,6.95-.94.3-1.89.6-2.86.72-.4.05-1.14-.29-1.24-.6-.16-.51-.15-1.37.18-1.7,1.65-1.63,3.33-3.24,5.16-4.64,4.45-3.41,8.99-6.7,13.79-10.26-5.78-7.41-8.5-15.68-6.66-24.96,1.29-6.51,4.57-12.08,9.67-16.35,12.13-10.15,27.03-10.73,39.88.64Zm46.9,1.28C104.33,6.15,88.72.03,74.87,8.83c-4.91,3.12-8.36,7.39-10.66,12.72-1.14,2.66-1.69,2.56-3.84.72-2.5-2.13-4.94-4.56-7.85-5.95C32.2,6.61,15.8,22.28,15.69,38.37c-.06,9.14,4.26,16.1,10.45,22.21.77.76,1.94,1.44,2.99,1.55,5.01.5,8.55,3.44,11.62,6.98,2.71,3.12,5.75,4.86,9.98,4.11,3.01-.53,5.58.37,7.54,2.74,2.9,3.51,6.71,4.44,11.08,4.38,2.59-.03,5.34.21,7.74,1.09,1.93.71,2.83.53,4.12-.95,9.49-10.91,17.48-22.84,24.29-35.56,1.78-3.33,3.01-6.96,4.39-10.49.31-.8.21-1.76.33-2.97-11.72,4.79-23,9.39-34.48,14.09.63.71,1.06,1.01,1.21,1.41.26.69.34,1.45.49,2.18-.89-.02-2.05.31-2.62-.13-3.7-2.86-6.04-6.58-6.12-11.37-.02-.97.54-2.59,1.18-2.79,1.57-.49,1.67,1.02,1.86,2.17.05.29.32.54.63,1.05,12.27-6.39,24.56-12.79,37.13-19.33Zm-37.09,23.2c.95.39,1.49.83,1.8.7,16.69-6.68,33.36-13.41,50.12-20.17-.33-.82-.47-1.27-.69-1.68-.31-.59-.7-1.13-1-1.72-1.39-2.81-1.41-2.87-4.07-1.49-14.25,7.34-28.49,14.7-42.72,22.09-1.1.57-2.08,1.36-3.45,2.27Zm-47.51,22.87c.14-.4.27-.81.41-1.21-.79-.59-1.66-1.1-2.36-1.78-.82-.79-1.56-1.03-2.54-.31-3.33,2.44-6.68,4.84-10.03,7.26.14.25.27.51.41.76,4.71-1.57,9.42-3.15,14.13-4.72Z"/><path class="cls-1" d="m11.34,94.91c1.01,2.57,2.15,5.11,2.97,7.74.47,1.53.68,3.25.55,4.84-.2,2.26-2.55,4.3-4.27,4.12-1.48-.16-3.6-2.34-3.65-4.22-.04-1.78.15-3.64.66-5.34.74-2.48,1.85-4.85,2.8-7.27.32.05.63.09.95.14Z"/><path class="cls-1" d="m4.45,78.47c.79,1.93,1.6,3.85,2.36,5.79.18.45.21.96.26,1.45.2,1.89.05,3.71-1.84,4.7-.6.31-1.62.37-2.2.07-1.86-.94-2.4-2.72-1.94-4.61.62-2.51,1.53-4.94,2.32-7.41.35,0,.69,0,1.04.01Z"/></g></svg>