<?xml version="1.0" encoding="UTF-8"?><svg id="Layer_2" xmlns="http://www.w3.org/2000/svg" viewBox="0 0 126.76 122.71"><defs><style>.cls-1{fill:#231f20;stroke:#231f20;stroke-miterlimit:10;}</style></defs><g id="Layer_3"><path class="cls-1" d="m126.22.61c-.13,2.05-.06,4-.39,5.88-2.82,16.33-9.47,31-20.23,43.53-6.56,7.64-13.96,14.55-21.07,21.71-2.09,2.1-4.45,3.93-6.94,6.1,1.4,2.69,2.77,5.27,4.09,7.88,1.18,2.32,1.88,4.79-.08,6.91-.73.79-2.48,1.36-3.46,1.06-2.77-.86-3.36-3.44-3.52-5.99-.13-2.11-.03-4.24-.03-7.28-4.43,3.48-8.16,6.41-12.19,9.57-2.37-1.32-4.78-2.66-7.6-4.23-1.34.36-3.06.82-5,1.33-.84,7.19-4.51,12.25-11.65,14.5-.63,5.2-3.73,8.01-8.45,9-.35.61-.69,1-.82,1.46-2.82,9.68-13.76,13.53-23.36,6.71-4.64-3.3-6.18-9.95-4.15-16.2,1.87-5.75,5.72-10.08,10.32-13.67,8.08-6.31,16.37-12.35,24.59-18.48,1.31-.98,2.71-1.84,3.94-2.66-.56-2.46-1.06-4.67-1.51-6.65C52.54,45.47,114.1,2.81,126.22.61ZM42.41,61.37c5.61,9.3,12.02,17.56,20.39,25.25,3.23-3.58,6.4-6.69,9.08-10.17,2.71-3.53,4.96-7.41,7.39-11.16,3.78-5.84,8.71-10.35,15.15-13.13,1.06-.46,2.06-1.05,3.11-1.54,5.28-2.48,8.17-6.69,8.54-12.43.39-6.02,3.21-10.2,8.41-13.12,1.65-.93,3.57-2.37,4.16-4.01,1.8-5.02,3.01-10.26,4.45-15.41-29.56,15.21-56.07,33.91-80.67,55.73Zm-.02,8.71c-10.99,6.99-21.06,14.24-30.33,22.55-3.35,3-6.35,6.34-7.71,10.77-1.16,3.77-1.3,7.52,1.17,10.91,2.61,3.59,7.53,5.3,11.44,4.06,4.11-1.3,7.15-5.58,7.29-10.29.04-1.21,0-2.43,0-3.09,2.76-.83,5.42-.89,6.8-2.25,1.56-1.55,1.97-4.26,3-6.77,2.92-.35,6.86-.23,8.34-3.59,1.3-2.96,1.27-6.5,1.84-9.87,1.96-.48,4.12-1,6.89-1.67-3.15-3.87-5.83-7.18-8.74-10.76Z"/><path class="cls-1" d="m80.82,104.94c1.35,3.21,2.38,5.41,3.2,7.7.31.88.32,1.97.15,2.9-.39,2.13-2.49,3.72-4.22,3.22-2.09-.61-2.9-2.37-2.43-4.23.74-2.94,1.95-5.76,3.3-9.59Z"/><path class="cls-1" d="m11.52,105.94c1.29,1.36,2.34,2.48,3.35,3.54-2.37,3.07-3.39,3.41-5.07,1.94-1.58-1.37-1.32-2.4,1.72-5.48Z"/></g></svg>