<?xml version="1.0" encoding="UTF-8"?><svg id="Layer_2" xmlns="http://www.w3.org/2000/svg" viewBox="0 0 596.46 583.36"><defs><style>.cls-1{fill:#231f20;stroke-width:0px;}</style></defs><g id="Layer_4"><path class="cls-1" d="m594.72,257.9c-2.73-3.81-7.62-5.08-12.07-3.13-1.95.86-3.82,1.99-5.85,2.57-13.94,3.98-28.05,4.58-42.33,2.11-2.21-.38-3.5-1.28-4.61-3.24-7.87-13.82-15.86-27.58-23.88-41.32-1.01-1.72-1.1-3-.03-4.84,10.11-17.33,20.03-34.76,30.15-52.08,1.3-2.22,1.41-3.83.11-6.06-17.46-30.08-34.89-60.19-52.19-90.36-4.14-7.21-5.12-15.01-2.29-22.98,1.23-3.45,2.82-6.78,4.35-10.12,2.37-5.17,4.93-10.27,6.22-15.86,1.85-8.05-4.97-14.45-12.9-12.11-2.15.64-4.32,1.38-6.31,2.41-10.9,5.61-22.48,9.53-33.89,13.88-14.67,5.59-29.63,8.69-45.53,8.32-25.69-.6-51.41-.11-77.11-.23-2.87-.01-4.46.88-5.86,3.33-9.74,17.13-19.65,34.16-29.4,51.28-1.15,2.02-2.43,2.69-4.74,2.68-19.99-.1-39.99-.33-59.98.07-8.66.17-16.03-2.54-23.05-7.01-7.99-5.09-14.41-12.01-21.27-18.41-2.52-2.36-5.08-4.68-8.47-5.76-3.53-1.13-5.83.16-6.59,3.78-.26,1.27-.4,2.6-.36,3.9.23,7.05,1.2,14,4,20.51,3.99,9.27,7.2,18.82,10.67,28.27.58,1.57.6,2.77-.29,4.3-8.73,14.97-17.4,29.98-25.97,45.04-1.1,1.94-2.31,2.69-4.49,2.37-5.4-.79-10.85-1.32-16.24-2.19-15.35-2.46-30.75-4.79-44.96-11.62-8.66-4.17-17.27-8.44-25.85-12.75-3.72-1.87-7.36-2.05-10.79.34-3.56,2.5-4.59,6.19-4.03,10.38.47,3.53,1.24,6.99,2.32,10.4,3.76,11.86,8.4,23.47,10.63,35.77.72,3.95.95,7.76-1.34,11.67-16.65,28.49-33.05,57.12-49.63,85.65-1.24,2.14-1.14,3.61.09,5.72,10.01,17.11,19.86,34.32,29.79,51.48,15.47,26.72,30.7,53.57,46.56,80.05,6.92,11.55,13.28,23.26,17.98,35.86.96,2.57,2.27,4.96,4.3,6.89,3.02,2.88,6.6,3.85,10.51,2.57,3.81-1.24,5.98-4.11,6.59-8.12.82-5.41-.28-10.64-1.36-15.88-1.74-8.46-5.08-16.56-5.62-25.39.54-.11.99-.28,1.45-.28,9.64-.02,19.28.03,28.92-.07,1.77-.02,2.48.88,3.22,2.2,2.87,5.06,5.8,10.08,8.73,15.11,19.54,33.53,37.71,67.91,61.08,99.09,3.84,5.12,8.24,7.14,13.02,5.15,4.99-2.07,6.92-6.76,5.46-13.08-1.6-6.95-3.98-13.66-6.08-20.46-.78-2.52-2.05-4.95-2.02-7.9,18.82,0,37.37.03,55.93-.04,2.14,0,2.47,1.57,3.18,2.8,9.46,16.34,18.92,32.67,28.23,49.09,1.36,2.4,2.86,3.18,5.59,3.17,36.54-.1,73.07-.07,109.61-.07,1.41,0,2.83,0,4.4,0,.85,4.78,1.56,9.12,2.41,13.43.76,3.84,1.58,7.69,4.09,10.88,4.44,5.65,10.16,5.72,14.42.14,2.24-2.94,3.98-6.14,5.16-9.68,1.76-5.29,3.68-10.52,6.5-15.38,24.2-41.81,48.35-83.65,72.63-125.42,1.68-2.89,1.81-4.97.06-7.94-9.49-16.04-18.6-32.31-28.12-48.33-1.86-3.13-1.71-5.29.05-8.29,11.12-18.94,22.15-37.93,32.96-57.04,2.93-5.18,6.81-9,11.94-11.85,9.55-5.3,19.06-10.68,28.5-16.17,4.41-2.57,8.83-5.18,12.45-8.87,3.46-3.53,3.96-8.53,1.23-12.33Zm-525.44,35.9c16.39,28.23,32.7,56.5,49.01,84.78.69,1.19,1.71,2.28,1.81,4.19-7.76,0-15.44-.02-23.12.02-1.53,0-1.99-1.07-2.57-2.08-17.15-29.71-34.28-59.42-51.5-89.09-1.07-1.84-.42-3.04.43-4.52,15.68-27.12,31.63-54.1,46.79-81.51,3.98-7.19,8.28-10.47,16.46-9.29,4.87.7,9.92.13,15.65.13-3.2,5.62-6.09,10.74-9.02,15.82-14.66,25.38-29.3,50.78-44.05,76.11-1.21,2.07-1.04,3.48.11,5.45ZM388.7,61.75c16.42-.02,32.84.04,49.26-.07,2.55-.02,4.03.69,5.35,2.99,16.76,29.25,33.62,58.45,50.55,87.61,1.12,1.94,1.13,3.32.02,5.17-3.47,5.78-6.78,11.65-10.23,17.63-1.44-.85-1.8-2.13-2.42-3.2-16.68-28.89-33.39-57.76-49.98-86.7-1.36-2.37-2.85-3.22-5.59-3.17-10.11.18-20.23-.09-30.34.17-3.02.08-4.08-1.07-4.91-3.63-1.74-5.39-3.75-10.69-5.7-16.16,1.62-.9,2.83-.65,4-.65Zm64.11,166.83c-3.39,5.84-6.76,11.7-10.14,17.54-.53.92-1,1.92-2.32,1.91-7.32,0-14.64,0-22.19-.37,12.47-9.73,21.39-21.81,26.4-37.5,3.14,5.4,5.84,10.11,8.61,14.78.81,1.37.31,2.47-.37,3.64Zm-124.01-158.17c2.81-7.28,7.54-9.81,15.23-8.81,5.6.73,11.38.24,17.07.1,2.29-.06,3.3.76,3.99,2.95,1.8,5.72,3.9,11.34,5.99,17.29h-48.78c2.31-4.02,4.97-7.55,6.5-11.52Zm-46.88,81.33c3.27-5.23,6.34-10.6,9.25-16.04,1.11-2.07,2.36-2.81,4.71-2.8,16.9.1,33.79.05,50.69.05s33.56.04,50.34-.05c2.32-.01,3.57.7,4.74,2.77,6.11,10.86,12.31,21.68,18.68,32.39,5.04,8.47,9.52,17.1,7.93,27.36-2.06,13.36-7.89,24.77-18.34,33.63-8.38,7.11-17.93,12.46-27.19,18.26-1.3.82-2.72.75-4.14.75-13.8,0-27.61-.07-41.41.07-2.54.03-3.82-.95-5-3-16.75-29.13-33.53-58.23-50.4-87.29-1.32-2.27-1.24-3.91.14-6.11Zm-136,173.03c-6.24-10.8-12.44-21.6-18.74-32.33-.97-1.65-.08-2.65.61-3.85,16.01-27.76,32.27-55.38,47.86-83.38,3.76-6.75,7.83-8.95,15.56-9.17,9.02-.25,13.74,2.52,18.1,10.45,14.86,27.05,30.62,53.6,46.12,80.3,1.2,2.07,1.3,3.6.02,5.74-5.65,9.48-11.13,19.07-16.55,28.68-1.1,1.96-2.27,2.55-4.51,2.1-19.05-3.78-38.26-3.74-57.53-2.25-10.19.79-20.31,2.1-30.94,3.71Zm35.7,58.03c-1.42.01-2.42-.29-3.2-1.65-7.24-12.65-14.55-25.26-22.12-38.37,23.59-3.39,46.77-4.84,70.8-1.31-3.22,5.57-6.18,10.67-9.14,15.79-4.51,7.81-9.05,15.59-13.46,23.45-.88,1.57-1.86,2.14-3.62,2.12-6.42-.09-12.84-.06-19.26-.01Zm57.3,44.22c4.21,7.12,8.31,14.31,12.78,22.06-8.51,0-16.47-.61-24.3.18-7.49.75-11.67-1.85-14.76-8.57-3.25-7.05-7.64-13.58-11.86-20.93,7.27,0,13.88-.09,20.49.05,2.31.05,3.56-.67,4.75-2.75,24.02-41.77,48.13-83.5,72.3-125.19,1-1.73.85-2.92-.07-4.51-24.14-41.72-48.25-83.45-72.29-125.23-1.05-1.82-2.2-2.39-4.2-2.35-6.27.11-12.54.04-18.8.04-.26-1.63.69-2.5,1.26-3.49,4.01-7,8.09-13.97,12.07-20.99.81-1.43,1.57-2.43,3.49-2.41,9.87.09,19.75.04,29.62.04.55,1.48-.47,2.35-1.02,3.31-3.12,5.46-6.23,10.93-9.48,16.31-.98,1.63-.96,2.86,0,4.53,24.21,41.81,48.37,83.66,72.48,125.53.96,1.66,1.99,2.28,3.91,2.27,48.31-.05,96.63-.05,144.94,0,1.94,0,2.97-.65,3.9-2.31,3.53-6.31,7.2-12.54,11.12-19.33,2.79,4.8,5.36,9.23,7.92,13.65,2.32,4.01,4.6,8.04,6.97,12.02.71,1.19,1.13,2.19.32,3.56-4.75,8.08-9.42,16.2-14.14,24.34-1.34-.32-1.56-1.45-2.05-2.29-3.41-5.85-6.84-11.68-10.13-17.59-.94-1.69-2.04-2.25-3.95-2.25-48.31.05-96.63.05-144.94,0-1.91,0-2.97.6-3.92,2.25-24.11,41.86-48.25,83.7-72.46,125.51-.98,1.7-.9,2.91.05,4.53Zm142.04-95.54h13.81c14.52,0,29.04.04,43.56-.05,2.29-.01,3.62.62,4.76,2.73,3.27,6.06,6.85,11.95,10.31,17.9.73,1.26,1.28,2.35.36,3.92-6.82,11.68-13.54,23.42-20.22,35.02-23.62-14.27-41.83-33.12-52.58-59.53Zm43.12,75.86c-7.65,13.27-15.31,26.52-22.92,39.81-.81,1.41-1.74,1.98-3.39,1.96-5.94-.09-11.89-.04-18.58-.04,12.67-17.1,17.72-36.76,22.64-56.79,7.42,5.27,14.04,11.28,22.25,15.06Zm-126.63,41.78c-2.28.04-3.64-.54-4.8-2.64-3.59-6.55-7.38-13-11.23-19.41-1.06-1.77-.94-3.11.06-4.84,16.95-29.26,33.86-58.54,50.73-87.85,1.17-2.04,2.47-3.06,5.02-2.98,6.65.21,13.32.15,19.98.02,2-.04,2.86.68,3.61,2.49,5.92,14.45,13.23,28.12,23.2,40.25.58.71,1.23,1.27,1.02,2.46-2.98,16.84-6.86,33.43-14.1,49.04-4.03,8.7-9.95,15.6-18.37,20.69-3.54,2.14-6.74,2.77-10.51,2.74-6.78-.06-13.56-.02-20.34-.02-8.09,0-16.18-.08-24.27.05Zm196.46-22.01c-12.7,22-25.4,44-38.09,65.99-4.27,7.4-8.62,14.76-12.79,22.22-1,1.78-2.11,2.46-4.17,2.46-34.15-.06-68.31-.04-102.46-.05-1.28,0-2.51.18-3.35-1.33-2.98-5.37-6.1-10.67-9.51-16.59h4.28c32.49,0,64.98-.06,97.46.1,3.26.02,4.77-1.15,6.29-3.78,16.89-29.45,33.89-58.83,50.87-88.23.41-.72.87-1.41,1.63-2.63,3.69,6.36,7.14,12.3,10.59,18.24.83,1.43-.1,2.46-.75,3.59Z"/></g></svg>