<?xml version="1.0" encoding="UTF-8"?><svg id="Layer_2" xmlns="http://www.w3.org/2000/svg" viewBox="0 0 607.47 594.36"><defs><style>.cls-1{fill:#231f20;stroke-width:0px;}</style></defs><g id="Layer_4"><path class="cls-1" d="m449.8,594.36c-4.29,0-8.43-2.26-11.67-6.38-3.4-4.33-4.38-9.26-5.16-13.21-.59-2.96-1.1-5.9-1.64-8.99h-21.71c-28.74,0-58.45-.01-87.67.07h-.04c-4.75,0-8.04-1.89-10.34-5.96-8.92-15.74-18.15-31.67-27.07-47.07l-1.14-1.98s-.02-.03-.03-.04c-13.74.05-27.73.04-41.27.04h-6.02c.09.26.17.51.25.77.55,1.78,1.12,3.55,1.68,5.32,1.61,5.01,3.26,10.19,4.5,15.52,2.08,9.02-1.17,16.27-8.71,19.4-3.29,1.36-11.77,3.42-19.53-6.93-18.7-24.94-34.27-52.21-49.33-78.58-3.95-6.91-8.03-14.06-12.1-21.04l-.54-.93c-2.6-4.45-5.28-9.05-7.88-13.63-6.13.05-12.33.05-18.33.05h-4.6c.6,3.17,1.49,6.33,2.4,9.62.85,3.05,1.73,6.21,2.39,9.45l.04.19c1.14,5.56,2.33,11.31,1.37,17.62-.94,6.21-4.6,10.66-10.32,12.53-5.76,1.88-11.45.53-16.01-3.82-2.42-2.31-4.27-5.24-5.66-8.95-4.94-13.22-11.64-25.09-17.55-34.96-11.62-19.4-23.08-39.31-34.17-58.57-4.14-7.19-8.28-14.37-12.43-21.55-3.42-5.92-6.84-11.84-10.25-17.76-6.38-11.06-12.97-22.5-19.52-33.7-2.27-3.88-2.3-7.46-.1-11.26,6.83-11.76,13.63-23.53,20.43-35.3,9.54-16.52,19.41-33.6,29.21-50.36,1.2-2.06,1.37-4.06.67-7.92-1.56-8.61-4.34-16.81-7.28-25.5-1.06-3.13-2.16-6.37-3.18-9.59-1.17-3.68-2.02-7.5-2.53-11.34-.88-6.59,1.37-12.14,6.33-15.62,3.41-2.39,9.03-4.46,16.41-.75,9.82,4.94,18.01,8.98,25.76,12.71,13.04,6.27,27.11,8.53,42,10.92l1.44.23c2.93.47,5.98.85,8.93,1.22,2.1.26,4.26.53,6.41.84,8-14.05,16.37-28.57,25.57-44.35-.88-2.39-1.74-4.79-2.6-7.19-2.47-6.87-5.02-13.96-7.92-20.71-2.74-6.36-4.15-13.51-4.45-22.5-.06-1.67.1-3.42.47-5.2.87-4.2,3.11-6.28,4.84-7.28,1.73-1.01,4.67-1.94,8.81-.61,4.67,1.5,7.93,4.54,10.55,6.98,1.53,1.43,3.03,2.88,4.54,4.33,5.22,5.04,10.16,9.79,15.93,13.46,6.81,4.33,13.16,6.29,19.99,6.15,16.72-.33,33.7-.22,50.11-.12,3.33.02,6.66.04,9.99.06,4.7-8.26,9.44-16.5,14.19-24.74,4.98-8.66,10.14-17.62,15.16-26.44,2.39-4.19,5.77-6.15,10.67-6.11,9.23.04,18.62,0,27.7-.03,16.22-.06,32.99-.12,49.51.26,14.3.33,28.51-2.27,43.45-7.96,2.31-.88,4.62-1.74,6.94-2.6,8.84-3.29,17.97-6.69,26.39-11.02,2.64-1.36,5.41-2.25,7.27-2.79,5.63-1.66,11.41-.38,15.46,3.43,4.04,3.8,5.67,9.48,4.36,15.18-1.25,5.42-3.49,10.25-5.66,14.92-.31.66-.62,1.33-.92,1.99l-.67,1.45c-1.3,2.83-2.54,5.5-3.5,8.22-2.2,6.2-1.57,12.39,1.88,18.41,18.42,32.13,36.72,63.69,52.18,90.34,2.26,3.9,2.22,7.58-.12,11.59-5.27,9.02-10.58,18.24-15.72,27.15-4.64,8.05-9.44,16.38-14.21,24.56,6.56,11.24,15.14,26,23.71,41.05.16.27.26.4.29.44.01,0,.17.05.48.1,13.61,2.35,27.03,1.69,39.88-1.98.88-.25,1.91-.76,3-1.3.71-.35,1.43-.7,2.15-1.02,6.81-3,14.53-.96,18.76,4.96h0c4.28,5.98,3.55,13.96-1.78,19.39-4.24,4.32-9.22,7.22-13.61,9.77-8.66,5.04-18.02,10.35-28.6,16.23-4.28,2.38-7.4,5.48-9.82,9.75-9.54,16.87-20.03,35.01-33,57.11-.83,1.42-.82,1.44-.07,2.7,4.95,8.33,9.86,16.85,14.61,25.09,4.4,7.64,8.96,15.54,13.52,23.25,2.73,4.61,2.72,8.78-.04,13.51-17.52,30.15-35.27,60.84-52.44,90.52-6.73,11.63-13.45,23.26-20.18,34.89-2.61,4.52-4.45,9.57-6.04,14.36-1.33,4.01-3.35,7.81-6,11.28-3.08,4.04-7.11,6.28-11.35,6.31h-.09Zm-61.88-39.59c7.28,0,14.52,0,21.71,0h30.93s.81,4.54.81,4.54c.27,1.5.52,2.95.77,4.37.54,3.11,1.05,6.05,1.63,8.96.73,3.68,1.37,6.46,3.02,8.55,1.08,1.37,2.24,2.2,3.03,2.18.74,0,1.75-.75,2.69-1.98,1.94-2.54,3.35-5.19,4.31-8.08,1.77-5.34,3.84-11.03,6.96-16.41,6.73-11.63,13.45-23.25,20.18-34.88,17.17-29.69,34.92-60.39,52.45-90.55.55-.95.57-1.28.57-1.28,0,0-.03-.31-.5-1.1-4.59-7.76-9.16-15.69-13.58-23.36-4.73-8.21-9.62-16.7-14.54-24.97-2.82-4.75-2.81-9.03.04-13.89,12.94-22.05,23.4-40.15,32.91-56.96,3.41-6.02,8-10.59,14.05-13.95,10.51-5.84,19.81-11.11,28.41-16.12,3.79-2.21,8.09-4.71,11.29-7.97,1.59-1.62,1.85-3.65.68-5.28-1.21-1.69-3.32-2.2-5.38-1.29-.58.25-1.14.54-1.71.82-1.41.7-3.02,1.49-4.85,2.01-14.46,4.13-29.52,4.88-44.78,2.24-3.84-.67-6.53-2.55-8.45-5.94-8.63-15.15-17.28-30.02-23.85-41.27-2.05-3.51-2.06-6.91-.03-10.38,4.82-8.27,9.69-16.72,14.4-24.88,5.14-8.92,10.46-18.15,15.75-27.2.09-.15.15-.27.19-.36-.02-.05-.05-.1-.09-.16-15.47-26.65-33.77-58.24-52.21-90.39-5.05-8.8-5.98-18.33-2.7-27.56,1.13-3.2,2.53-6.22,3.88-9.15l.65-1.42c.31-.68.63-1.36.94-2.04,2.02-4.35,3.93-8.46,4.92-12.76.43-1.88,0-3.59-1.18-4.7-1.19-1.12-2.94-1.45-4.8-.9-2.3.68-3.95,1.3-5.35,2.03-9,4.63-18.45,8.15-27.58,11.55-2.29.85-4.58,1.71-6.86,2.58-16.3,6.21-31.88,9.07-47.62,8.68-16.37-.38-33.07-.32-49.21-.26-9.11.04-18.53.07-27.8.03-.38,0-.6.02-.72.04-.07.08-.18.24-.33.51-5.03,8.85-10.19,17.82-15.18,26.49-4.75,8.26-9.5,16.51-14.22,24.79-2.09,3.67-5.19,5.46-9.48,5.46h-.07c-3.34-.02-6.68-.04-10.02-.06-16.34-.1-33.25-.2-49.83.12-9.1.18-17.4-2.32-26.11-7.87-6.71-4.27-12.28-9.64-17.66-14.83-1.46-1.41-2.92-2.82-4.41-4.21-2.24-2.09-4.01-3.65-6.01-4.41-.13.75-.18,1.47-.16,2.12.25,7.58,1.38,13.47,3.56,18.52,3.04,7.06,5.65,14.32,8.17,21.34.86,2.41,1.73,4.81,2.61,7.21.75,2.05,1.5,5.2-.7,8.97-9.35,16.03-17.83,30.74-25.94,44.99-2.85,5.01-7.05,5.53-10.07,5.09-2.31-.34-4.7-.64-7-.92-3.04-.38-6.18-.77-9.31-1.27l-1.44-.23c-15.02-2.41-30.54-4.9-45.03-11.87-7.81-3.76-16.06-7.83-25.94-12.8-2.82-1.42-4.14-.78-5.16-.06-1.15.81-2.16,1.99-1.74,5.15.43,3.21,1.14,6.39,2.11,9.47.99,3.12,2.07,6.31,3.11,9.39,2.94,8.68,5.98,17.66,7.69,27.07.82,4.53,1.23,9.91-2,15.43-9.78,16.73-19.64,33.8-29.18,50.31-6.81,11.78-13.61,23.56-20.45,35.32,0,0,0,.01-.01.02.03.05.06.1.09.16,6.57,11.23,13.17,22.69,19.56,33.76,3.41,5.92,6.82,11.83,10.24,17.74,4.16,7.18,8.3,14.38,12.44,21.57,11.06,19.21,22.51,39.08,34.08,58.41,5.8,9.69,13.14,22.63,18.42,36.77.8,2.15,1.74,3.69,2.94,4.83,2.04,1.94,3.68,1.76,5.01,1.33,1.25-.41,2.47-1.14,2.85-3.72.66-4.37-.28-8.94-1.27-13.77l-.04-.19c-.59-2.87-1.38-5.71-2.22-8.72-1.53-5.52-3.12-11.23-3.51-17.44l-.29-4.77,4.69-.96c.09-.02.17-.04.25-.06.52-.13,1.3-.33,2.29-.33,3.13,0,6.25,0,9.38,0,6.39,0,13.01,0,19.5-.06h.1c5.14,0,7.26,3.75,7.96,4.99,2.67,4.72,5.46,9.49,8.15,14.11l.55.94c4.09,7.03,8.19,14.19,12.15,21.13,14.89,26.08,30.3,53.04,48.58,77.43,3.47,4.63,5.6,3.75,6.51,3.37,1.03-.43,3.44-1.43,2.21-6.76-1.13-4.89-2.65-9.62-4.25-14.64-.58-1.81-1.16-3.62-1.72-5.43-.18-.57-.38-1.14-.59-1.71-.76-2.09-1.7-4.69-1.67-7.86l.05-5.45h18.5c14.07,0,28.61.01,42.85-.04h.05c5.14,0,7.08,3.89,7.72,5.17.06.12.12.25.19.37l1.14,1.98c8.93,15.43,18.17,31.38,27.11,47.16.09.16.17.28.22.36.12.01.31,0,.57.02,21.93-.06,44.13-.07,65.99-.07ZM145.78,159.92h0,0Zm298.61,368.86h-.02c-26.99-.05-54.44-.05-80.98-.05h-21.76c-1.36.01-5.51.08-7.86-4.16-2.12-3.82-4.33-7.62-6.66-11.65-.92-1.58-1.85-3.2-2.81-4.87l-4.75-8.25h35.42c24.86-.02,50.58-.03,75.87.1.49-.02.74-.04.84-.06.09-.09.3-.35.65-.95,13.64-23.78,27.58-47.91,41.06-71.24l9.82-17c.3-.52.62-1.03,1.03-1.68l5.52-8.88,7.49,12.9c2.63,4.53,5.16,8.89,7.7,13.25,2.38,4.09.18,7.61-.54,8.77-.07.11-.14.22-.2.33h0c-7.92,13.71-15.83,27.42-23.74,41.13l-14.35,24.86c-1.25,2.16-2.5,4.32-3.76,6.48-2.98,5.13-6.06,10.43-8.99,15.67-1.99,3.55-4.91,5.27-8.95,5.27Zm-68.44-11.05c22.44,0,45.37,0,67.99.05,2.92-5.2,5.95-10.42,8.88-15.47,1.25-2.15,2.5-4.3,3.74-6.46l14.35-24.86c7.85-13.61,15.71-27.21,23.56-40.82-1.64-2.81-3.27-5.63-4.94-8.51l-6.64,11.5c-13.48,23.33-27.41,47.45-41.04,71.21-1.75,3.05-4.58,6.54-10.99,6.54h-.09c-25.26-.12-50.96-.12-75.81-.1h-16.37c1.35,2.34,2.66,4.63,3.95,6.92h33.41Zm-145.4-57.37c-8.12,0-13.69-3.83-17.4-11.89-2.12-4.59-4.8-9.05-7.65-13.76-1.3-2.16-2.65-4.4-3.99-6.72l-4.74-8.24h9.51c2.08,0,4.11,0,6.1-.01,4.96-.02,9.64-.04,14.38.06,22.65-39.38,46.19-80.15,71.97-124.63-28.76-49.72-50.93-88.12-71.81-124.39-4.44.07-8.91.06-13.24.04-1.74,0-3.48-.01-5.22-.01h-4.68l-.75-4.62c-.56-3.43.98-5.72,1.73-6.82.07-.1.13-.19.19-.29,1.7-2.97,3.41-5.93,5.12-8.89,2.32-4.02,4.65-8.04,6.94-12.07.81-1.42,2.95-5.2,8.22-5.2h.1c7.29.07,14.71.06,21.89.05h11.5s1.33,3.57,1.33,3.57c1.43,3.85-.52,6.68-1.25,7.75-.05.08-.11.16-.16.24-2.96,5.18-6.02,10.56-9.19,15.83,23.46,40.52,47.66,82.42,71.93,124.56,48.42-.05,96.78-.05,143.75,0,2.48-4.43,5.01-8.78,7.68-13.38,1.05-1.8,2.11-3.63,3.19-5.5l4.75-8.22,7.5,12.93c1.77,3.05,3.48,6,5.19,8.94.74,1.28,1.48,2.56,2.22,3.85,1.54,2.67,3.12,5.44,4.72,8.11.71,1.2,2.88,4.84.34,9.16-3.55,6.05-7.07,12.13-10.6,18.22l-5.58,9.63-3.98-.95c-3.61-.86-4.95-3.65-5.45-4.7l-.1-.21-1.46-2.5c-2.77-4.75-5.64-9.66-8.38-14.57-48.64.05-97.03.05-143.85,0-25.41,44.12-48.92,84.84-71.86,124.47,3,5.07,5.91,10.14,8.99,15.49,1.16,2.01,2.33,4.05,3.53,6.12l4.76,8.25h-9.53c-2.69,0-5.32-.06-7.86-.12-5.56-.13-10.81-.24-15.89.27-1,.1-1.97.15-2.9.15Zm-14.61-29.65c2.63,4.37,5.1,8.59,7.2,13.15,2.16,4.69,4.23,5.9,9.21,5.4,5.1-.51,10.06-.47,15.25-.36-2.69-4.67-5.27-9.14-7.91-13.6-2.01-3.4-2.04-6.7-.08-10.08,23.12-39.94,46.82-80.99,72.45-125.5,1.27-2.21,2.93-3.67,5.02-4.42-2.06-.75-3.71-2.22-4.97-4.42-24.45-42.46-48.84-84.69-72.48-125.52-1.97-3.4-1.96-6.81.04-10.13,2.24-3.71,4.44-7.51,6.6-11.28-6.54,0-13.27.01-19.93-.04-2.24,3.93-4.5,7.85-6.76,11.76-.8,1.38-1.59,2.75-2.39,4.13,3.31,0,6.66,0,9.95-.06,4.08-.08,7.04,1.6,9.06,5.11,21,36.49,43.3,75.11,72.29,125.21,1.98,3.42,2,6.7.07,10.03-25.9,44.69-49.55,85.63-72.29,125.17-2.18,3.79-5.32,5.58-9.63,5.5-3.52-.07-7.06-.08-10.72-.07Zm11.3-10.93h0,0Zm242.14-124.46c2.15.76,3.85,2.26,5.08,4.49,2.26,4.08,4.64,8.19,6.99,12.22,2.96-5.11,5.99-10.35,9.02-15.51-1.48-2.51-2.94-5.04-4.36-7.51-.73-1.27-1.46-2.54-2.2-3.82-1.05-1.81-2.1-3.62-3.16-5.45-2.18,3.76-4.27,7.39-6.32,11.05-1.25,2.24-2.95,3.75-5.06,4.52Zm-166.58,164.8c-4.33,0-7.43-1.8-9.45-5.5-3.9-7.12-7.99-14.01-11.12-19.22-2.03-3.39-2.03-6.89.02-10.42,16.45-28.39,33.51-57.94,50.72-87.83,2.3-4,5.56-5.89,9.97-5.73,6.85.22,13.8.14,19.7.02,4.19-.11,7.16,1.91,8.8,5.9,6.4,15.61,13.71,28.32,22.36,38.84l.15.17c.73.86,2.68,3.13,2.04,6.74-2.69,15.24-6.53,33.15-14.53,50.4-4.64,10-11.35,17.55-20.52,23.08-4.12,2.49-8.26,3.59-13.4,3.53-4.75-.05-9.6-.04-14.29-.03-4.23,0-8.46,0-12.69,0-5.74-.02-11.68-.03-17.49.06h0c-.09,0-.17,0-.26,0Zm-10.87-29.93c3.11,5.19,7.1,11.93,10.95,18.93h0c5.92-.1,11.91-.08,17.7-.07,4.21.01,8.42.01,12.63,0,4.72,0,9.6-.02,14.42.03,3.11.04,5.25-.52,7.62-1.95,7.23-4.36,12.54-10.34,16.22-18.29,7.22-15.56,10.85-31.99,13.41-46.2-9-11.06-16.61-24.23-23.24-40.21-5.75.1-12.39.16-19.01-.05-.04.06-.08.14-.13.22-17.16,29.8-34.17,59.26-50.57,87.57Zm50.91-88.08h0,0Zm60.56,117.99c-.06,0-.12,0-.18,0-4.24-.06-8.51-.05-13.04-.04-1.77,0-3.59,0-5.46,0h-10.92l6.5-8.77c12.34-16.65,17.1-36.06,21.71-54.83l1.93-7.85,6.6,4.68c2.17,1.54,4.26,3.13,6.29,4.68,5.01,3.81,9.74,7.41,15.08,9.87l5.47,2.52-8.29,14.37c-5.89,10.21-11.78,20.42-17.63,30.64-1.79,3.14-4.51,4.73-8.06,4.73Zm-8.26-11.05c2.45,0,4.85,0,7.25.04,5.72-10,11.45-19.92,17.18-29.85l2.43-4.22c-4.03-2.4-7.71-5.17-11.3-7.9-3.5,13.75-7.85,28.37-15.77,41.92h.21Zm45.88-44.93l-4.81-2.91c-26.35-15.92-44.29-36.26-54.83-62.17l-3.08-7.57h32.76c10.74.01,21.84.02,32.75-.05h.1c4.37,0,7.49,1.84,9.53,5.62,2.37,4.38,4.97,8.79,7.48,13.06.92,1.56,1.84,3.12,2.75,4.69.8,1.38,2.94,5.04.35,9.46-5.17,8.85-10.35,17.86-15.36,26.58l-7.64,13.28Zm-46.05-61.64c9.16,18.58,23.04,33.82,42.17,46.33l1.99-3.45c4.81-8.37,9.78-17,14.74-25.52-.81-1.38-1.62-2.76-2.43-4.14-2.53-4.3-5.15-8.75-7.59-13.26-10.94.07-22.05.06-32.8.05h-16.08Zm-188.47,51.34c-.06,0-.12,0-.18,0-6.46-.09-13.02-.06-19.14-.01h0c-3.63.02-6.31-1.46-8.01-4.42-5.58-9.74-11.1-19.29-16.95-29.41l-9.23-15.98,8.04-1.16c28.42-4.09,50.75-4.49,72.39-1.31l8.02,1.18-6.83,11.8c-2.19,3.77-4.28,7.39-6.37,11l-3.17,5.48c-3.39,5.86-6.9,11.92-10.26,17.9-1.83,3.27-4.63,4.93-8.32,4.93Zm-9.32-11.06c2.79,0,5.62.01,8.44.05,3.27-5.82,6.66-11.67,9.94-17.33l3.16-5.47c1.64-2.84,3.29-5.69,4.98-8.61-16.01-1.63-32.9-1.23-53.01,1.24l1.06,1.83c5.63,9.74,10.95,18.95,16.32,28.32,2.96-.02,6.02-.04,9.11-.04Zm-94.72,11.03c-4.59,0-6.55-3.47-7.19-4.62l-.12-.21-11.17-19.36c-13.2-22.87-26.85-46.51-40.32-69.73-2.69-4.64-.5-8.42.43-10.03,4.04-7,8.11-13.98,12.17-20.97,11.48-19.74,23.35-40.16,34.57-60.45,3.64-6.57,9.43-13.89,22.05-12.08,2.84.41,5.87.31,9.39.19,1.75-.06,3.56-.12,5.48-.12h9.46l-7.67,13.48c-2.07,3.65-4.05,7.13-6.05,10.6l-5.49,9.51c-12.59,21.8-25.6,44.35-38.49,66.48.01.02.02.04.03.06h0c16.7,28.76,33.37,57.66,49.01,84.8.1.18.22.35.33.52.76,1.18,2.04,3.15,2.21,6.1l.33,5.81h-11.83c-5.72,0-11.4-.01-17.08.02h-.05Zm-48.79-98.56c13.32,22.95,26.79,46.29,39.82,68.88l10.78,18.68c4.13-.02,8.26-.02,12.4-.02-14.95-25.94-30.79-53.39-46.65-80.7h0c-1.39-2.4-2.92-6.15-.1-10.98,12.9-22.16,25.94-44.74,38.55-66.58l5.49-9.51c1.4-2.43,2.79-4.86,4.21-7.35-2.29.02-4.54-.07-6.85-.4-5.29-.76-7.62.64-10.87,6.51-11.28,20.39-23.18,40.86-34.69,60.65-4.03,6.94-8.07,13.88-12.09,20.83Zm94.87,41.04l-6.5-11.26c-4.6-7.98-9.36-16.23-14.1-24.29-2.52-4.29-.4-7.75.4-9.06l.19-.32c4.32-7.48,8.65-14.95,12.98-22.43,11.54-19.89,23.47-40.47,34.84-60.88,4.65-8.35,10.32-11.71,20.21-11.99,11.04-.32,17.72,3.54,23.07,13.3,11.4,20.76,23.56,41.6,35.32,61.76,3.58,6.14,7.16,12.28,10.73,18.42,2.23,3.85,2.23,7.55-.01,11.31-4.88,8.19-9.96,17-16.48,28.57-2.27,4.03-5.86,5.69-10.37,4.8-16.05-3.18-33.86-3.87-56.04-2.16-8.99.69-18.41,1.82-30.54,3.67l-3.71.56Zm-10.3-39.74c4.49,7.66,8.98,15.44,13.33,22.99l2.75,4.76c10.66-1.56,19.3-2.56,27.63-3.2,22.79-1.76,41.29-1.07,58.11,2.16,6.36-11.27,11.36-19.94,16.18-28.03,0-.01.01-.02.02-.03-.02-.04-.05-.08-.07-.13-3.56-6.14-7.14-12.27-10.72-18.4-11.8-20.22-23.99-41.12-35.47-62.01-3.38-6.16-6.2-7.8-13.12-7.6-5.95.17-8.2,1.47-10.91,6.35-11.41,20.5-23.37,41.11-34.93,61.05-4.27,7.36-8.54,14.73-12.8,22.1Zm118.19-1.69h0,0Zm86.17-35.7c-4.28,0-7.45-1.89-9.68-5.76-19.27-33.52-35.28-61.25-50.38-87.27-2.31-3.98-2.24-7.84.23-11.79h0c3.06-4.89,6.03-10.03,9.07-15.71,2.07-3.86,5.2-5.68,9.59-5.7,12.82.08,25.88.07,38.5.06h12.16s12.11,0,12.11,0c12.52,0,25.47.01,38.2-.05,4.32.01,7.44,1.8,9.56,5.58,6.7,11.91,12.79,22.47,18.62,32.27,5.4,9.07,10.51,18.94,8.64,31.01-2.34,15.16-9.15,27.6-20.22,36.99-7.03,5.96-14.8,10.72-22.31,15.32-1.84,1.13-3.69,2.26-5.52,3.41-2.56,1.6-5.1,1.59-6.79,1.59h-.27c-3.66,0-7.32,0-10.99,0-9.96-.01-20.26-.03-30.37.08h-.15Zm-50.65-98.74c.03.05.06.11.1.18,15.11,26.03,31.13,53.77,50.41,87.31.06.1.11.18.15.25h.03c10.17-.1,20.5-.09,30.49-.08,3.66,0,7.32,0,10.97,0h.31c.36,0,.84,0,1.09-.02,1.81-1.13,3.62-2.24,5.44-3.35,7.48-4.58,14.55-8.91,20.94-14.33,9.12-7.73,14.51-17.64,16.46-30.27,1.31-8.47-2.67-16.05-7.22-23.71-5.87-9.87-12-20.5-18.73-32.47-12.74.07-25.68.06-38.2.05h-12.1s-12.15,0-12.15,0c-12.6,0-25.63.02-38.46-.06-3.14,5.86-6.21,11.18-9.38,16.25h0c-.06.1-.11.18-.15.24Zm50.34,87.72h0,0Zm103.58,10.92h-.68c-7.04,0-14.33-.02-21.77-.38l-14.79-.72,11.67-9.11c12.03-9.39,20.06-20.79,24.55-34.84l3.77-11.8,8.83,15.19c2.08,3.59,4.02,6.94,5.99,10.26,2.52,4.25.36,7.98-.35,9.2h0c-2.02,3.49-4.04,6.98-6.06,10.48l-4.18,7.23c-.63,1.11-2.56,4.49-6.98,4.49Zm-8.39-11.03c2.16.02,4.3.02,6.43.02l3.59-6.22c1.9-3.29,3.8-6.58,5.7-9.86-.73-1.23-1.45-2.47-2.18-3.73-3.49,7.27-7.98,13.83-13.54,19.79Zm53.66-59.87l-4.78-2.82c-2.52-1.49-3.58-3.6-4.16-4.74-.08-.15-.15-.3-.23-.44l-7.16-12.4c-14.06-24.34-28.6-49.52-42.83-74.32-.1-.18-.19-.31-.25-.4-.11,0-.26-.02-.47-.01-4.73.08-9.5.07-14.12.06-5.32-.01-10.81-.03-16.18.11-7.82.22-9.67-5.55-10.28-7.44-1.2-3.72-2.52-7.36-3.92-11.22-.57-1.58-1.15-3.18-1.73-4.78l-1.57-4.4,4.08-2.26c2.67-1.48,4.99-1.4,6.24-1.35.14,0,.28.04.42.01h0c5.16,0,10.33,0,15.49,0,11.06,0,22.5,0,33.74-.06h.11c4.6,0,7.79,1.83,10.04,5.76,16.03,27.97,33.03,57.43,50.53,87.58,2.13,3.67,2.12,7.19-.03,10.77-2.47,4.1-4.81,8.19-7.29,12.52-.96,1.67-1.92,3.35-2.89,5.03l-2.78,4.81Zm-59.76-106.13c4.6,0,7.83,1.89,10.15,5.94,14.22,24.79,28.75,49.96,42.81,74.29l4.52,7.82c1.85-3.22,3.74-6.49,5.66-9.68-17.48-30.11-34.46-59.53-50.47-87.47-.05-.09-.1-.16-.13-.22-.1,0-.23,0-.4,0-11.28.07-22.74.07-33.82.06-3.96,0-7.92,0-11.88,0,1.12,3.1,2.25,6.26,3.27,9.43,5.39-.13,10.82-.12,16.08-.1,4.56.01,9.28.02,13.9-.06.1,0,.21,0,.31,0Zm-47.03,10.92h-66.04l4.74-8.24c.78-1.36,1.58-2.63,2.35-3.87,1.5-2.4,2.92-4.67,3.78-6.89h0c3.66-9.49,10.75-13.63,21.07-12.29,3.91.51,8.02.35,12.37.18,1.29-.05,2.58-.1,3.86-.13,3.27-.11,7.56,1.03,9.37,6.8,1.25,3.97,2.64,7.88,4.12,12.01.6,1.68,1.21,3.38,1.81,5.11l2.56,7.32Zm-46.8-11h31.25c-1.1-3.11-2.16-6.12-3.15-9.21-.87.03-1.75.06-2.62.09-4.61.17-9.38.36-14.2-.27-5.35-.69-7.54.55-9.39,5.34-.55,1.41-1.19,2.76-1.9,4.05Z"/></g></svg>