<?xml version="1.0" encoding="UTF-8"?><svg id="Layer_2" xmlns="http://www.w3.org/2000/svg" viewBox="0 0 127.27 100.61"><defs><style>.cls-1{fill:#231f20;stroke:#231f20;stroke-miterlimit:10;}</style></defs><g id="Layer_3"><path class="cls-1" d="m4.82.5h119.18c.24,1.47.56,2.57.59,3.67.7,27.3,1.4,54.61,2.02,81.91.07,2.87.8,5.85-1.76,8.4-3.02,2.99-6.55,4.43-10.65,4.59-6.12.23-12.25.36-18.37.41-29.3.23-58.61.42-87.91.62-.33,0-.66.01-.99,0-4.94-.1-6.6-1.7-6.42-6.61.29-8.27.61-16.54,1.14-24.79,1.2-18.54.29-37.07-.43-55.59-.18-4.69.76-8.81,3.6-12.61Zm73.1,58.65c1.03-1.8,2.67-3.5,2.99-5.42,1.06-6.38-.7-12.09-5.08-16.96-3.45-3.83-10.19-4.86-14.09-2.96-7.16,3.5-12.45,14.18-10.34,21.79.65,2.35,1.36,4.98,4.16,5.76,4.38,1.23,7.66,3.61,8.85,7.49,2.85.24,5.14.43,7.67.64.09-3.85,1.68-6.89,5.16-8.83.46-.25.58-1.11.86-1.69l-.17.17ZM8.26,91.47c13.12.94,111.06-.54,114.92-1.82-.73-27.2-1.46-54.53-2.21-82.81-13.3,12.29-25.66,23.94-36.59,36.55.46,2.07,1.01,3.67,1.14,5.3.47,5.65-.72,11.02-4.76,15.07-1.83,1.83-3.53,3.26-3.82,5.97-.23,2.14-1.72,3.08-3.82,3.08-1.96,0-3.93-.06-5.89,0-4.32.13-6.48-1.02-8.09-5-.9-2.22-2.15-3.43-4.54-3.96-4.46-.99-7.13-4.18-8.27-8.4-.75-2.79-.74-5.79-1.16-9.45-12.92-10.28-25.4-22.18-36.9-35.77v81.24Zm40.05-52.67c11.89-14.05,23.58-10.36,34.16.42,12-11.72,24-23.45,36.34-35.5H9.92c13.25,12.11,25.68,23.47,38.39,35.07Z"/><path class="cls-1" d="m56.37,48.85c3.99.18,6.6,2.23,8.37,5.38.89,1.58.52,2.22-1.82,5.3-3.45.47-6.9.4-8.8-3.29-1.54-3,.05-5.31,2.25-7.4Z"/><path class="cls-1" d="m78.1,58.98c-.31.04-.63.08-.94.13-4.37.74-6.76.16-7.69-2.3-1.28-3.36.53-5.66,3.3-7.8,1.11.6,2.29,1.13,3.36,1.83,2.33,1.54,3.37,3.56,2.13,6.36-.26.58-.23,1.29-.33,1.94l.17-.17Z"/></g></svg>