<?xml version="1.0" encoding="UTF-8"?><svg id="Layer_2" xmlns="http://www.w3.org/2000/svg" viewBox="0 0 92.5 133.79"><defs><style>.cls-1{fill:#231f20;stroke:#231f20;stroke-miterlimit:10;}</style></defs><g id="Layer_3"><path class="cls-1" d="m36.44,75.48c-9.64-2.63-15.54-8.47-19.6-16.59-.65-1.29-2.72-2.04-4.28-2.63-1-.37-2.3-.05-3.45.09C-.57,57.54.26,58.06.77,48.3c.54-10.29.61-10.45,11.01-10.24,3.34.07,4.92-.92,6.23-4.02,2.9-6.84,8.1-11.82,15-14.41,3.59-1.35,4.98-3.14,4.74-6.75-.14-2.14.44-4.38.01-6.44-1.06-5.19,1.26-6.03,5.87-5.93,12.37.27,12.37.08,11.6,12.37-.07,1.15,0,2.31,0,3.94,11.2,2.96,17.81,10.45,19.96,22.48,4.31-.33,8.54-.6,12.77-1.01,2.7-.26,4.17.65,3.98,3.54-.01.16,0,.33,0,.5-.58,11.65,3.53,14.15-12.53,14.06-3.08-.02-4.75,1.03-5.75,4.54-2.25,7.98-7.77,13.43-15.85,15.67-2.84.79-3.63,2.02-3.57,4.79.16,6.79.15,13.59-.05,20.38-.08,2.66.78,4.06,3.39,4.4,4.13.53,5.19,3.36,5.53,7.01.46,4.94,1.12,9.87,1.9,14.77.23,1.45,1.12,2.8,2.19,5.32-12.64-.71-24.81-1.04-36.91-2.2-9.23-.88-9.19-1.35-7.55-10.58.43-2.44,1.14-4.88,1.23-7.34.19-5.24,1.71-8.89,7.83-9.15,1.07-.05,2.81-2.19,2.94-3.49.77-8.22,1.18-16.48,1.72-25.01ZM41.32,4.03c-.23,4.64-.52,8.6-.6,12.56-.06,2.92-1.67,3.77-4.13,5.13-4.93,2.73-11.48,5.71-13.3,10.22-3.68,9.13-9.8,9.97-17.66,9.27-.27-.02-.56.27-1.17.58-.23,3.67-.46,7.51-.69,11.2,4.08,0,7.55.17,10.99-.06,2.56-.17,3.7.61,4.64,3.14,3.2,8.59,8.99,14.52,18.39,16.27,1.18.22,2.3.82,3.25,1.17-.7,2.09-1.59,3.69-1.72,5.35-.49,6.1-.92,12.23-.97,18.34-.02,2.4,1.01,4.81,1.78,8.16-2.24.55-5.68,1.28-9.04,2.29-1.25.38-3.14,1.26-3.32,2.19-1.12,5.73-1.83,11.54-2.73,17.67h35.46c-.49-4.86-1.16-9.25-1.28-13.66-.08-2.99-1.14-4.44-4.04-5.17-3.19-.81-6.24-2.13-9.36-3.23l.21-1.31c1.23-.44,2.46-.88,3.99-1.42v-29.27c10.5-1.8,18.26-6.39,19.97-17.77.11-.76,1.83-1.69,2.89-1.82,4.25-.52,8.54-.75,13.26-1.13.23-3.62.46-7.12.71-10.88-5.6.25-10.5.46-15.55.68-1.54-11.8-6.93-19.6-18.94-21.55-.71-.11-1.59-2.2-1.54-3.34.18-4.44.71-8.86,1.13-13.63h-10.65Z"/><path class="cls-1" d="m64.64,43.12c-5.11,0-9.31.08-13.51-.09-.63-.03-1.74-1.27-1.74-1.95.04-4.51.31-9.02.54-14.2,7.72,3.05,12.18,7.61,14.7,16.24Zm-10.58-11.1l-1.19.44c-.12,2.37-.25,4.74-.37,7.09h8.41c-2.77-3.05-4.81-5.29-6.85-7.53Z"/><path class="cls-1" d="m41.5,67.3c-7.64-3.14-13.18-6.7-17.18-14.18,6,0,10.94-.09,15.87.11.65.03,1.76,1.55,1.78,2.4.05,3.54-.24,7.09-.46,11.67Zm-12.05-11.07c3.38,2.54,5.77,4.33,8.88,6.67v-6.67h-8.88Z"/><path class="cls-1" d="m24.59,40.24c3.83-5.93,9.29-9.78,16.61-13.02,0,5.16.06,9.18-.07,13.2-.02.58-.93,1.61-1.45,1.62-4.94.12-9.88.07-14.82.07-.09-.63-.19-1.26-.28-1.89Zm13.46-1.28v-7.02c-2.97,2.28-5.45,4.18-7.93,6.09.21.31.42.62.63.93h7.3Z"/><path class="cls-1" d="m50.1,66.77c-.63-.86-.79-.99-.81-1.13-1.92-13.49,1.04-15.62,16.39-10.79-3.86,6.16-9.02,9.77-15.58,11.93Zm2.16-3.66c3.22-2.42,5.43-4.08,8.84-6.64-3.97-.18-6.33-.29-8.84-.4v7.04Z"/></g></svg>