<?xml version="1.0" encoding="UTF-8"?><svg id="Layer_2" xmlns="http://www.w3.org/2000/svg" viewBox="0 0 130.88 139.46"><defs><style>.cls-1{fill:#231f20;stroke:#231f20;stroke-miterlimit:10;}</style></defs><g id="Layer_3"><path class="cls-1" d="m12.09,34.95c-5.93-2.33-6.06-2.96-3.35-16.17-1.4-1.63-2.86-3.34-4.2-4.9,1.82-4.85,5.91-7.27,10.63-5.87,2.92.86,5.6,2.67,8.24,4.29,1.47.9,2.64,2.26,4.55,2.82-1.87-2.28-3.74-4.57-5.91-7.21,4.03-2.76,7.92-2.11,11.29-.85,3.3,1.23,6.35,3.47,9.09,5.76,1.7,1.43,3.29,2.32,5.32,1.8,3.98-1.04,7.99-2.11,11.79-3.64,1.24-.5,2.13-2.39,2.75-3.82.9-2.09,1.42-4.35,2.12-6.6,2.48.39,2.51,2.22,2.88,3.74,1.09,4.38,3.52,7.36,8.14,8.32,1.77.37,3.44,1.22,5.2,1.62,3.32.75,6.18.75,8.92-2.29,3.52-3.91,8.35-5.94,13.78-5.78,1.7.05,3.38.55,6.21,1.05-2.57,3.22-4.44,5.56-6.31,7.9l.45.59c1.53-1.32,3.02-2.69,4.6-3.95,3.91-3.1,8.07-4.98,13.29-3.37,2.66.82,4.39,2.12,5,5.41-1.24,1.49-2.69,3.22-4.24,5.07.43,5.6,6.15,12.44-3.39,16.25-1.98,8.97-1.04,18.05-.03,27.08.34,3.07,2.48,5.36,5.38,6.68,1.46.66,2.98,1.22,5.42,2.21-1.73.93-2.7,1.62-3.78,2-4.76,1.68-7.14,5.01-7.41,10.04-.45,8.09-1.45,16.18.39,24.19,6.27,3.17,6.36,3.64,3.46,16.48,1.41,1.67,2.87,3.4,4.2,4.97-1.82,4.93-6.57,7.27-11.62,5.7-2.16-.67-4.13-2.01-6.1-3.17-1.19-.7-2.23-1.67-3.72-2.08,1.15,1.71,2.29,3.43,3.38,5.05-1.01,2.66-3.15,2.45-5.09,2.41-5.18-.1-9.67-2.05-13.49-5.49-1.1-.99-1.98-2.22-2.69-3.03-5.03-.88-8.91,1.25-13.04,2.33-4.44,1.16-6.02,5.33-8.93,8.31-3.39-2.59-3.74-7.52-8.43-8.36-3.99-.72-7.87-2.09-11.28-3.03-11.03,9.38-17.24,11.31-23.15,7.19,1.51-2.09,3.02-4.18,4.53-6.27-.11-.19-.21-.37-.32-.56-1.38,1.14-2.74,2.3-4.13,3.41-3.81,3.05-7.93,4.56-12.9,3.11-2.66-.78-4.42-2.09-5.04-5.41,1.23-1.48,2.67-3.22,4.25-5.14-.45-5.57-6.19-12.45,3.37-16.2,2.12-8.83.91-17.75.14-26.63-.29-3.31-2.42-5.72-5.52-7.1-1.48-.66-2.98-1.29-5.55-2.4,2.07-.96,3.24-1.59,4.46-2.06,4.33-1.64,6.6-4.75,6.86-9.37.45-8.25,1.63-16.51-.45-25.04Zm20.59-18.12c-3.23,1.77-5.51.92-7.58-.64-1.58-1.19-3-2.59-4.5-3.9-2.88-2.51-6.12-3.12-9.69-1.8-3.1,1.15-3.77,3.27-1.29,5.56,2.4,2.22,2.5,4.3,1.34,7.06-1.08,2.58-1.99,5.3-.56,8.36,3.59.46,5.27,2.77,5.28,6.38.03,6.42-.16,12.85.09,19.26.22,5.83-1.18,10.76-6.67,14.22,5.04,3.34,6.85,7.71,6.64,13.29-.24,6.41.06,12.84.1,19.26.02,4.04-1.6,6.95-6.39,7.74.41,2.62.38,5.01,1.2,7.06,1.29,3.23,1.7,5.75-1.44,8.34-2.04,1.69-1.27,3.89,1.32,4.98,3.49,1.47,6.79,1.06,9.75-1.4,1.78-1.48,3.45-3.11,5.32-4.46,2.09-1.51,4.36-2.18,6.88-.14-2.15,2.52-4.15,4.87-6.62,7.76,5.67,1.07,10.33.23,13.51-3.84,3.58-4.59,7.91-4.93,12.85-3.68,2.56.64,5.21,1.31,7.48,2.58,2.18,1.22,3.91,3.23,6.08,5.11,2.19-5.44,7.1-6.06,11.73-7.34,5.66-1.57,10.46-1.57,14.63,3.73,3,3.8,7.65,4.61,12.94,3.39-1.4-1.76-2.4-3.07-3.47-4.32-.97-1.15-2.02-2.24-3.29-3.65,3.32-1.54,5.58-.92,7.64.72,1.68,1.34,3.26,2.81,4.91,4.19,2.8,2.32,5.95,2.77,9.3,1.52,3.13-1.17,3.78-3.27,1.3-5.56-2.39-2.22-2.52-4.3-1.33-7.05,1.12-2.59,1.92-5.32.59-8.27-3.25-.61-5.26-2.4-5.26-6,0-6.75.08-13.51-.14-20.26-.18-5.64,1.36-10.34,5.88-13.18-1.97-2.97-5.05-5.55-5.3-8.38-.76-8.52-.45-17.13-.5-25.71-.02-3.61,1.73-5.9,6.13-6.38-.43-2.84-.44-5.52-1.3-7.88-1.07-2.93-1.39-5.12,1.27-7.51,2.47-2.22,1.73-4.38-1.4-5.53-3.59-1.32-6.81-.62-9.68,1.86-1.63,1.41-3.2,2.89-4.93,4.14-2.09,1.5-4.34,2.03-6.96.33,2.24-2.73,4.25-5.17,6.64-8.08-6.35-.78-10.97.51-14.47,5.09-1.8,2.36-4.36,3.9-7.34,3.37-6.6-1.19-13.65-1.67-17.41-8.1-1.72,1.57-3.14,3.5-5.04,4.43-2.79,1.37-5.92,2.04-8.92,2.97-5.1,1.58-9.25.65-12.75-3.82-3.16-4.03-7.86-4.94-12.99-3.16,2.1,2.41,4.11,4.71,6.39,7.32Zm61.94,93.84c.45-8.37.85-16.72-6.44-23.16,2.15,7.72,4.29,15.44,6.44,23.16Zm-53.69-11.96c2.72-3.92,5.74-7.63,8.55-11.49.53-.73.71-1.71,1.06-2.57-9.05,8.46-17.01,20.98-17.02,25.59,2.46-3.85,4.8-7.79,7.41-11.54ZM102.13,10.65c.38-.2.61-.64.55-1.06"/></g></svg>