<?xml version="1.0" encoding="UTF-8"?><svg id="Layer_2" xmlns="http://www.w3.org/2000/svg" viewBox="0 0 105.57 124.9"><defs><style>.cls-1{fill:#231f20;stroke:#231f20;stroke-miterlimit:10;}</style></defs><g id="Layer_3"><path class="cls-1" d="m103.27,55.14c.59,5.76,1.22,11.53,1.73,17.3.13,1.48.05,3.01-.18,4.47-.37,2.28-1.07,4.51-1.44,6.79-.65,4-1.92,7.64-5.97,9.31-2.3.95-2.39,2.55-2.46,4.61-.52,15.37-4.03,20.23-18.62,24.64-11.31,3.42-22.55,2.8-33.43-2.09-6-2.69-9.53-7.17-10.26-13.79-.26-2.35-.87-4.69-.95-7.04-.15-4.51-.38-8.65-3.57-12.59-2.28-2.8-2.32-7.11-4.96-10.23-1.07-1.26-.83-4.22-.28-6.14.82-2.86.56-5.38-.15-8.19-2.42-9.57-2.52-19.11.57-28.66,1.25-3.87,3.13-6.45,7.3-7.16,2.32-.4,4.57-1.2,6.86-1.81,2.63-.71,3.91.19,4.48,2.98.62,3.06,2.2,3.51,4.77,1.81.24-.16.19-.77.28-1.17-3.86-.07-2.57-5.81-7.19-6.04-2.94-.15-3.1-7.46-.04-9.01,3.61-1.83,7.47-3.66,11.4-4.24,13.17-1.94,25.72.26,37.37,6.98,10.4,6,14.32,15.6,15.01,26.94.25,4.08.04,8.19.04,12.28-.1.02-.2.03-.3.05Zm-3.67.42c.11-.01.22-.03.33-.04,0-3.88.21-7.78-.04-11.64-.66-10.42-4.25-19.34-13.8-24.83-10.66-6.12-22.17-8.2-34.26-6.37-3.1.47-6.04,2.11-9,3.33-.44.18-.87,1.02-.84,1.54.02.41.83,1.19,1.12,1.12,3.38-.83,3.23,2.79,4.81,3.7,5.09,2.95,3.4,7.85,4.19,11.96.35,1.86-1.28,2.87-2.96,1.6-2.15-1.63-4.05-1.9-6.49-.59-2.03,1.09-2.97-.18-3.56-2.23-1.37-4.69-1.45-4.54-5.94-3.57-3.52.76-5.68,2.56-6.59,6.15-1.95,7.64-2.3,15.24-.67,23.02.78,3.72,1.34,7.66.97,11.39-.55,5.58.05,7.14,5.68,8.64,2.9.77,5.95,1.11,8.76,2.1,5.2,1.84,7,5.06,6.33,10.48-.19,1.49-.59,2.98-.62,4.47-.06,3.01.61,3.45,3.82,3.1.94-.1,2.28-.26,2.79.25,1.79,1.78,3.19,1.6,4.96-.01.51-.46,1.87-.17,2.76.05.98.25,2.65,1.26,2.69,1.19,2.03-3.6,6.19.92,8.36-2.17.19-.27,1.53.22,2.31.44,3.42.97,4.26.69,5.14-2.35.47-1.62.51-3.38.64-5.09.46-5.91,2.39-8.42,8.09-10.19,1.64-.51,3.36-.73,5.01-1.2,1.64-.47,3.35-.89,4.84-1.68,2.3-1.22,3.13-3.1,2.75-5.91-.76-5.52-1.08-11.11-1.58-16.67Zm-68.87,27.49c.35.83.46,1.91,1.03,2.3,4.13,2.8,4.08,7.24,4.61,11.41.35,2.77.39,5.58.56,8.37.35,5.47,3.12,9.38,8.03,11.55,11.86,5.23,23.8,5.54,35.42-.6,5.53-2.92,9.6-7.26,9.71-14.15.04-2.36.37-4.71.52-7.06.22-3.44-.97-7.78,4.94-7.44.17.01.45-.17.53-.33.44-.93,1.25-1.92,1.17-2.83-.16-1.85-1.6-.76-2.47-.64-6,.82-6.79,1.59-7.87,7.4-.16.85-.39,1.68-.51,2.53-.61,4.38-3.76,7.96-3.6,12.72.07,2.07-2.23,3.58-4.74,3.44-4.41-.25-8.72,2.56-13.19.4-4.9,2.64-9.64-.64-14.49-.42-3.04.14-4.56-1.9-5.45-4.6-.79-2.4-1.81-4.72-2.57-7.12-.51-1.6-1-3.27-1.06-4.93-.34-8.29-1.61-9.56-10.58-10.01Zm44.22,22.12c1.15.36,1.39.52,1.55.47.9-.29,1.77-.64,2.66-.97-.77-.43-1.54-1.23-2.31-1.22-6.08.04-12.16.28-18.24.35-2.08.02-4.16-.4-6.23-.35-1.04.02-2.07.65-3.11,1,1.05.47,2.06,1.06,3.15,1.37,1.61.45,3.26.78,4.91.98,1.45.17,3.38.7,4.32,0,2.66-1.98,4.85.01,7.24.07,2.27.05,4.56-1.23,6.06-1.69Z"/><path class="cls-1" d="m7.53,4.88c.83,1.45,1.67,2.9,2.49,4.36.76,1.36,1.74,1.74,3.12.85.71-.46,1.45-1.02,2.24-1.15.68-.11,1.62.14,2.11.59.28.26.1,1.69-.21,1.83-4.49,2-3.33,4.86-1.33,7.91.14.22.21.57.15.82-.09.34-.28.85-.53.92-.31.09-.84-.1-1.07-.35-.47-.52-.8-1.15-1.18-1.75q-1.97-3.17-5.3-1.12c-1.8,1.11-3.57,2.29-5.42,3.31-.52.29-1.29.12-1.94.16-.04-.67-.3-1.42-.07-1.98.3-.73.91-1.4,1.53-1.92,1.07-.91,2.27-1.68,3.39-2.53,1.11-.84,2.84-1.54,3.12-2.61.26-.98-1.21-2.32-1.61-3.6-.34-1.1-.25-2.33-.34-3.51.28-.08.57-.15.85-.23Z"/><path class="cls-1" d="m23.64,7.95c.44-.71.88-1.43,1.33-2.14.42-.66.32-1.2-.48-1.65-.41-.23-.88-.45-1.16-.79-.24-.29-.39-.79-.32-1.12.04-.19.76-.43.91-.31,2.19,1.65,3.19.46,4.05-1.15.06-.12.21-.23.34-.25.19-.04.47-.06.58.04.13.13.19.41.14.58-.11.33-.31.63-.48.94q-.92,1.63.96,2.73c1.02.59,2.06,1.15,3.06,1.79.28.18.41.57.62.87-.3.17-.58.46-.9.48-.42.02-.9-.11-1.32-.28-.72-.3-1.42-.68-2.13-1.02-.7-.33-1.51-.98-2.09-.87-.53.1-.74,1.09-1.23,1.56-.41.41-1.02.64-1.53.95-.11-.12-.23-.23-.34-.35Z"/><path class="cls-1" d="m13.84,40.22c-.78-.83-1.57-1.65-2.34-2.49-.72-.78-1.43-.87-2.2-.06-.4.42-.8.91-1.3,1.12-.43.18-1.09.17-1.49-.05-.23-.13-.34-1.1-.15-1.24,2.65-2.05,1.42-3.75-.39-5.44-.13-.12-.23-.34-.23-.52,0-.24.05-.61.2-.69.19-.11.57-.07.76.06.39.27.72.63,1.06.97q1.81,1.78,3.69-.11c1.02-1.02,1.99-2.09,3.06-3.06.3-.27.83-.28,1.26-.41.13.43.42.89.36,1.3-.08.53-.38,1.07-.7,1.52-.56.77-1.23,1.47-1.84,2.22-.6.73-1.63,1.47-1.65,2.23-.01.69,1.17,1.34,1.64,2.12.4.67.54,1.5.79,2.26-.18.1-.35.19-.53.29Z"/><path class="cls-1" d="m40.33,73.49c-4.73,0-7.85-1.94-9.33-6.41-.93-2.83-1.47-5.85-1.72-8.82-.26-3.12.92-6,3.35-8.06,4.98-4.25,10.93-5.06,17.03-3.73,4.47.97,7.84,7.37,7.23,12.48-.92,7.69-8.72,14.54-16.56,14.54Zm4.59-24.44c-3.09,1.3-6.46,2.17-9.18,4-3.12,2.09-3.49,5.72-1.84,9.25,1.27,2.73,3.85,3.94,7.54,3.53,4.71-.52,8.78-4.41,9.53-9.11.78-4.84-.95-6.93-6.05-7.67Z"/><path class="cls-1" d="m98.54,60.47c-.11,8-3.56,10.89-11.56,9.24-3.54-.73-7.15-1.77-10.35-3.41-4.85-2.49-6.41-7.35-4.83-12.75,1.66-5.69,5.84-8.85,11.47-8.37,2.34.2,4.71.69,6.92,1.48,5.87,2.09,8.45,6.53,8.35,13.81Zm-14.47-11.56c-5.72.11-9.88,4.93-8.23,8.18,3.52,6.96,11.22,8.07,15.88,3.16,2.91-3.07,2.71-6.39-.87-8.58-2.46-1.51-5.41-2.22-6.78-2.75Z"/><path class="cls-1" d="m62.98,82.46c-6.93.27-10-4.16-6.93-11.75.32-.79.69-1.57,1.16-2.28,5.53-8.32,6.55-8.19,13.74-.98,1.42,1.42,2.24,3.68,2.75,5.7,1.24,4.85-1.92,8.9-6.98,9.29-.85.07-1.71,0-3.75,0Zm2.52-4.6c4.41.32,5.89-1.77,3.59-5.54-1.25-2.05-3.44-3.53-5.21-5.26-1.39,1.77-3.13,3.37-4.11,5.34-2.23,4.5-1.16,5.85,3.88,5.46.61-.05,1.23,0,1.84,0Z"/></g></svg>