<?xml version="1.0" encoding="UTF-8"?><svg id="Layer_2" xmlns="http://www.w3.org/2000/svg" viewBox="0 0 118.41 119.85"><defs><style>.cls-1{fill:#231f20;stroke:#231f20;stroke-miterlimit:10;}</style></defs><g id="Layer_3"><path class="cls-1" d="m77.55,2.99c17.24,5.73,29.84,16.54,36.33,33.51,5.2,13.6,5.33,27.39.55,41.24-9.73,28.16-35.59,45.19-64.17,40.97C20.71,114.33,4.43,95.53.83,61.98-2.31,32.86,17.32,10.51,51.76,1.36c13.39-1.75,17.12-.65,25.8,1.63ZM9.12,38.86c12.34,0,23.47.06,34.6-.09,1.27-.02,3.13-.93,3.7-1.98,5.39-9.97,10.57-20.06,15.86-30.22C42.57,3.12,19.69,16.31,9.12,38.86Zm80.84,60.54c17.4-15.02,24.49-38.34,17.09-54.41-8.65,5.51-17.37,10.78-25.69,16.61-1.61,1.13-2.83,4.84-2.23,6.74,3.15,10.14,6.94,20.09,10.84,31.06Zm-33.83-20.23c-9,7.77-17.81,15.37-26.83,23.17,18.96,11.69,43.37,11.24,55.73-.82-9.49-7.34-18.93-14.64-28.9-22.35Zm-20.47-15.33c-9.25-6.69-18.6-13.47-28.3-20.48-5.57,22.9.91,43.08,17.31,55.15,3.62-11.42,7.2-22.73,10.99-34.66ZM68.88,6.66c1.27,11.5,2.4,21.73,3.56,32.23h33.72c-6.99-16.61-18.58-27.18-37.29-32.23Zm.01,37.58c-18.83-2.59-20.66-1.64-25.89,14.25-.56,1.7-.29,4.59.82,5.77,9.05,9.6,11.58,9.43,22.46,2.29,5.03-3.3,6.96-6.5,4.75-12.26-1.16-3.03-1.41-6.42-2.15-10.04Zm-8.92,32.31c7.71,5.92,14.87,11.41,23.03,17.67-3.42-9.88-6.39-18.43-9.56-27.58-4.58,3.37-8.82,6.48-13.48,9.9ZM14.97,43.5c8.23,5.85,15.19,10.8,22.64,16.09,2.29-5.72,4.21-10.52,6.44-16.09H14.97Zm24.5,23.18c-3.07,9.6-5.82,18.18-9.13,28.55,8.29-7.01,15.05-12.73,22.15-18.73-4.12-3.11-7.96-6-13.02-9.82Zm28.4-28.09c-.99-8.4-1.87-15.84-3.01-25.52-5.04,9.66-9.03,17.31-13.31,25.52h16.32Zm8.52,20.54c8.07-5.17,15.14-9.7,23.68-15.17h-26.46c.91,4.97,1.72,9.43,2.77,15.17Z"/></g></svg>