<?xml version="1.0" encoding="UTF-8"?><svg id="Layer_2" xmlns="http://www.w3.org/2000/svg" viewBox="0 0 80.13 134.45"><defs><style>.cls-1{fill:#231f20;stroke:#231f20;stroke-miterlimit:10;}</style></defs><g id="Layer_3"><path class="cls-1" d="m73.59,17.59v95.98c6.23,2.1,7.84,7.62,3.9,12.72-.76.98-1.36,2.11-1.83,3.26-1.6,3.89-5.23,5.3-8.25,2.58-2.06-1.86-3.8-1.75-6.21-1.39-13.97,2.12-28,2.88-42.05.88-1.84-.26-3,.16-4.44,1.21-2.54,1.86-4.37,1.32-6.36-1.15-.99-1.22-2.08-2.43-3.34-3.34-2.7-1.94-4.99-4.3-4.41-7.74.61-3.58,2.59-6.47,6.93-6.75V18.08c-.75-.19-1.51-.34-2.24-.57-2.19-.67-4.35-1.9-4.07-4.31.22-1.9,1.49-3.93,2.86-5.37,1.03-1.09,3.23-1.04,4.37-2.09,1.04-.94,1.36-2.68,2.31-4.74,1.1,1.59,1.78,2.57,2.15,3.12,9.45-.64,18.66-1.83,27.86-1.74,9.23.08,18.44,1.42,27.91,2.23.42-.82.98-1.91,1.47-2.85,3.34-.03,1.74,2.93,3,4.01,5.59,1.99,5.67,2.08,5.57,6.06-.1,4.01-.31,4.27-5.13,5.76Zm-3.93,98.48c1.13-10.28.65-96.2-.63-99.57-1.62,3.49-3.13,6.74-4.62,9.96-1.06,0-1.87.02-2.67,0-.68-.02-1.37-.1-2.39-.17,3.59,10.72.81,19.69-5.55,27.85-1.93,2.47-4.06,4.8-6.22,7.07-3.98,4.17-3.99,4.1-.1,8.3,7.24,7.81,12.5,16.7,13.84,27.4.59,4.69-.64,9.53,2.34,13.96,1.08,1.6.85,4.08,1.28,6.48,1.8-.48,3.19-.85,4.73-1.27ZM12.93,16.86c-.39.11-.78.22-1.17.32.3,31.8.59,63.6.89,95.4,1.28-.99,1.63-2.07,2.27-2.96.76-1.05,1.75-1.92,2.56-2.79-1.31-14.75,3.21-27.09,14.16-37,1.2-1.09,2.19-2.4,3.42-3.77-2.8-2.77-5.43-5.26-7.94-7.86-4.78-4.96-8.89-10.48-9.43-17.53-.33-4.31.63-8.72,1.05-13.45-6.05-.27-3.63-6.83-5.82-10.36Zm44.35,89.81c.4-3.21,1.09-5.61.93-7.95-.91-12.85-8.45-22.26-16.78-31.15-.55-.58-2.85-.26-3.78.41-1.57,1.13-2.69,2.87-4,4.35-5.73,6.55-10.25,13.77-12.13,22.38-.83,3.82-1.35,7.71,1.09,11.8,3.92-3.78,7.52-7.37,11.26-10.81,5.48-5.05,9.18-4.64,13.37,1.38,2.47,3.54,5.16,6.83,10.04,9.58Zm.32-68.39c0-1.97.31-4.48-.06-6.88-.84-5.33-2.07-6.44-7.42-6.61-6.27-.2-12.55-.26-18.82-.08-7.82.23-10.08,2.72-9.95,10.64.03,1.88.54,3.74.88,5.99,5.39-3.27,9.99-2.27,14.46.63,1.25.81,2.53,1.55,3.82,2.3,3.43,2,6.44,1.61,9.48-1.09,2.02-1.79,4.58-2.98,7.62-4.9Zm17.56,79.04c-11.04,4.75-22.74,5.91-34.51,5.5-11.77-.42-23.82.3-34.72-5.66-2,5.84-1.26,7.68,3.89,8.67,6.17,1.19,12.4,2.18,18.65,2.77,14.45,1.37,28.79.27,42.91-3.08,4.9-1.16,5.44-2.54,3.79-8.19Zm-57.92.66c15.03,2.03,29.6,2.29,44.42.08-.57-3.2-1.04-5.9-1.54-8.73-1.67,0-3-.2-4.24.03-9.68,1.82-19.41,1.57-29.16.76q-7.79-.65-9.47,7.86Zm2.45-94.94c14.51-2.99,28.66-2.17,42.81.03,1.12-2.69,2.02-4.86,3.09-7.42-16.46-2.29-32.35-2.82-48.6-.66.93,2.77,1.71,5.08,2.7,8.05Zm36.73,20.71c-.29-.23-.58-.47-.87-.7-1.03.69-2.22,1.22-3.05,2.09-4,4.21-8.67,4.81-14.89,1.17-1.85-1.09-3.65-2.31-5.61-3.16-3.47-1.52-5.34-.94-8.23,2.2,2.76,7.14,8.48,12.05,13.63,17.37,1.58,1.63,3.29,1.18,4.74-.42,3-3.31,6.19-6.48,8.94-9.98,2.07-2.63,3.58-5.69,5.34-8.56ZM5.23,11.3c.19.58.37,1.16.56,1.73,23.16-3.66,46.26-3.45,69.25.95.4-4.26.36-4.31-3.59-5.1-14.67-2.93-29.48-4.05-44.38-2.9-6.05.47-12.03,1.99-18,3.23-1.36.28-2.56,1.37-3.83,2.09Zm46.4,95.75c-2.14-2.3-3.43-3.56-4.57-4.95-1.15-1.4-2.18-2.9-3.23-4.38-1.4-1.96-2.94-3.05-5.4-1.54-2.31,1.41-9.07,8.16-10.54,10.87h23.75Z"/><path class="cls-1" d="m38.73,77.06c2.39,2.19,2.65,3.91.53,6.14-2.44-2.04-2.37-3.76-.53-6.14Z"/><path class="cls-1" d="m39.33,68.46c.72,1.45,1.48,2.27,1.4,3-.08.73-1,1.37-1.55,2.05-.49-.72-1.33-1.42-1.36-2.16-.04-.73.74-1.5,1.51-2.89Z"/><path class="cls-1" d="m41.37,87.47c-1.13.57-1.87,1.26-2.37,1.12-.5-.15-.97-1.1-1.03-1.74-.03-.32.97-1.12,1.33-1.02.63.17,1.13.85,2.08,1.65Z"/></g></svg>