<?xml version="1.0" encoding="UTF-8"?><svg id="Layer_2" xmlns="http://www.w3.org/2000/svg" viewBox="0 0 138.86 147.54"><defs><style>.cls-1{fill:#231f20;stroke:#231f20;stroke-miterlimit:10;}</style></defs><g id="Layer_3"><path class="cls-1" d="m138.2,88.4c-15.68-3.94-23.2,6.2-29.89,16.53-7.85,12.1-5.09,23.53,5.99,33.46-.62.36-1.24.72-1.86,1.08-1.16-.58-2.87-.86-3.39-1.8-6.49-11.83-17.09-13.95-28.92-11.66-11.51,2.23-20.77,8.27-26.25,19.16-.2.4-.74.63-1.85,1.52-.39-1.4-1.03-2.46-.89-3.42,1.9-13.46-3.64-25.24-15.29-31.54-8.55-4.62-17.48-5.78-26.76-1.95-.92.38-2.22-.16-3.35-.28.44-.77.68-1.89,1.35-2.27,7.47-4.3,13.03-10.09,12.81-19.19-.27-10.88-4.41-20.26-13.07-27.27-1.88-1.52-3.93-2.83-5.87-5.39,1.52-.09,3.1-.53,4.54-.22,10.81,2.29,18.41-.99,23.89-10.63,4.42-7.79,6.51-16.32,6.59-25.16.03-2.88-2.14-5.75-3.13-8.68-.46-1.35-.49-2.83.05-4.75,6.23,12.11,16.82,14.14,28.35,13.21,11.65-.93,21.4-5.27,24.8-18.41.54.28,1.07.56,1.61.84-.08,1.49.28,3.19-.3,4.45-2.24,4.81-.36,8.57,2.47,12.3,6.17,8.13,14.41,12.35,24.49,13.41,4.24.45,7.3-1.43,10.2-4.07,1.22-1.11,2.46-2.26,3.88-3.09.63-.37,1.71.02,2.58.06-.21.85-.26,1.79-.68,2.51-.4.68-1.12,1.26-1.84,1.64-6.88,3.62-8.59,10.11-9.29,17.01-1.15,11.24.41,22.05,5.25,32.41,1.79,3.83,4.17,6.06,8.43,6.42,1.65.14,3.24.96,4.85,1.47l.52,2.32Zm-15.44-5.96c-7.3-14.36-9.14-28.55-6.39-43.56-4.4,4.51-11.91,6.06-12.73,13.19-.69,5.97-.47,12.14.19,18.13.71,6.38,3.75,11.12,11.37,10.9,2.22-.06,4.46.76,7.57,1.34ZM81.11,15.61c-13.01,8.37-25.97,9.73-40.36,3.31,2.29,4.57,4.09,8.37,6.07,12.07,4.45,8.32,23.2,9.75,28.93,2.23.39-.51.65-1.15.83-1.78,1.45-5.01,2.88-10.02,4.54-15.84Zm3.7,1.62c-6.05,12.75-4.97,19.72,3.76,25.48,8.91,5.87,15.89,3.86,25.55-7.49-12.64-1.3-22.47-7.16-29.31-17.99Zm-45.58,7.48c-2.48,14.1-6.34,26.67-20.19,33.91,2.8.86,4.83,1.51,6.87,2.11,9.18,2.67,13.61.27,17.91-8.4,5.05-10.18,1.86-18.74-4.59-27.61Zm56.86,95.65c-6.92-12.28-9.95-14.18-19.44-12.59-11.55,1.93-15.21,6.21-17.7,21.15,11.23-8.01,23.3-11.23,37.15-8.56Zm-72.55-22.09c12.17-6.06,15.36-6.48,12.8-19.05-2.62-12.87-7.05-15.46-19.92-17.06,8.34,14.81,9.54,20.78,7.12,36.1Zm31.56,28.52c6.47-14.87.26-22.5-6.73-27.2-7.74-5.2-16.67-4-23.37,2.85,14.22,2.59,24.37,10.29,30.1,24.36Zm63.36-40.97c-10.04-4.16-16.43-2.77-21.78,5.55-6.94,10.79-6.58,16.08,2.72,26.21,1.43-13.7,7.89-24.15,19.06-31.76Zm-16.89-7.21c-1.03-8.86-2.03-17.4-3-25.76-3.53,2.81-8.06,6.11-12.22,9.83-3.55,3.18-2.13,12.81,1.92,13.74,4.64,1.07,9.4,1.57,13.3,2.19Zm-23.44-39.83c-.93,3.86-1.77,8.57-3.25,13.07-.98,2.98-.15,5.19,2.21,6.21,2.35,1.02,5.84,2.09,7.69,1.06,4.29-2.38,7.89-6.01,10.89-8.42-5.95-4.05-11.63-7.91-17.54-11.92Zm-26.8.77c2.71,5.13,4.67,9.73,7.47,13.74,1.12,1.6,4.14,2.7,6.2,2.56,2.11-.14,5.21-1.6,5.93-3.31,1.75-4.13,2.36-8.75,3.68-14.2-7.95,4.05-15.3,4.18-23.29,1.2Zm33.76,63.55c-1.75-2.81-3.4-6.79-6.25-9.5-1.74-1.66-5.4-2.01-8.08-1.75-1.78.18-4.28,2.17-4.84,3.88-1.39,4.28-1.85,8.85-2.51,12.36,7.09-1.63,14.17-3.26,21.68-4.98Zm14.2-21.3c-3.15-.56-7.17-1.42-11.22-1.96-4.46-.59-9.69,5.2-7.82,8.84,2.29,4.45,5.27,8.55,7.32,11.8,3.91-6.22,7.76-12.36,11.73-18.68Zm-39.88,24.85c.52-.06,1.04-.12,1.55-.19,0-4.81.65-9.73-.18-14.39-.8-4.5-6.1-7.13-9.45-5.45-3.45,1.74-6.69,3.88-10.85,6.32,9.06,1.9,14.9,6.61,18.93,13.7Zm-19.51-41.81c1.42.43,3.92,1.21,6.44,1.94,4.98,1.44,7.05.17,8.86-4.67,2.67-7.14-2.59-11.57-4.56-16.32-3.51,6.22-7.04,12.5-10.74,19.06Zm1.6,23.46c3.23-2.91,10.35-2.96,9.72-10.45-.51-5.99-4.83-8.7-14.42-9.96,1.51,6.56,3.09,13.43,4.7,20.41Zm33.76-.82c-1.88-3.06-3.65-5.94-6.01-9.78-.82,4.25-1.43,7.38-2.12,10.95,2.94-.42,5.32-.77,8.13-1.18Zm-5.52-28.7c-2.79.5-4.97.9-7.48,1.35,1.77,3.31,3.38,6.32,5.49,10.26.78-4.55,1.33-7.78,1.99-11.61Zm-5.96,29.84c.59-3.84,1.07-6.94,1.67-10.88-3.28,2.07-5.71,3.61-8.23,5.21,2.21,1.91,4.13,3.57,6.56,5.66Zm-4.59-26.83c-1.48,2.89-2.64,5.15-3.88,7.57,3.04.78,5.75,1.47,9.22,2.36-2.04-3.8-3.59-6.66-5.35-9.93Zm21.58,5.31c-2.84,2.31-5.15,4.19-8.22,6.68,3.78.61,6.46,1.04,9.45,1.52-.41-2.75-.77-5.13-1.23-8.2Zm-9.63,3.44c3.27-2.7,5.73-4.72,8.43-6.95-2.3-1.28-4.18-2.33-6.4-3.57-.65,3.38-1.24,6.4-2.03,10.52Zm-7.9,4.54c-3.67-1.01-6.44-1.77-9.63-2.65.52,2.8.94,5.05,1.46,7.81,2.81-1.78,5.12-3.24,8.17-5.16Z"/></g></svg>